<svg xmlns="http://www.w3.org/2000/svg" xmlns:xlink="http://www.w3.org/1999/xlink" width="194" height="194" viewBox="0 0 194 194">
  <defs>
    <filter id="Elipse_5144" x="0" y="0" width="194" height="194" filterUnits="userSpaceOnUse">
      <feOffset dy="3" input="SourceAlpha"/>
      <feGaussianBlur stdDeviation="3" result="blur"/>
      <feFlood flood-opacity="0.161"/>
      <feComposite operator="in" in2="blur"/>
      <feComposite in="SourceGraphic"/>
    </filter>
  </defs>
  <g id="Grupo_936605" data-name="Grupo 936605" transform="translate(-1014 -903)">
    <g transform="matrix(1, 0, 0, 1, 1014, 903)" filter="url(#Elipse_5144)">
      <circle id="Elipse_5144-2" data-name="Elipse 5144" cx="88" cy="88" r="88" transform="translate(9 6)" fill="#fff"/>
    </g>
    <g id="equipo" transform="translate(1065 951)">
      <path id="Trazado_678110" data-name="Trazado 678110" d="M169.943,19.462l-6.328-6.328L159.2,16.01a23.649,23.649,0,0,0-6.89-2.857L151.218,8H142.27l-1.09,5.153a23.649,23.649,0,0,0-6.89,2.857l-4.419-2.876-6.328,6.328,2.291,5.464.218,11.409h2.8a17.9,17.9,0,1,1,35.792,0h2.983l-.012-11.409Zm0,0" transform="translate(-100.512 -6.509)" fill="#fcd770"/>
      <path id="Trazado_678111" data-name="Trazado 678111" d="M128.184,80.543l1.427,3.4.03,11.409h2.983a17.788,17.788,0,0,1,3.286-10.311A11.868,11.868,0,0,0,128.184,80.543Zm0,0" transform="translate(-104.288 -65.528)" fill="#ffc729"/>
      <path id="Trazado_678112" data-name="Trazado 678112" d="M333.795,80.6a11.925,11.925,0,0,0-7.771,4.4,17.808,17.808,0,0,1,3.351,10.4h2.983l-.012-11.409Zm0,0" transform="translate(-265.247 -65.576)" fill="#ffc729"/>
      <path id="Trazado_678113" data-name="Trazado 678113" d="M320.809,133.284v-7.273a5.967,5.967,0,0,0-4.518-5.788l-7.412-1.853,0-2.7a8.938,8.938,0,0,0,4.477-7.743v-2.607a9.2,9.2,0,0,0-8.672-9.319,8.949,8.949,0,0,0-9.224,8.944v2.983a8.936,8.936,0,0,0,4.474,7.741v2.7l-7.412,1.854A5.964,5.964,0,0,0,288,126.011v7.273Zm0,0" transform="translate(-234.312 -78.105)" fill="#ccd1d9"/>
      <path id="Trazado_678114" data-name="Trazado 678114" d="M299.931,227.142a8.912,8.912,0,0,0-3.209-6.838l-4.2,1.052A5.964,5.964,0,0,0,288,227.142v7.273h11.931Zm0,0" transform="translate(-234.312 -179.236)" fill="#aab2bd"/>
      <path id="Trazado_678115" data-name="Trazado 678115" d="M64.809,133.284v-7.273a5.967,5.967,0,0,0-4.518-5.788l-7.412-1.853,0-2.7a8.938,8.938,0,0,0,4.477-7.743v-2.607a9.2,9.2,0,0,0-8.672-9.319,8.949,8.949,0,0,0-9.224,8.944v2.983a8.936,8.936,0,0,0,4.474,7.741v2.7l-7.412,1.854A5.964,5.964,0,0,0,32,126.011v7.273Zm0,0" transform="translate(-26.035 -78.105)" fill="#ccd1d9"/>
      <path id="Trazado_678116" data-name="Trazado 678116" d="M155.931,227.136a5.966,5.966,0,0,0-4.518-5.788l-4.2-1.052A8.919,8.919,0,0,0,144,227.136v7.273h11.931Zm0,0" transform="translate(-117.156 -179.23)" fill="#aab2bd"/>
      <path id="Trazado_678117" data-name="Trazado 678117" d="M192.809,133.284v-7.273a5.967,5.967,0,0,0-4.518-5.788l-7.412-1.853,0-2.7a8.938,8.938,0,0,0,4.477-7.743v-2.607a9.2,9.2,0,0,0-8.672-9.319,8.949,8.949,0,0,0-9.224,8.944v2.983a8.936,8.936,0,0,0,4.474,7.741v2.7l-7.412,1.854A5.964,5.964,0,0,0,160,126.011v7.273Zm0,0" transform="translate(-130.173 -78.105)" fill="#ccd1d9"/>
      <g id="Grupo_936604" data-name="Grupo 936604" transform="translate(5.965 40.683)">
        <path id="Trazado_678118" data-name="Trazado 678118" d="M320.809,229.933a5.966,5.966,0,0,0-4.518-5.788l-1.644-.411L294.72,234.223h-.337L288,232.4v4.805h32.809Zm0,0" transform="translate(-240.277 -222.71)" fill="#aab2bd"/>
        <path id="Trazado_678119" data-name="Trazado 678119" d="M192.809,252.793l-2.228,1.172h-.337l-8.97-2.562a10.839,10.839,0,0,0-2.4-.379l-6.514-2.083A19.838,19.838,0,0,0,162,248.477l-1.933.448a5.683,5.683,0,0,0-.064.75v7.273h32.809Zm0,0" transform="translate(-136.139 -242.452)" fill="#aab2bd"/>
        <path id="Trazado_678120" data-name="Trazado 678120" d="M57.858,224.263l-6.471,1.5v-2.2l-9.13-5.326-5.739,1.435A5.967,5.967,0,0,0,32,225.461v7.273H64.809v-7.273a5.934,5.934,0,0,0-.216-1.514,19.2,19.2,0,0,0-6.735.316Zm0,0" transform="translate(-32 -218.238)" fill="#aab2bd"/>
      </g>
      <path id="Trazado_678121" data-name="Trazado 678121" d="M121.681,286.939l-12.6-11.342-2.4-8.615L99.853,264.8a16.831,16.831,0,0,0-8.779-.4l-17.583,4.073L72,280.4l10.514,6.607,19.127,15.95,2.305,2.034a3.049,3.049,0,0,0,2.016.762h.275a3.047,3.047,0,0,0,1.951-5.388,3.941,3.941,0,0,0,2.523.914,3.047,3.047,0,0,0,1.951-5.388l-5.715-4.762,5.962,4.969a3.052,3.052,0,0,0,1.952.707h.323a3.047,3.047,0,0,0,1.951-5.388l.235.2a3.093,3.093,0,0,0,1.981.717h.258a3.1,3.1,0,0,0,2.072-5.4Zm0,0" transform="translate(-58.578 -214.786)" fill="#ecc19c"/>
      <path id="Trazado_678122" data-name="Trazado 678122" d="M212.8,247.888l-12.6-11.342a4.515,4.515,0,0,0-5.342-.516l-5.552,3.331a3.5,3.5,0,0,1-5.306-3v-.3a3.5,3.5,0,0,1,1.937-3.133l8.32-4.159a7.915,7.915,0,0,1,5.724-.532l9.372,2.677h1.491L239.179,216h1.491v19.387l-26.844,13.422Zm0,0" transform="translate(-149.699 -175.734)" fill="#f5e0cd"/>
      <path id="Trazado_678123" data-name="Trazado 678123" d="M238.952,400l-2.073,2.156,8.265,6.887a6.036,6.036,0,0,0,2.422,1.2,3.009,3.009,0,0,0,.334-1.36,3.049,3.049,0,0,0-1.1-2.341Zm0,0" transform="translate(-192.721 -325.433)" fill="#dfb28b"/>
      <path id="Trazado_678124" data-name="Trazado 678124" d="M200,437.785a3.164,3.164,0,0,0,5.4,2.237l2.62-2.62a3.164,3.164,0,1,0-4.473-4.475l-2.62,2.62A3.163,3.163,0,0,0,200,437.785Zm0,0" transform="translate(-162.717 -351.468)" fill="#f5e0cd"/>
      <path id="Trazado_678125" data-name="Trazado 678125" d="M176,413.785a3.164,3.164,0,0,0,5.4,2.237l2.62-2.62a3.164,3.164,0,1,0-4.473-4.475l-2.62,2.62A3.163,3.163,0,0,0,176,413.785Zm0,0" transform="translate(-143.191 -331.942)" fill="#f5e0cd"/>
      <path id="Trazado_678126" data-name="Trazado 678126" d="M152,389.785a3.164,3.164,0,0,0,5.4,2.237l2.62-2.62a3.164,3.164,0,1,0-4.473-4.475l-2.62,2.62A3.163,3.163,0,0,0,152,389.785Zm0,0" transform="translate(-123.665 -312.416)" fill="#f5e0cd"/>
      <path id="Trazado_678127" data-name="Trazado 678127" d="M157.657,387.035a6.158,6.158,0,0,0,1.541-2.688,3.128,3.128,0,0,0-1.413-.347,3.162,3.162,0,0,0-2.237.926l-2.62,2.62a3.167,3.167,0,0,0-.928,2.238,3.128,3.128,0,0,0,.347,1.413,6.15,6.15,0,0,0,2.688-1.541Zm0,0" transform="translate(-123.665 -312.416)" fill="#f0d0b4"/>
      <path id="Trazado_678128" data-name="Trazado 678128" d="M181.657,411.035a6.158,6.158,0,0,0,1.541-2.688,3.128,3.128,0,0,0-1.413-.347,3.162,3.162,0,0,0-2.237.926l-2.62,2.62a3.167,3.167,0,0,0-.928,2.238,3.128,3.128,0,0,0,.347,1.413,6.15,6.15,0,0,0,2.688-1.541Zm0,0" transform="translate(-143.191 -331.942)" fill="#f0d0b4"/>
      <path id="Trazado_678129" data-name="Trazado 678129" d="M205.657,435.035a6.158,6.158,0,0,0,1.541-2.688,3.128,3.128,0,0,0-1.413-.347,3.162,3.162,0,0,0-2.237.926l-2.62,2.62a3.167,3.167,0,0,0-.928,2.238,3.128,3.128,0,0,0,.347,1.413,6.15,6.15,0,0,0,2.688-1.541Zm0,0" transform="translate(-162.717 -351.468)" fill="#f0d0b4"/>
      <path id="Trazado_678130" data-name="Trazado 678130" d="M128,365.785a3.164,3.164,0,0,0,5.4,2.237l2.62-2.62a3.164,3.164,0,1,0-4.473-4.475l-2.62,2.62A3.163,3.163,0,0,0,128,365.785Zm0,0" transform="translate(-104.139 -292.89)" fill="#f5e0cd"/>
      <path id="Trazado_678131" data-name="Trazado 678131" d="M83.43,275.648l-9.938,2.3L72,289.882l6.243,3.922Zm0,0" transform="translate(-58.578 -224.263)" fill="#dfb28b"/>
      <path id="Trazado_678132" data-name="Trazado 678132" d="M28.879,211.931l-5.965,20.879H21.422L8,228.335V200h2.983l17.9,10.439Zm0,0" transform="translate(-6.509 -162.717)" fill="#e6e9ed"/>
      <path id="Trazado_678133" data-name="Trazado 678133" d="M23.012,207.017,10.983,200H8v28.335l8.948,2.983,5.965-23.861Zm0,0" transform="translate(-6.509 -162.717)" fill="#b4dd7f"/>
      <path id="Trazado_678134" data-name="Trazado 678134" d="M262.952,376l-2.073,2.156,8.265,6.887a6.036,6.036,0,0,0,2.422,1.2,3.01,3.01,0,0,0,.334-1.36,3.049,3.049,0,0,0-1.1-2.341Zm0,0" transform="translate(-212.247 -305.907)" fill="#dfb28b"/>
      <path id="Trazado_678135" data-name="Trazado 678135" d="M92.463,38.775H89.112L84.117,41.4a7.414,7.414,0,0,0-1.778-.731L76.057,39.1v-.714a10.473,10.473,0,0,0,4.475-8.558V27.22A10.715,10.715,0,0,0,70.413,16.409c-.283-.007-.562,0-.843.017L71.2,12.612l-7.9-7.9-4.655,3.03a25.226,25.226,0,0,0-5.582-2.316L51.915,0H40.549L39.4,5.433a25.2,25.2,0,0,0-5.582,2.316l-4.655-3.03-7.891,7.891,1.6,3.816c-.061,0-.119-.014-.181-.015A10.444,10.444,0,0,0,11.931,26.844v2.983A10.469,10.469,0,0,0,16.4,38.384V39.1l-4.1,1.025L4.878,35.792H0v30.9l14.672,4.89h2.857l.357-1.25,4.5,2.7a4.643,4.643,0,0,0,4.478,4.5,4.643,4.643,0,0,0,4.474,4.474,4.643,4.643,0,0,0,4.474,4.474,4.638,4.638,0,0,0,7.252,3.682l1.321,1.167a4.541,4.541,0,0,0,3,1.133h.276a4.541,4.541,0,0,0,4.532-4.48,4.536,4.536,0,0,0,4.474-4.474,4.536,4.536,0,0,0,4.474-4.478,4.586,4.586,0,0,0,4.48-4.576,4.367,4.367,0,0,0-.023-.447L92.463,60.575ZM77.55,27.22v2.607a7.486,7.486,0,0,1-3.733,6.453l-.746.431.006,4.719,7.451,1.861-16.4,8.632V47.906a7.42,7.42,0,0,0-2.136-5.2L67.11,41.43V36.707l-.744-.43a7.478,7.478,0,0,1-3.73-6.45V26.844a7.456,7.456,0,0,1,7.688-7.452A7.711,7.711,0,0,1,77.55,27.22ZM48.48,50.751l-6.751-2.158a18.417,18.417,0,0,0-9.556-.435l-.855.189v-.441a4.471,4.471,0,0,1,3.388-4.341l8.542-2.134V36.707l-.744-.43a7.478,7.478,0,0,1-3.73-6.45V26.844a7.456,7.456,0,0,1,7.688-7.452,7.711,7.711,0,0,1,7.226,7.828v2.607a7.486,7.486,0,0,1-3.733,6.453l-.746.431.006,4.719,8.541,2.134a4.471,4.471,0,0,1,3.388,4.341v5.588l-.368.194h-.914l-9.169-2.62A9.4,9.4,0,0,0,48.48,50.751ZM31.652,22.321a16.393,16.393,0,0,1,29.1-.12,10.372,10.372,0,0,0-1.1,4.644v2.983a10.469,10.469,0,0,0,4.474,8.557V39.1l-5.965,1.494L52.2,39.1v-.714a10.473,10.473,0,0,0,4.475-8.558V27.22A10.715,10.715,0,0,0,46.552,16.409a10.441,10.441,0,0,0-10.76,10.435v2.983a10.469,10.469,0,0,0,4.474,8.557V39.1L34.3,40.593,28.334,39.1v-.714a10.473,10.473,0,0,0,4.475-8.558V27.22A10.992,10.992,0,0,0,31.652,22.321ZM24.793,13.3l4.765-4.765,4.194,2.729.8-.492A22.254,22.254,0,0,1,41.012,8.1l.918-.22,1.038-4.893H49.5l1.035,4.891.918.219a22.276,22.276,0,0,1,6.458,2.679l.8.492L62.9,8.535l4.759,4.76-1.692,3.961a10.424,10.424,0,0,0-3.148,2.093c-.061.06-.114.124-.173.185a19.367,19.367,0,0,0-32.892.09,10.519,10.519,0,0,0-3.29-2.332ZM19.387,41.43V36.707l-.744-.43a7.478,7.478,0,0,1-3.73-6.45V26.844A7.456,7.456,0,0,1,22.6,19.392a7.711,7.711,0,0,1,7.226,7.828v2.607a7.486,7.486,0,0,1-3.733,6.453l-.746.431.006,4.719,5.117,1.279a7.42,7.42,0,0,0-2.136,5.2v1.1l-4.652,1.034.121-.422.057-2.756L16,42.278Zm-16.4-2.656H4.07L14.8,45.031,9.383,66.678l-6.4-2.134ZM15.155,68.6l-2.935-.978L17.477,46.6l3.4,1.984v.426l-5.6,19.6Zm10.2,4.293a1.683,1.683,0,0,1,.489-1.183l2.621-2.621a1.672,1.672,0,0,1,2.365,2.365l-2.621,2.621a1.672,1.672,0,0,1-2.855-1.183Zm4.474,4.474a1.683,1.683,0,0,1,.489-1.183l2.621-2.621A1.672,1.672,0,0,1,35.3,75.93l-2.621,2.621a1.672,1.672,0,0,1-2.855-1.183ZM34.3,81.843a1.683,1.683,0,0,1,.489-1.183l2.621-2.621A1.672,1.672,0,0,1,39.777,80.4l-2.621,2.621A1.672,1.672,0,0,1,34.3,81.843Zm6.146,6.146a1.672,1.672,0,0,1-1.183-2.855l2.621-2.621a1.672,1.672,0,0,1,2.365,2.365L41.629,87.5A1.683,1.683,0,0,1,40.447,87.989Zm7.212,1.491h-.276a1.545,1.545,0,0,1-1.027-.39l-1.116-.984,1.12-1.12A4.637,4.637,0,0,0,47.3,85.6l1.356,1.129a1.556,1.556,0,0,1-1,2.75ZM61.033,76.058h-.258a1.6,1.6,0,0,1-1.026-.373l-8.087-6.739-1.911,2.292L57.6,77.782a1.557,1.557,0,0,1-1,2.75h-.326a1.556,1.556,0,0,1-.995-.361l-8.1-6.75-1.911,2.292,7.854,6.544a1.554,1.554,0,0,1-1,2.748,2.463,2.463,0,0,1-1.569-.568l-3.329-2.774a4.639,4.639,0,0,0-4-2.606,4.643,4.643,0,0,0-4.474-4.474,4.643,4.643,0,0,0-4.474-4.474,4.644,4.644,0,0,0-7.928-3.128L23.733,69.6a4.6,4.6,0,0,0-.418.51l-4.581-2.749L22.75,53.309l10.068-2.238a15.363,15.363,0,0,1,8,.362l2.2.7L35.569,55.86a4.971,4.971,0,0,0-2.759,4.468v.295a4.994,4.994,0,0,0,7.566,4.283l5.553-3.33a3.078,3.078,0,0,1,3.576.344l12.6,11.34a1.605,1.605,0,0,1-1.073,2.8ZM89.48,58.732,64.355,71.3c-.082-.087-.167-.169-.256-.249L51.5,59.706a6,6,0,0,0-7.108-.687L38.837,62.35a2.011,2.011,0,0,1-3.045-1.727v-.295a2,2,0,0,1,1.113-1.8l8.319-4.159a6.482,6.482,0,0,1,4.648-.431l9.372,2.677,2.27.057L89.48,41.951Zm0,0"/>
    </g>
  </g>
</svg>
