<svg xmlns="http://www.w3.org/2000/svg" xmlns:xlink="http://www.w3.org/1999/xlink" width="194" height="194" viewBox="0 0 194 194">
  <defs>
    <filter id="Elipse_5144" x="0" y="0" width="194" height="194" filterUnits="userSpaceOnUse">
      <feOffset dy="3" input="SourceAlpha"/>
      <feGaussianBlur stdDeviation="3" result="blur"/>
      <feFlood flood-opacity="0.161"/>
      <feComposite operator="in" in2="blur"/>
      <feComposite in="SourceGraphic"/>
    </filter>
  </defs>
  <g id="Grupo_936606" data-name="Grupo 936606" transform="translate(-394 -903)">
    <g transform="matrix(1, 0, 0, 1, 394, 903)" filter="url(#Elipse_5144)">
      <circle id="Elipse_5144-2" data-name="Elipse 5144" cx="88" cy="88" r="88" transform="translate(9 6)" fill="#fff"/>
    </g>
    <g id="sistemas" transform="translate(437.55 946.12)">
      <path id="Trazado_678085" data-name="Trazado 678085" d="M187.652,138.514l-.12,15.4a3.768,3.768,0,0,1-1.107,2.666l-17.482,17.485a3.344,3.344,0,0,0-.979,2.365v1.6H151.114V167.6h.007a12.858,12.858,0,0,1,3.756-9.528c8.005-8,6.117-6.11,9.2-9.2a3.133,3.133,0,0,1,4.478.05,3.174,3.174,0,0,1-.1,4.422l-4.354,4.351a3.448,3.448,0,0,0,.044,4.913,3.565,3.565,0,0,0,4.91-.121l10.729-10.732a2.941,2.941,0,0,0,.866-2.084l.12-11.164a3.438,3.438,0,1,1,6.876,0Z" transform="translate(-90.068 -81.623)" fill="#ffb69f"/>
      <path id="Trazado_678086" data-name="Trazado 678086" d="M46.483,178.03H29.634v-1.6a3.345,3.345,0,0,0-.979-2.365L11.172,156.581a3.766,3.766,0,0,1-1.107-2.666l-.12-15.4a3.438,3.438,0,1,1,6.876,0l.12,11.164a2.941,2.941,0,0,0,.866,2.084l10.729,10.732a3.565,3.565,0,0,0,4.91.12,3.448,3.448,0,0,0,.044-4.913l-4.354-4.351a3.174,3.174,0,0,1-.1-4.421,3.133,3.133,0,0,1,4.478-.05c3.087,3.087,1.2,1.2,9.2,9.2a12.858,12.858,0,0,1,3.763,9.116Z" transform="translate(-1.564 -81.621)" fill="#ffb69f"/>
      <path id="Trazado_678087" data-name="Trazado 678087" d="M186.112,178.7a.932.932,0,0,1,0-1.319l.791-.791a.933.933,0,0,1,1.319,1.319l-.791.791A.932.932,0,0,1,186.112,178.7Zm3.43-3.429a.932.932,0,0,1,0-1.319l15.867-15.867.121-15.361a.933.933,0,0,1,.933-.925h.007a.933.933,0,0,1,.925.94l-.121,15.381a1.764,1.764,0,0,1-.514,1.252l-15.9,15.9A.933.933,0,0,1,189.541,175.266Z" transform="translate(-111.839 -85.837)" fill="#fbe0e2"/>
      <path id="Trazado_678088" data-name="Trazado 678088" d="M78.048,201.809a.933.933,0,0,1-.933-.932v-1.119a.933.933,0,0,1,.932-.933h0a.933.933,0,0,1,.933.932v1.119a.933.933,0,0,1-.932.933Zm0-4.85a.933.933,0,0,1-.933-.932l0-3.707a9.024,9.024,0,0,0-2.621-6.338l-9.2-9.2a.933.933,0,0,1,1.318-1.32l9.2,9.2a10.9,10.9,0,0,1,3.168,7.657l0,3.706a.933.933,0,0,1-.932.933Z" transform="translate(-36.09 -106.774)" fill="#fbe0e2"/>
      <path id="Trazado_678089" data-name="Trazado 678089" d="M120.461,50.287c-.438-1.891-.728-3.14-3.291-3.987a.934.934,0,0,1,0-1.771c1.487-.491,2.562-.846,3.291-3.987a.934.934,0,0,1,1.817,0c.746,3.215,1.865,3.516,3.291,3.987a.933.933,0,0,1,0,1.771c-1.488.492-2.563.847-3.291,3.987a.933.933,0,0,1-1.817,0Z" transform="translate(-68.388 -21.908)"/>
      <path id="Trazado_678090" data-name="Trazado 678090" d="M128.307,51.663a4.949,4.949,0,0,0-1.612,1.824,5.179,5.179,0,0,0-1.7-1.809,4.958,4.958,0,0,0,1.686-1.9A5.059,5.059,0,0,0,128.307,51.663Z" transform="translate(-73.691 -28.146)" fill="#f0c020"/>
      <path id="Trazado_678091" data-name="Trazado 678091" d="M51.871,133.237c-.438-1.891-.728-3.14-3.291-3.987a.934.934,0,0,1,0-1.771c1.487-.491,2.562-.846,3.291-3.986a.934.934,0,0,1,1.817,0c.746,3.215,1.865,3.516,3.291,3.987a.933.933,0,0,1,0,1.771c-1.488.492-2.563.847-3.291,3.987A.933.933,0,0,1,51.871,133.237Z" transform="translate(-25.386 -73.912)"/>
      <path id="Trazado_678092" data-name="Trazado 678092" d="M59.716,134.612a4.949,4.949,0,0,0-1.612,1.824,5.179,5.179,0,0,0-1.7-1.809,4.958,4.958,0,0,0,1.686-1.9,5.059,5.059,0,0,0,1.63,1.888Z" transform="translate(-30.689 -80.151)" fill="#f0c020"/>
      <path id="Trazado_678093" data-name="Trazado 678093" d="M189.052,133.237c-.438-1.891-.728-3.14-3.291-3.987a.934.934,0,0,1,0-1.771c1.487-.491,2.562-.846,3.291-3.986a.934.934,0,0,1,1.817,0c.746,3.215,1.865,3.516,3.291,3.987a.933.933,0,0,1,0,1.771c-1.488.492-2.563.847-3.291,3.987A.933.933,0,0,1,189.052,133.237Z" transform="translate(-111.39 -73.912)"/>
      <path id="Trazado_678094" data-name="Trazado 678094" d="M196.9,134.612a4.949,4.949,0,0,0-1.612,1.824,5.179,5.179,0,0,0-1.7-1.809,4.958,4.958,0,0,0,1.686-1.9,5.059,5.059,0,0,0,1.63,1.888Z" transform="translate(-116.692 -80.151)" fill="#f0c020"/>
      <path id="Trazado_678095" data-name="Trazado 678095" d="M200.823,132.569a4.379,4.379,0,0,0-4.372,4.365l-.123,11.162v.011a2,2,0,0,1-.593,1.425L185,160.265a2.631,2.631,0,0,1-3.6.108,2.516,2.516,0,0,1-.034-3.585l4.354-4.35a4.063,4.063,0,1,0-5.7-5.79l-2.153,2.153a.931.931,0,0,0,0,1.317.953.953,0,0,0,1.321,0c.541-.537,1-1,2.153-2.153a2.2,2.2,0,0,1,3.145.037,2.248,2.248,0,0,1-.082,3.119l-4.354,4.35a4.375,4.375,0,0,0,.052,6.241,4.491,4.491,0,0,0,6.215-.131l10.733-10.733a3.857,3.857,0,0,0,1.138-2.73l.119-11.166v-.007a2.507,2.507,0,1,1,5.014,0l-.123,15.4a2.836,2.836,0,0,1-.832,2.015L184.889,171.84a4.235,4.235,0,0,0-1.253,3.022v1.6a.933.933,0,1,0,1.865,0v-1.6a2.43,2.43,0,0,1,.705-1.7l17.482-17.485a4.669,4.669,0,0,0,1.38-3.324l.123-15.4A4.382,4.382,0,0,0,200.823,132.569Z" transform="translate(-106.674 -80.053)"/>
      <path id="Trazado_678096" data-name="Trazado 678096" d="M170.832,182.673a.932.932,0,0,0,1.321,1.317v0a.927.927,0,0,0,0-1.313A.953.953,0,0,0,170.832,182.673Z" transform="translate(-102.26 -111.299)"/>
      <path id="Trazado_678097" data-name="Trazado 678097" d="M154.437,189.728c-1.04,1.04-.236.231-1.791,1.787a13.8,13.8,0,0,0-4.033,10.106s0-.363,0,10.513a.935.935,0,0,0,1.869,0s0,0,0-.007c0-10.816.007-10.454.007-10.454a11.984,11.984,0,0,1,3.484-8.837l1.787-1.787a.936.936,0,0,0,0-1.321A.96.96,0,0,0,154.437,189.728Z" transform="translate(-88.499 -115.723)"/>
      <path id="Trazado_678098" data-name="Trazado 678098" d="M30.524,210.038a.934.934,0,1,0,1.321,0,.957.957,0,0,0-1.321,0Z" transform="translate(-14.296 -128.458)"/>
      <path id="Trazado_678099" data-name="Trazado 678099" d="M38.913,217.113a.953.953,0,0,0-1.321,0,.932.932,0,0,0,0,1.317L45.158,226a2.43,2.43,0,0,1,.705,1.7v1.6a.933.933,0,0,0,1.865,0v-1.6a4.235,4.235,0,0,0-1.253-3.022Z" transform="translate(-18.726 -132.891)"/>
      <path id="Trazado_678100" data-name="Trazado 678100" d="M41.816,155.845l-9.2-9.2a4.063,4.063,0,1,0-5.7,5.79l4.354,4.35a2.52,2.52,0,0,1-.034,3.585,2.631,2.631,0,0,1-3.6-.108L16.9,149.533a2.014,2.014,0,0,1-.593-1.425l-.119-11.173v0a4.37,4.37,0,0,0-8.741.015l.119,15.411a4.727,4.727,0,0,0,1.38,3.317l4.641,4.645a.957.957,0,0,0,1.321,0,.936.936,0,0,0,0-1.321l-4.645-4.641a2.832,2.832,0,0,1-.832-2.007l-.123-15.415a2.507,2.507,0,0,1,5.014.011l.119,11.173a3.841,3.841,0,0,0,1.138,2.73l10.729,10.733a4.5,4.5,0,0,0,6.219.131,4.384,4.384,0,0,0,.056-6.241l-4.357-4.35A2.248,2.248,0,0,1,28.147,148a2.2,2.2,0,0,1,3.145-.037l9.2,9.2a11.849,11.849,0,0,1,3.492,8.431v10.867a.933.933,0,1,0,1.865,0c-.01-27.807,0,9.343,0-10.867a13.785,13.785,0,0,0-4.037-9.752Z" transform="translate(0 -80.054)"/>
      <g id="Grupo_936601" data-name="Grupo 936601" transform="translate(60.35 4.88)">
        <path id="Trazado_678101" data-name="Trazado 678101" d="M185.938,29.645l-1.945-1.123a15.463,15.463,0,0,0,0-6.889l1.945-1.123a.775.775,0,0,0,.284-1.059l-3.72-6.443a.775.775,0,0,0-1.059-.284l-1.948,1.125a15.334,15.334,0,0,0-5.65-3.347V8.158a.775.775,0,0,0-.775-.775h-8.063a.775.775,0,0,0-.775.775V10.5a15.331,15.331,0,0,0-5.65,3.347l-1.949-1.125a.775.775,0,0,0-1.059.284l-3.72,6.443a.775.775,0,0,0,.284,1.059l1.945,1.123a15.463,15.463,0,0,0,0,6.889l-1.945,1.123a.775.775,0,0,0-.284,1.059l3.72,6.442a.775.775,0,0,0,1.059.284l1.949-1.125a15.334,15.334,0,0,0,5.65,3.347V42a.775.775,0,0,0,.775.775h8.063a.775.775,0,0,0,.775-.775V39.652a15.331,15.331,0,0,0,5.65-3.347l1.948,1.125a.775.775,0,0,0,1.059-.284l3.72-6.443a.775.775,0,0,0-.284-1.058Z" transform="translate(-150.817 -6.449)" fill="#72c2e9"/>
        <circle id="Elipse_5278" data-name="Elipse 5278" cx="8.418" cy="8.418" r="8.418" transform="translate(7.244 23.181) rotate(-67.486)" fill="#eee"/>
        <path id="Trazado_678102" data-name="Trazado 678102" d="M185.463,17.414l-3.719-6.443a1.707,1.707,0,0,0-2.339-.619h0l-1.358.783a16.1,16.1,0,0,0-4.835-2.861V6.589a1.71,1.71,0,0,0-1.7-1.709h-8.066a1.71,1.71,0,0,0-1.7,1.709V8.275a16.1,16.1,0,0,0-4.835,2.861l-1.365-.787a1.7,1.7,0,0,0-2.335.627l-3.719,6.439a1.707,1.707,0,0,0,.627,2.332l1.362.787a16.378,16.378,0,0,0,0,5.946l-1.362.787a1.71,1.71,0,0,0-.627,2.332l3.723,6.443a1.7,1.7,0,0,0,2.324.63l1.369-.791a16.324,16.324,0,0,0,4.839,2.861v1.687a1.707,1.707,0,0,0,1.7,1.7H171.5a1.707,1.707,0,0,0,1.7-1.7V38.743a16.324,16.324,0,0,0,4.839-2.861l1.362.787a1.711,1.711,0,0,0,2.332-.623l3.723-6.446a1.708,1.708,0,0,0-.623-2.328s0,0,0,0l-1.362-.787a16.379,16.379,0,0,0,0-5.946l1.362-.787A1.709,1.709,0,0,0,185.463,17.414Zm-3.5,1.84a.948.948,0,0,0-.444,1.018,14.51,14.51,0,0,1,0,6.473.94.94,0,0,0,.444,1.015l1.809,1.045-3.563,6.167-1.813-1.045a.952.952,0,0,0-1.1.127,14.528,14.528,0,0,1-5.309,3.145.931.931,0,0,0-.638.884v2.186H163.6V38.082a.93.93,0,0,0-.642-.884,14.579,14.579,0,0,1-5.309-3.145.953.953,0,0,0-1.1-.127l-1.813,1.048-3.559-6.17,1.806-1.045a.94.94,0,0,0,.444-1.015,14.51,14.51,0,0,1,0-6.473.947.947,0,0,0-.444-1.018l-1.809-1.041,3.563-6.17,1.813,1.045a.947.947,0,0,0,1.1-.123,14.527,14.527,0,0,1,5.309-3.145.93.93,0,0,0,.642-.884V6.745h7.748v2.19a.931.931,0,0,0,.638.884,14.522,14.522,0,0,1,5.309,3.145.947.947,0,0,0,1.1.123l1.813-1.045,3.563,6.17Z" transform="translate(-149.249 -4.88)"/>
        <path id="Trazado_678103" data-name="Trazado 678103" d="M182.373,29.75a9.351,9.351,0,1,0,9.349,9.349,9.349,9.349,0,0,0-9.349-9.349Zm0,16.836A7.485,7.485,0,1,1,189.86,39.1,7.513,7.513,0,0,1,182.373,46.586Z" transform="translate(-164.152 -20.472)"/>
      </g>
      <g id="Grupo_936602" data-name="Grupo 936602" transform="translate(34.761 35.825)">
        <path id="Trazado_678104" data-name="Trazado 678104" d="M117.348,112.594l-1.945-1.123a15.462,15.462,0,0,0,0-6.889l1.945-1.123a.775.775,0,0,0,.284-1.059l-3.72-6.443a.775.775,0,0,0-1.059-.284L110.9,96.8a15.334,15.334,0,0,0-5.65-3.347V91.108a.775.775,0,0,0-.775-.775H96.416a.775.775,0,0,0-.775.775v2.345a15.331,15.331,0,0,0-5.65,3.347l-1.948-1.125a.775.775,0,0,0-1.059.284l-3.72,6.443a.775.775,0,0,0,.284,1.059l1.945,1.123a15.463,15.463,0,0,0,0,6.889l-1.945,1.123a.775.775,0,0,0-.284,1.059l3.72,6.443a.775.775,0,0,0,1.059.284l1.948-1.125a15.334,15.334,0,0,0,5.65,3.347v2.345a.775.775,0,0,0,.775.775h8.063a.775.775,0,0,0,.775-.775V122.6a15.331,15.331,0,0,0,5.65-3.347l1.948,1.125a.775.775,0,0,0,1.059-.284l3.72-6.443A.775.775,0,0,0,117.348,112.594Z" transform="translate(-82.227 -89.399)" fill="#efbf27"/>
        <circle id="Elipse_5279" data-name="Elipse 5279" cx="8.418" cy="8.418" r="8.418" transform="translate(7.24 23.194) rotate(-67.486)" fill="#eee"/>
        <path id="Trazado_678105" data-name="Trazado 678105" d="M116.873,100.364l-3.719-6.443a1.707,1.707,0,0,0-2.339-.619h0l-1.358.783a16.1,16.1,0,0,0-4.835-2.861V89.538a1.71,1.71,0,0,0-1.7-1.709H94.847a1.71,1.71,0,0,0-1.7,1.709v1.686a16.1,16.1,0,0,0-4.835,2.861L86.942,93.3a1.7,1.7,0,0,0-2.335.627l-3.719,6.439a1.707,1.707,0,0,0,.627,2.332l1.362.787a16.378,16.378,0,0,0,0,5.946l-1.362.787a1.71,1.71,0,0,0-.627,2.332l3.723,6.443a1.7,1.7,0,0,0,2.324.63l1.369-.791a16.325,16.325,0,0,0,4.839,2.861v1.687a1.707,1.707,0,0,0,1.7,1.7h8.066a1.707,1.707,0,0,0,1.7-1.7v-1.687a16.325,16.325,0,0,0,4.839-2.861l1.362.787a1.711,1.711,0,0,0,2.332-.623l3.723-6.446a1.708,1.708,0,0,0-.623-2.328s0,0,0,0l-1.362-.787a16.378,16.378,0,0,0,0-5.946l1.362-.787A1.708,1.708,0,0,0,116.873,100.364Zm-3.5,1.84a.948.948,0,0,0-.444,1.018,14.51,14.51,0,0,1,0,6.473.94.94,0,0,0,.444,1.015l1.809,1.045-3.563,6.167-1.813-1.045a.952.952,0,0,0-1.1.127,14.528,14.528,0,0,1-5.309,3.145.931.931,0,0,0-.638.884v2.186H95.008v-2.186a.93.93,0,0,0-.642-.884A14.579,14.579,0,0,1,89.057,117a.953.953,0,0,0-1.1-.127l-1.813,1.048-3.559-6.17,1.806-1.045a.94.94,0,0,0,.444-1.015,14.51,14.51,0,0,1,0-6.473.947.947,0,0,0-.444-1.018l-1.809-1.041,3.563-6.17,1.813,1.045a.947.947,0,0,0,1.1-.123,14.527,14.527,0,0,1,5.309-3.145.93.93,0,0,0,.642-.884v-2.19h7.748v2.19a.931.931,0,0,0,.638.884,14.522,14.522,0,0,1,5.309,3.145.947.947,0,0,0,1.1.123l1.813-1.045,3.563,6.17Z" transform="translate(-80.659 -87.829)"/>
        <path id="Trazado_678106" data-name="Trazado 678106" d="M113.783,112.7a9.351,9.351,0,1,0,9.349,9.349A9.349,9.349,0,0,0,113.783,112.7Zm0,16.836a7.485,7.485,0,1,1,7.487-7.487A7.513,7.513,0,0,1,113.783,129.536Z" transform="translate(-95.562 -103.422)"/>
      </g>
      <g id="Grupo_936603" data-name="Grupo 936603" transform="translate(9.173 4.88)">
        <path id="Trazado_678107" data-name="Trazado 678107" d="M48.758,29.645l-1.945-1.123a15.462,15.462,0,0,0,0-6.889l1.945-1.123a.775.775,0,0,0,.284-1.059l-3.72-6.443a.775.775,0,0,0-1.059-.284L42.315,13.85a15.334,15.334,0,0,0-5.65-3.347V8.158a.775.775,0,0,0-.775-.775H27.827a.775.775,0,0,0-.775.775V10.5A15.331,15.331,0,0,0,21.4,13.85l-1.948-1.125a.775.775,0,0,0-1.059.284l-3.72,6.443a.775.775,0,0,0,.284,1.059L16.9,21.633a15.463,15.463,0,0,0,0,6.889l-1.945,1.123a.775.775,0,0,0-.284,1.059l3.72,6.443a.775.775,0,0,0,1.059.284L21.4,36.3a15.334,15.334,0,0,0,5.65,3.347V42a.775.775,0,0,0,.775.775H35.89A.775.775,0,0,0,36.665,42V39.652a15.331,15.331,0,0,0,5.65-3.347l1.948,1.125a.775.775,0,0,0,1.059-.284l3.72-6.443a.775.775,0,0,0-.284-1.058Z" transform="translate(-13.638 -6.449)" fill="#fc5d3d"/>
        <circle id="Elipse_5280" data-name="Elipse 5280" cx="8.418" cy="8.418" r="8.418" transform="translate(7.228 23.186) rotate(-67.486)" fill="#eee"/>
        <path id="Trazado_678108" data-name="Trazado 678108" d="M48.283,17.414l-3.719-6.443a1.707,1.707,0,0,0-2.339-.619h0l-1.358.783a16.1,16.1,0,0,0-4.835-2.861V6.589a1.71,1.71,0,0,0-1.7-1.709H26.257a1.71,1.71,0,0,0-1.7,1.709V8.275a16.1,16.1,0,0,0-4.835,2.861l-1.365-.787a1.7,1.7,0,0,0-2.335.627L12.3,17.415a1.707,1.707,0,0,0,.627,2.332l1.362.787a16.378,16.378,0,0,0,0,5.946l-1.362.787A1.71,1.71,0,0,0,12.3,29.6l3.723,6.443a1.7,1.7,0,0,0,2.324.63l1.369-.791a16.325,16.325,0,0,0,4.839,2.861v1.687a1.707,1.707,0,0,0,1.7,1.7h8.066a1.707,1.707,0,0,0,1.7-1.7V38.743a16.324,16.324,0,0,0,4.839-2.861l1.362.787a1.711,1.711,0,0,0,2.332-.623L48.283,29.6a1.708,1.708,0,0,0-.623-2.328s0,0,0,0l-1.362-.787a16.379,16.379,0,0,0,0-5.946l1.362-.787A1.709,1.709,0,0,0,48.283,17.414Zm-3.5,1.84a.948.948,0,0,0-.444,1.018,14.51,14.51,0,0,1,0,6.473.94.94,0,0,0,.444,1.015L46.589,28.8l-3.563,6.167-1.813-1.045a.952.952,0,0,0-1.1.127A14.528,14.528,0,0,1,34.8,37.2a.931.931,0,0,0-.638.884v2.186H26.418V38.082a.93.93,0,0,0-.642-.884,14.579,14.579,0,0,1-5.309-3.145.953.953,0,0,0-1.1-.127l-1.813,1.048L13.995,28.8,15.8,27.76a.94.94,0,0,0,.444-1.015,14.51,14.51,0,0,1,0-6.473.947.947,0,0,0-.444-1.018l-1.809-1.041,3.563-6.17,1.813,1.045a.947.947,0,0,0,1.1-.123,14.527,14.527,0,0,1,5.309-3.145.93.93,0,0,0,.642-.884V6.745h7.748v2.19a.931.931,0,0,0,.638.884,14.522,14.522,0,0,1,5.309,3.145.947.947,0,0,0,1.1.123l1.813-1.045,3.563,6.17Z" transform="translate(-12.069 -4.88)"/>
        <path id="Trazado_678109" data-name="Trazado 678109" d="M45.193,29.75A9.351,9.351,0,1,0,54.541,39.1a9.348,9.348,0,0,0-9.349-9.349Zm0,16.836A7.485,7.485,0,1,1,52.68,39.1a7.513,7.513,0,0,1-7.487,7.487Z" transform="translate(-26.972 -20.472)"/>
      </g>
    </g>
  </g>
</svg>
