<svg xmlns="http://www.w3.org/2000/svg" width="122" height="122" viewBox="0 0 122 122">
  <g id="Grupo_946735" data-name="Grupo 946735" transform="translate(7760 9609)">
    <circle id="Elipse_5274" data-name="Elipse 5274" cx="61" cy="61" r="61" transform="translate(-7760 -9609)" fill="#1b3f5e"/>
    <g id="obediente" transform="translate(-7800.938 -9597.177)">
      <path id="Trazado_678293" data-name="Trazado 678293" d="M217.719,62.2a5.954,5.954,0,0,1-3.267-.972v5.36h6.535v-5.36A5.957,5.957,0,0,1,217.719,62.2Z" transform="translate(-116.95 -48.698)" fill="#e8b800"/>
      <g id="Grupo_946725" data-name="Grupo 946725" transform="translate(68.942 20.309)">
        <path id="Trazado_678294" data-name="Trazado 678294" d="M136.427,150.146a.614.614,0,0,0-.755,0l-4.9,3.816a.614.614,0,0,1-.991-.484v-17a13.3,13.3,0,0,1,8.78-24.794V100.255a1.023,1.023,0,0,0-1.023-1.023h-14.96v7.489a.819.819,0,0,1-.819.819H91.709a.819.819,0,0,1-.819-.819V99.232H75.93a1.023,1.023,0,0,0-1.023,1.023v80.9a1.023,1.023,0,0,0,1.023,1.023h61.607a1.023,1.023,0,0,0,1.023-1.023V151.808Z" transform="translate(-74.907 -99.232)" fill="#f6a96c"/>
      </g>
      <path id="Trazado_678295" data-name="Trazado 678295" d="M83.677,181.153v-4.292H80.836a.614.614,0,0,1-.614-.614V105.162a.614.614,0,0,1,.614-.614h2.841v-4.292A1.023,1.023,0,0,1,84.7,99.233H75.93a1.023,1.023,0,0,0-1.023,1.023v80.9a1.023,1.023,0,0,0,1.023,1.023H84.7a1.023,1.023,0,0,1-1.023-1.023Z" transform="translate(-5.965 -78.924)" fill="#ea9b58"/>
      <path id="Trazado_678296" data-name="Trazado 678296" d="M151.426,174.618a.614.614,0,0,1-.991-.484V157.127A13.3,13.3,0,0,1,153.9,132.4v-6.579a.614.614,0,0,0-.614-.614H143.232v2.174a.819.819,0,0,1-.819.819h-30.05a.819.819,0,0,1-.819-.819V125.2H101.49a.614.614,0,0,0-.614.614V196.9a.614.614,0,0,0,.614.614h51.8a.614.614,0,0,0,.614-.614v-24.21Z" transform="translate(-26.619 -99.578)" fill="#dff6fd"/>
      <g id="Grupo_946726" data-name="Grupo 946726" transform="translate(74.257 25.624)">
        <path id="Trazado_678297" data-name="Trazado 678297" d="M107.016,196.9V125.816a.614.614,0,0,1,.614-.614h-6.14a.614.614,0,0,0-.614.614V196.9a.614.614,0,0,0,.614.614h6.14A.614.614,0,0,1,107.016,196.9Z" transform="translate(-100.876 -125.202)" fill="#c8effe"/>
      </g>
      <g id="Grupo_946727" data-name="Grupo 946727" transform="translate(84.72 17.891)">
        <path id="Trazado_678298" data-name="Trazado 678298" d="M183.076,98.348h-30.05A1.023,1.023,0,0,1,152,97.325V88.441a1.023,1.023,0,0,1,1.023-1.023h30.05a1.023,1.023,0,0,1,1.023,1.023v8.884A1.023,1.023,0,0,1,183.076,98.348Z" transform="translate(-152.002 -87.418)" fill="#fac600"/>
      </g>
      <g id="Grupo_946728" data-name="Grupo 946728" transform="translate(84.72 17.891)">
        <path id="Trazado_678299" data-name="Trazado 678299" d="M157.277,97.325V88.441a1.023,1.023,0,0,1,1.023-1.023h-5.275A1.023,1.023,0,0,0,152,88.441v8.884a1.023,1.023,0,0,0,1.023,1.023H158.3A1.023,1.023,0,0,1,157.277,97.325Z" transform="translate(-152.002 -87.418)" fill="#e8b800"/>
      </g>
      <path id="Trazado_678300" data-name="Trazado 678300" d="M349.294,282.776a13.238,13.238,0,0,1-6.269-1.569v17a.614.614,0,0,0,.991.484l4.9-3.816a.614.614,0,0,1,.755,0l4.9,3.816a.614.614,0,0,0,.991-.484v-17A13.242,13.242,0,0,1,349.294,282.776Z" transform="translate(-219.209 -223.654)" fill="#fb2b3a"/>
      <path id="Trazado_678301" data-name="Trazado 678301" d="M343.025,281.207v17a.614.614,0,0,0,.991.484l4.226-3.291V282.73A13.216,13.216,0,0,1,343.025,281.207Z" transform="translate(-219.209 -223.654)" fill="#e41f2d"/>
      <g id="Grupo_946731" data-name="Grupo 946731" transform="translate(116.783 32.519)">
        <g id="Grupo_946729" data-name="Grupo 946729" transform="translate(0 0)">
          <circle id="Elipse_5286" data-name="Elipse 5286" cx="13.301" cy="13.301" r="13.301" fill="#4fc123"/>
        </g>
        <g id="Grupo_946730" data-name="Grupo 946730" transform="translate(0)">
          <path id="Trazado_678302" data-name="Trazado 678302" d="M315.443,172.19a13.306,13.306,0,0,1,9.911-12.864,13.3,13.3,0,1,0,0,25.728,13.306,13.306,0,0,1-9.911-12.864Z" transform="translate(-308.663 -158.889)" fill="#47a920"/>
        </g>
      </g>
      <g id="Grupo_946732" data-name="Grupo 946732" transform="translate(94.785 1.535)">
        <circle id="Elipse_5287" data-name="Elipse 5287" cx="5.984" cy="5.984" r="5.984" transform="translate(0)" fill="#fac600"/>
      </g>
      <g id="Grupo_946733" data-name="Grupo 946733" transform="translate(94.785 1.535)">
        <path id="Trazado_678303" data-name="Trazado 678303" d="M206.321,13.484a5.984,5.984,0,0,1,3.413-5.4,5.984,5.984,0,1,0,0,10.809A5.984,5.984,0,0,1,206.321,13.484Z" transform="translate(-201.179 -7.5)" fill="#e8b800"/>
      </g>
      <g id="Grupo_946734" data-name="Grupo 946734" transform="translate(67.407 0)">
        <path id="Trazado_678304" data-name="Trazado 678304" d="M144.151,185.6l-3.478,3.478-1.859-1.859a1.535,1.535,0,1,0-2.171,2.171l2.944,2.944a1.535,1.535,0,0,0,2.171,0l4.564-4.564a1.535,1.535,0,0,0-2.171-2.171Z" transform="translate(-122.115 -147.261)"/>
        <path id="Trazado_678305" data-name="Trazado 678305" d="M144.151,255.049l-3.478,3.478-1.859-1.859a1.535,1.535,0,0,0-2.171,2.171l2.944,2.944a1.535,1.535,0,0,0,2.171,0l4.564-4.564a1.535,1.535,0,0,0-2.171-2.171Z" transform="translate(-122.115 -202.492)"/>
        <path id="Trazado_678306" data-name="Trazado 678306" d="M203.785,281.21h21.979a1.535,1.535,0,0,0,0-3.07H203.785a1.535,1.535,0,0,0,0,3.07Z" transform="translate(-174.653 -221.215)"/>
        <path id="Trazado_678307" data-name="Trazado 678307" d="M144.151,324.492l-3.478,3.478-1.859-1.859a1.535,1.535,0,1,0-2.171,2.171l2.944,2.945a1.535,1.535,0,0,0,2.171,0l4.564-4.564a1.535,1.535,0,0,0-2.171-2.171Z" transform="translate(-122.115 -257.723)"/>
        <path id="Trazado_678308" data-name="Trazado 678308" d="M225.764,322.8H203.785a1.535,1.535,0,0,0,0,3.07h21.979a1.535,1.535,0,0,0,0-3.07Z" transform="translate(-174.653 -256.735)"/>
        <path id="Trazado_678309" data-name="Trazado 678309" d="M225.764,347.583H203.785a1.535,1.535,0,0,0,0,3.07h21.979a1.535,1.535,0,0,0,0-3.07Z" transform="translate(-174.653 -276.446)"/>
        <path id="Trazado_678310" data-name="Trazado 678310" d="M144.151,393.934l-3.478,3.479-1.859-1.859a1.535,1.535,0,1,0-2.171,2.171l2.944,2.944a1.535,1.535,0,0,0,2.171,0l4.564-4.564a1.535,1.535,0,0,0-2.171-2.171Z" transform="translate(-122.115 -312.953)"/>
        <path id="Trazado_678311" data-name="Trazado 678311" d="M225.764,392.243H203.785a1.535,1.535,0,0,0,0,3.07h21.979a1.535,1.535,0,0,0,0-3.07Z" transform="translate(-174.653 -311.965)"/>
        <path id="Trazado_678312" data-name="Trazado 678312" d="M227.3,418.56a1.535,1.535,0,0,0-1.535-1.535H203.785a1.535,1.535,0,0,0,0,3.07h21.979A1.535,1.535,0,0,0,227.3,418.56Z" transform="translate(-174.653 -331.675)"/>
        <path id="Trazado_678313" data-name="Trazado 678313" d="M143.4,47.211a1.534,1.534,0,0,0-1.831,1.166,11.766,11.766,0,1,1-.342-6.338,1.535,1.535,0,1,0,2.907-.986,14.83,14.83,0,0,0-10-9.509V21.333a2.561,2.561,0,0,0-2.558-2.558H118.345a2.559,2.559,0,0,0-2.551-2.418H105.571V13.3a7.519,7.519,0,1,0-9.605,0v3.057H85.744a2.559,2.559,0,0,0-2.551,2.418H69.965a2.561,2.561,0,0,0-2.558,2.558v80.9a2.561,2.561,0,0,0,2.558,2.558h61.607a2.561,2.561,0,0,0,2.558-2.558v-26.2l.288.224a2.149,2.149,0,0,0,3.469-1.7V58.437a14.73,14.73,0,0,0,1.543-1.1,14.9,14.9,0,0,0,5.134-8.3A1.535,1.535,0,0,0,143.4,47.211ZM131.061,31.018c-.324-.021-.649-.035-.976-.035-.428,0-.85.022-1.268.058v-4.8a2.151,2.151,0,0,0-2.149-2.149h-8.315V21.844h12.709ZM100.769,3.07A4.449,4.449,0,1,1,96.32,7.519a4.454,4.454,0,0,1,4.449-4.449ZM99.036,14.834a7.471,7.471,0,0,0,3.465,0v1.522H99.036V14.834Zm32.025,86.883H70.477V21.844H83.185v2.245H74.871a2.151,2.151,0,0,0-2.149,2.149V97.323a2.151,2.151,0,0,0,2.149,2.149H112.3a1.535,1.535,0,0,0,0-3.07H75.792V27.159h7.394V27.8a2.561,2.561,0,0,0,2.558,2.558h5.48a1.535,1.535,0,1,0,0-3.07H86.255V19.426h29.027v7.86h-16.9a1.535,1.535,0,1,0,0,3.07h17.407a2.561,2.561,0,0,0,2.558-2.558v-.639h7.394v4.473a14.9,14.9,0,0,0-8.031,6.008H96.539a1.535,1.535,0,0,0,0,3.07h19.616a14.708,14.708,0,0,0-.577,2H96.539a1.535,1.535,0,1,0,0,3.07h18.71c0,.013,0,.025,0,.038a14.744,14.744,0,0,0,1.287,6.033h-20a1.535,1.535,0,1,0,0,3.07h21.842a14.947,14.947,0,0,0,3.9,3.508V74.555a2.146,2.146,0,0,0,3.465,1.7V96.4h-6.279a1.535,1.535,0,0,0,0,3.07h7.2a2.151,2.151,0,0,0,2.149-2.149V73.863l1.268-.988.976.761v28.082Zm3.758-29.047-3.413-2.658a2.147,2.147,0,0,0-2.641,0l-3.413,2.658V59.877a14.756,14.756,0,0,0,9.468,0Z" transform="translate(-67.407 0)"/>
        <path id="Trazado_678314" data-name="Trazado 678314" d="M353.03,202.367l-5.693,5.693-3.288-3.288a1.535,1.535,0,1,0-2.171,2.171l4.373,4.373a1.535,1.535,0,0,0,2.171,0l6.778-6.778a1.535,1.535,0,0,0-2.171-2.171Z" transform="translate(-285.347 -160.593)"/>
        <path id="Trazado_678315" data-name="Trazado 678315" d="M204.878,108.157a1.535,1.535,0,0,0-1.535-1.535H188.716a1.535,1.535,0,0,0,0,3.07h14.627A1.535,1.535,0,0,0,204.878,108.157Z" transform="translate(-162.668 -84.8)"/>
      </g>
    </g>
  </g>
</svg>
