<svg xmlns="http://www.w3.org/2000/svg" width="122" height="122" viewBox="0 0 122 122">
  <g id="Grupo_946758" data-name="Grupo 946758" transform="translate(7795 8210)">
    <circle id="Elipse_5281" data-name="Elipse 5281" cx="61" cy="61" r="61" transform="translate(-7795 -8210)" fill="#1b3f5e"/>
    <g id="_x34_2_Social_Engagement" transform="translate(-7791.458 -8201.063)">
      <g id="Grupo_946757" data-name="Grupo 946757" transform="translate(9.067 9.063)">
        <path id="Trazado_678366" data-name="Trazado 678366" d="M23.245,98.875a13.548,13.548,0,0,0-8.673,8.357c-.082.214-.153.429-.225.644a3,3,0,0,0,.725,2.973,2.987,2.987,0,0,0,2.186.9l19.257-.286a2.914,2.914,0,0,0,2.094-.919,1.834,1.834,0,0,0,.194-.2,2.87,2.87,0,0,0,.439-.746,2.947,2.947,0,0,0,.092-2.013c-.082-.255-.163-.511-.266-.766a11,11,0,0,0-.654-1.461,12.719,12.719,0,0,0-1.8-2.6c-.163-.194-.347-.388-.542-.582a11.622,11.622,0,0,0-.991-.889,2.263,2.263,0,0,0-.184-.143,12.909,12.909,0,0,0-4.526-2.3Z" transform="translate(-13.193 -81.007)" fill="#0e9c4a"/>
        <path id="Trazado_678367" data-name="Trazado 678367" d="M36.491,120.7l-19.253.285a3,3,0,0,1-2.912-3.875c.066-.219.139-.438.219-.65a14.035,14.035,0,0,0,20.333-6.1,13.331,13.331,0,0,1,1.175,1.044,13.051,13.051,0,0,1,3.255,5.415A3,3,0,0,1,36.491,120.7Z" transform="translate(-13.175 -90.24)" opacity="0.1"/>
        <path id="Trazado_678368" data-name="Trazado 678368" d="M373.661,109.755a3,3,0,0,1-2.912-3.873,13.328,13.328,0,0,1,12.443-9.535,13.081,13.081,0,0,1,12.539,9.239,3,3,0,0,1-2.821,3.884Z" transform="translate(-298.819 -79.015)" fill="#f78721"/>
        <path id="Trazado_678369" data-name="Trazado 678369" d="M392.9,120.7l-19.253.285a3,3,0,0,1-2.912-3.875c.066-.219.139-.438.219-.65a14.035,14.035,0,0,0,20.333-6.1,13.327,13.327,0,0,1,1.175,1.044,13.051,13.051,0,0,1,3.255,5.415A3,3,0,0,1,392.9,120.7Z" transform="translate(-298.809 -90.24)" opacity="0.1"/>
        <path id="Trazado_678370" data-name="Trazado 678370" d="M23.254,432.8a13.516,13.516,0,0,0-8.683,8.357c-.082.214-.153.429-.225.644a3,3,0,0,0,.725,2.973,2.986,2.986,0,0,0,2.186.9l19.257-.286a2.994,2.994,0,0,0,2.728-1.869,2.947,2.947,0,0,0,.092-2.013c-.082-.255-.163-.511-.266-.766a11,11,0,0,0-.654-1.461,12.718,12.718,0,0,0-1.8-2.6c-.163-.194-.347-.388-.542-.582a6.181,6.181,0,0,0-.46-.429c-.153-.143-.306-.276-.47-.409-.082-.071-.163-.133-.245-.194a12.909,12.909,0,0,0-4.526-2.3Z" transform="translate(-13.193 -348.624)" fill="#f78721"/>
        <path id="Trazado_678371" data-name="Trazado 678371" d="M36.491,454.625l-19.253.285a3,3,0,0,1-2.912-3.875c.066-.219.139-.438.219-.65a14.035,14.035,0,0,0,20.333-6.1,13.329,13.329,0,0,1,1.175,1.044,13.051,13.051,0,0,1,3.255,5.415A3,3,0,0,1,36.491,454.625Z" transform="translate(-13.175 -357.858)" opacity="0.1"/>
        <path id="Trazado_678372" data-name="Trazado 678372" d="M373.661,443.684a3,3,0,0,1-2.912-3.873,13.328,13.328,0,0,1,12.443-9.535,13.081,13.081,0,0,1,12.539,9.239,3,3,0,0,1-2.821,3.884Z" transform="translate(-298.819 -346.633)" fill="#0e9c4a"/>
        <path id="Trazado_678373" data-name="Trazado 678373" d="M392.9,454.625l-19.253.285a3,3,0,0,1-2.912-3.875c.066-.219.139-.438.219-.65a14.035,14.035,0,0,0,20.333-6.1,13.324,13.324,0,0,1,1.175,1.044,13.051,13.051,0,0,1,3.255,5.415A3,3,0,0,1,392.9,454.625Z" transform="translate(-298.809 -357.858)" opacity="0.1"/>
        <path id="Trazado_678374" data-name="Trazado 678374" d="M52.363,26.915a7.771,7.771,0,1,0-13.771-4.934,7.679,7.679,0,0,0,1.737,4.883Z" transform="translate(-32.729 -13.186)" fill="#474747"/>
        <path id="Trazado_678375" data-name="Trazado 678375" d="M56.916,24.72A7.765,7.765,0,0,1,42.064,27.9a7.616,7.616,0,0,0,3.182.686,7.768,7.768,0,0,0,7.765-7.773,7.63,7.63,0,0,0-.693-3.189,7.773,7.773,0,0,1,4.6,7.094Z" transform="translate(-35.512 -15.926)" opacity="0.1"/>
        <path id="Trazado_678376" data-name="Trazado 678376" d="M410.559,21.989a7.768,7.768,0,1,1-7.764-7.772A7.77,7.77,0,0,1,410.559,21.989Z" transform="translate(-318.38 -13.194)" fill="#474747"/>
        <path id="Trazado_678377" data-name="Trazado 678377" d="M413.326,24.72A7.765,7.765,0,0,1,398.474,27.9a7.616,7.616,0,0,0,3.182.686,7.768,7.768,0,0,0,7.765-7.773,7.63,7.63,0,0,0-.693-3.189,7.773,7.773,0,0,1,4.6,7.094Z" transform="translate(-321.146 -15.926)" opacity="0.1"/>
        <path id="Trazado_678378" data-name="Trazado 678378" d="M54.15,355.919a7.768,7.768,0,1,1-7.764-7.772A7.77,7.77,0,0,1,54.15,355.919Z" transform="translate(-32.746 -280.812)" fill="#474747"/>
        <path id="Trazado_678379" data-name="Trazado 678379" d="M56.916,358.649a7.765,7.765,0,0,1-14.852,3.182,7.616,7.616,0,0,0,3.182.686,7.768,7.768,0,0,0,7.765-7.773,7.631,7.631,0,0,0-.693-3.189A7.773,7.773,0,0,1,56.916,358.649Z" transform="translate(-35.512 -283.543)" opacity="0.1"/>
        <path id="Trazado_678380" data-name="Trazado 678380" d="M410.559,355.919a7.768,7.768,0,1,1-7.764-7.772A7.77,7.77,0,0,1,410.559,355.919Z" transform="translate(-318.38 -280.812)" fill="#474747"/>
        <path id="Trazado_678381" data-name="Trazado 678381" d="M413.326,358.649a7.765,7.765,0,0,1-14.852,3.182,7.617,7.617,0,0,0,3.182.686,7.768,7.768,0,0,0,7.765-7.773,7.63,7.63,0,0,0-.693-3.189A7.773,7.773,0,0,1,413.326,358.649Z" transform="translate(-321.146 -283.543)" opacity="0.1"/>
        <g id="Grupo_946756" data-name="Grupo 946756" transform="translate(7.552 7.729)">
          <path id="Trazado_678382" data-name="Trazado 678382" d="M59.265,50.173V53a6.257,6.257,0,0,1-6.194,6.293A6.08,6.08,0,0,1,47.1,53.208V50.173a2.19,2.19,0,0,1,2.19-2.19h7.787A2.19,2.19,0,0,1,59.265,50.173Z" transform="translate(-47.099 -47.983)" fill="#ebd8ae"/>
          <path id="Trazado_678383" data-name="Trazado 678383" d="M415.674,50.173V53a6.257,6.257,0,0,1-6.194,6.293,6.08,6.08,0,0,1-5.973-6.086V50.173a2.19,2.19,0,0,1,2.19-2.19h7.787A2.19,2.19,0,0,1,415.674,50.173Z" transform="translate(-332.733 -47.983)" fill="#ebd8ae"/>
          <path id="Trazado_678384" data-name="Trazado 678384" d="M59.265,384.1v2.829a6.257,6.257,0,0,1-6.194,6.293,6.08,6.08,0,0,1-5.973-6.086V384.1a2.19,2.19,0,0,1,2.19-2.19h7.787A2.19,2.19,0,0,1,59.265,384.1Z" transform="translate(-47.099 -315.601)" fill="#ebd8ae"/>
          <path id="Trazado_678385" data-name="Trazado 678385" d="M415.674,384.1v2.829a6.257,6.257,0,0,1-6.194,6.293,6.08,6.08,0,0,1-5.973-6.086V384.1a2.19,2.19,0,0,1,2.19-2.19h7.787A2.19,2.19,0,0,1,415.674,384.1Z" transform="translate(-332.733 -315.601)" fill="#ebd8ae"/>
        </g>
        <path id="Trazado_678386" data-name="Trazado 678386" d="M164.152,172.436l-10.338,5.69a20.708,20.708,0,0,1-39.821,0l-10.338-5.69,10.338-5.69a20.708,20.708,0,0,1,39.821,0Z" transform="translate(-84.871 -123.399)" fill="#f14f4a"/>
        <path id="Trazado_678387" data-name="Trazado 678387" d="M210.618,197.544l-10.338,5.69a20.707,20.707,0,0,1-38.646,3.126,24.822,24.822,0,0,0,8.438,1.461,25.085,25.085,0,0,0,25.08-24.763,20.644,20.644,0,0,1,5.128,8.8Z" transform="translate(-131.337 -148.506)" opacity="0.1"/>
        <path id="Trazado_678388" data-name="Trazado 678388" d="M392.591,35.336a14.043,14.043,0,0,0-8.054-8.866,7.407,7.407,0,0,0,1.523-3.246,8.789,8.789,0,1,0-15.745-5.365,8.638,8.638,0,0,0,1.807,5.315,7.059,7.059,0,0,0,1.541,3.368,14.8,14.8,0,0,0-8.012,9.091,4.015,4.015,0,0,0,3.9,5.192l19.258-.286A4.024,4.024,0,0,0,392.591,35.336ZM374.043,22.017V18.983a1.171,1.171,0,0,1,1.175-1.165H383a1.166,1.166,0,0,1,1.164,1.165v2.83a5.239,5.239,0,0,1-5.153,5.271A5.082,5.082,0,0,1,374.043,22.017Zm5.068-10.911a6.754,6.754,0,0,1,6.732,6.387A3.21,3.21,0,0,0,383,15.775h-7.784a3.222,3.222,0,0,0-2.85,1.719A6.76,6.76,0,0,1,379.112,11.106Zm9.669,27.389-19.257.286a1.977,1.977,0,0,1-1.92-2.549,12.638,12.638,0,0,1,7.81-8.171,6.974,6.974,0,0,0,3.571,1.066,6.811,6.811,0,0,0,3.8-1.111,11.949,11.949,0,0,1,7.852,7.916,1.983,1.983,0,0,1-1.857,2.563Z" transform="translate(-294.699 -9.063)"/>
        <path id="Trazado_678389" data-name="Trazado 678389" d="M13.061,374.751h.087l19.258-.286a4.029,4.029,0,0,0,3.776-5.212,14.026,14.026,0,0,0-8.048-8.851,7.491,7.491,0,0,0,1.534-3.268,8.789,8.789,0,1,0-15.759-5.348,8.633,8.633,0,0,0,1.786,5.288,7.074,7.074,0,0,0,1.535,3.4,14.64,14.64,0,0,0-7.987,9.086A4.023,4.023,0,0,0,13.061,374.751Zm4.58-18.807v-3.036a1.169,1.169,0,0,1,1.168-1.168H26.6a1.169,1.169,0,0,1,1.167,1.168v2.829a5.235,5.235,0,0,1-5.153,5.271A5.062,5.062,0,0,1,17.641,355.944Zm5.064-10.912a6.75,6.75,0,0,1,6.724,6.4A3.2,3.2,0,0,0,26.6,349.7H18.809a3.2,3.2,0,0,0-2.84,1.744A6.756,6.756,0,0,1,22.705,345.032ZM11.189,370.181a12.511,12.511,0,0,1,7.8-8.186,7.083,7.083,0,0,0,3.586,1.056,6.825,6.825,0,0,0,3.841-1.106,12.006,12.006,0,0,1,7.818,7.918,1.981,1.981,0,0,1-1.859,2.557l-19.264.287a1.976,1.976,0,0,1-1.92-2.527Z" transform="translate(-9.068 -276.679)"/>
        <path id="Trazado_678390" data-name="Trazado 678390" d="M9.243,35.636a4.022,4.022,0,0,0,3.814,5.19c1.9,0-6.878.1,19.345-.287a4.031,4.031,0,0,0,3.78-5.212,14.042,14.042,0,0,0-8.048-8.852,7.486,7.486,0,0,0,1.534-3.269A8.789,8.789,0,1,0,13.909,17.86a8.634,8.634,0,0,0,1.786,5.288,7.077,7.077,0,0,0,1.534,3.4,14.664,14.664,0,0,0-7.986,9.087Zm8.4-13.618V18.982a1.169,1.169,0,0,1,1.168-1.168H26.6a1.169,1.169,0,0,1,1.167,1.168v2.829a5.237,5.237,0,0,1-5.153,5.271,5.062,5.062,0,0,1-4.97-5.064ZM22.7,11.107a6.75,6.75,0,0,1,6.724,6.4A3.2,3.2,0,0,0,26.6,15.771H18.809a3.2,3.2,0,0,0-2.84,1.744A6.755,6.755,0,0,1,22.7,11.107ZM11.189,36.255a12.54,12.54,0,0,1,7.8-8.187,7.078,7.078,0,0,0,3.587,1.057,6.825,6.825,0,0,0,3.841-1.106,11.986,11.986,0,0,1,7.819,7.918A1.988,1.988,0,0,1,32.374,38.5l-19.265.286a1.975,1.975,0,0,1-1.919-2.526Z" transform="translate(-9.067 -9.064)"/>
        <path id="Trazado_678391" data-name="Trazado 678391" d="M392.587,369.261a14.056,14.056,0,0,0-8.049-8.863,7.487,7.487,0,0,0,1.532-3.266,8.789,8.789,0,1,0-15.759-5.346,8.633,8.633,0,0,0,1.786,5.288,7.073,7.073,0,0,0,1.538,3.406,14.8,14.8,0,0,0-7.989,9.08,4.018,4.018,0,0,0,3.841,5.192h.063l19.257-.287a4.024,4.024,0,0,0,3.78-5.2Zm-18.544-13.316v-3.036a1.169,1.169,0,0,1,1.168-1.168H383a1.169,1.169,0,0,1,1.167,1.168v2.829a5.237,5.237,0,0,1-5.153,5.271A5.062,5.062,0,0,1,374.042,355.944Zm5.063-10.912a6.75,6.75,0,0,1,6.725,6.4A3.2,3.2,0,0,0,383,349.7h-7.787a3.2,3.2,0,0,0-2.84,1.744A6.755,6.755,0,0,1,379.106,345.032Zm9.67,27.389-19.256.286h-.031a1.976,1.976,0,0,1-1.89-2.549A12.634,12.634,0,0,1,375.393,362a7.085,7.085,0,0,0,3.582,1.054,6.824,6.824,0,0,0,3.832-1.1,11.954,11.954,0,0,1,7.827,7.907,1.983,1.983,0,0,1-1.858,2.562Z" transform="translate(-294.694 -276.679)"/>
        <path id="Trazado_678392" data-name="Trazado 678392" d="M199.926,227.75h20.626a1.021,1.021,0,0,0,0-2.043H199.926a1.021,1.021,0,1,0,0,2.043Z" transform="translate(-161.207 -182.686)"/>
        <path id="Trazado_678393" data-name="Trazado 678393" d="M199.926,252.907h20.626a1.021,1.021,0,1,0,0-2.043H199.926a1.021,1.021,0,1,0,0,2.043Z" transform="translate(-161.207 -202.848)"/>
        <path id="Trazado_678394" data-name="Trazado 678394" d="M211.261,277.043a1.021,1.021,0,0,0-1.021-1.022H199.926a1.021,1.021,0,0,0,0,2.043h10.313a1.021,1.021,0,0,0,1.021-1.021Z" transform="translate(-161.207 -223.009)"/>
        <path id="Trazado_678395" data-name="Trazado 678395" d="M150.556,174.7l9.971-5.488a1.022,1.022,0,0,0,0-1.79l-9.971-5.488a21.729,21.729,0,0,0-41.54,0l-9.971,5.488a1.022,1.022,0,0,0,0,1.79l9.971,5.488a21.729,21.729,0,0,0,41.54,0Zm-39.7-.973a1.023,1.023,0,0,0-.49-.615l-8.712-4.8,8.712-4.8a1.022,1.022,0,0,0,.49-.615,19.686,19.686,0,0,1,37.855,0,1.022,1.022,0,0,0,.49.615l8.712,4.8-8.712,4.8a1.023,1.023,0,0,0-.49.615,19.685,19.685,0,0,1-37.855,0Z" transform="translate(-80.753 -119.276)"/>
      </g>
    </g>
  </g>
</svg>
