<svg xmlns="http://www.w3.org/2000/svg" width="122" height="122" viewBox="0 0 122 122">
  <g id="Grupo_946721" data-name="Grupo 946721" transform="translate(-741 -2336)">
    <circle id="Elipse_5271" data-name="Elipse 5271" cx="61" cy="61" r="61" transform="translate(741 2336)" fill="#1b3f5e"/>
    <g id="Support_Color_Line_Outline" data-name="Support_Color Line Outline" transform="translate(763.354 2354.973)">
      <g id="_15_Request_Support" data-name="15_Request Support" transform="translate(3)">
        <path id="Trazado_678213" data-name="Trazado 678213" d="M76.5,94.642H4V1H67.435L76.5,10.062Z" transform="translate(-2.49 0.51)" fill="#f4fbff"/>
        <path id="Trazado_678214" data-name="Trazado 678214" d="M56.088,13.124V10.062L47.026,1H43.989V13.124Z" transform="translate(17.919 0.51)" fill="#e6e6e6"/>
        <path id="Trazado_678215" data-name="Trazado 678215" d="M8.531,22.145V1H4V94.642H76.5V90.111A67.966,67.966,0,0,1,8.531,22.145Z" transform="translate(-2.49 0.51)" fill="#e4f6ff"/>
        <path id="Trazado_678216" data-name="Trazado 678216" d="M77.007,96.662H4.51A1.51,1.51,0,0,1,3,95.152V1.51A1.51,1.51,0,0,1,4.51,0H67.945a1.51,1.51,0,0,1,1.068.442L78.075,9.5a1.51,1.51,0,0,1,.443,1.068V27.186H75.5V11.2L67.32,3.021H6.021V93.642H75.5V61.924h3.021V95.152A1.51,1.51,0,0,1,77.007,96.662Z" transform="translate(-3 0)"/>
        <path id="Trazado_678217" data-name="Trazado 678217" d="M56.088,13.124V10.062L47.026,1H43.989V13.124Z" transform="translate(17.919 0.51)" fill="#f2f2f2"/>
        <path id="Trazado_678218" data-name="Trazado 678218" d="M8,31h9.062v9.062H8Z" transform="translate(-0.448 15.821)" fill="#f29500"/>
        <path id="Trazado_678219" data-name="Trazado 678219" d="M8,42h9.062v9.062H8Z" transform="translate(-0.448 21.435)" fill="#f29500"/>
        <path id="Trazado_678220" data-name="Trazado 678220" d="M8,53h9.062v9.062H8Z" transform="translate(-0.448 27.048)" fill="#f29500"/>
        <path id="Trazado_678221" data-name="Trazado 678221" d="M56.6,15.144H44.5a1.51,1.51,0,0,1-1.51-1.51V1.51A1.51,1.51,0,0,1,44.5,0h3.039A1.51,1.51,0,0,1,48.6.442L57.667,9.5a1.51,1.51,0,0,1,.443,1.068v3.061A1.51,1.51,0,0,1,56.6,15.144ZM46.009,12.124h9.08V11.2L46.912,3.021h-.906Z" transform="translate(17.408 0)"/>
        <ellipse id="Elipse_5285" data-name="Elipse 5285" cx="17" cy="16.5" rx="17" ry="16.5" transform="translate(20.645 7.662)" fill="#f4b400"/>
        <path id="Trazado_678222" data-name="Trazado 678222" d="M38.146,32.743A16.614,16.614,0,0,1,24.353,6.868,16.614,16.614,0,1,0,47.407,29.922a16.531,16.531,0,0,1-9.261,2.821Z" transform="translate(4.144 3.505)" fill="#f29500"/>
        <g id="Grupo_946720" data-name="Grupo 946720" transform="translate(6.041 6.041)">
          <path id="Trazado_678223" data-name="Trazado 678223" d="M34.12,40.249A18.124,18.124,0,1,1,40.35,5.1L39.311,7.936a15.123,15.123,0,1,0,5.043,3.081L46.4,8.8A18.124,18.124,0,0,1,34.12,40.249Z" transform="translate(-2.402 -4)"/>
          <path id="Trazado_678224" data-name="Trazado 678224" d="M17.572,42.083H8.51A1.51,1.51,0,0,1,7,40.572V31.51A1.51,1.51,0,0,1,8.51,30h3.021v3.021h-1.51v6.041h6.041V37.713h3.021v2.859A1.51,1.51,0,0,1,17.572,42.083Z" transform="translate(-7 9.27)"/>
          <path id="Trazado_678225" data-name="Trazado 678225" d="M17.572,53.083H8.51A1.51,1.51,0,0,1,7,51.572V42.51A1.51,1.51,0,0,1,8.51,41h3.021v3.021h-1.51v6.041h6.041V48.713h3.021v2.859A1.51,1.51,0,0,1,17.572,53.083Z" transform="translate(-7 14.884)"/>
          <path id="Trazado_678226" data-name="Trazado 678226" d="M17.572,64.083H8.51A1.51,1.51,0,0,1,7,62.572V53.51A1.51,1.51,0,0,1,8.51,52h3.021v3.021h-1.51v6.041h6.041V59.713h3.021v2.859A1.51,1.51,0,0,1,17.572,64.083Z" transform="translate(-7 20.497)"/>
          <path id="Trazado_678227" data-name="Trazado 678227" d="M0,0H10.68V3.021H0Z" transform="translate(4.966 44.24) rotate(-45)"/>
          <path id="Trazado_678228" data-name="Trazado 678228" d="M0,0H10.68V3.021H0Z" transform="translate(4.965 60.852) rotate(-45)"/>
          <path id="Trazado_678229" data-name="Trazado 678229" d="M0,0H11.747V3.021H0Z" transform="translate(4.964 77.463) rotate(-45)"/>
          <path id="Trazado_678230" data-name="Trazado 678230" d="M18,33H39.145v3.021H18Z" transform="translate(-1.386 10.801)"/>
          <path id="Trazado_678231" data-name="Trazado 678231" d="M18,44H31.593v3.021H18Z" transform="translate(-1.386 16.415)"/>
          <path id="Trazado_678232" data-name="Trazado 678232" d="M18,55H42.166v3.021H18Z" transform="translate(-1.386 22.028)"/>
          <path id="Trazado_678233" data-name="Trazado 678233" d="M45.313,52.242a1.51,1.51,0,0,1-1.069-.453l-6.494-6.494a1.51,1.51,0,0,1,0-2.136L59.415,21.486a1.51,1.51,0,0,1,2.135,0l6.495,6.5a1.51,1.51,0,0,1,0,2.136L46.381,51.789A1.51,1.51,0,0,1,45.313,52.242Zm-4.363-8L45.313,48.6,64.848,29.055,60.483,24.69Z" transform="translate(8.467 4.698)"/>
        </g>
        <path id="Trazado_678234" data-name="Trazado 678234" d="M0,0H30.646V9.193H0Z" transform="translate(53.311 54.965) rotate(-45)" fill="#f4b400"/>
        <path id="Trazado_678235" data-name="Trazado 678235" d="M45.313,52.242a1.51,1.51,0,0,1-1.069-.453l-6.494-6.494a1.51,1.51,0,0,1,0-2.136L59.415,21.486a1.51,1.51,0,0,1,2.135,0l6.495,6.5a1.51,1.51,0,0,1,0,2.136L46.381,51.789A1.51,1.51,0,0,1,45.313,52.242Zm-4.363-8L45.313,48.6,64.848,29.055,60.483,24.69Z" transform="translate(14.509 10.739)" fill="#383838"/>
        <path id="Trazado_678236" data-name="Trazado 678236" d="M59.151,30.1,52.656,23.6l3.238-3.258a4.6,4.6,0,0,1,6.5,6.5Z" transform="translate(22.342 9.697)" fill="#db4437"/>
        <path id="Trazado_678237" data-name="Trazado 678237" d="M59.661,32.164a1.51,1.51,0,0,1-1.068-.442L52.1,25.227a1.51,1.51,0,0,1,0-2.136l3.249-3.256a6.106,6.106,0,1,1,8.632,8.632l-3.25,3.25A1.51,1.51,0,0,1,59.661,32.164Zm-4.365-8,4.365,4.366,2.181-2.19a3.089,3.089,0,0,0,0-4.365,3.157,3.157,0,0,0-4.363,0Z" transform="translate(21.832 9.141)" fill="#383838"/>
        <path id="Trazado_678238" data-name="Trazado 678238" d="M34,47.929l8.668-2.167-6.5-6.5Z" transform="translate(12.821 20.037)" fill="#f4b400"/>
        <path id="Trazado_678239" data-name="Trazado 678239" d="M34.51,49.95a1.51,1.51,0,0,1-1.465-1.877L35.213,39.4a1.51,1.51,0,0,1,2.533-.7L44.24,45.2a1.51,1.51,0,0,1-.7,2.534L34.876,49.9a1.511,1.511,0,0,1-.366.045ZM37.5,42.726l-.906,3.637,3.638-.906Z" transform="translate(12.31 19.527)" fill="#383838"/>
        <path id="Trazado_678240" data-name="Trazado 678240" d="M0,0H6.129V9.193H0Z" transform="translate(48.976 59.296) rotate(-45)" fill="#db4437"/>
        <path id="Trazado_678241" data-name="Trazado 678241" d="M42.444,49.244a1.51,1.51,0,0,1-1.068-.442l-6.495-6.495a1.51,1.51,0,0,1,0-2.136l4.335-4.333a1.51,1.51,0,0,1,2.136,0l6.495,6.494a1.51,1.51,0,0,1,0,2.136L43.513,48.8A1.51,1.51,0,0,1,42.444,49.244Zm-4.365-8L42.444,45.6l2.2-2.2-4.363-4.365Z" transform="translate(13.045 18.064)" fill="#383838"/>
        <path id="Trazado_678242" data-name="Trazado 678242" d="M27.427,26.019a1.51,1.51,0,0,1-1.068-.442l-4.595-4.595L23.9,18.846l3.527,3.527L38.463,11.335,40.6,13.471,28.5,25.576A1.51,1.51,0,0,1,27.427,26.019Z" transform="translate(6.577 5.785)" fill="#383838"/>
        <path id="Trazado_678243" data-name="Trazado 678243" d="M51,37h3.021v3.021H51Z" transform="translate(21.497 18.883)" fill="#383838"/>
        <path id="Trazado_678244" data-name="Trazado 678244" d="M29,44h3.021v3.021H29Z" transform="translate(10.269 22.455)" fill="#383838"/>
      </g>
    </g>
  </g>
</svg>
