<svg xmlns="http://www.w3.org/2000/svg" width="122" height="122" viewBox="0 0 122 122">
  <g id="Grupo_946724" data-name="Grupo 946724" transform="translate(-1088 -2336)">
    <circle id="Elipse_5272" data-name="Elipse 5272" cx="61" cy="61" r="61" transform="translate(1088 2336)" fill="#1b3f5e"/>
    <g id="licencias" transform="translate(1100.01 2354.273)">
      <path id="Trazado_678245" data-name="Trazado 678245" d="M96.016,40.008v87.946h65.146V40.008Zm0,0" transform="translate(-76.477 -31.857)" fill="#e8e8e8"/>
      <path id="Trazado_678246" data-name="Trazado 678246" d="M157.9,51.408l-11.4-11.4H96.016V124.7H157.9Zm0,0" transform="translate(-76.477 -31.857)" fill="#afafaf"/>
      <path id="Trazado_678247" data-name="Trazado 678247" d="M64.016,95.954h65.146V22.666L114.5,8.008H64.016Zm0,0" transform="translate(-50.991 -6.371)" fill="#f4fbff"/>
      <path id="Trazado_678248" data-name="Trazado 678248" d="M326.673,22.666H312.016V8.008Zm0,0" transform="translate(-248.504 -6.371)" fill="#e8e8e8"/>
      <path id="Trazado_678249" data-name="Trazado 678249" d="M173.761,176.008l-53.745,53.745h53.745Zm0,0" transform="translate(-95.591 -140.17)" fill="#e8e8e8"/>
      <path id="Trazado_678250" data-name="Trazado 678250" d="M218.217,344.294H185.644a1.629,1.629,0,0,1-1.629-1.629V329.636a1.629,1.629,0,0,1,1.629-1.629h32.573a1.629,1.629,0,0,1,1.629,1.629v13.029A1.629,1.629,0,0,1,218.217,344.294Zm-30.944-3.257h29.315v-9.772H187.273Zm0,0" transform="translate(-146.562 -261.226)" fill="#636363"/>
      <path id="Trazado_678251" data-name="Trazado 678251" d="M216.016,360.008h6.515v3.257h-6.515Zm0,0" transform="translate(-172.047 -286.711)" fill="#348fd9"/>
      <path id="Trazado_678252" data-name="Trazado 678252" d="M264.016,360.008h13.029v3.257H264.016Zm0,0" transform="translate(-210.276 -286.711)" fill="#636363"/>
      <path id="Trazado_678253" data-name="Trazado 678253" d="M248.016,225.783l9.771-9.771,22.8,22.8-9.771,9.771Zm0,0" transform="translate(-197.533 -172.03)" fill="#e0e0de"/>
      <path id="Trazado_678254" data-name="Trazado 678254" d="M328.445,144.008a9.772,9.772,0,0,0-9.772,9.772v.814l-14.658,15.472,8.143,8.143,15.472-14.658h.814a9.772,9.772,0,0,0,0-19.544Zm0,0" transform="translate(-242.132 -114.685)" fill="#95573a"/>
      <path id="Trazado_678255" data-name="Trazado 678255" d="M224.02,268.89,228.905,264l22.8,22.8-4.886,4.886Zm0,0" transform="translate(-178.422 -210.252)" fill="#ebebe9"/>
      <path id="Trazado_678256" data-name="Trazado 678256" d="M348.448,148.246c-6.748,17.063-17.29,25.21-24.343,29.285l4.053,4.053,15.472-14.658h.814a9.772,9.772,0,0,0,4-18.681Zm0,0" transform="translate(-258.132 -118.06)" fill="#8f4d2e"/>
      <path id="Trazado_678257" data-name="Trazado 678257" d="M198.442,61.526a2.769,2.769,0,0,0-3.7-3.7,2.769,2.769,0,0,0-5.222,0,2.769,2.769,0,0,0-3.686,3.7,2.769,2.769,0,0,0,0,5.222,2.769,2.769,0,0,0,3.7,3.686,2.769,2.769,0,0,0,5.222,0,2.769,2.769,0,0,0,3.686-3.7,2.769,2.769,0,0,0,0-5.212Zm0,0" transform="translate(-146.543 -44.581)" fill="#ffb531"/>
      <path id="Trazado_678258" data-name="Trazado 678258" d="M91.7,73.922a17.9,17.9,0,0,0-27.687-15V88.926a17.9,17.9,0,0,0,27.687-15Zm0,0" transform="translate(-50.991 -44.599)" fill="#afafaf"/>
      <path id="Trazado_678259" data-name="Trazado 678259" d="M328.016,80.008h11.4v3.257h-11.4Zm0,0" transform="translate(-261.246 -63.714)" fill="#afafaf"/>
      <g id="Grupo_946723" data-name="Grupo 946723" transform="translate(21.167 32.581)">
        <path id="Trazado_678260" data-name="Trazado 678260" d="M152.016,232.008H168.3v3.257H152.016Zm0,0" transform="translate(-142.244 -217.35)" fill="#3fb7c7"/>
        <path id="Trazado_678261" data-name="Trazado 678261" d="M104.016,264.008h19.544v3.257H104.016Zm0,0" transform="translate(-104.016 -242.836)" fill="#3fb7c7"/>
        <path id="Trazado_678262" data-name="Trazado 678262" d="M104.016,200.008h34.2v3.257h-34.2Zm0,0" transform="translate(-104.016 -191.865)" fill="#636363"/>
        <path id="Trazado_678263" data-name="Trazado 678263" d="M104.016,296.008h9.772v3.257h-9.772Zm0,0" transform="translate(-104.016 -268.321)" fill="#3fb7c7"/>
        <path id="Trazado_678264" data-name="Trazado 678264" d="M104.016,328.008h13.029v3.257H104.016Zm0,0" transform="translate(-104.016 -293.806)" fill="#3fb7c7"/>
        <path id="Trazado_678265" data-name="Trazado 678265" d="M104.016,360.008h13.029v3.257H104.016Zm0,0" transform="translate(-104.016 -319.292)" fill="#3fb7c7"/>
        <path id="Trazado_678266" data-name="Trazado 678266" d="M104.016,392.008h13.029v3.257H104.016Zm0,0" transform="translate(-104.016 -344.777)" fill="#3fb7c7"/>
        <path id="Trazado_678267" data-name="Trazado 678267" d="M104.016,232.008h6.515v3.257h-6.515Zm0,0" transform="translate(-104.016 -217.35)" fill="#3fb7c7"/>
        <path id="Trazado_678268" data-name="Trazado 678268" d="M168.016,296.008h6.515v3.257h-6.515Zm0,0" transform="translate(-154.987 -268.321)" fill="#3fb7c7"/>
        <path id="Trazado_678269" data-name="Trazado 678269" d="M168.016,160.008h6.515v3.257h-6.515Zm0,0" transform="translate(-154.987 -160.008)" fill="#636363"/>
        <path id="Trazado_678270" data-name="Trazado 678270" d="M216.016,160.008h13.029v3.257H216.016Zm0,0" transform="translate(-193.215 -160.008)" fill="#3fb7c7"/>
      </g>
      <path id="Trazado_678271" data-name="Trazado 678271" d="M43.846,57.923A17.915,17.915,0,1,1,25.931,40.008,17.915,17.915,0,0,1,43.846,57.923Zm0,0" transform="translate(-6.392 -31.857)" fill="#7eb457"/>
      <path id="Trazado_678272" data-name="Trazado 678272" d="M40.4,101.418a1.629,1.629,0,0,1-1.151-.477l-4.886-4.886,2.3-2.3L40.4,97.486,55.532,82.352l2.3,2.3L41.548,100.941A1.629,1.629,0,0,1,40.4,101.418Zm0,0" transform="translate(-27.373 -65.58)" fill="#ffb531"/>
      <path id="Trazado_678273" data-name="Trazado 678273" d="M193.089,112.756a17.7,17.7,0,0,0-1.075-3.42A2.728,2.728,0,0,0,193.089,112.756Zm0,0" transform="translate(-152.749 -87.071)" fill="#f98500"/>
      <path id="Trazado_678274" data-name="Trazado 678274" d="M185.834,96.886a17.988,17.988,0,0,0-1.668-2.976A2.71,2.71,0,0,0,185.834,96.886Zm0,0" transform="translate(-146.651 -74.786)" fill="#f98500"/>
      <path id="Trazado_678275" data-name="Trazado 678275" d="M392.159,49.923V33.636a1.629,1.629,0,0,0-1.629-1.629h-6.515v3.257H388.9V49.923Zm0,0" transform="translate(-305.846 -25.485)"/>
      <path id="Trazado_678276" data-name="Trazado 678276" d="M56.016,240.008v40.716a1.629,1.629,0,0,0,1.629,1.629H122.79a1.629,1.629,0,0,0,1.629-1.629v-11.4h-3.257V279.1H59.273V240.008Zm0,0" transform="translate(-44.62 -191.141)"/>
      <path id="Trazado_678277" data-name="Trazado 678277" d="M108.806.171c-.051-.023-.1-.036-.152-.054a1.619,1.619,0,0,0-.421-.084.622.622,0,0,0-.1-.025H57.644a1.629,1.629,0,0,0-1.629,1.629V4.894h3.257V3.265H106.5V16.294a1.629,1.629,0,0,0,1.629,1.629h13.029v8.143h3.257V16.294c0-.034-.017-.065-.02-.1a1.586,1.586,0,0,0-.084-.421c-.018-.052-.031-.1-.054-.152a1.618,1.618,0,0,0-.325-.477L109.277.485a1.631,1.631,0,0,0-.471-.314Zm10.052,14.495h-9.1v-9.1Zm0,0" transform="translate(-44.62)"/>
      <path id="Trazado_678278" data-name="Trazado 678278" d="M184.016,329.636v13.029a1.629,1.629,0,0,0,1.629,1.629h21.172v-3.257H187.273v-9.772h8.143v-3.257h-9.772A1.629,1.629,0,0,0,184.016,329.636Zm0,0" transform="translate(-146.562 -261.226)"/>
      <path id="Trazado_678279" data-name="Trazado 678279" d="M216.016,360.008h9.772v3.257h-9.772Zm0,0" transform="translate(-172.047 -286.711)"/>
      <path id="Trazado_678280" data-name="Trazado 678280" d="M162.79,136.008a11.415,11.415,0,0,0-11.4,11.4v.163l-8.306,8.768-5.2-5.2a1.628,1.628,0,0,0-2.3,0L120.922,165.8a1.629,1.629,0,0,0,0,2.3l22.8,22.8a1.63,1.63,0,0,0,2.3,0l4.886-4.886,8.62-8.617v25.384H96.016v3.257h65.146a1.629,1.629,0,0,0,1.629-1.629V165.323h-3.257v7.469l-5.677-5.677,8.771-8.306h.163a11.4,11.4,0,1,0,0-22.8ZM144.875,187.45l-20.5-20.5,2.583-2.583,20.5,20.5ZM157.23,175.1l-7.469,7.469-20.5-20.5,7.469-7.469,4.111,4.111-3.664,3.866a1.629,1.629,0,0,0,.031,2.28L145.352,173a1.628,1.628,0,0,0,2.27.031l3.868-3.664Zm5.56-19.544h-.814a1.632,1.632,0,0,0-1.12.446l-14.321,13.56-5.894-5.894,13.567-14.321a1.628,1.628,0,0,0,.44-1.12v-.814a8.143,8.143,0,1,1,8.143,8.143Zm0,0" transform="translate(-76.477 -108.313)"/>
      <path id="Trazado_678281" data-name="Trazado 678281" d="M152.016,232.008H168.3v3.257H152.016Zm0,0" transform="translate(-121.076 -184.77)"/>
      <path id="Trazado_678282" data-name="Trazado 678282" d="M104.016,264.008h19.544v3.257H104.016Zm0,0" transform="translate(-82.848 -210.255)"/>
      <path id="Trazado_678283" data-name="Trazado 678283" d="M176.016,200.008h19.544v3.257H176.016Zm0,0" transform="translate(-140.191 -159.284)"/>
      <path id="Trazado_678284" data-name="Trazado 678284" d="M104.016,296.008h9.772v3.257h-9.772Zm0,0" transform="translate(-82.848 -235.74)"/>
      <path id="Trazado_678285" data-name="Trazado 678285" d="M104.016,328.008h13.029v3.257H104.016Zm0,0" transform="translate(-82.848 -261.226)"/>
      <path id="Trazado_678286" data-name="Trazado 678286" d="M104.016,360.008h13.029v3.257H104.016Zm0,0" transform="translate(-82.848 -286.711)"/>
      <path id="Trazado_678287" data-name="Trazado 678287" d="M104.016,392.008h13.029v3.257H104.016Zm0,0" transform="translate(-82.848 -312.197)"/>
      <path id="Trazado_678288" data-name="Trazado 678288" d="M104.016,232.008h6.515v3.257h-6.515Zm0,0" transform="translate(-82.848 -184.77)"/>
      <path id="Trazado_678289" data-name="Trazado 678289" d="M168.016,296.008h6.515v3.257h-6.515Zm0,0" transform="translate(-133.819 -235.74)"/>
      <path id="Trazado_678290" data-name="Trazado 678290" d="M200.016,160.008H216.3v3.257H200.016Zm0,0" transform="translate(-159.305 -127.427)"/>
      <path id="Trazado_678291" data-name="Trazado 678291" d="M19.539,71.084a19.544,19.544,0,0,0,19.509-18.86,4.305,4.305,0,0,0,3.158.987,4.417,4.417,0,0,0,6.782,0,4.418,4.418,0,0,0,4.794-4.794,4.417,4.417,0,0,0,0-6.782,4.418,4.418,0,0,0-4.794-4.794,4.417,4.417,0,0,0-6.782,0,4.418,4.418,0,0,0-4.794,4.794,4.228,4.228,0,0,0-.651.671A19.544,19.544,0,1,0,19.539,71.084Zm20.3-27.133a1.628,1.628,0,0,0,.926-2.232A1.14,1.14,0,0,1,42.29,40.2a1.628,1.628,0,0,0,2.232-.926,1.14,1.14,0,0,1,2.15,0,1.628,1.628,0,0,0,2.233.926,1.139,1.139,0,0,1,1.522,1.523,1.628,1.628,0,0,0,.926,2.232,1.14,1.14,0,0,1,0,2.15,1.628,1.628,0,0,0-.926,2.233,1.1,1.1,0,0,1-.224,1.3,1.109,1.109,0,0,1-1.3.225,1.628,1.628,0,0,0-2.232.925,1.14,1.14,0,0,1-2.15,0,1.625,1.625,0,0,0-.912-.959,1.66,1.66,0,0,0-.623-.124,1.6,1.6,0,0,0-.7.163,1.14,1.14,0,0,1-1.522-1.523,1.629,1.629,0,0,0-.926-2.233,1.14,1.14,0,0,1,0-2.15Zm-20.3-8.7A16.286,16.286,0,1,1,3.252,51.54,16.286,16.286,0,0,1,19.539,35.254Zm0,0" transform="translate(0 -25.474)"/>
      <path id="Trazado_678292" data-name="Trazado 678292" d="M39.245,100.941a1.629,1.629,0,0,0,2.3,0L57.835,84.655l-2.3-2.3L40.4,97.486l-3.734-3.734-2.3,2.3Zm0,0" transform="translate(-27.373 -65.58)"/>
    </g>
  </g>
</svg>
