<svg id="Grupo_946606" data-name="Grupo 946606" xmlns="http://www.w3.org/2000/svg" xmlns:xlink="http://www.w3.org/1999/xlink" width="88.766" height="103.644" viewBox="0 0 88.766 103.644">
  <defs>
    <linearGradient id="linear-gradient" x1="-2.786" y1="43.183" x2="-1.804" y2="44.237" gradientUnits="objectBoundingBox">
      <stop offset="0" stop-color="#6cf"/>
      <stop offset="1" stop-color="#fff"/>
    </linearGradient>
    <linearGradient id="linear-gradient-2" x1="-6.26" y1="125.306" x2="-5.832" y2="126.289" xlink:href="#linear-gradient"/>
    <linearGradient id="linear-gradient-3" x1="-7.846" y1="160.22" x2="-7.419" y2="161.2" xlink:href="#linear-gradient"/>
    <linearGradient id="linear-gradient-4" x1="-3.564" y1="54.665" x2="-2.976" y2="55.713" xlink:href="#linear-gradient"/>
    <linearGradient id="linear-gradient-5" x1="-6.713" y1="269.467" x2="-6.49" y2="270.558" xlink:href="#linear-gradient"/>
  </defs>
  <path id="Trazado_678464" data-name="Trazado 678464" d="M254.491,49.26a17.944,17.944,0,1,0-12.366-31.743,17.683,17.683,0,0,0-9.179-11.983,18.016,18.016,0,0,0-25.5,10.454,18.807,18.807,0,0,0-9.179,6.629,16.428,16.428,0,0,0-2.167,4.207,18.171,18.171,0,0,0-10.2,7.012,17.981,17.981,0,0,0,3.952,24.732c-7.012,15.808-4.844,33.528-2.422,43.981a5.941,5.941,0,0,0,9.816,3.06c8.924-7.9,24.477-21.927,36.97-32.89a18.6,18.6,0,0,0,17.465-7.9A18.4,18.4,0,0,0,254.491,49.26Z" transform="translate(-182.633 -3.524)" opacity="0.804" fill="url(#linear-gradient)"/>
  <path id="Trazado_678465" data-name="Trazado 678465" d="M237.426,56.891A17.932,17.932,0,1,1,233.091,31.9,17.976,17.976,0,0,1,237.426,56.891Z" transform="translate(-176.531 3.377)" fill="url(#linear-gradient-2)"/>
  <circle id="Elipse_7621" data-name="Elipse 7621" cx="14.023" cy="14.023" r="14.023" transform="translate(32.466 46.245)" opacity="0.5" fill="url(#linear-gradient-3)"/>
  <path id="Trazado_678466" data-name="Trazado 678466" d="M249.92,34.959a17.239,17.239,0,0,0-5.354-2.55,17.936,17.936,0,1,0-34.93-4.462,17.87,17.87,0,0,0-5.482,31.871,7.228,7.228,0,0,0,1.657,1.02C199.437,75.371,193.7,90.669,193.7,90.669a98.539,98.539,0,0,1,14.66-17.848c4.462-4.079,12.621-7.267,19.5-9.561a7.006,7.006,0,0,0,1.147.892A17.862,17.862,0,0,0,254,59.818,17.679,17.679,0,0,0,249.92,34.959Z" transform="translate(-179.592 -2.1)" opacity="0.7" fill="url(#linear-gradient-4)"/>
  <path id="Trazado_678467" data-name="Trazado 678467" d="M213.437,23.466a20.39,20.39,0,0,1,34.93,2.932,17.9,17.9,0,0,0-32.508-9.051,18.128,18.128,0,0,0-3.06,7.266A3.342,3.342,0,0,1,213.437,23.466Z" transform="translate(-174.342 -1.825)" opacity="0.5" fill="url(#linear-gradient-5)"/>
</svg>
