<svg xmlns="http://www.w3.org/2000/svg" width="85" height="93" viewBox="0 0 85 93">
  <g id="Grupo_946656" data-name="Grupo 946656" transform="translate(-180 -4315)">
    <rect id="Rectángulo_329362" data-name="Rectángulo 329362" width="85" height="93" rx="11" transform="translate(180 4315)" fill="#0f58b9"/>
    <g id="ecosistema" transform="translate(183 4321.667)">
      <g id="Grupo_935189" data-name="Grupo 935189" transform="translate(2.26 3.43)">
        <g id="Grupo_935179" data-name="Grupo 935179" transform="translate(30.186 51.57)">
          <path id="Trazado_676274" data-name="Trazado 676274" d="M41.094,44v8.553l-5.031-1.006V66.641H28.516V49.031l-2.516.5V44H41.094Z" transform="translate(-26 -44)" fill="#ccd1d9"/>
        </g>
        <g id="Grupo_935180" data-name="Grupo 935180" transform="translate(40.248 59.117)">
          <path id="Trazado_676275" data-name="Trazado 676275" d="M46.578,56.289v8.8H34V50l5.031,1.006,7.547,1.509Z" transform="translate(-34 -50)" fill="#e6e9ed"/>
        </g>
        <g id="Grupo_935181" data-name="Grupo 935181" transform="translate(57.857 47.797)">
          <path id="Trazado_676276" data-name="Trazado 676276" d="M60.578,41v5.031H48V41H60.578Z" transform="translate(-48 -41)" fill="#ccd1d9"/>
        </g>
        <g id="Grupo_935182" data-name="Grupo 935182" transform="translate(52.826 27.672)">
          <path id="Trazado_676277" data-name="Trazado 676277" d="M44,25H66.641V45.125H44Z" transform="translate(-44 -25)" fill="#69d6f4"/>
        </g>
        <g id="Grupo_935183" data-name="Grupo 935183" transform="translate(23.896)">
          <path id="Trazado_676278" data-name="Trazado 676278" d="M48.672,16.836l-.792.478a7.72,7.72,0,0,0-3.258,9.308l-1.4-.226A7.7,7.7,0,0,0,35.8,29.376l-.969,1.3-.855-1.145A7.694,7.694,0,0,0,26.3,26.6l-1.522.3.075-.189a7.722,7.722,0,0,0-3.195-9.484L21,16.836l.654-.39a7.717,7.717,0,0,0,3.572-8.239,7.112,7.112,0,0,0-.377-1.245l-.075-.189,1.522.3a7.694,7.694,0,0,0,7.685-2.931L34.836,3l.855,1.145a7.694,7.694,0,0,0,7.685,2.931l1.522-.3-.075.189a7.111,7.111,0,0,0-.377,1.245,7.717,7.717,0,0,0,3.572,8.239Z" transform="translate(-21 -3)" fill="#ffc729"/>
        </g>
        <g id="Grupo_935184" data-name="Grupo 935184" transform="translate(31.443 7.547)">
          <circle id="Elipse_5258" data-name="Elipse 5258" cx="6.289" cy="6.289" r="6.289" transform="translate(0 0)" fill="#fcd770"/>
        </g>
        <g id="Grupo_935185" data-name="Grupo 935185" transform="translate(20.123 56.601)">
          <path id="Trazado_676279" data-name="Trazado 676279" d="M30.578,48V65.609H18V50.516L28.062,48.5Z" transform="translate(-18 -48)" fill="#dfb28b"/>
        </g>
        <g id="Grupo_935186" data-name="Grupo 935186" transform="translate(0 26.412)">
          <path id="Trazado_676280" data-name="Trazado 676280" d="M12.062,46.641H8.289V45.7a3.725,3.725,0,0,0-1.635-3.157A10.06,10.06,0,0,1,8.389,24.692a9.876,9.876,0,0,1,2.5-.629,10.063,10.063,0,0,1,6.6,18.465,3.681,3.681,0,0,0-1.66,3.119v.994Z" transform="translate(-2.002 -23.998)" fill="#ffeaa7"/>
        </g>
        <g id="Grupo_935187" data-name="Grupo 935187" transform="translate(6.287 49.055)">
          <path id="Trazado_676281" data-name="Trazado 676281" d="M14.547,42v1.258a3.751,3.751,0,0,1-3.66,3.761.348.348,0,0,1-.113.013A3.779,3.779,0,0,1,7,43.258V42h7.547Z" transform="translate(-7 -42)" fill="#aab2bd"/>
        </g>
        <g id="Grupo_935188" data-name="Grupo 935188" transform="translate(7.545 33.961)">
          <circle id="Elipse_5259" data-name="Elipse 5259" cx="2.516" cy="2.516" r="2.516" transform="translate(0)" fill="#fcd770"/>
        </g>
      </g>
      <g id="Grupo_935190" data-name="Grupo 935190" transform="translate(1 1.333)">
        <path id="Trazado_676282" data-name="Trazado 676282" d="M33.547,23.094A7.547,7.547,0,1,0,26,15.547,7.554,7.554,0,0,0,33.547,23.094Zm0-12.578a5.031,5.031,0,1,1-5.031,5.031A5.036,5.036,0,0,1,33.547,10.516Z" transform="translate(5.446 0.386)"/>
        <path id="Trazado_676283" data-name="Trazado 676283" d="M72.419,29.844a34.263,34.263,0,0,0-21.265-22l.926-2.326-3.792.758a6.5,6.5,0,0,1-6.435-2.459l-1.86-2.482-1.86,2.482A6.5,6.5,0,0,1,31.7,6.274L27.9,5.515,28.83,7.84a33.853,33.853,0,0,0-21.2,21.771,11.385,11.385,0,0,0-6.539,8.813,11.269,11.269,0,0,0,5.137,11.02,2.474,2.474,0,0,1,1.058,2.1v2.2a5.022,5.022,0,0,0,4.435,4.971,34.369,34.369,0,0,0,9.4,9.421v8.249H6.031V78.9H73.953V76.383H56.344V69.661A34,34,0,0,0,69.015,57.516h7.454V55H73.953V52.484h5.031V29.844Zm4.05,10.062H71.438V32.359h5.031ZM63.891,49.969V42.422h5.031v7.547Zm-7.547-7.547h5.031v7.547H56.344Zm0-2.516V32.359h5.031v7.547Zm7.547,0V32.359h5.031v7.547ZM31.7,8.826A9.032,9.032,0,0,0,39.992,5.52a9.032,9.032,0,0,0,8.289,3.306,8.923,8.923,0,0,0,3.241,8.427,8.983,8.983,0,0,0-3.414,8.263,8.932,8.932,0,0,0-8.118,3.493,9.035,9.035,0,0,0-7.049-3.39,8.729,8.729,0,0,0-1.239.087,8.922,8.922,0,0,0-3.256-8.44A8.926,8.926,0,0,0,31.7,8.826ZM7.587,47.325a8.8,8.8,0,0,1,3.7-16.165A9.39,9.39,0,0,1,12.33,31.1a8.7,8.7,0,0,1,5.853,2.236,8.8,8.8,0,0,1-1.108,13.973,4.908,4.908,0,0,0-2.224,3.916H13.578V43.448a3.773,3.773,0,1,0-2.516,0v7.778H9.786a4.9,4.9,0,0,0-2.2-3.9Zm3.475-7.419a1.258,1.258,0,1,1,1.258,1.258A1.26,1.26,0,0,1,11.063,39.906ZM9.8,53.742h5.031a2.516,2.516,0,0,1-5.031,0Zm36.477,2.516v5.761L41.25,61.012v15.37H36.219V58.5L33.7,59V56.258ZM33.7,61.566V76.383H23.641v-12.8ZM43.766,76.383v-12.3l10.062,2.012V76.383Zm12.578-9.621V64.031L48.8,62.522v-8.78H46.281V51.227H43.766v2.516H41.25V48.711H38.734v5.031H36.219V51.227H33.7v2.516H31.188V59.5L21.125,61.515v3.533a31.865,31.865,0,0,1-6.656-6.776,5.024,5.024,0,0,0,2.883-4.531V51.488a2.454,2.454,0,0,1,1.084-2.062,11.319,11.319,0,0,0-7.43-20.766c-.137.015-.27.044-.406.064A31.34,31.34,0,0,1,29.288,10.34,6.418,6.418,0,0,1,26.161,15.8l-2.449,1.47,2.45,1.47a6.433,6.433,0,0,1,2.673,7.941l-.931,2.34,3.792-.758a6.5,6.5,0,0,1,6.435,2.459l1.86,2.482,1.977-2.635a6.439,6.439,0,0,1,6.206-2.5l3.534.576-.755-2.028a6.463,6.463,0,0,1,2.729-7.792l2.589-1.553-2.45-1.47A6.419,6.419,0,0,1,50.7,10.343a31.755,31.755,0,0,1,19.086,19.5H53.828V52.484h5.031V55H56.344v2.516h9.705a31.486,31.486,0,0,1-9.705,9.246ZM71.438,55H61.375V52.484H71.438Zm0-5.031V42.422h5.031v7.547Z" transform="translate(-1 -1.333)"/>
        <path id="Trazado_676284" data-name="Trazado 676284" d="M61,61h2.516v2.516H61Z" transform="translate(14.469 14.05)"/>
        <path id="Trazado_676285" data-name="Trazado 676285" d="M1,61H3.516v2.516H1Z" transform="translate(-1 14.05)"/>
        <path id="Trazado_676286" data-name="Trazado 676286" d="M37,57h5.031v2.516H37Z" transform="translate(8.282 13.019)"/>
        <path id="Trazado_676287" data-name="Trazado 676287" d="M21,53h5.031v2.516H21Z" transform="translate(4.157 11.987)"/>
        <path id="Trazado_676288" data-name="Trazado 676288" d="M21,57h5.031v2.516H21Z" transform="translate(4.157 13.019)"/>
        <path id="Trazado_676289" data-name="Trazado 676289" d="M25,29H42.609v2.516H25Z" transform="translate(5.188 5.8)"/>
        <path id="Trazado_676290" data-name="Trazado 676290" d="M37,33h2.516v2.516H37Z" transform="translate(8.282 6.831)"/>
        <path id="Trazado_676291" data-name="Trazado 676291" d="M29,33h2.516v2.516H29Z" transform="translate(6.219 6.831)"/>
        <path id="Trazado_676292" data-name="Trazado 676292" d="M25,33h2.516v2.516H25Z" transform="translate(5.188 6.831)"/>
        <path id="Trazado_676293" data-name="Trazado 676293" d="M33,33h2.516v2.516H33Z" transform="translate(7.25 6.831)"/>
      </g>
    </g>
  </g>
</svg>
