<svg xmlns="http://www.w3.org/2000/svg" width="295" height="135" viewBox="0 0 295 135">
  <g id="Grupo_946845" data-name="Grupo 946845" transform="translate(-1125 -398)">
    <rect id="Rectángulo_327585" data-name="Rectángulo 327585" width="295" height="104" transform="translate(1125 398)" fill="#25ffff" opacity="0.28"/>
    <g id="metas" transform="translate(1254.549 424.03)">
      <g id="Grupo_946788" data-name="Grupo 946788" transform="translate(7.606 2.355)">
        <g id="Grupo_946771" data-name="Grupo 946771" transform="translate(40.678 37.546)">
          <path id="Trazado_678460" data-name="Trazado 678460" d="M29,24.04H42.559v67.8H29Z" transform="translate(-29 -24.04)" fill="#7cb5e8"/>
        </g>
        <g id="Grupo_946772" data-name="Grupo 946772" transform="translate(47.458 37.546)" opacity="0.3">
          <path id="Trazado_678461" data-name="Trazado 678461" d="M33,78.277a6.778,6.778,0,0,0,6.78,6.78V24.04H33Z" transform="translate(-33 -24.04)" fill="#fff"/>
        </g>
        <g id="Grupo_946773" data-name="Grupo 946773" transform="translate(61.017 20.597)">
          <path id="Trazado_678462" data-name="Trazado 678462" d="M41,14.04H54.559V69.43H41Z" transform="translate(-41 -14.04)" fill="#8aba55"/>
        </g>
        <g id="Grupo_946774" data-name="Grupo 946774" transform="translate(67.797 20.597)" opacity="0.3">
          <path id="Trazado_678463" data-name="Trazado 678463" d="M45,85.227a6.778,6.778,0,0,0,6.78,6.78V14.04H45Z" transform="translate(-45 -14.04)" fill="#fff"/>
        </g>
        <g id="Grupo_946775" data-name="Grupo 946775" transform="translate(20.339 54.496)">
          <path id="Trazado_678464" data-name="Trazado 678464" d="M17,34.04H30.559V84.888H17Z" transform="translate(-17 -34.04)" fill="#8aba55"/>
        </g>
        <g id="Grupo_946776" data-name="Grupo 946776" transform="translate(0 71.445)">
          <path id="Trazado_678465" data-name="Trazado 678465" d="M5,44.04H18.559v33.9H5Z" transform="translate(-5 -44.04)" fill="#7cb5e8"/>
        </g>
        <g id="Grupo_946777" data-name="Grupo 946777" transform="translate(49.153 54.496)">
          <circle id="Elipse_5295" data-name="Elipse 5295" cx="25.424" cy="25.424" r="25.424" transform="translate(0)" fill="#e2e2e2"/>
        </g>
        <g id="Grupo_946778" data-name="Grupo 946778" transform="translate(55.932 61.275)">
          <circle id="Elipse_5296" data-name="Elipse 5296" cx="18.644" cy="18.644" r="18.644" fill="#ef4a51"/>
        </g>
        <g id="Grupo_946779" data-name="Grupo 946779" transform="translate(62.712 68.055)">
          <circle id="Elipse_5297" data-name="Elipse 5297" cx="11.864" cy="11.864" r="11.864" fill="#e2e2e2"/>
        </g>
        <g id="Grupo_946780" data-name="Grupo 946780" transform="translate(69.492 74.835)">
          <circle id="Elipse_5298" data-name="Elipse 5298" cx="5.085" cy="5.085" r="5.085" fill="#ef4a51"/>
        </g>
        <g id="Grupo_946781" data-name="Grupo 946781">
          <path id="Trazado_678466" data-name="Trazado 678466" d="M43.136,28.468c-12.712,9.525-25.424-9.525-38.136,0V4.637c12.712-9.525,25.424,9.525,38.136,0Z" transform="translate(-5 -1.888)" fill="#ffab03"/>
        </g>
        <g id="Grupo_946782" data-name="Grupo 946782" transform="translate(27.119 54.496)" opacity="0.3">
          <path id="Trazado_678467" data-name="Trazado 678467" d="M21,71.328a6.778,6.778,0,0,0,6.78,6.78V34.04H21Z" transform="translate(-21 -34.04)" fill="#fff"/>
        </g>
        <g id="Grupo_946783" data-name="Grupo 946783" transform="translate(6.78 71.445)" opacity="0.3">
          <path id="Trazado_678468" data-name="Trazado 678468" d="M9,64.379a6.778,6.778,0,0,0,6.78,6.78V44.04H9Z" transform="translate(-9 -44.04)" fill="#fff"/>
        </g>
        <g id="Grupo_946784" data-name="Grupo 946784" transform="translate(60.322 54.496)" opacity="0.3">
          <path id="Trazado_678469" data-name="Trazado 678469" d="M54.844,34.04A25.431,25.431,0,0,0,43.353,36.8,25.4,25.4,0,0,0,77.505,70.955,25.4,25.4,0,0,0,54.844,34.04Z" transform="translate(-40.59 -34.04)" fill="#fff"/>
        </g>
        <g id="Grupo_946785" data-name="Grupo 946785" transform="translate(13.559 0.851)" opacity="0.3">
          <path id="Trazado_678470" data-name="Trazado 678470" d="M13,2.39v9.966A10.178,10.178,0,0,0,23.17,22.526H37.576V4.271C29.373,10.424,21.186,4.7,13,2.39Z" transform="translate(-13 -2.39)" fill="#fff"/>
        </g>
        <g id="Grupo_946786" data-name="Grupo 946786" transform="translate(24.145 2.75)" opacity="0.3">
          <path id="Trazado_678471" data-name="Trazado 678471" d="M19.355,5.307c-.034.22-.085.424-.1.644a5.093,5.093,0,0,0,4.8,5.356,19.419,19.419,0,0,0,4.1-.2v2.678a5.078,5.078,0,0,0,5.085,5.085V3.51c-4.627,3.458-9.254,3.136-13.881,1.8Z" transform="translate(-19.245 -3.51)" fill="#fff"/>
        </g>
        <g id="Grupo_946787" data-name="Grupo 946787" transform="translate(71.81 54.511)" opacity="0.5">
          <path id="Trazado_678472" data-name="Trazado 678472" d="M75.134,54.864A25.569,25.569,0,0,0,54.8,34.474a26.508,26.508,0,0,0-4.983-.424c-3.017.034-3.356,4.644-.373,5.034a4.4,4.4,0,0,0,.678.051A20.355,20.355,0,0,1,70.456,59.474a5.089,5.089,0,0,0,.051.729c.424,2.966,4.983,2.644,5.034-.373A24.758,24.758,0,0,0,75.134,54.864Z" transform="translate(-47.368 -34.049)" fill="#fff"/>
        </g>
      </g>
      <g id="Grupo_946802" data-name="Grupo 946802" transform="translate(1.25 1.214)">
        <g id="Grupo_946789" data-name="Grupo 946789" transform="translate(25.424 54.365)">
          <path id="Trazado_678473" data-name="Trazado 678473" d="M31.081,86.68H17.521a1.28,1.28,0,0,1-1.271-1.271V34.561a1.28,1.28,0,0,1,1.271-1.271H31.081a1.28,1.28,0,0,1,1.271,1.271V85.409A1.28,1.28,0,0,1,31.081,86.68ZM18.792,84.138H29.809V35.832H18.792Z" transform="translate(-16.25 -33.29)"/>
        </g>
        <g id="Grupo_946790" data-name="Grupo 946790" transform="translate(5.085 71.315)">
          <path id="Trazado_678474" data-name="Trazado 678474" d="M19.081,79.731H5.521A1.28,1.28,0,0,1,4.25,78.46V54.731a1.271,1.271,0,0,1,2.542,0V77.188H17.809V45.832H6.792v3.814a1.271,1.271,0,1,1-2.542,0V44.561A1.28,1.28,0,0,1,5.521,43.29H19.081a1.28,1.28,0,0,1,1.271,1.271v33.9A1.28,1.28,0,0,1,19.081,79.731Z" transform="translate(-4.25 -43.29)"/>
        </g>
        <g id="Grupo_946791" data-name="Grupo 946791" transform="translate(54.237 54.365)">
          <path id="Trazado_678475" data-name="Trazado 678475" d="M59.945,86.68A26.709,26.709,0,1,1,80.589,76.9a1.276,1.276,0,1,1-1.966-1.627,23.962,23.962,0,1,0-2.576,2.712,1.272,1.272,0,1,1,1.695,1.9A26.706,26.706,0,0,1,59.945,86.68Z" transform="translate(-33.25 -33.29)"/>
        </g>
        <g id="Grupo_946792" data-name="Grupo 946792" transform="translate(61.017 61.145)">
          <path id="Trazado_678476" data-name="Trazado 678476" d="M57.165,77.121A19.916,19.916,0,0,1,41.792,44.544a1.276,1.276,0,1,1,1.966,1.627,17.308,17.308,0,1,0,2.678-2.627,1.268,1.268,0,1,1-1.559-2A19.916,19.916,0,1,1,57.165,77.121Z" transform="translate(-37.25 -37.29)"/>
        </g>
        <g id="Grupo_946793" data-name="Grupo 946793" transform="translate(67.797 67.925)">
          <path id="Trazado_678477" data-name="Trazado 678477" d="M54.386,67.561a13.136,13.136,0,1,1,12.1-18.254,1.269,1.269,0,0,1-2.339.983,10.6,10.6,0,1,0,.831,4.119c0-.305-.017-.593-.034-.881a1.283,1.283,0,0,1,1.169-1.373,1.263,1.263,0,0,1,1.373,1.169c.034.356.051.729.051,1.1A13.183,13.183,0,0,1,54.386,67.561Z" transform="translate(-41.25 -41.29)"/>
        </g>
        <g id="Grupo_946794" data-name="Grupo 946794" transform="translate(74.576 74.704)">
          <path id="Trazado_678478" data-name="Trazado 678478" d="M51.606,58a6.356,6.356,0,1,1,6.356-6.356A6.358,6.358,0,0,1,51.606,58Zm0-10.17a3.814,3.814,0,1,0,3.814,3.814A3.819,3.819,0,0,0,51.606,47.832Z" transform="translate(-45.25 -45.29)"/>
        </g>
        <g id="Grupo_946795" data-name="Grupo 946795" transform="translate(79.665 54.37)">
          <path id="Trazado_678479" data-name="Trazado 678479" d="M49.519,61.254a1.257,1.257,0,0,1-.9-.373,1.279,1.279,0,0,1,0-1.8L74.045,33.661a1.27,1.27,0,0,1,1.8,1.8L50.418,60.882A1.332,1.332,0,0,1,49.519,61.254Z" transform="translate(-48.252 -33.292)"/>
        </g>
        <g id="Grupo_946796" data-name="Grupo 946796" transform="translate(100 54.365)">
          <path id="Trazado_678480" data-name="Trazado 678480" d="M66.606,40.917H61.521a1.28,1.28,0,0,1-1.271-1.271V34.561a1.271,1.271,0,0,1,2.542,0v3.814h3.814a1.271,1.271,0,0,1,0,2.542Z" transform="translate(-60.25 -33.29)"/>
        </g>
        <g id="Grupo_946797" data-name="Grupo 946797" transform="translate(5.085 2.62)">
          <path id="Trazado_678481" data-name="Trazado 678481" d="M5.521,55.353A1.28,1.28,0,0,1,4.25,54.082V4.031a1.271,1.271,0,1,1,2.542,0V54.082A1.28,1.28,0,0,1,5.521,55.353Z" transform="translate(-4.25 -2.76)"/>
        </g>
        <g id="Grupo_946798" data-name="Grupo 946798" transform="translate(5.068)">
          <path id="Trazado_678482" data-name="Trazado 678482" d="M35.63,32.97c-3.881,0-7.712-1.441-11.475-2.847-6.2-2.322-12.068-4.525-17.864-.169a1.275,1.275,0,0,1-1.339.119,1.3,1.3,0,0,1-.712-1.136V5.105a1.253,1.253,0,0,1,.508-1.017,14.709,14.709,0,0,1,5.559-2.644,1.27,1.27,0,1,1,.576,2.475A11.869,11.869,0,0,0,6.8,5.749V26.6c6.2-3.373,12.322-1.085,18.237,1.136,6.017,2.254,11.712,4.39,17.356.542V7.427C36.172,10.8,30.071,8.512,24.155,6.292a40.485,40.485,0,0,0-8.627-2.542,1.273,1.273,0,1,1,.322-2.525,42.865,42.865,0,0,1,9.2,2.678c6.2,2.322,12.068,4.525,17.864.169a1.275,1.275,0,0,1,1.339-.119,1.3,1.3,0,0,1,.712,1.136V28.919a1.253,1.253,0,0,1-.508,1.017A14.252,14.252,0,0,1,35.63,32.97Z" transform="translate(-4.24 -1.214)"/>
        </g>
        <g id="Grupo_946799" data-name="Grupo 946799" transform="translate(0 52.671)">
          <path id="Trazado_678483" data-name="Trazado 678483" d="M12.691,34.832H2.521a1.271,1.271,0,1,1,0-2.542h10.17a1.271,1.271,0,1,1,0,2.542Z" transform="translate(-1.25 -32.29)"/>
        </g>
        <g id="Grupo_946800" data-name="Grupo 946800" transform="translate(45.763 37.416)">
          <path id="Trazado_678484" data-name="Trazado 678484" d="M43.081,93.629H29.521a1.28,1.28,0,0,1-1.271-1.271v-67.8a1.28,1.28,0,0,1,1.271-1.271H43.081a1.28,1.28,0,0,1,1.271,1.271V44.256a1.271,1.271,0,0,1-2.542,0V25.832H30.792V91.087H41.809V89.612a1.271,1.271,0,0,1,2.542,0v2.746A1.28,1.28,0,0,1,43.081,93.629Z" transform="translate(-28.25 -23.29)"/>
        </g>
        <g id="Grupo_946801" data-name="Grupo 946801" transform="translate(66.102 20.467)">
          <path id="Trazado_678485" data-name="Trazado 678485" d="M41.521,47.866A1.28,1.28,0,0,1,40.25,46.6V14.561a1.28,1.28,0,0,1,1.271-1.271H55.081a1.28,1.28,0,0,1,1.271,1.271V43.375a1.271,1.271,0,1,1-2.542,0V15.832H42.792V46.6A1.28,1.28,0,0,1,41.521,47.866Z" transform="translate(-40.25 -13.29)"/>
        </g>
      </g>
    </g>
  </g>
</svg>
