<svg id="Grupo_946607" data-name="Grupo 946607" xmlns="http://www.w3.org/2000/svg" xmlns:xlink="http://www.w3.org/1999/xlink" width="78.117" height="93.692" viewBox="0 0 78.117 93.692">
  <defs>
    <linearGradient id="linear-gradient" x1="-2.783" y1="48.566" x2="-1.797" y2="49.619" gradientUnits="objectBoundingBox">
      <stop offset="0" stop-color="#6cf"/>
      <stop offset="1" stop-color="#fff"/>
    </linearGradient>
    <linearGradient id="linear-gradient-2" x1="-6.409" y1="140.885" x2="-5.981" y2="141.868" xlink:href="#linear-gradient"/>
    <linearGradient id="linear-gradient-3" x1="-7.825" y1="180.448" x2="-7.397" y2="181.428" xlink:href="#linear-gradient"/>
    <linearGradient id="linear-gradient-4" x1="-3.373" y1="61.566" x2="-2.786" y2="62.614" xlink:href="#linear-gradient"/>
    <linearGradient id="linear-gradient-5" x1="-6.517" y1="302.197" x2="-6.293" y2="303.284" xlink:href="#linear-gradient"/>
  </defs>
  <path id="Trazado_678431" data-name="Trazado 678431" d="M279.928,96.21a15.49,15.49,0,0,0,12.748-7.776,15.846,15.846,0,0,0-23.712-20.27A15.792,15.792,0,0,0,242.7,60.133a16.665,16.665,0,0,0-4.207,6.757,15.96,15.96,0,0,0-8.031,5.864,20.313,20.313,0,0,0-1.912,3.7,15.419,15.419,0,0,0-8.924,6.119,15.771,15.771,0,0,0,3.442,21.8c-6.247,14.023-4.207,29.7-2.04,39.01a5.138,5.138,0,0,0,8.414,2.677c7.776-7.012,21.672-19.377,32.763-29.193a16.319,16.319,0,0,0,17.72-20.652Z" transform="translate(-216.71 -55.806)" opacity="0.8" fill="url(#linear-gradient)"/>
  <circle id="Elipse_7620" data-name="Elipse 7620" cx="15.808" cy="15.808" r="15.808" transform="translate(39.252 23.45)" fill="url(#linear-gradient-2)"/>
  <path id="Trazado_678432" data-name="Trazado 678432" d="M261.536,107.2a12.345,12.345,0,1,1-2.932-17.21A12.423,12.423,0,0,1,261.536,107.2Z" transform="translate(-210.556 -47.04)" opacity="0.5" fill="url(#linear-gradient-3)"/>
  <path id="Trazado_678433" data-name="Trazado 678433" d="M273.291,95.8a17.925,17.925,0,0,0-4.717-2.295,15.813,15.813,0,0,0-27.919-14.151,16.67,16.67,0,0,0-2.932,10.2,15.445,15.445,0,0,0-8.669,6.119,15.768,15.768,0,0,0,3.824,22.054,8.573,8.573,0,0,0,1.4.892C228.8,131.366,223.7,144.879,223.7,144.879a87.283,87.283,0,0,1,13-15.68c3.824-3.57,11.218-6.5,17.21-8.414.382.255.637.51,1.02.765a15.768,15.768,0,0,0,22.054-3.824A15.611,15.611,0,0,0,273.291,95.8Z" transform="translate(-214.789 -51.187)" opacity="0.7" fill="url(#linear-gradient-4)"/>
  <path id="Trazado_678434" data-name="Trazado 678434" d="M243.237,80.335A18.092,18.092,0,0,1,268.224,76a17.551,17.551,0,0,1,5.737,6.884,15.4,15.4,0,0,0-6.629-11.856,15.768,15.768,0,0,0-22.054,3.824,16.034,16.034,0,0,0-2.677,6.5A11.75,11.75,0,0,0,243.237,80.335Z" transform="translate(-209.595 -52.423)" opacity="0.5" fill="url(#linear-gradient-5)"/>
</svg>
