<svg xmlns="http://www.w3.org/2000/svg" width="123.482" height="122" viewBox="0 0 123.482 122">
  <g id="Grupo_946750" data-name="Grupo 946750" transform="translate(7413 9609)">
    <circle id="Elipse_5275" data-name="Elipse 5275" cx="61" cy="61" r="61" transform="translate(-7413 -9609)" fill="#1b3f5e"/>
    <g id="contrato" transform="translate(-7392 -9595.676)">
      <g id="Grupo_946747" data-name="Grupo 946747" transform="translate(1.501 1.823)">
        <g id="Grupo_946744" data-name="Grupo 946744">
          <g id="Grupo_946738" data-name="Grupo 946738" transform="translate(6.134)">
            <path id="Trazado_678337" data-name="Trazado 678337" d="M40.013,96.793l59.136,3.955a2,2,0,0,0,2.131-1.863l5.683-84.972a2,2,0,0,0-1.863-2.131L45.963,7.827A2,2,0,0,0,43.832,9.69L38.149,94.662A2,2,0,0,0,40.013,96.793Z" transform="translate(-38.144 -7.822)" fill="#fae19e"/>
          </g>
          <g id="Grupo_946743" data-name="Grupo 946743" transform="translate(0 10.186)">
            <g id="Grupo_946742" data-name="Grupo 946742">
              <g id="Grupo_946741" data-name="Grupo 946741">
                <g id="Grupo_946740" data-name="Grupo 946740">
                  <g id="Grupo_946739" data-name="Grupo 946739" transform="translate(0 0)">
                    <path id="Trazado_678338" data-name="Trazado 678338" d="M9.5,147.877H54.766l16-15.934V60.714a2,2,0,0,0-2-2H9.5a2,2,0,0,0-2,2v85.162A2,2,0,0,0,9.5,147.877Z" transform="translate(-7.5 -58.712)" fill="#fff9e9"/>
                  </g>
                  <path id="Trazado_678339" data-name="Trazado 678339" d="M281.607,58.712H273.6a2,2,0,0,1,2,2v71.23l-.052,8.022,8.058-8.022V60.714A2,2,0,0,0,281.607,58.712Z" transform="translate(-220.338 -58.712)" fill="#fff4d6"/>
                </g>
              </g>
            </g>
            <path id="Trazado_678340" data-name="Trazado 678340" d="M243.64,439.988V425.926a2,2,0,0,1,2-2h14Z" transform="translate(-196.374 -350.823)" fill="#ffeec2"/>
          </g>
        </g>
        <g id="Grupo_946746" data-name="Grupo 946746" transform="translate(79.851 34.706)">
          <path id="Trazado_678341" data-name="Trazado 678341" d="M441.944,194.7l-6.68.033V184.555a3.352,3.352,0,0,1,3.337-3.344h0a3.317,3.317,0,0,1,3.341,3.315V194.7Z" transform="translate(-429.493 -181.211)" fill="#fed23a"/>
          <path id="Trazado_678342" data-name="Trazado 678342" d="M438.947,412.874A10.967,10.967,0,0,1,435.7,405.1l-.012-14.807a.236.236,0,0,1,.234-.235l6.012-.03a.233.233,0,0,1,.234.232l.012,14.828a10.968,10.968,0,0,1-3.206,7.757Z" transform="translate(-429.834 -348.229)" fill="#54b1ff"/>
          <path id="Trazado_678343" data-name="Trazado 678343" d="M431.043,267.841h0a5.194,5.194,0,0,1-5.232-5.191v-42.74a2.465,2.465,0,0,1,2.453-2.465l5.53-.027a2.465,2.465,0,0,1,2.478,2.465V262.6a5.249,5.249,0,0,1-5.226,5.237Z" transform="translate(-421.931 -210.171)" fill="#fdf385"/>
          <path id="Trazado_678344" data-name="Trazado 678344" d="M444.44,217.417l-4.758.024a2.464,2.464,0,0,1,2.143,2.442V262.6a5.237,5.237,0,0,1-2.7,4.578,5.2,5.2,0,0,0,2.567.659h0a5.249,5.249,0,0,0,5.226-5.237V219.882A2.465,2.465,0,0,0,444.44,217.417Z" transform="translate(-432.579 -210.17)" fill="#faee6e"/>
          <path id="Trazado_678345" data-name="Trazado 678345" d="M423.415,247.925,409.08,248a2.659,2.659,0,0,0-2.647,2.652,2.627,2.627,0,0,0,2.647,2.626l11.687-.058v15.51a2.627,2.627,0,0,0,2.647,2.626,2.659,2.659,0,0,0,2.647-2.652V250.55a2.627,2.627,0,0,0-2.647-2.625Z" transform="translate(-406.433 -234.571)" fill="#54b1ff"/>
          <g id="Grupo_946745" data-name="Grupo 946745" transform="translate(9.254 13.354)">
            <path id="Trazado_678346" data-name="Trazado 678346" d="M460.394,247.925l-7.694.038-.033,5.266,5.08-.013v15.51a2.627,2.627,0,0,0,2.647,2.625,2.659,2.659,0,0,0,2.647-2.652V250.551A2.627,2.627,0,0,0,460.394,247.925Z" transform="translate(-452.666 -247.925)" fill="#3da7ff"/>
          </g>
        </g>
      </g>
      <g id="Grupo_946748" data-name="Grupo 946748" transform="translate(0 0.322)">
        <path id="Trazado_678347" data-name="Trazado 678347" d="M74.689,4.285,15.554.33a3.507,3.507,0,0,0-3.729,3.261l-.463,6.917H3.5a3.507,3.507,0,0,0-3.5,3.5V99.173a3.507,3.507,0,0,0,3.5,3.5H48.767a1.517,1.517,0,0,0,1.059-.437l6.833-6.8a1.489,1.489,0,0,0,.213.031l11.666.78a3.59,3.59,0,0,0,3.729-3.261L77.951,8.014a3.533,3.533,0,0,0-3.261-3.729ZM50.269,97.541V87.112a.5.5,0,0,1,.5-.5H61.157Zm19-4.755a.5.5,0,0,1-.532.466l-9.263-.62L65.831,86.3a1.5,1.5,0,0,0,.442-1.064V14.011a3.507,3.507,0,0,0-3.5-3.5H47.16a1.5,1.5,0,0,0,0,3H62.771a.5.5,0,0,1,.5.5v69.6h-12.5a3.507,3.507,0,0,0-3.5,3.5V99.673H3.5a.5.5,0,0,1-.5-.5V14.011a.5.5,0,0,1,.5-.5H39.165a1.5,1.5,0,0,0,0-3H14.372l.449-6.717a.5.5,0,0,1,.533-.466L74.489,7.281a.5.5,0,0,1,.466.533Z" transform="translate(0 -0.322)" fill="#060606"/>
        <path id="Trazado_678348" data-name="Trazado 678348" d="M98.219,237.047H57.275a1.5,1.5,0,1,0,0,3H98.219a1.5,1.5,0,1,0,0-3Z" transform="translate(-44.61 -189.664)" fill="#060606"/>
        <path id="Trazado_678349" data-name="Trazado 678349" d="M98.219,289.332H57.275a1.5,1.5,0,1,0,0,3H98.219a1.5,1.5,0,1,0,0-3Z" transform="translate(-44.61 -231.484)" fill="#060606"/>
        <path id="Trazado_678350" data-name="Trazado 678350" d="M55.774,186.263a1.5,1.5,0,0,0,1.5,1.5H98.219a1.5,1.5,0,1,0,0-3H57.275A1.5,1.5,0,0,0,55.774,186.263Z" transform="translate(-44.61 -147.844)" fill="#060606"/>
        <path id="Trazado_678351" data-name="Trazado 678351" d="M91.807,133.978a1.5,1.5,0,0,0,1.5,1.5h26.519a1.5,1.5,0,0,0,0-3H93.308A1.5,1.5,0,0,0,91.807,133.978Z" transform="translate(-73.431 -106.025)" fill="#060606"/>
        <path id="Trazado_678352" data-name="Trazado 678352" d="M81.663,397.262q-4.05.011-8.1.017l-2.722,0c-1.644,0-2.752-.329-3.121-2.137-.311-1.529-2.475-1.324-2.9,0-1.039,3.27-2.757,1.989-3.719-.211a30.8,30.8,0,0,1-1.626-6.986c-.308-1.716-2.9-1.235-2.949.4a27.973,27.973,0,0,1-.807,6.357,51,51,0,0,1-2.246,6.28c-.731,1.794,2.175,2.565,2.9.8a57.964,57.964,0,0,0,2.04-5.547c1.029,2.474,3.157,5.272,6.19,3.623a6.047,6.047,0,0,0,1.554-1.252c1.577,1.823,3.925,1.679,6.122,1.676q4.692-.006,9.384-.019A1.5,1.5,0,0,0,81.663,397.262Z" transform="translate(-42.68 -309.499)" fill="#060606"/>
        <path id="Trazado_678353" data-name="Trazado 678353" d="M420.853,188.932a4.318,4.318,0,0,0-2.941-1.2l-1.135.006v-2.146a4.156,4.156,0,0,0-1.888-3.375v-3.022c0-6.219-9.682-6.192-9.682.029v3.022a3.967,3.967,0,0,0-1.893,3.373v2.2c-5,.34-5.011,7.955.006,8.253.032,6.72.03,13.331-.006,20.164a1.5,1.5,0,0,0,3,.016c.036-6.839.038-13.455.006-20.181l7.448-.037s-.01,22.187-.01,32.183c0,4.872-7.45,4.9-7.45-.051l0-2.738a1.5,1.5,0,0,0-3-.181v2.569a7.373,7.373,0,0,0,2,5.378,12.554,12.554,0,0,0,3.677,8.4,1.592,1.592,0,0,0,2.151-.036,12.38,12.38,0,0,0,3.637-8.49c.991-.987,1.983-1.981,1.983-5.384V214a4.206,4.206,0,0,0,5.3-3.992V191.855a4.1,4.1,0,0,0-1.215-2.923Zm-14.536-1.146v-2.17a.964.964,0,0,1,.715-.927l6.01-.03a.947.947,0,0,1,.733.93v2.161Zm3.737-10.408a1.954,1.954,0,0,1,1.832,1.814v2.435l-3.677.018v-2.424A1.852,1.852,0,0,1,410.054,177.377Zm0,60.829a9.577,9.577,0,0,1-1.485-3.284,6.528,6.528,0,0,0,2.976-.038A9.36,9.36,0,0,1,410.051,238.207Zm9.013-28.2a1.147,1.147,0,0,1-2.292.026s0-14.206,0-15.508a1.514,1.514,0,0,0-1.513-1.5l-11.687.058a1.139,1.139,0,0,1,.015-2.275l14.335-.071a1.126,1.126,0,0,1,1.139,1.124V210Z" transform="translate(-319.585 -139.669)" fill="#060606"/>
      </g>
    </g>
  </g>
</svg>
