<svg xmlns="http://www.w3.org/2000/svg" width="70" height="85" viewBox="0 0 70 85">
  <g id="Grupo_946653" data-name="Grupo 946653" transform="translate(-923 -6854)">
    <rect id="Rectángulo_37872" data-name="Rectángulo 37872" width="70" height="85" rx="12" transform="translate(923 6854)" fill="#0f58b9"/>
    <g id="certificadoo" transform="translate(931.207 6872)">
      <g id="Grupo_946502" data-name="Grupo 946502" transform="translate(3.519 0.725)">
        <g id="Grupo_946496" data-name="Grupo 946496">
          <g id="Grupo_946495" data-name="Grupo 946495">
            <g id="Grupo_946494" data-name="Grupo 946494">
              <g id="Grupo_946493" data-name="Grupo 946493">
                <g id="Grupo_946492" data-name="Grupo 946492">
                  <path id="Trazado_678176" data-name="Trazado 678176" d="M20.631,7.5h24.6a2.862,2.862,0,0,1,2.862,2.862V52.688a2.862,2.862,0,0,1-2.862,2.862H13.155a2.862,2.862,0,0,1-2.862-2.862V17.837a2.862,2.862,0,0,1,.838-2.024l7.476-7.476A2.862,2.862,0,0,1,20.631,7.5Z" transform="translate(-10.293 -7.499)" fill="#f4fbff"/>
                  <path id="Trazado_678177" data-name="Trazado 678177" d="M314.234,7.5h-6.146a2.862,2.862,0,0,1,2.862,2.862V52.688a2.862,2.862,0,0,1-2.862,2.862h6.146a2.862,2.862,0,0,0,2.862-2.862V10.362A2.862,2.862,0,0,0,314.234,7.5Z" transform="translate(-279.296 -7.499)" fill="#e4f6ff"/>
                  <path id="Trazado_678178" data-name="Trazado 678178" d="M13.534,18.216,21.01,10.74a2.862,2.862,0,0,1,.838-.581V17.28a1.775,1.775,0,0,1-1.775,1.775H12.953A2.86,2.86,0,0,1,13.534,18.216Z" transform="translate(-12.696 -9.902)" fill="#e28086"/>
                </g>
              </g>
            </g>
          </g>
          <path id="Trazado_678179" data-name="Trazado 678179" d="M180.889,63.36H166a.9.9,0,0,1-.9-.9V60.107a.9.9,0,0,1,.9-.9h14.886a.9.9,0,0,1,.9.9V62.46A.9.9,0,0,1,180.889,63.36Z" transform="translate(-150.135 -54.208)" fill="#cbe2ff"/>
        </g>
        <path id="Trazado_678180" data-name="Trazado 678180" d="M363.934,343.016l-2.659-1.637a.814.814,0,0,0-.853,0l-2.659,1.637a.814.814,0,0,1-1.24-.693V331.792h8.652v10.531a.814.814,0,0,1-1.241.693Z" transform="translate(-323.047 -300.438)" fill="#e8ae4d"/>
        <g id="Grupo_946501" data-name="Grupo 946501" transform="translate(28.091 15.905)">
          <g id="Grupo_946500" data-name="Grupo 946500">
            <g id="Grupo_946499" data-name="Grupo 946499">
              <g id="Grupo_946498" data-name="Grupo 946498">
                <g id="Grupo_946497" data-name="Grupo 946497">
                  <path id="Trazado_678181" data-name="Trazado 678181" d="M312.267,172.85a2.174,2.174,0,0,0,2.328.757,2.174,2.174,0,0,1,2.782,2.021,2.174,2.174,0,0,0,1.439,1.981,2.174,2.174,0,0,1,1.063,3.271,2.174,2.174,0,0,0,0,2.448,2.174,2.174,0,0,1-1.063,3.271,2.174,2.174,0,0,0-1.439,1.981A2.174,2.174,0,0,1,314.6,190.6a2.174,2.174,0,0,0-2.328.757,2.174,2.174,0,0,1-3.439,0,2.174,2.174,0,0,0-2.328-.757,2.174,2.174,0,0,1-2.782-2.021,2.174,2.174,0,0,0-1.439-1.981,2.174,2.174,0,0,1-1.063-3.271,2.174,2.174,0,0,0,0-2.448,2.174,2.174,0,0,1,1.063-3.271,2.174,2.174,0,0,0,1.439-1.981,2.174,2.174,0,0,1,2.782-2.021,2.174,2.174,0,0,0,2.328-.757A2.174,2.174,0,0,1,312.267,172.85Z" transform="translate(-300.838 -172.007)" fill="#ffe07d"/>
                  <path id="Trazado_678182" data-name="Trazado 678182" d="M390.616,183.328a2.174,2.174,0,0,1,0-2.448,2.174,2.174,0,0,0-1.063-3.271,2.174,2.174,0,0,1-1.439-1.981,2.174,2.174,0,0,0-2.782-2.021,2.174,2.174,0,0,1-2.328-.757,2.174,2.174,0,0,0-3.439,0,2.174,2.174,0,0,1-.42.412,9.714,9.714,0,0,1,0,17.682,2.171,2.171,0,0,1,.42.412,2.174,2.174,0,0,0,3.439,0,2.174,2.174,0,0,1,2.328-.757,2.174,2.174,0,0,0,2.782-2.021,2.174,2.174,0,0,1,1.439-1.981A2.174,2.174,0,0,0,390.616,183.328Z" transform="translate(-371.574 -172.007)" fill="#ffd064"/>
                  <circle id="Elipse_5283" data-name="Elipse 5283" cx="5.352" cy="5.352" r="5.352" transform="translate(4.358 4.745)" fill="#e8ae4d"/>
                  <path id="Trazado_678183" data-name="Trazado 678183" d="M427.637,231.054a5.353,5.353,0,0,0-3.1-4.857,9.722,9.722,0,0,1,0,9.715A5.353,5.353,0,0,0,427.637,231.054Z" transform="translate(-412.576 -220.958)" fill="#e5a32e"/>
                </g>
              </g>
            </g>
          </g>
        </g>
      </g>
      <path id="Trazado_678184" data-name="Trazado 678184" d="M13.534,18.216,21.01,10.74a2.862,2.862,0,0,1,.838-.581V17.28a1.775,1.775,0,0,1-1.775,1.775H12.953A2.86,2.86,0,0,1,13.534,18.216Z" transform="translate(-9.177 -9.177)" fill="#e28086"/>
      <g id="Grupo_946503" data-name="Grupo 946503" transform="translate(2.794 0)">
        <path id="Trazado_678185" data-name="Trazado 678185" d="M78.577,181.506H60.015a.725.725,0,1,0,0,1.45H78.577a.725.725,0,1,0,0-1.45Z" transform="translate(-53.828 -163.957)"/>
        <path id="Trazado_678186" data-name="Trazado 678186" d="M78.577,234.2H60.015a.725.725,0,1,0,0,1.45H78.577a.725.725,0,1,0,0-1.45Z" transform="translate(-53.828 -211.559)"/>
        <path id="Trazado_678187" data-name="Trazado 678187" d="M78.577,286.9H60.015a.725.725,0,1,0,0,1.45H78.577a.725.725,0,1,0,0-1.45Z" transform="translate(-53.828 -259.159)"/>
        <path id="Trazado_678188" data-name="Trazado 678188" d="M79.3,340.319a.725.725,0,0,0-.725-.725H60.015a.725.725,0,0,0,0,1.45H78.577A.725.725,0,0,0,79.3,340.319Z" transform="translate(-53.828 -306.761)"/>
        <path id="Trazado_678189" data-name="Trazado 678189" d="M60.015,416.821a.725.725,0,1,0,0,1.45h9.3a.725.725,0,1,0,0-1.45Z" transform="translate(-53.828 -376.521)"/>
        <path id="Trazado_678190" data-name="Trazado 678190" d="M175.741,55.685V53.332a1.627,1.627,0,0,0-1.625-1.625H159.229a1.627,1.627,0,0,0-1.625,1.625v2.353a1.627,1.627,0,0,0,1.625,1.625h1.257a.725.725,0,0,0,0-1.45h-1.257a.175.175,0,0,1-.175-.175V53.332a.175.175,0,0,1,.175-.175h14.886a.175.175,0,0,1,.175.175v2.353a.175.175,0,0,1-.175.175H163.876a.725.725,0,1,0,0,1.45h10.239A1.627,1.627,0,0,0,175.741,55.685Z" transform="translate(-142.636 -46.708)"/>
        <path id="Trazado_678191" data-name="Trazado 678191" d="M41.32,44.213a.725.725,0,0,0-.725.725v.976a2.14,2.14,0,0,1-2.137,2.137H6.381a2.14,2.14,0,0,1-2.137-2.137V11.063A2.152,2.152,0,0,1,4.3,10.6h6.6a2.5,2.5,0,0,0,2.5-2.5V1.5a2.151,2.151,0,0,1,.461-.051h24.6a2.14,2.14,0,0,1,2.137,2.137v9.653a.725.725,0,1,0,1.45,0V3.587A3.591,3.591,0,0,0,38.457,0h-24.6a3.564,3.564,0,0,0-2.537,1.051L3.845,8.527a3.564,3.564,0,0,0-1.051,2.537V45.915A3.591,3.591,0,0,0,6.381,49.5H38.457a3.592,3.592,0,0,0,3.588-3.587v-.976a.725.725,0,0,0-.725-.725ZM11.947,2.475V8.1a1.051,1.051,0,0,1-1.05,1.05H5.269Z" transform="translate(-2.794 0)"/>
        <path id="Trazado_678192" data-name="Trazado 678192" d="M313.7,174.513a2.9,2.9,0,0,0-1.417-4.361,1.441,1.441,0,0,1-.959-1.32,2.9,2.9,0,0,0-3.71-2.7,1.441,1.441,0,0,1-1.552-.5,2.9,2.9,0,0,0-4.586,0,1.441,1.441,0,0,1-1.552.5,2.9,2.9,0,0,0-3.71,2.7,1.441,1.441,0,0,1-.959,1.32,2.9,2.9,0,0,0-1.417,4.361,1.441,1.441,0,0,1,0,1.632,2.9,2.9,0,0,0,1.417,4.361,1.441,1.441,0,0,1,.959,1.32,2.9,2.9,0,0,0,2.5,2.784v6.6a1.539,1.539,0,0,0,2.346,1.31l2.659-1.637a.076.076,0,0,1,.093,0l2.659,1.637a1.539,1.539,0,0,0,2.346-1.311v-6.6a2.9,2.9,0,0,0,2.5-2.784,1.441,1.441,0,0,1,.959-1.32,2.9,2.9,0,0,0,1.417-4.361,1.44,1.44,0,0,1,0-1.632Zm-6.465,16.775-2.659-1.637a1.539,1.539,0,0,0-1.613,0l-2.659,1.637a.088.088,0,0,1-.135-.076v-6.739a1.438,1.438,0,0,1,1.308.553,2.9,2.9,0,0,0,4.586,0,1.439,1.439,0,0,1,1.308-.553v6.739a.088.088,0,0,1-.135.076Zm5.267-14.326a1.449,1.449,0,0,1-.708,2.18,2.883,2.883,0,0,0-1.919,2.641,1.429,1.429,0,0,1-.522,1.07,1.444,1.444,0,0,1-1.332.277,2.883,2.883,0,0,0-3.105,1.009,1.449,1.449,0,0,1-2.292,0,2.881,2.881,0,0,0-2.284-1.127,2.928,2.928,0,0,0-.821.118,1.443,1.443,0,0,1-1.333-.277,1.429,1.429,0,0,1-.522-1.07,2.883,2.883,0,0,0-1.919-2.641,1.449,1.449,0,0,1-.708-2.18,2.883,2.883,0,0,0,0-3.265,1.449,1.449,0,0,1,.708-2.18,2.883,2.883,0,0,0,1.919-2.641,1.449,1.449,0,0,1,1.854-1.347,2.883,2.883,0,0,0,3.1-1.009,1.449,1.449,0,0,1,2.292,0,2.883,2.883,0,0,0,3.1,1.009,1.449,1.449,0,0,1,1.854,1.347,2.883,2.883,0,0,0,1.919,2.641,1.449,1.449,0,0,1,.708,2.18A2.883,2.883,0,0,0,312.5,176.961Z" transform="translate(-265.24 -148.602)"/>
        <path id="Trazado_678193" data-name="Trazado 678193" d="M344.491,213.583a6.077,6.077,0,1,0,6.077,6.077A6.084,6.084,0,0,0,344.491,213.583Zm0,10.7a4.627,4.627,0,1,1,4.627-4.627A4.632,4.632,0,0,1,344.491,224.287Z" transform="translate(-305.965 -192.933)"/>
      </g>
    </g>
  </g>
</svg>
