<svg xmlns="http://www.w3.org/2000/svg" width="70" height="85" viewBox="0 0 70 85">
  <g id="Grupo_946651" data-name="Grupo 946651" transform="translate(-292 -6853)">
    <rect id="Rectángulo_37872" data-name="Rectángulo 37872" width="70" height="85" rx="12" transform="translate(292 6853)" fill="#0f58b9"/>
    <g id="Linear_ok" transform="translate(299 6869)">
      <path id="Trazado_678149" data-name="Trazado 678149" d="M46.107,10.359V50.481a1.672,1.672,0,0,1-1.672,1.672H12.672A1.672,1.672,0,0,1,11,50.481V3.672A1.672,1.672,0,0,1,12.672,2H37.748Z" transform="translate(-0.164 -0.164)" fill="#d7f7e4"/>
      <path id="Trazado_678150" data-name="Trazado 678150" d="M51.359,10.359H45.388A2.388,2.388,0,0,1,43,7.971V2Z" transform="translate(-5.416 -0.164)" fill="#bee5ce"/>
      <path id="Trazado_678151" data-name="Trazado 678151" d="M30.687,33.389s6.687-3.313,6.687-7.356V17.758s-4.806-.69-6.687-2.758C28.806,17.069,24,17.758,24,17.758v8.275C24,30.076,30.687,33.389,30.687,33.389Z" transform="translate(-2.298 -2.298)" fill="#61e09a"/>
      <g id="Grupo_946484" data-name="Grupo 946484" transform="translate(10 1)">
        <path id="Trazado_678152" data-name="Trazado 678152" d="M44.271,52.824H12.508A2.508,2.508,0,0,1,10,50.317V3.508A2.508,2.508,0,0,1,12.508,1H37.584a.836.836,0,0,1,.591.245L46.534,9.6a.836.836,0,0,1,.245.591V50.317A2.508,2.508,0,0,1,44.271,52.824ZM12.508,2.672a.836.836,0,0,0-.836.836V50.317a.836.836,0,0,0,.836.836H44.271a.836.836,0,0,0,.836-.836V10.541L37.238,2.672Z" transform="translate(-10 -1)" fill="#231f20"/>
        <path id="Trazado_678153" data-name="Trazado 678153" d="M51.195,11.031H45.224A3.227,3.227,0,0,1,42,7.807V1.836a.836.836,0,0,1,1.427-.591L51.786,9.6a.836.836,0,0,1-.591,1.427ZM43.672,3.854V7.807a1.554,1.554,0,0,0,1.552,1.552h3.953Z" transform="translate(-15.252 -1)" fill="#231f20"/>
        <path id="Trazado_678154" data-name="Trazado 678154" d="M30.523,34.063a.836.836,0,0,1-.371-.084C29.86,33.835,23,30.385,23,25.872V17.6a.836.836,0,0,1,.716-.827c1.254-.182,4.815-.984,6.185-2.494a.863.863,0,0,1,1.237,0c1.373,1.51,4.932,2.312,6.185,2.494a.836.836,0,0,1,.721.827v8.275c0,4.509-6.86,7.96-7.152,8.108A.836.836,0,0,1,30.523,34.063ZM24.672,18.3v7.573c0,2.7,3.929,5.373,5.851,6.414,1.923-1.041,5.851-3.718,5.851-6.414V18.3a14.876,14.876,0,0,1-5.851-2.325A14.876,14.876,0,0,1,24.672,18.3Z" transform="translate(-12.134 -3.136)" fill="#231f20"/>
        <path id="Trazado_678155" data-name="Trazado 678155" d="M29.508,28.687a.836.836,0,0,1-.591-.245L27.245,26.77a.836.836,0,1,1,1.182-1.182l1.081,1.081,4.424-4.424a.836.836,0,1,1,1.182,1.182L30.1,28.442a.836.836,0,0,1-.591.245Z" transform="translate(-12.79 -4.447)" fill="#231f20"/>
        <path id="Trazado_678156" data-name="Trazado 678156" d="M39.225,43.672H20.836a.836.836,0,1,1,0-1.672H39.225a.836.836,0,0,1,0,1.672Z" transform="translate(-11.641 -7.729)" fill="#231f20"/>
        <path id="Trazado_678157" data-name="Trazado 678157" d="M39.225,47.672H20.836a.836.836,0,1,1,0-1.672H39.225a.836.836,0,0,1,0,1.672Z" transform="translate(-11.641 -8.386)" fill="#231f20"/>
        <path id="Trazado_678158" data-name="Trazado 678158" d="M34.21,51.672H20.836a.836.836,0,1,1,0-1.672H34.21a.836.836,0,1,1,0,1.672Z" transform="translate(-11.641 -9.042)" fill="#231f20"/>
      </g>
    </g>
  </g>
</svg>
