<svg xmlns="http://www.w3.org/2000/svg" width="123.108" height="122" viewBox="0 0 123.108 122">
  <g id="Grupo_946764" data-name="Grupo 946764" transform="translate(-1088 -3682)">
    <circle id="Elipse_5279" data-name="Elipse 5279" cx="61" cy="61" r="61" transform="translate(1088 3682)" fill="#1b3f5e"/>
    <g id="auditoria" transform="translate(1103.792 3689.998)">
      <g id="Grupo_946763" data-name="Grupo 946763" transform="translate(9.809 9.601)">
        <g id="Grupo_946761" data-name="Grupo 946761" transform="translate(0 0)">
          <path id="Trazado_678408" data-name="Trazado 678408" d="M111.721,16h47.144a1.932,1.932,0,0,1,1.414.586l8.49,8.49a1.932,1.932,0,0,1,.586,1.414v64.8a2,2,0,0,1-2,2H111.721a2,2,0,0,1-2-2V18a2,2,0,0,1,2-2Z" transform="translate(-91.021 -16)" fill="#b1b1b5" fill-rule="evenodd"/>
          <path id="Trazado_678409" data-name="Trazado 678409" d="M359.605,16.867v7.489a2,2,0,0,0,2,2h7.489a2,2,0,0,0-.412-.586l-8.49-8.49a2.008,2.008,0,0,0-.586-.412Z" transform="translate(-290.933 -16.694)" fill="#a79ba7" fill-rule="evenodd"/>
          <path id="Trazado_678410" data-name="Trazado 678410" d="M64.966,62.755H112.11a1.932,1.932,0,0,1,1.414.586l8.49,8.49a1.932,1.932,0,0,1,.586,1.414v64.8a2,2,0,0,1-2,2H64.966a2,2,0,0,1-2-2V64.755A2,2,0,0,1,64.966,62.755Z" transform="translate(-53.616 -53.405)" fill="#d1d1d6" fill-rule="evenodd"/>
          <path id="Trazado_678411" data-name="Trazado 678411" d="M312.85,63.621V71.11a2,2,0,0,0,2,2h7.489a2,2,0,0,0-.412-.586l-8.49-8.49A2.005,2.005,0,0,0,312.85,63.621Z" transform="translate(-253.528 -54.098)" fill="#a79ba7" fill-rule="evenodd"/>
          <path id="Trazado_678412" data-name="Trazado 678412" d="M18.212,109.509H65.356a1.932,1.932,0,0,1,1.414.586l8.49,8.49A1.932,1.932,0,0,1,75.846,120v64.8a2,2,0,0,1-2,2H18.212a2,2,0,0,1-2-2V111.509a2,2,0,0,1,2-2Z" transform="translate(-16.212 -90.809)" fill="#eceff1" fill-rule="evenodd"/>
          <path id="Trazado_678413" data-name="Trazado 678413" d="M18.212,109.509h3.064V186.8H18.212a2,2,0,0,1-2-2V111.509A2,2,0,0,1,18.212,109.509Z" transform="translate(-16.212 -90.809)" fill="#d1d1d6" fill-rule="evenodd"/>
          <path id="Trazado_678414" data-name="Trazado 678414" d="M266.1,110.376v7.489a2,2,0,0,0,2,2h7.489a2,2,0,0,0-.412-.586l-8.49-8.49A2.005,2.005,0,0,0,266.1,110.376Z" transform="translate(-216.123 -91.503)" fill="#a79ba7" fill-rule="evenodd"/>
        </g>
        <g id="Grupo_946762" data-name="Grupo 946762" transform="translate(29.178 30.149)">
          <path id="Trazado_678415" data-name="Trazado 678415" d="M369.393,359.844l-3.976,3.718-12.284-11.92,3.469-4.211Z" transform="translate(-314.932 -311.3)" fill="#a79ba7" fill-rule="evenodd"/>
          <path id="Trazado_678416" data-name="Trazado 678416" d="M379.823,359.843l-3.976,3.718-.952-.923,2.989-2.795L366.17,348.476l.861-1.046Z" transform="translate(-325.362 -311.299)" fill="#837683" fill-rule="evenodd"/>
          <path id="Trazado_678417" data-name="Trazado 678417" d="M410.859,410.641l4.273-4.4a1.965,1.965,0,0,0-.042-2.771l-11.836-11.486a1.965,1.965,0,0,0-2.771.042l-4.273,4.4a1.965,1.965,0,0,0,.042,2.771l11.836,11.485a1.965,1.965,0,0,0,2.771-.042Z" transform="translate(-348.955 -346.501)" fill="#ecba78" fill-rule="evenodd"/>
          <path id="Trazado_678418" data-name="Trazado 678418" d="M431.905,410.642l4.273-4.4a1.965,1.965,0,0,0-.042-2.771L424.3,391.982a1.967,1.967,0,0,0-2.334-.3,1.951,1.951,0,0,1,.395.3L434.2,403.467a1.965,1.965,0,0,1,.042,2.771l-4.273,4.4a1.945,1.945,0,0,1-.437.338A1.967,1.967,0,0,0,431.905,410.642Z" transform="translate(-370.001 -346.501)" fill="#e3a76f" fill-rule="evenodd"/>
          <circle id="Elipse_5288" data-name="Elipse 5288" cx="21.553" cy="21.553" r="21.553" transform="translate(0 41.253) rotate(-73.142)" fill="#ffe177"/>
          <path id="Trazado_678419" data-name="Trazado 678419" d="M292.6,193.289a21.553,21.553,0,0,1,0,43.107c-.325,0-.648-.009-.97-.023a21.552,21.552,0,0,0,0-43.061C291.949,193.3,292.272,193.289,292.6,193.289Z" transform="translate(-265.727 -187.984)" fill="#ffd064" fill-rule="evenodd"/>
          <circle id="Elipse_5289" data-name="Elipse 5289" cx="15.303" cy="15.303" r="15.303" transform="translate(8.732 38.68) rotate(-77.993)" fill="#eceff1"/>
          <path id="Trazado_678420" data-name="Trazado 678420" d="M235.256,224.544c.326,0,.649.011.969.031a15.3,15.3,0,0,0,0,30.543c-.321.02-.644.031-.969.031a15.3,15.3,0,0,1,0-30.606Z" transform="translate(-208.386 -212.988)" fill="#d1d1d6" fill-rule="evenodd"/>
        </g>
      </g>
      <path id="Trazado_678421" data-name="Trazado 678421" d="M79.56,66.61a13.7,13.7,0,1,0-13.705,13.7A13.72,13.72,0,0,0,79.56,66.61Zm3.2,0a16.9,16.9,0,1,1-16.9-16.9A16.923,16.923,0,0,1,82.759,66.61Zm21.248,31.255L92.172,86.38a.351.351,0,0,0-.249-.1h-.007a.344.344,0,0,0-.251.108l-4.273,4.4a.362.362,0,0,0,.006.507l11.837,11.486a.365.365,0,0,0,.51-.007l4.272-4.405a.364.364,0,0,0-.008-.508ZM77.191,94.643V86.792a23.008,23.008,0,0,1-6.149,2.386v5.465Zm-9.349,9.349H11.407V29.9H58.179v8.061a1.6,1.6,0,0,0,1.6,1.6h8.063v3.98c-.656-.056-1.318-.086-1.988-.086a23.043,23.043,0,0,0-7.7,1.32h-39.5a1.6,1.6,0,0,0,0,3.2H52.13a23.355,23.355,0,0,0-5,5.028H18.649a1.6,1.6,0,0,0,0,3.2H45.176a23.042,23.042,0,0,0-1.843,5.029H18.649a1.6,1.6,0,0,0,0,3.2H42.805c-.067.718-.1,1.444-.1,2.178a23.544,23.544,0,0,0,.174,2.851H18.649a1.6,1.6,0,0,0,0,3.2H43.506a22.961,22.961,0,0,0,2.024,5.028H18.649a1.6,1.6,0,0,0,0,3.2H47.642a23.277,23.277,0,0,0,5.452,5.03H18.649a1.6,1.6,0,0,0,0,3.2H60.425a23.153,23.153,0,0,0,5.429.646c.67,0,1.332-.032,1.988-.086ZM20.757,26.7H59.78a1.6,1.6,0,0,1,1.131.468l9.661,9.662a1.6,1.6,0,0,1,.47,1.13v6.079a23.005,23.005,0,0,1,6.149,2.386V30.213H69.13a1.6,1.6,0,0,1-1.6-1.6V20.549H20.757Zm9.351-9.352V11.2H76.88v8.061a1.6,1.6,0,0,0,1.6,1.6h8.064V56.217A23.326,23.326,0,0,0,80.392,48.6V28.613a1.6,1.6,0,0,0-.469-1.131L70.261,17.82a1.6,1.6,0,0,0-1.131-.47Zm49.971.312h4.2l-4.2-4.2Zm6.464,61.7V77c-.266.524-.549,1.038-.852,1.54ZM70.73,27.013v-4.2l4.2,4.2ZM61.38,36.362h4.2l-4.2-4.2ZM85.809,66.61A19.953,19.953,0,1,1,65.854,46.655,19.978,19.978,0,0,1,85.809,66.61ZM88.165,85.4l-4.337-4.209q-.706.87-1.495,1.67L86.607,87Zm18.148,15.2-4.273,4.4a3.568,3.568,0,0,1-5.034.076L85.169,93.6a3.566,3.566,0,0,1-.682-4.19l-.942-.914H80.392v7.75a1.6,1.6,0,0,1-1.6,1.6h-7.75v7.75a1.6,1.6,0,0,1-1.6,1.6H9.808a1.6,1.6,0,0,1-1.6-1.6V28.3a1.6,1.6,0,0,1,1.6-1.6h7.749V18.95a1.6,1.6,0,0,1,1.6-1.6h7.75V9.6a1.6,1.6,0,0,1,1.6-1.6H78.479a1.6,1.6,0,0,1,1.132.468l9.661,9.663a1.6,1.6,0,0,1,.47,1.129V82.47l.882.856a3.554,3.554,0,0,1,3.775.758l11.837,11.485a3.566,3.566,0,0,1,.076,5.034ZM18.649,39.746h22.87a1.6,1.6,0,0,0,0-3.2H18.649a1.6,1.6,0,0,0,0,3.2Zm43.553,56a1.6,1.6,0,0,0-1.6-1.6H18.649a1.6,1.6,0,0,0,0,3.2H60.6A1.6,1.6,0,0,0,62.2,95.746Z" fill-rule="evenodd"/>
    </g>
  </g>
</svg>
