<svg xmlns="http://www.w3.org/2000/svg" width="505" height="232" viewBox="0 0 505 232">
  <g id="Grupo_936613" data-name="Grupo 936613" transform="translate(-810 -2213)">
    <rect id="When-is-it-necessary-to-perform-the-alternate-flexions-test-2" width="505" height="232" transform="translate(810 2213)" fill="#003a82"/>
    <g id="layer1" transform="translate(998.638 2114.367)">
      <g id="g2631" transform="translate(-52.638 98.633)">
        <path id="path2427" d="M-88.071,63.192h232v232h-232Z" transform="translate(88.071 -63.192)" fill="#003a82"/>
        <path id="path2429" d="M9.746,276.883H28.717v85.694H9.746Z" transform="translate(15.873 -220.916)" fill="#fff"/>
        <path id="path2433" d="M234.421,269.223h-46.2c-4.46,0-11.049,4.571-11.049,11.045v62.825c0,5.129,5.081,13.708,13.787,13.708h44.356v-7.238H203.844c-5.58,0-8.239-2.446-8.239-5.584V320.552c0-2.453-.071-6.474,2.212-6.474h27.677V307.6h-27c-3.573,0-2.885-2.339-2.885-4.345v-19.75c0-2.236-.071-6.09,4.61-6.09h34.206v-8.2" transform="translate(-107.703 -215.262)" fill="#fff"/>
        <path id="path2437" d="M489.165,278.478s-10.269-16.07-33.478-16.07c-18.979,0-43.747,16.288-43.747,46.418,0,32.805,28.124,44.863,45.081,44.863,25.892,0,35.263-22.1,35.263-22.1l-4.46-3.787S475.94,347.326,458.2,347.326c-10.946,0-28.409-9.937-28.409-38.5,0-31.689,14.78-39.727,28.409-39.727,16.735,0,26.276,13.838,26.276,13.838l4.689-4.46" transform="translate(-280.984 -210.232)" fill="#fff"/>
        <path id="path2441" d="M9.746,687.887H167.588a17.509,17.509,0,0,1,2.881-4.112H9.746v4.112" transform="translate(15.873 -521.241)" fill="#fff" fill-rule="evenodd"/>
        <path id="path2445" d="M9.746,725.982H165.8a16.519,16.519,0,0,1-.206-2.042,17.858,17.858,0,0,1,.21-2.074H9.746v4.115" transform="translate(15.873 -549.355)" fill="#fff" fill-rule="evenodd"/>
        <path id="path2449" d="M9.746,764.057h160.7a17.61,17.61,0,0,1-2.881-4.115H9.746v4.115" transform="translate(15.873 -577.459)" fill="#fff" fill-rule="evenodd"/>
        <path id="path2453" d="M637.776,707.689a12.16,12.16,0,1,0-12.161-12.164,12.163,12.163,0,0,0,12.161,12.164" transform="translate(-438.697 -520.94)" fill="#fff"/>
      </g>
    </g>
  </g>
</svg>
