<svg xmlns="http://www.w3.org/2000/svg" width="122" height="122" viewBox="0 0 122 122">
  <g id="Grupo_946768" data-name="Grupo 946768" transform="translate(-741 -3682)">
    <circle id="Elipse_5278" data-name="Elipse 5278" cx="61" cy="61" r="61" transform="translate(741 3682)" fill="#1b3f5e"/>
    <g id="sistema-legal" transform="translate(735.252 3701.006)">
      <g id="Grupo_946767" data-name="Grupo 946767" transform="translate(30.619 1.531)">
        <g id="Grupo_946765" data-name="Grupo 946765">
          <path id="Trazado_678422" data-name="Trazado 678422" d="M91.2,8l60.04.314a1.871,1.871,0,0,1,1.858,1.868v78.6a1.872,1.872,0,0,1-1.868,1.868H91.194a1.872,1.872,0,0,1-1.868-1.868V9.868A1.868,1.868,0,0,1,91.2,8Z" transform="translate(-79.326 -8)" fill="#d1d1d6" fill-rule="evenodd"/>
          <path id="Trazado_678423" data-name="Trazado 678423" d="M91.2,8l3.59.019V90.65h-3.6a1.872,1.872,0,0,1-1.868-1.868V9.868A1.868,1.868,0,0,1,91.2,8Z" transform="translate(-79.326 -8)" fill="#a0a0a3" fill-rule="evenodd"/>
          <path id="Trazado_678424" data-name="Trazado 678424" d="M38.955,60.249,99,60.563a1.871,1.871,0,0,1,1.858,1.868v78.6a1.872,1.872,0,0,1-1.868,1.868H38.945a1.872,1.872,0,0,1-1.868-1.868V62.117a1.868,1.868,0,0,1,1.878-1.868Z" transform="translate(-37.077 -50.249)" fill="#eceff1" fill-rule="evenodd"/>
          <path id="Trazado_678425" data-name="Trazado 678425" d="M38.955,60.249l3.59.019V142.9h-3.6a1.872,1.872,0,0,1-1.868-1.868V62.117a1.868,1.868,0,0,1,1.878-1.868Z" transform="translate(-37.077 -50.249)" fill="#d1d1d6" fill-rule="evenodd"/>
          <path id="Trazado_678426" data-name="Trazado 678426" d="M262.778,60.2h12.058v13.71a.56.56,0,0,1-.874.465l-4.594-3.1a.55.55,0,0,0-.613-.009L263.638,74.5a.56.56,0,0,1-.86-.474V60.2Z" transform="translate(-219.583 -50.208)" fill="#ffd064" fill-rule="evenodd"/>
          <path id="Trazado_678427" data-name="Trazado 678427" d="M316.021,60.476V73.7l.995.67a.56.56,0,0,0,.874-.465V60.2h-1.868Z" transform="translate(-262.636 -50.207)" fill="#ffc338" fill-rule="evenodd"/>
        </g>
        <g id="Grupo_946766" data-name="Grupo 946766" transform="translate(28.12 44.387)">
          <path id="Trazado_678428" data-name="Trazado 678428" d="M206.981,464.326l-1.219-5.415a1.545,1.545,0,0,0-1.549-1.16H186.778a1.545,1.545,0,0,0-1.549,1.16l-1.219,5.415Z" transform="translate(-184.009 -416.063)" fill="#837683" fill-rule="evenodd"/>
          <path id="Trazado_678429" data-name="Trazado 678429" d="M284.446,464.326l-1.22-5.415a1.545,1.545,0,0,0-1.549-1.16h-1.868a1.545,1.545,0,0,1,1.549,1.16l1.22,5.415Z" transform="translate(-261.474 -416.063)" fill="#685e68" fill-rule="evenodd"/>
          <path id="Trazado_678430" data-name="Trazado 678430" d="M306.671,331.281l-4.468,4.468,26.534,27.838a2.306,2.306,0,0,0,1.581.745,1.939,1.939,0,0,0,1.543-.571l2.822-2.822a1.939,1.939,0,0,0,.571-1.543,2.306,2.306,0,0,0-.745-1.582Z" transform="translate(-279.583 -313.797)" fill="#e3a76f" fill-rule="evenodd"/>
          <path id="Trazado_678431" data-name="Trazado 678431" d="M319.967,331.28l-1.321,1.321,27.839,26.534a2.306,2.306,0,0,1,.745,1.582,1.94,1.94,0,0,1-.571,1.543l1.321-1.321a1.939,1.939,0,0,0,.571-1.542,2.306,2.306,0,0,0-.745-1.582Z" transform="translate(-292.879 -313.796)" fill="#c48958" fill-rule="evenodd"/>
          <path id="Trazado_678432" data-name="Trazado 678432" d="M253.706,278.261c1.614-1.371,3.57-2.857,6.3-4.885l-9.528-9.528c-6.224,8.366-7.337,9.479-15.7,15.7l9.528,9.528c2.028-2.726,3.514-4.683,4.885-6.3A37.2,37.2,0,0,1,253.706,278.261Z" transform="translate(-225.056 -259.27)" fill="#c48958" fill-rule="evenodd"/>
          <path id="Trazado_678433" data-name="Trazado 678433" d="M251.8,265.169l-1.321-1.321c-6.224,8.366-7.337,9.479-15.7,15.7l1.321,1.321C244.458,274.648,245.572,273.534,251.8,265.169Z" transform="translate(-225.056 -259.27)" fill="#ab7448" fill-rule="evenodd"/>
          <path id="Trazado_678434" data-name="Trazado 678434" d="M307.616,240.392l-2.258,2.258a1.6,1.6,0,0,0,0,2.258L316.3,255.85a1.6,1.6,0,0,0,2.258,0l2.258-2.258a1.6,1.6,0,0,0,0-2.258l-10.942-10.942a1.6,1.6,0,0,0-2.258,0Z" transform="translate(-281.757 -239.926)" fill="#e3a76f" fill-rule="evenodd"/>
          <path id="Trazado_678435" data-name="Trazado 678435" d="M313.543,240.392l-1.321,1.321a1.6,1.6,0,0,1,2.258,0l10.942,10.942a1.6,1.6,0,0,1,0,2.258l1.321-1.321a1.6,1.6,0,0,0,0-2.258L315.8,240.392A1.6,1.6,0,0,0,313.543,240.392Z" transform="translate(-287.684 -239.926)" fill="#c48958" fill-rule="evenodd"/>
          <path id="Trazado_678436" data-name="Trazado 678436" d="M213.574,334.434l-2.258,2.258a1.6,1.6,0,0,0,0,2.258l10.942,10.942a1.6,1.6,0,0,0,2.258,0l2.258-2.258a1.6,1.6,0,0,0,0-2.258l-10.942-10.942a1.6,1.6,0,0,0-2.258,0Z" transform="translate(-205.713 -315.97)" fill="#e3a76f" fill-rule="evenodd"/>
          <path id="Trazado_678437" data-name="Trazado 678437" d="M224.516,355.818l1.321-1.321a1.6,1.6,0,0,1-2.258,0l-10.942-10.942a1.6,1.6,0,0,1,0-2.258l-1.321,1.321a1.6,1.6,0,0,0,0,2.258l10.942,10.942A1.6,1.6,0,0,0,224.516,355.818Z" transform="translate(-205.713 -321.896)" fill="#c48958" fill-rule="evenodd"/>
        </g>
      </g>
      <path id="Trazado_678438" data-name="Trazado 678438" d="M112.879,91.6a.83.83,0,0,0-.271-.559l-25.2-24c-.842.781-1.634,1.573-2.418,2.417L109,94.653a.776.776,0,0,0,.56.272.406.406,0,0,0,.37-.125l2.826-2.823a.42.42,0,0,0,.126-.374ZM92.859,82.161V92.65H82.933l-.95-4.22a3.062,3.062,0,0,0-3.042-2.354H61.507a3.065,3.065,0,0,0-3.043,2.354l-.949,4.22H32.152V13.069l40.129.209v13.1a1.532,1.532,0,0,0,2.348,1.3l5.444-3.439,4.939,3.33A1.532,1.532,0,0,0,87.4,26.292V13.356l5.458.029V50.23l-4.925-4.924a3.13,3.13,0,0,0-4.423,0l-2.259,2.258a3.13,3.13,0,0,0-.069,4.346A45.843,45.843,0,0,1,69.862,63.233a3.129,3.129,0,0,0-4.346.069L63.258,65.56a3.131,3.131,0,0,0,0,4.423L74.2,80.924a3.131,3.131,0,0,0,4.424,0l2.258-2.258a3.129,3.129,0,0,0,.071-4.344c.7-.921,1.366-1.761,2.015-2.542ZM79.794,92.651,79,89.148a.184.184,0,0,0-.064-.01H61.507a.185.185,0,0,0-.065.01l-.789,3.5ZM75.344,23.6l3.937-2.488a1.536,1.536,0,0,1,1.675.025l3.384,2.281V13.341l-9-.048ZM89.721,65.023c.786-.651,1.629-1.317,2.553-2.023a3.163,3.163,0,0,0,.586.431v4.582ZM85.769,47.471a.062.062,0,0,0-.047-.017.064.064,0,0,0-.045.017L83.42,49.729a.071.071,0,0,0,0,.092L94.362,60.762a.069.069,0,0,0,.092,0L96.71,58.5a.068.068,0,0,0,0-.092Zm-18,18a.072.072,0,0,0-.092,0l-2.258,2.257a.073.073,0,0,0,0,.092L76.364,78.758a.07.07,0,0,0,.092,0L78.715,76.5a.073.073,0,0,0,0-.094Zm22.313-4.65A54.309,54.309,0,0,0,78.77,72.134l-6.718-6.719A47.67,47.67,0,0,0,83.367,54.1ZM42.15,10.059v-7h60.708V77.535l-6.937-6.606V63.45a3.052,3.052,0,0,0,.7-.523l2.258-2.256a3.132,3.132,0,0,0,0-4.423l-2.955-2.955V11.864A1.529,1.529,0,0,0,94.4,10.332Zm72.768,84.085-2.826,2.821a3.425,3.425,0,0,1-2.483,1.024c-.072,0-.153,0-.226-.006a3.837,3.837,0,0,1-2.6-1.219L95.922,85.372v8.81a1.532,1.532,0,0,1-1.531,1.531H30.621a1.531,1.531,0,0,1-1.53-1.531V11.529A1.531,1.531,0,0,1,30.621,10h.008l8.459.044V1.531A1.531,1.531,0,0,1,40.619,0h63.771a1.53,1.53,0,0,1,1.53,1.531V80.452l8.79,8.375a3.855,3.855,0,0,1,1.228,2.606A3.483,3.483,0,0,1,114.919,94.143ZM43.636,27.515H59.1a1.531,1.531,0,0,0,0-3.063H43.636a1.531,1.531,0,0,0,0,3.063ZM59.1,80.067H43.636a1.531,1.531,0,1,0,0,3.062H59.1a1.531,1.531,0,0,0,0-3.062Zm0-11.121H43.636a1.531,1.531,0,0,0,0,3.063H59.1a1.531,1.531,0,0,0,0-3.063Zm0-11.123H43.636a1.531,1.531,0,0,0,0,3.062H59.1a1.531,1.531,0,0,0,0-3.062Zm14.489-9.592A1.531,1.531,0,0,0,72.059,46.7H43.636a1.531,1.531,0,0,0,0,3.063H72.059A1.531,1.531,0,0,0,73.591,48.231ZM42.1,37.107a1.531,1.531,0,0,0,1.531,1.531H81.378a1.531,1.531,0,0,0,0-3.063H43.636A1.531,1.531,0,0,0,42.1,37.107Z" transform="translate(0 0)" fill-rule="evenodd"/>
    </g>
  </g>
</svg>
