<svg xmlns="http://www.w3.org/2000/svg" width="122" height="122" viewBox="0 0 122 122">
  <g id="Grupo_946760" data-name="Grupo 946760" transform="translate(8146 8210)">
    <circle id="Elipse_5280" data-name="Elipse 5280" cx="61" cy="61" r="61" transform="translate(-8146 -8210)" fill="#1b3f5e"/>
    <g id="subasta" transform="translate(-8123.999 -8184.625)">
      <path id="Trazado_678396" data-name="Trazado 678396" d="M392.455,380.7a8.534,8.534,0,0,1,.286,8.668,8.678,8.678,0,0,1-13.767,2.029q-.252-.252-.478-.519l-7.358-8.454,11.112-11.112,8.445,7.367A9.171,9.171,0,0,1,392.455,380.7Z" transform="translate(-306.895 -307.036)" fill="#91552c"/>
      <path id="Trazado_678397" data-name="Trazado 678397" d="M360.477,349.52l-11.112,11.112-4.557-5.238.031-.028,10.4-10.4.005-.005Z" transform="translate(-285.123 -285.247)" fill="#57555c"/>
      <path id="Trazado_678398" data-name="Trazado 678398" d="M203.251,26.209a5.192,5.192,0,1,1-7.342,7.344L181.221,18.865a5.192,5.192,0,1,1,7.344-7.342Z" transform="translate(-148.595 -8.269)" fill="#91552c"/>
      <path id="Trazado_678399" data-name="Trazado 678399" d="M93.3,71.276l-6.088,6.088c-.012.01-.022.021-.033.031l-9.792,9.792c-.01.01-.021.021-.031.033l-6.088,6.088-1.224-1.224L55.361,77.394l-1.224-1.224L76.168,54.14l1.224,1.224L92.08,70.052Z" transform="translate(-44.766 -44.768)" fill="#feb756"/>
      <g id="Grupo_946759" data-name="Grupo 946759" transform="translate(1.731 31.107)">
        <path id="Trazado_678400" data-name="Trazado 678400" d="M197.1,189.761l1.224-1.224a3.462,3.462,0,0,0-4.864-4.928l-9.856,9.856a3.462,3.462,0,0,0,4.928,4.864l1.224-1.224L210.7,221.161l.031-.028,10.4-10.4.005-.005Z" transform="translate(-152.743 -182.121)" fill="#91552c"/>
        <path id="Trazado_678401" data-name="Trazado 678401" d="M55,458.908v1.731H10v-1.731a6.924,6.924,0,0,1,6.924-6.924H48.08A6.924,6.924,0,0,1,55,458.908Z" transform="translate(-10 -404.854)" fill="#91552c"/>
        <path id="Trazado_678402" data-name="Trazado 678402" d="M63.751,401.987a4.327,4.327,0,1,1,0,8.654H34.326a4.327,4.327,0,1,1,0-8.654Z" transform="translate(-26.537 -363.511)" fill="#91552c"/>
        <path id="Trazado_678403" data-name="Trazado 678403" d="M33.552,195.913a5.192,5.192,0,1,1-7.344,7.342L11.522,188.569a5.192,5.192,0,0,1,7.342-7.344Z" transform="translate(-10 -179.705)" fill="#91552c"/>
      </g>
      <path id="Trazado_678404" data-name="Trazado 678404" d="M101.211,171.926a1.731,1.731,0,1,0,2.447,0A1.729,1.729,0,0,0,101.211,171.926Z" transform="translate(-83.272 -141.747)"/>
      <path id="Trazado_678405" data-name="Trazado 678405" d="M43.828,401.634a6.06,6.06,0,0,0-4.882-9.647H9.52a6.054,6.054,0,0,0-4.879,9.645A8.661,8.661,0,0,0,0,409.3v1.731a1.731,1.731,0,0,0,1.731,1.731h45a1.731,1.731,0,0,0,1.731-1.731V409.3A8.661,8.661,0,0,0,43.828,401.634ZM7.684,396.209a2.579,2.579,0,0,1,1.836-.76H38.945a2.6,2.6,0,1,1,0,5.193H9.52a2.6,2.6,0,0,1-1.836-4.433ZM3.462,409.3A5.2,5.2,0,0,1,8.654,404.1H39.811A5.2,5.2,0,0,1,45,409.3Z" transform="translate(0 -324.135)"/>
      <path id="Trazado_678406" data-name="Trazado 678406" d="M87.031,72.722a10.9,10.9,0,0,0-2.085-2.394l-8.088-7.054a1.718,1.718,0,0,0-.689-.6l-4.891-4.266L48.639,38.659a5.183,5.183,0,0,0-1.52-8.267L49.213,28.3A6.928,6.928,0,0,0,55.9,26.508a6.923,6.923,0,0,0,0-9.792L41.211,2.03A6.921,6.921,0,0,0,29.63,8.714l-20.9,20.9a6.966,6.966,0,0,0-1.792-.235,6.923,6.923,0,0,0-4.9,11.819L16.732,55.881A6.921,6.921,0,0,0,28.314,49.2l2.09-2.09a5.194,5.194,0,0,0,8.27,1.518l24.113,27.7a1.739,1.739,0,0,0,.235.293c.031.031.064.059.1.087L70.3,84.965c.179.211.37.418.568.616a10.3,10.3,0,0,0,7.317,3.043,10.624,10.624,0,0,0,1.457-.1,10.474,10.474,0,0,0,7.728-5.35A10.242,10.242,0,0,0,87.031,72.722ZM62.069,70.231l8.153-8.153,2.615,2.281-8.489,8.49ZM41.129,46.173l5.059-5.059L67.607,59.8l-7.816,7.816Zm-7.262-41.7a3.461,3.461,0,0,1,4.9,0L53.45,19.164a3.462,3.462,0,0,1-4.895,4.9L33.868,9.373h0A3.465,3.465,0,0,1,33.867,4.477Zm-9.79,48.956a3.466,3.466,0,0,1-4.9,0L4.494,38.747a3.462,3.462,0,0,1,4.894-4.9L24.076,48.539A3.464,3.464,0,0,1,24.077,53.433ZM11.836,31.4,31.419,11.82,46.107,26.508l-4.849,4.849-.048.046-9.786,9.787-.06.062-4.84,4.84ZM35.091,46.6a1.73,1.73,0,0,1-1.245-2.933l9.832-9.832a1.731,1.731,0,0,1,2.937,1.243,1.715,1.715,0,0,1-.508,1.224L44.9,37.511l-.025.025-7.326,7.326-.01.01-1.219,1.219A1.72,1.72,0,0,1,35.091,46.6ZM84.352,81.483A7.041,7.041,0,0,1,79.171,85.1a6.878,6.878,0,0,1-5.852-1.962c-.133-.133-.261-.272-.379-.412l-.017-.02-6.3-7.236,8.826-8.826,7.227,6.3.017.014A7.452,7.452,0,0,1,84.123,74.6,6.834,6.834,0,0,1,84.352,81.483Z" transform="translate(-0.017)"/>
      <path id="Trazado_678407" data-name="Trazado 678407" d="M139.284,101.214a1.731,1.731,0,0,0-2.448,0l-7.344,7.344a1.731,1.731,0,0,0,2.448,2.448l7.344-7.344A1.731,1.731,0,0,0,139.284,101.214Z" transform="translate(-106.659 -83.274)"/>
    </g>
  </g>
</svg>
