<svg xmlns="http://www.w3.org/2000/svg" width="122" height="122" viewBox="0 0 122 122">
  <g id="Grupo_946755" data-name="Grupo 946755" transform="translate(7448 8210)">
    <circle id="Elipse_5282" data-name="Elipse 5282" cx="61" cy="61" r="61" transform="translate(-7448 -8210)" fill="#1b3f5e"/>
    <g id="requisitos" transform="translate(-7431.813 -8192.309)">
      <g id="Grupo_946754" data-name="Grupo 946754" transform="translate(5.421 2.611)">
        <g id="Grupo_946752" data-name="Grupo 946752" transform="translate(79.684 12.142)">
          <path id="Trazado_678354" data-name="Trazado 678354" d="M432.631,134.274V76.8c0-1.792,1.1-3.253,2.45-3.253H442.9c1.349,0,2.45,1.462,2.45,3.253v57.471l-5.685,10.947a.758.758,0,0,1-1.346,0Z" transform="translate(-432.631 -73.55)" fill="#fad808" fill-rule="evenodd"/>
          <g id="Grupo_946751" data-name="Grupo 946751">
            <path id="Trazado_678355" data-name="Trazado 678355" d="M432.63,83.034h12.715V76.8c0-1.792-1.1-3.253-2.45-3.253H435.08c-1.349,0-2.45,1.462-2.45,3.253v6.23Z" transform="translate(-432.63 -73.55)" fill="#292e33" fill-rule="evenodd"/>
            <path id="Trazado_678356" data-name="Trazado 678356" d="M445.357,393.907H432.649l5.681,10.94a.758.758,0,0,0,1.346,0Z" transform="translate(-432.645 -333.176)" fill="#292e33" fill-rule="evenodd"/>
          </g>
        </g>
        <g id="Grupo_946753" data-name="Grupo 946753" transform="translate(0 0)">
          <path id="Trazado_678357" data-name="Trazado 678357" d="M82.506,43.229a3.951,3.951,0,0,1,3.944,3.944V126.35a3.951,3.951,0,0,1-3.944,3.944H16.239a3.951,3.951,0,0,1-3.944-3.944V47.173a3.951,3.951,0,0,1,3.944-3.944Z" transform="translate(-12.295 -36.835)" fill="#994f1f" fill-rule="evenodd"/>
          <path id="Trazado_678358" data-name="Trazado 678358" d="M46.191,78.645v71.18a1.52,1.52,0,0,0,1.517,1.517H97.427A1.463,1.463,0,0,0,98.5,150.9l8.55-8.55a1.466,1.466,0,0,0,.444-1.072V78.645a1.52,1.52,0,0,0-1.517-1.517H47.708a1.52,1.52,0,0,0-1.517,1.517Z" transform="translate(-39.765 -64.308)" fill="#eff4f7" fill-rule="evenodd"/>
          <path id="Trazado_678359" data-name="Trazado 678359" d="M319.777,419.571v8.549a1.52,1.52,0,0,0,.444-.313l8.55-8.55a1.514,1.514,0,0,0,.312-.444h-8.549a.76.76,0,0,0-.758.758Z" transform="translate(-261.487 -341.219)" fill="#d8d8d8" fill-rule="evenodd"/>
          <path id="Trazado_678360" data-name="Trazado 678360" d="M125.15,15.894h8.06a6.394,6.394,0,0,1,12.789,0h8.06a1.52,1.52,0,0,1,1.517,1.517V23.88a1.52,1.52,0,0,1-1.517,1.517H125.15a1.52,1.52,0,0,1-1.517-1.517V17.411a1.52,1.52,0,0,1,1.517-1.517Z" transform="translate(-102.526 -9.5)" fill="#2d2829" fill-rule="evenodd"/>
        </g>
        <path id="Trazado_678361" data-name="Trazado 678361" d="M97.826,369.065H105.9a.76.76,0,0,1,.758.758v8.072a.76.76,0,0,1-.758.758H97.826a.76.76,0,0,1-.758-.758v-8.072a.76.76,0,0,1,.758-.758Z" transform="translate(-80.997 -300.901)" fill="#e03" fill-rule="evenodd"/>
        <path id="Trazado_678362" data-name="Trazado 678362" d="M97.826,288.072H105.9a.76.76,0,0,1,.758.758V296.9a.76.76,0,0,1-.758.758H97.826a.76.76,0,0,1-.758-.758V288.83a.76.76,0,0,1,.758-.758Z" transform="translate(-80.997 -235.262)" fill="#fad808" fill-rule="evenodd"/>
        <path id="Trazado_678363" data-name="Trazado 678363" d="M97.826,207.079H105.9a.76.76,0,0,1,.758.758v8.072a.76.76,0,0,1-.758.758H97.826a.76.76,0,0,1-.758-.758v-8.072a.76.76,0,0,1,.758-.758Z" transform="translate(-80.997 -169.623)" fill="#22c269" fill-rule="evenodd"/>
        <path id="Trazado_678364" data-name="Trazado 678364" d="M97.826,126.087H105.9a.76.76,0,0,1,.758.758v8.072a.76.76,0,0,1-.758.758H97.826a.76.76,0,0,1-.758-.758v-8.072a.76.76,0,0,1,.758-.758Z" transform="translate(-80.997 -103.985)" fill="#1980f2" fill-rule="evenodd"/>
      </g>
      <path id="Trazado_678365" data-name="Trazado 678365" d="M91.462,84.223l-3.7-7.129h7.4ZM86.714,73.872V25.847h9.5V73.872Zm.841-57.509h7.814c.3,0,.841.624.841,1.642v4.619h-9.5V18.006C86.714,16.988,87.26,16.363,87.555,16.363Zm7.814-3.222H87.555c-2.235,0-4.059,2.183-4.059,4.865V75.477a1.643,1.643,0,0,0,.179.742l6.357,12.243a1.613,1.613,0,0,0,2.861,0L99.25,76.219a1.643,1.643,0,0,0,.179-.742V18.006C99.429,15.324,97.614,13.141,95.369,13.141ZM37.851,78.948a1.615,1.615,0,0,1,1.618-1.612H51.486a1.612,1.612,0,0,1,0,3.223H39.469a1.615,1.615,0,0,1-1.618-1.611Zm0-6.76a1.615,1.615,0,0,1,1.618-1.612H63.5a1.612,1.612,0,0,1,0,3.223H39.47a1.615,1.615,0,0,1-1.618-1.611Zm-8.386,6.563H23.1V72.385h6.366Zm1.618-9.589H21.489a1.613,1.613,0,0,0-1.609,1.612v9.588a1.613,1.613,0,0,0,1.609,1.611h9.593a1.613,1.613,0,0,0,1.609-1.611V70.774A1.613,1.613,0,0,0,31.083,69.162Zm6.768-5.569a1.615,1.615,0,0,1,1.618-1.611H51.486a1.611,1.611,0,0,1,0,3.222H39.469a1.615,1.615,0,0,1-1.618-1.611Zm0-6.758a1.615,1.615,0,0,1,1.618-1.612H63.5a1.612,1.612,0,0,1,0,3.223H39.47a1.615,1.615,0,0,1-1.618-1.611ZM29.465,63.4H23.1V57.031h6.366Zm1.618-9.588H21.489A1.613,1.613,0,0,0,19.88,55.42v9.588a1.613,1.613,0,0,0,1.609,1.611h9.593a1.613,1.613,0,0,0,1.609-1.611V55.42A1.613,1.613,0,0,0,31.083,53.808Zm6.768-5.569a1.615,1.615,0,0,1,1.618-1.611H51.486a1.612,1.612,0,0,1,0,3.223H39.469a1.615,1.615,0,0,1-1.618-1.612Zm0-6.759a1.615,1.615,0,0,1,1.618-1.611H63.5a1.611,1.611,0,0,1,0,3.222H39.47a1.615,1.615,0,0,1-1.618-1.611Zm-8.386,6.562H23.1V41.677h6.366Zm1.618-9.588H21.489a1.614,1.614,0,0,0-1.609,1.612v9.588a1.613,1.613,0,0,0,1.609,1.611h9.593a1.613,1.613,0,0,0,1.609-1.611V40.066A1.614,1.614,0,0,0,31.083,38.454Zm6.768-5.569a1.615,1.615,0,0,1,1.618-1.611H51.486a1.611,1.611,0,0,1,0,3.222H39.469a1.615,1.615,0,0,1-1.618-1.611Zm0-6.758a1.615,1.615,0,0,1,1.618-1.612H63.5a1.612,1.612,0,0,1,0,3.223H39.47a1.615,1.615,0,0,1-1.618-1.611Zm-14.753.2h6.366v6.365H23.1ZM19.88,24.711V34.3a1.613,1.613,0,0,0,1.609,1.611h9.593A1.613,1.613,0,0,0,32.692,34.3V24.711A1.613,1.613,0,0,0,31.083,23.1H21.489A1.613,1.613,0,0,0,19.88,24.711ZM77.961,92.126V12.949a2.333,2.333,0,0,0-2.325-2.333H60.079v3.2H73.15a1.613,1.613,0,0,1,1.609,1.612V80.205a1.605,1.605,0,0,1-.474,1.139l-9.433,9.439a1.622,1.622,0,0,1-1.144.471H11.851a1.615,1.615,0,0,1-1.618-1.611V15.431a1.615,1.615,0,0,1,1.618-1.612H24.914v-3.2H9.365a2.335,2.335,0,0,0-2.334,2.333V92.126a2.335,2.335,0,0,0,2.334,2.332H75.636a2.333,2.333,0,0,0,2.325-2.332Zm-8.7-10.31-3.934,3.938V81.816Zm-10.792-61.7H26.523a1.613,1.613,0,0,1-1.609-1.612V17.042H13.46v70.99H62.1V80.205a1.613,1.613,0,0,1,1.609-1.612h7.832V17.042H60.079v1.465a1.612,1.612,0,0,1-1.609,1.612Zm-30.328-9.5h7.966A1.613,1.613,0,0,0,37.717,9a4.783,4.783,0,1,1,9.567,0,1.607,1.607,0,0,0,1.609,1.611h7.966V16.9H28.141V10.616ZM75.636,7.393H50.342a8.005,8.005,0,0,0-15.683,0H9.365a5.557,5.557,0,0,0-5.552,5.556V92.127a5.557,5.557,0,0,0,5.552,5.555H75.636a5.563,5.563,0,0,0,5.552-5.555V12.949a5.562,5.562,0,0,0-5.552-5.556Z" fill-rule="evenodd"/>
    </g>
  </g>
</svg>
