<svg xmlns="http://www.w3.org/2000/svg" width="295" height="135" viewBox="0 0 295 135">
  <g id="Grupo_946846" data-name="Grupo 946846" transform="translate(-1125 -398)">
    <rect id="Rectángulo_327585" data-name="Rectángulo 327585" width="295" height="104" transform="translate(1125 398)" fill="#e2d4ff"/>
    <g id="portapapeles" transform="translate(1245.9 420.781)">
      <g id="Grupo_946670" data-name="Grupo 946670" transform="translate(11.543 1.644)">
        <path id="Trazado_671006" data-name="Trazado 671006" d="M433.366,129.054H424.6v-6.181a4.384,4.384,0,0,1,8.767,0Z" transform="translate(-335.35 -94.163)" fill="#aa9ea9"/>
        <path id="Trazado_671007" data-name="Trazado 671007" d="M433.372,220.1h-8.767V166.69h8.767V220.1Z" transform="translate(-335.355 -131.799)" fill="#8ac9fe"/>
        <path id="Trazado_671008" data-name="Trazado 671008" d="M433.366,410.381l-2.74,11.652h-3.288l-2.74-11.652Z" transform="translate(-335.35 -322.079)" fill="#aa9ea9"/>
        <path id="Trazado_671009" data-name="Trazado 671009" d="M80.208,67.937h17.8v95.685H17.4V67.937H35.2" transform="translate(-17.399 -54.691)" fill="#8ac9fe"/>
        <path id="Trazado_671010" data-name="Trazado 671010" d="M48.047,98.584h67.172v82.25H48.047Z" transform="translate(-41.33 -78.62)" fill="#f5f8f9"/>
        <path id="Trazado_671011" data-name="Trazado 671011" d="M48.047,98.584h67.172v82.25H48.047Z" transform="translate(-41.33 -78.62)" fill="#f5f8f9"/>
        <path id="Trazado_671012" data-name="Trazado 671012" d="M109.51,98.584H48.048v82.25H63.722V116.6a6.717,6.717,0,0,1,6.717-6.717h32.355a6.717,6.717,0,0,0,6.717-6.717V98.584Z" transform="translate(-41.33 -78.62)" fill="#e8edf2"/>
        <path id="Trazado_671013" data-name="Trazado 671013" d="M85.611,171.837H97.7v13.445H85.611Z" transform="translate(-70.66 -135.818)" fill="#ade194"/>
        <path id="Trazado_671014" data-name="Trazado 671014" d="M85.611,265.74H97.7v13.445H85.611Z" transform="translate(-70.66 -209.14)" fill="#ade194"/>
        <path id="Trazado_671015" data-name="Trazado 671015" d="M85.611,359.643H97.7v13.445H85.611Z" transform="translate(-70.66 -282.461)" fill="#f07281"/>
        <g id="Grupo_946669" data-name="Grupo 946669" transform="translate(17.798)">
          <path id="Trazado_671016" data-name="Trazado 671016" d="M98.6,53.471h45.011v9.888H98.6Z" transform="translate(-98.603 -43.395)" fill="#fee97d"/>
          <path id="Trazado_671017" data-name="Trazado 671017" d="M153.862,17.576a10.076,10.076,0,0,1,20.152,0" transform="translate(-141.75 -7.5)" fill="#fee97d"/>
        </g>
      </g>
      <g id="Grupo_946671" data-name="Grupo 946671" transform="translate(9.899 0)">
        <path id="Trazado_671018" data-name="Trazado 671018" d="M429.159,121.636v-4.62a6.027,6.027,0,1,0-12.055,0V123.2c0,.007,0,.014,0,.021v22.6a1.644,1.644,0,1,0,3.288,0V124.84h5.479v50.124h-5.479V152.976a1.644,1.644,0,0,0-3.288,0v23.619a1.923,1.923,0,0,0,.042.389l2.74,11.652a1.644,1.644,0,0,0,1.6,1.268v1.686a1.644,1.644,0,1,0,3.288,0V189.9h0a1.644,1.644,0,0,0,1.6-1.268l2.739-11.652v0a1.649,1.649,0,0,0,.044-.373V124.942c1.842.233,3.286,1.329,3.286,2.6v21.678a1.644,1.644,0,1,0,3.288,0V127.544C435.733,124.469,432.844,121.932,429.159,121.636Zm-8.767-4.62a2.74,2.74,0,1,1,5.479,0v4.537h-5.479Zm3.082,69.6h-.683l-1.967-8.365h4.617Z" transform="translate(-327.854 -86.662)"/>
        <path id="Trazado_671019" data-name="Trazado 671019" d="M92.15,13.247H86.155a1.644,1.644,0,0,0,0,3.288h4.351v92.4H13.187v-92.4H27.7v3.428H18.261a1.644,1.644,0,0,0-1.644,1.644V83.614a1.644,1.644,0,1,0,3.288,0V23.25H83.788v78.963H19.9V90.777a1.644,1.644,0,1,0-3.288,0v13.08a1.644,1.644,0,0,0,1.644,1.644H85.432a1.644,1.644,0,0,0,1.644-1.644V21.606a1.644,1.644,0,0,0-1.644-1.644H76V16.535h3a1.644,1.644,0,1,0,0-3.288H76V11.72a1.644,1.644,0,0,0-1.644-1.644H63.13a11.718,11.718,0,0,0-23.2,0H29.341A1.644,1.644,0,0,0,27.7,11.72v1.527H11.543A1.644,1.644,0,0,0,9.9,14.891v95.684a1.644,1.644,0,0,0,1.644,1.644H92.15a1.644,1.644,0,0,0,1.644-1.644V14.891a1.644,1.644,0,0,0-1.644-1.644ZM51.528,3.288A8.447,8.447,0,0,1,59.8,10.076H43.257A8.447,8.447,0,0,1,51.528,3.288ZM30.985,13.364H72.708v6.6H30.985Z" transform="translate(-9.899 0)"/>
        <path id="Trazado_671020" data-name="Trazado 671020" d="M79.754,181.07H91.845a1.644,1.644,0,0,0,1.644-1.644V165.981a1.644,1.644,0,0,0-1.644-1.644H79.754a1.644,1.644,0,0,0-1.644,1.644v13.445A1.644,1.644,0,0,0,79.754,181.07ZM81.4,167.625h8.8v10.158H81.4Z" transform="translate(-63.16 -128.318)"/>
        <path id="Trazado_671021" data-name="Trazado 671021" d="M166.645,198.3H196.8a1.644,1.644,0,0,0,0-3.288h-30.16a1.644,1.644,0,0,0,0,3.288Z" transform="translate(-131.006 -152.267)"/>
        <path id="Trazado_671022" data-name="Trazado 671022" d="M78.11,273.329a1.644,1.644,0,0,0,1.644,1.644H91.845a1.644,1.644,0,0,0,1.644-1.644V259.884a1.644,1.644,0,0,0-1.644-1.644H79.754a1.644,1.644,0,0,0-1.644,1.644Zm3.288-11.8h8.8v10.158H81.4Z" transform="translate(-63.16 -201.64)"/>
        <path id="Trazado_671023" data-name="Trazado 671023" d="M166.645,292.2H196.8a1.644,1.644,0,0,0,0-3.288h-30.16a1.644,1.644,0,0,0,0,3.288Z" transform="translate(-131.006 -225.589)"/>
        <path id="Trazado_671024" data-name="Trazado 671024" d="M78.11,367.232a1.644,1.644,0,0,0,1.644,1.644H91.845a1.644,1.644,0,0,0,1.644-1.644V353.787a1.644,1.644,0,0,0-1.644-1.644H79.754a1.644,1.644,0,0,0-1.644,1.644Zm3.288-11.8h8.8v10.158H81.4Z" transform="translate(-63.16 -274.961)"/>
        <path id="Trazado_671025" data-name="Trazado 671025" d="M166.645,386.1H196.8a1.644,1.644,0,1,0,0-3.288h-30.16a1.644,1.644,0,1,0,0,3.288Z" transform="translate(-131.006 -298.911)"/>
        <path id="Trazado_671026" data-name="Trazado 671026" d="M166.645,228.97H196.8a1.644,1.644,0,1,0,0-3.288h-30.16a1.644,1.644,0,1,0,0,3.288Z" transform="translate(-131.006 -176.218)"/>
        <path id="Trazado_671027" data-name="Trazado 671027" d="M166.645,322.872H196.8a1.644,1.644,0,1,0,0-3.288h-30.16a1.644,1.644,0,1,0,0,3.288Z" transform="translate(-131.006 -249.538)"/>
        <path id="Trazado_671028" data-name="Trazado 671028" d="M166.645,416.775H196.8a1.644,1.644,0,0,0,0-3.288h-30.16a1.644,1.644,0,1,0,0,3.288Z" transform="translate(-131.006 -322.86)"/>
      </g>
    </g>
  </g>
</svg>
