<svg xmlns="http://www.w3.org/2000/svg" width="70" height="85" viewBox="0 0 70 85">
  <g id="Grupo_946654" data-name="Grupo 946654" transform="translate(-1238 -6858)">
    <rect id="Rectángulo_37872" data-name="Rectángulo 37872" width="70" height="85" rx="12" transform="translate(1238 6858)" fill="#0f58b9"/>
    <g id="licencias" transform="translate(1246.01 6872.992)">
      <path id="Trazado_678194" data-name="Trazado 678194" d="M96.016,40.008V89.494h36.657V40.008Zm0,0" transform="translate(-85.026 -35.418)" fill="#afafaf"/>
      <path id="Trazado_678195" data-name="Trazado 678195" d="M130.839,46.423l-6.415-6.415H96.016V87.661h34.824Zm0,0" transform="translate(-85.026 -35.418)" fill="#afafaf"/>
      <path id="Trazado_678196" data-name="Trazado 678196" d="M64.016,57.494h36.657V16.256L92.424,8.008H64.016Zm0,0" transform="translate(-56.692 -7.084)" fill="#fff"/>
      <path id="Trazado_678197" data-name="Trazado 678197" d="M320.263,16.256h-8.248V8.008Zm0,0" transform="translate(-276.283 -7.084)" fill="#e8e8e8"/>
      <path id="Trazado_678198" data-name="Trazado 678198" d="M150.257,176.008l-30.242,30.242h30.242Zm0,0" transform="translate(-106.277 -155.839)" fill="#e8e8e8"/>
      <path id="Trazado_678199" data-name="Trazado 678199" d="M203.26,337.172H184.932a.916.916,0,0,1-.916-.916v-7.331a.916.916,0,0,1,.916-.916H203.26a.916.916,0,0,1,.916.916v7.331A.916.916,0,0,1,203.26,337.172Zm-17.412-1.833h16.5v-5.5h-16.5Zm0,0" transform="translate(-162.945 -290.427)" fill="#afafaf"/>
      <path id="Trazado_678200" data-name="Trazado 678200" d="M216.016,360.008h3.666v1.833h-3.666Zm0,0" transform="translate(-191.28 -318.761)" fill="#348fd9"/>
      <path id="Trazado_678201" data-name="Trazado 678201" d="M264.016,360.008h7.331v1.833h-7.331Zm0,0" transform="translate(-233.781 -318.761)" fill="#afafaf"/>
      <path id="Trazado_678202" data-name="Trazado 678202" d="M248.016,221.51l5.5-5.5,12.83,12.83-5.5,5.5Zm0,0" transform="translate(-219.614 -191.26)" fill="#636363"/>
      <path id="Trazado_678203" data-name="Trazado 678203" d="M317.762,144.008a5.5,5.5,0,0,0-5.5,5.5v.458l-8.248,8.706,4.582,4.582L317.3,155h.458a5.5,5.5,0,0,0,0-11Zm0,0" transform="translate(-269.199 -127.505)" fill="#95573a"/>
      <path id="Trazado_678204" data-name="Trazado 678204" d="M224.02,266.753,226.769,264l12.83,12.83-2.749,2.749Zm0,0" transform="translate(-198.367 -233.755)" fill="#636363"/>
      <path id="Trazado_678205" data-name="Trazado 678205" d="M337.8,148.246c-3.8,9.6-9.729,14.185-13.7,16.478l2.281,2.281,8.706-8.248h.458a5.5,5.5,0,0,0,2.253-10.511Zm0,0" transform="translate(-286.988 -131.257)" fill="#8f4d2e"/>
      <path id="Trazado_678206" data-name="Trazado 678206" d="M192.123,59.1a1.558,1.558,0,0,0-2.079-2.079,1.558,1.558,0,0,0-2.938,0,1.558,1.558,0,0,0-2.074,2.079,1.558,1.558,0,0,0,0,2.938,1.558,1.558,0,0,0,2.079,2.074,1.558,1.558,0,0,0,2.938,0,1.558,1.558,0,0,0,2.074-2.079,1.558,1.558,0,0,0,0-2.933Zm0,0" transform="translate(-162.925 -49.564)" fill="#ffb531"/>
      <path id="Trazado_678207" data-name="Trazado 678207" d="M79.595,66.087a10.073,10.073,0,0,0-15.579-8.443V74.53a10.073,10.073,0,0,0,15.579-8.443Zm0,0" transform="translate(-56.692 -49.584)" fill="#e8e8e8"/>
      <path id="Trazado_678208" data-name="Trazado 678208" d="M328.016,80.008h6.415v1.833h-6.415Zm0,0" transform="translate(-290.45 -70.836)" fill="#e8e8e8"/>
      <g id="Grupo_946504" data-name="Grupo 946504" transform="translate(11.906 18.336)">
        <path id="Trazado_678209" data-name="Trazado 678209" d="M152.016,232.008h9.164v1.833h-9.164Zm0,0" transform="translate(-146.517 -223.76)" fill="#3fb7c7"/>
        <path id="Trazado_678210" data-name="Trazado 678210" d="M104.016,264.008h11v1.833h-11Zm0,0" transform="translate(-104.016 -252.094)" fill="#3fb7c7"/>
        <path id="Trazado_678211" data-name="Trazado 678211" d="M104.016,200.008H123.26v1.833H104.016Zm0,0" transform="translate(-104.016 -195.426)" fill="#afafaf"/>
        <path id="Trazado_678212" data-name="Trazado 678212" d="M104.016,296.008h5.5v1.833h-5.5Zm0,0" transform="translate(-104.016 -280.429)" fill="#3fb7c7"/>
        <path id="Trazado_678213" data-name="Trazado 678213" d="M104.016,328.008h7.331v1.833h-7.331Zm0,0" transform="translate(-104.016 -308.763)" fill="#3fb7c7"/>
        <path id="Trazado_678214" data-name="Trazado 678214" d="M104.016,360.008h7.331v1.833h-7.331Zm0,0" transform="translate(-104.016 -337.097)" fill="#3fb7c7"/>
        <path id="Trazado_678215" data-name="Trazado 678215" d="M104.016,392.008h7.331v1.833h-7.331Zm0,0" transform="translate(-104.016 -365.432)" fill="#3fb7c7"/>
        <path id="Trazado_678216" data-name="Trazado 678216" d="M104.016,232.008h3.666v1.833h-3.666Zm0,0" transform="translate(-104.016 -223.76)" fill="#3fb7c7"/>
        <path id="Trazado_678217" data-name="Trazado 678217" d="M168.016,296.008h3.666v1.833h-3.666Zm0,0" transform="translate(-160.684 -280.429)" fill="#3fb7c7"/>
        <path id="Trazado_678218" data-name="Trazado 678218" d="M168.016,160.008h3.666v1.833h-3.666Zm0,0" transform="translate(-160.684 -160.008)" fill="#afafaf"/>
        <path id="Trazado_678219" data-name="Trazado 678219" d="M216.016,160.008h7.331v1.833h-7.331Zm0,0" transform="translate(-203.186 -160.008)" fill="#3fb7c7"/>
      </g>
      <path id="Trazado_678220" data-name="Trazado 678220" d="M28.177,50.088A10.081,10.081,0,1,1,18.1,40.008,10.08,10.08,0,0,1,28.177,50.088Zm0,0" transform="translate(-7.106 -35.418)" fill="#7eb457"/>
      <path id="Trazado_678221" data-name="Trazado 678221" d="M37.757,93.08a.917.917,0,0,1-.648-.268l-2.749-2.749,1.3-1.3,2.1,2.1,8.516-8.516,1.3,1.3L38.4,92.812A.917.917,0,0,1,37.757,93.08Zm0,0" transform="translate(-30.432 -72.911)" fill="#ffb531"/>
      <path id="Trazado_678222" data-name="Trazado 678222" d="M192.518,111.26a9.959,9.959,0,0,0-.6-1.925A1.535,1.535,0,0,0,192.518,111.26Zm0,0" transform="translate(-169.824 -96.804)" fill="#f98500"/>
      <path id="Trazado_678223" data-name="Trazado 678223" d="M185.088,95.585a10.123,10.123,0,0,0-.938-1.674A1.525,1.525,0,0,0,185.088,95.585Zm0,0" transform="translate(-163.044 -83.146)" fill="#f98500"/>
      <path id="Trazado_678224" data-name="Trazado 678224" d="M388.6,42.088V32.924a.916.916,0,0,0-.916-.916h-3.666v1.833h2.749v8.248Zm0,0" transform="translate(-340.035 -28.334)"/>
      <path id="Trazado_678225" data-name="Trazado 678225" d="M56.016,240.008v22.91a.916.916,0,0,0,.916.916H93.589a.916.916,0,0,0,.916-.916V256.5H92.672V262H57.848V240.008Zm0,0" transform="translate(-49.608 -212.508)"/>
      <path id="Trazado_678226" data-name="Trazado 678226" d="M85.72.1c-.029-.013-.056-.02-.085-.03A.911.911,0,0,0,85.4.022a.35.35,0,0,0-.057-.014H56.932a.916.916,0,0,0-.916.916V2.757h1.833V1.841H84.424V9.172a.916.916,0,0,0,.916.916h7.331V14.67H94.5v-5.5c0-.019-.01-.037-.011-.057a.893.893,0,0,0-.047-.237c-.01-.03-.017-.057-.03-.085a.91.91,0,0,0-.183-.268L85.985.276A.918.918,0,0,0,85.72.1Zm5.656,8.156H86.257V3.137Zm0,0" transform="translate(-49.608)"/>
      <path id="Trazado_678227" data-name="Trazado 678227" d="M184.016,328.924v7.331a.916.916,0,0,0,.916.916h11.913v-1.833h-11v-5.5h4.582v-1.833h-5.5A.916.916,0,0,0,184.016,328.924Zm0,0" transform="translate(-162.945 -290.427)"/>
      <path id="Trazado_678228" data-name="Trazado 678228" d="M216.016,360.008h5.5v1.833h-5.5Zm0,0" transform="translate(-191.28 -318.761)"/>
      <path id="Trazado_678229" data-name="Trazado 678229" d="M133.589,136.008a6.423,6.423,0,0,0-6.415,6.415v.092l-4.674,4.934-2.926-2.926a.916.916,0,0,0-1.3,0l-8.248,8.248a.917.917,0,0,0,0,1.3l12.83,12.83a.917.917,0,0,0,1.3,0l2.749-2.749,4.851-4.849v14.283H96.016v1.833h36.657a.916.916,0,0,0,.916-.916V152.5h-1.833v4.2l-3.194-3.194,4.936-4.674h.092a6.415,6.415,0,0,0,0-12.83Zm-10.081,28.946L111.974,153.42l1.453-1.453L124.961,163.5ZM130.46,158l-4.2,4.2L114.723,150.67l4.2-4.2,2.313,2.313-2.062,2.176a.916.916,0,0,0,.017,1.283l4.582,4.582a.916.916,0,0,0,1.278.017l2.176-2.062Zm3.129-11h-.458a.918.918,0,0,0-.63.251l-8.058,7.63-3.317-3.317,7.634-8.058a.916.916,0,0,0,.247-.63v-.458A4.582,4.582,0,1,1,133.589,147Zm0,0" transform="translate(-85.026 -120.421)"/>
      <path id="Trazado_678230" data-name="Trazado 678230" d="M152.016,232.008h9.164v1.833h-9.164Zm0,0" transform="translate(-134.611 -205.424)"/>
      <path id="Trazado_678231" data-name="Trazado 678231" d="M104.016,264.008h11v1.833h-11Zm0,0" transform="translate(-92.109 -233.758)"/>
      <path id="Trazado_678232" data-name="Trazado 678232" d="M176.016,200.008h11v1.833h-11Zm0,0" transform="translate(-155.862 -177.09)"/>
      <path id="Trazado_678233" data-name="Trazado 678233" d="M104.016,296.008h5.5v1.833h-5.5Zm0,0" transform="translate(-92.109 -262.093)"/>
      <path id="Trazado_678234" data-name="Trazado 678234" d="M104.016,328.008h7.331v1.833h-7.331Zm0,0" transform="translate(-92.109 -290.427)"/>
      <path id="Trazado_678235" data-name="Trazado 678235" d="M104.016,360.008h7.331v1.833h-7.331Zm0,0" transform="translate(-92.109 -318.761)"/>
      <path id="Trazado_678236" data-name="Trazado 678236" d="M104.016,392.008h7.331v1.833h-7.331Zm0,0" transform="translate(-92.109 -347.096)"/>
      <path id="Trazado_678237" data-name="Trazado 678237" d="M104.016,232.008h3.666v1.833h-3.666Zm0,0" transform="translate(-92.109 -205.424)"/>
      <path id="Trazado_678238" data-name="Trazado 678238" d="M168.016,296.008h3.666v1.833h-3.666Zm0,0" transform="translate(-148.778 -262.093)"/>
      <path id="Trazado_678239" data-name="Trazado 678239" d="M200.016,160.008h9.164v1.833h-9.164Zm0,0" transform="translate(-177.113 -141.672)"/>
      <path id="Trazado_678240" data-name="Trazado 678240" d="M10.99,53.989A11,11,0,0,0,21.967,43.377a2.422,2.422,0,0,0,1.777.555,2.485,2.485,0,0,0,3.816,0,2.486,2.486,0,0,0,2.7-2.7,2.485,2.485,0,0,0,0-3.816,2.486,2.486,0,0,0-2.7-2.7,2.485,2.485,0,0,0-3.816,0,2.486,2.486,0,0,0-2.7,2.7,2.379,2.379,0,0,0-.366.378,11,11,0,1,0-9.69,16.193ZM22.414,38.722a.916.916,0,0,0,.521-1.256.641.641,0,0,1,.857-.857.916.916,0,0,0,1.256-.521.642.642,0,0,1,1.21,0,.916.916,0,0,0,1.256.521.641.641,0,0,1,.856.857.916.916,0,0,0,.521,1.256.642.642,0,0,1,0,1.21.916.916,0,0,0-.521,1.256.617.617,0,0,1-.126.733.624.624,0,0,1-.733.127.916.916,0,0,0-1.256.52.642.642,0,0,1-1.21,0,.914.914,0,0,0-.513-.54.934.934,0,0,0-.351-.07.9.9,0,0,0-.392.092.641.641,0,0,1-.856-.857.916.916,0,0,0-.521-1.256.641.641,0,0,1,0-1.21ZM10.99,33.828a9.164,9.164,0,1,1-9.164,9.164A9.164,9.164,0,0,1,10.99,33.828Zm0,0" transform="translate(0 -28.322)"/>
      <path id="Trazado_678241" data-name="Trazado 678241" d="M37.109,92.812a.917.917,0,0,0,1.3,0l9.164-9.164-1.3-1.3-8.516,8.516-2.1-2.1-1.3,1.3Zm0,0" transform="translate(-30.432 -72.911)"/>
    </g>
  </g>
</svg>
