<svg xmlns="http://www.w3.org/2000/svg" xmlns:xlink="http://www.w3.org/1999/xlink" width="122" height="122" viewBox="0 0 122 122">
  <defs>
    <clipPath id="clip-path">
      <path id="path1581" d="M0-682.665H91.938v91.938H0Z" transform="translate(0 682.665)"/>
    </clipPath>
  </defs>
  <g id="Grupo_946848" data-name="Grupo 946848" transform="translate(7097 8210)">
    <circle id="Elipse_5283" data-name="Elipse 5283" cx="61" cy="61" r="61" transform="translate(-7097 -8210)" fill="#1b3f5e"/>
    <g id="g1575" transform="translate(-7082 -7502.272)">
      <g id="g1577" transform="translate(0 -682.665)">
        <g id="g1579" clip-path="url(#clip-path)">
          <g id="g1585" transform="translate(45.969 1.794)">
            <path id="path1587" d="M-177.021-250.264a21.722,21.722,0,0,0,8.419-17.191,21.759,21.759,0,0,0-21.759-21.759h-14.21Z" transform="translate(204.572 289.214)" fill="#ffcb7c"/>
          </g>
          <g id="g1589" transform="translate(19.034 17.031)">
            <path id="path1591" d="M-383.312-202.624l-7.218-10.916v-2.747a37.742,37.742,0,0,0-4.5-17.872,19.836,19.836,0,0,1-.939,13.432,34.879,34.879,0,0,1-7.3,10.667,34.85,34.85,0,0,1-12.307,7.972,17.354,17.354,0,0,0-11.18,17.312c0,.036,0,.038,0,.028A11.228,11.228,0,0,1-438.217-172.7l-4.751,11.655h32.341l4.517-11.656h10.22a6.152,6.152,0,0,0,6.152-6.153v-5.115l-6.778-2.57,6.759-3.058h.019v-6.463l5.943-4.08a1.8,1.8,0,0,0,.483-2.481" transform="translate(442.968 234.159)" fill="#ffd4be"/>
          </g>
          <g id="g1593" transform="translate(82.185 62.609)">
            <path id="path1595" d="M-51.123-23.075h-6.161a1.8,1.8,0,0,1-1.8-1.8,1.8,1.8,0,0,1,1.8-1.8h6.161a1.8,1.8,0,0,1,1.8,1.8,1.8,1.8,0,0,1-1.8,1.8" transform="translate(59.08 26.667)"/>
          </g>
          <g id="g1597" transform="translate(80.142 52.945)">
            <path id="path1599" d="M-11.543-34.249a1.8,1.8,0,0,1-1.682-1.166,1.8,1.8,0,0,1,1.051-2.311l4.639-1.738a1.8,1.8,0,0,1,2.312,1.052A1.8,1.8,0,0,1-6.274-36.1l-4.639,1.738a1.793,1.793,0,0,1-.63.115" transform="translate(13.34 39.579)"/>
          </g>
          <g id="g1601" transform="translate(80.142 70.534)">
            <path id="path1603" d="M-41.345-34.25a1.793,1.793,0,0,1-.63-.115L-46.613-36.1a1.8,1.8,0,0,1-1.051-2.311,1.8,1.8,0,0,1,2.312-1.052l4.639,1.738a1.8,1.8,0,0,1,1.051,2.311,1.8,1.8,0,0,1-1.682,1.166" transform="translate(47.779 39.58)"/>
          </g>
          <g id="g1605" transform="translate(1.796 1.797)">
            <path id="path1607" d="M-315.627-4.237a41.946,41.946,0,0,0-7.425-.659,41.778,41.778,0,0,0-41.7,41.728,41.621,41.621,0,0,0,15.767,32.624c7.479,5.946,18.367-.184,17.684-9.706,0,.01,0,.008,0-.028A17.355,17.355,0,0,1-320.12,42.41a34.844,34.844,0,0,0,12.307-7.972,34.872,34.872,0,0,0,7.3-10.667A20.3,20.3,0,0,0-315.627-4.237" transform="translate(364.75 4.896)" fill="#ffcb7c"/>
          </g>
          <g id="g1609" transform="translate(0 -0.001)">
            <path id="path1611" d="M-474.8-244.546l-.627-.948V-247.7a39.674,39.674,0,0,0-4.617-18.537,22.247,22.247,0,0,0-1.73-4.249,22.169,22.169,0,0,0-8.022-8.528h1.28a19.986,19.986,0,0,1,19.963,19.963,19.825,19.825,0,0,1-6.247,14.505m2.006,3.033a23.393,23.393,0,0,0,7.833-17.539,23.581,23.581,0,0,0-23.555-23.555H-505.2l0,0a43.2,43.2,0,0,0-24.226,7.4,1.8,1.8,0,0,0-.485,2.493,1.8,1.8,0,0,0,2.493.485,39.616,39.616,0,0,1,22.221-6.79,40.271,40.271,0,0,1,7.108.631A18.538,18.538,0,0,1-484.94-268.8a18.169,18.169,0,0,1,.637,15.935,33.012,33.012,0,0,1-6.927,10.119A32.918,32.918,0,0,1-502.9-235.18a19.062,19.062,0,0,0-9.311,7.524,18.958,18.958,0,0,0-3.024,11.581h0c0,.014,0,.028,0,.042a9.352,9.352,0,0,1-5.037,9.05,8.721,8.721,0,0,1-9.739-.878,39.725,39.725,0,0,1-15.089-31.22,39.618,39.618,0,0,1,6.79-22.251,1.8,1.8,0,0,0-.485-2.493,1.8,1.8,0,0,0-2.493.485,43.2,43.2,0,0,0-7.4,24.261,43.3,43.3,0,0,0,16.445,34.028,12.533,12.533,0,0,0,4.813,2.377l-3.887,9.534a1.8,1.8,0,0,0,.985,2.341,1.789,1.789,0,0,0,.677.133A1.8,1.8,0,0,0-528-191.783l4.306-10.563a12.746,12.746,0,0,0,5.091-1.46,12.9,12.9,0,0,0,6.945-12.47c0-.009,0-.018,0-.028a15.473,15.473,0,0,1,10.025-15.519,36.482,36.482,0,0,0,12.94-8.381,36.593,36.593,0,0,0,7.676-11.216,21.955,21.955,0,0,0,1.23-3.641,35.92,35.92,0,0,1,.769,7.36v2.747a1.8,1.8,0,0,0,.3.99l7.216,10.927-5.943,4.08a1.8,1.8,0,0,0-.779,1.48v5.3l-5.723,2.59A1.8,1.8,0,0,0-485-217.9a1.8,1.8,0,0,0,1.158,1.623l5.619,2.13v3.876a4.362,4.362,0,0,1-4.357,4.357h-17.33a1.8,1.8,0,0,0-1.8,1.8,1.8,1.8,0,0,0,1.8,1.8h4.489l-3.57,9.212a1.8,1.8,0,0,0,1.025,2.323,1.792,1.792,0,0,0,.648.122,1.8,1.8,0,0,0,1.675-1.147l4.072-10.51h8.99a7.957,7.957,0,0,0,7.948-7.948v-5.116a1.794,1.794,0,0,0-1.159-1.677v0l-2.735-1.037,2.7-1.22a1.8,1.8,0,0,0,1.2-1.691v-5.518l5.163-3.546a3.616,3.616,0,0,0,.965-4.952Z" transform="translate(548.692 282.606)"/>
          </g>
          <g id="g1613" transform="translate(12.236 12.237)">
            <path id="path1615" d="M-11.538-23.075a1.8,1.8,0,0,1-1.27-.526,1.806,1.806,0,0,1-.526-1.27,1.809,1.809,0,0,1,.526-1.27,1.812,1.812,0,0,1,1.27-.526,1.809,1.809,0,0,1,1.27.526,1.8,1.8,0,0,1,.526,1.27,1.8,1.8,0,0,1-.526,1.27,1.8,1.8,0,0,1-1.27.526" transform="translate(13.333 26.667)"/>
          </g>
        </g>
      </g>
    </g>
  </g>
</svg>
