<svg xmlns="http://www.w3.org/2000/svg" width="505" height="232" viewBox="0 0 505 232">
  <g id="Grupo_936612" data-name="Grupo 936612" transform="translate(-285 -2213)">
    <rect id="When-is-it-necessary-to-perform-the-alternate-flexions-test-2" width="505" height="232" transform="translate(285 2213)" fill="#e30613"/>
    <rect id="Rectángulo_344321" data-name="Rectángulo 344321" width="228" height="213" transform="translate(426 2229)" fill="#fff"/>
    <g id="Grupo_936611" data-name="Grupo 936611" transform="translate(411 2213)">
      <path id="Trazado_678138" data-name="Trazado 678138" d="M0-971v116H252.063v-232H0Zm130.727-89.236a85.665,85.665,0,0,1,19.593,3.223c19.678,5.635,36.539,17.864,48.662,35.237a12.407,12.407,0,0,1,1.217,1.985c0,.171-.96.235-3.073.235h-3.073l-.982-1.387a96.932,96.932,0,0,0-11.483-12.742l-1.494-1.323-3.65.918a181.6,181.6,0,0,1-20.895,3.778,19.062,19.062,0,0,0-2.945.512c0,.085.3,1.11.662,2.262.832,2.753,2.113,7.363,2.113,7.705,0,.213-.662.277-2.668.277h-2.647l-.363-1.238c-.171-.662-.534-1.9-.747-2.711a57.964,57.964,0,0,0-1.9-5.72,13.117,13.117,0,0,0-3.116.043c-1.6.128-6.147.341-10.074.491a245.852,245.852,0,0,1-25.228-.576,20.12,20.12,0,0,0-3.458-.128c-.171.171-1.707,4.973-2.433,7.684l-.576,2.156H99.544c-2.412,0-2.647-.043-2.647-.384,0-.47,1.217-4.994,2.134-7.918a5.929,5.929,0,0,0,.47-2.177,14.3,14.3,0,0,0-2.39-.384,188.307,188.307,0,0,1-20.746-3.8l-3.991-.982-1.131.96a93.854,93.854,0,0,0-11.8,12.913l-1.281,1.771H55.023a20.5,20.5,0,0,1-3.159-.128,86.4,86.4,0,0,1,5.336-7.449,87.883,87.883,0,0,1,30.094-24.2,86.261,86.261,0,0,1,28.28-8.452,106.051,106.051,0,0,1,11.205-.6C127.184-1060.364,128.977-1060.278,130.727-1060.236ZM120.7-1011.424c3.33.406,5.208.491,14.15.555l10.287.085v23.029H126.8l-.064-2.5-.064-2.518-1.281-.512a39.974,39.974,0,0,0-14.086-2.262c-5.4,0-7.833.47-10.159,2.028a4.274,4.274,0,0,0-.747,6.7c2.07,2.092,4.61,2.753,15.922,4.162,9.775,1.238,13.553,2.028,18.291,3.884a27.923,27.923,0,0,1,6.958,4.1A19.228,19.228,0,0,1,147.4-965a33.431,33.431,0,0,1,.427,11.291,20.246,20.246,0,0,1-6.232,11.845c-3.714,3.543-8.495,5.869-15.09,7.342-7.278,1.643-17.587,1.9-27.917.726-3.543-.384-5.592-.47-14.108-.534l-9.989-.085v-22.816H92.843v4.7l.832.427c2.711,1.366,8.281,2.369,14.151,2.5,10.117.256,14.663-1.537,14.684-5.805a3.719,3.719,0,0,0-1.878-3.543c-2.049-1.451-4.93-2.113-14.129-3.287-11.056-1.43-15.431-2.433-20.233-4.7-7.662-3.628-11.44-9.156-12.208-17.864A23.852,23.852,0,0,1,76.2-997.487c4.077-8.43,13.4-13.275,27.853-14.471A140.755,140.755,0,0,1,120.7-1011.424Zm80.784-.128c9.519,1.43,17.1,5.016,22.965,10.864,7.15,7.15,10.608,16.328,10.586,28.088a42.907,42.907,0,0,1-2.092,14.3c-5.016,15.068-18.014,24.075-36.3,25.164-9.583.555-19.337-1.345-26.316-5.144a37.953,37.953,0,0,1-12.443-11.162,39.661,39.661,0,0,1-6.125-17.395,72.993,72.993,0,0,1,.107-12.208c1.75-13.233,8.836-23.264,20.233-28.664a48.968,48.968,0,0,1,16.263-4.247A101.021,101.021,0,0,1,201.479-1011.552ZM68.938-1001.094v9.5H56.559v38.418H68.938v19l-24.587-.043-24.609-.064-.064-9.455-.043-9.434H32.015V-991.6l-6.125-.043-6.147-.064-.064-9.455-.043-9.434h49.3ZM58.907-924.216A97.36,97.36,0,0,0,70.9-910.876l1.217,1.046,3.479-.854a169.4,169.4,0,0,1,20.127-3.692c2.113-.256,3.863-.491,3.906-.512a16.782,16.782,0,0,0-.6-2.156c-.875-2.753-2.134-7.321-2.134-7.79,0-.341.256-.384,2.647-.384h2.625l.576,2.07c.32,1.153.982,3.372,1.451,4.952l.9,2.839,1.2-.128a289.759,289.759,0,0,1,33.3-.341c2.647.171,5.421.32,6.168.32h1.387l.726-2.241c.406-1.238,1.046-3.394,1.43-4.8l.7-2.561,2.689-.064c1.793-.043,2.689.021,2.689.171,0,.363-1.857,7.022-2.433,8.687l-.534,1.537.683.107c.384.064,1.878.277,3.351.448a180.393,180.393,0,0,1,19.913,3.756c3.052.79,3.415.832,3.842.555a88.76,88.76,0,0,0,7.854-7.769c1.281-1.473,3.159-3.756,4.162-5.1l1.857-2.433h3.052a14.758,14.758,0,0,1,3.073.171,63.155,63.155,0,0,1-4.461,6.446,88.769,88.769,0,0,1-60.529,33.765A137.179,137.179,0,0,1,116-884.944a87.959,87.959,0,0,1-50.263-23.477c-4.909-4.567-11.056-11.952-13.745-16.541-.128-.192.534-.256,3.031-.256H58.2Z" transform="translate(0 1087)" fill="#e30613"/>
      <path id="Trazado_678139" data-name="Trazado 678139" d="M518.433-938.515c-4.93,1.686-9.626,7.022-13.937,15.837-.982,1.985-1.836,3.8-1.9,3.991-.107.3.064.384.982.491a251.653,251.653,0,0,0,26.722.555c9.071-.384,9.925-.448,9.925-.854a69.859,69.859,0,0,0-4.567-9.135c-2.775-4.482-5.528-7.6-8.345-9.455A9.96,9.96,0,0,0,518.433-938.515Z" transform="translate(-395.305 970.594)" fill="#e30613"/>
      <path id="Trazado_678140" data-name="Trazado 678140" d="M398.212-933.682A85.2,85.2,0,0,0,367.648-921c-2.39,1.558-3.159,2.22-2.561,2.22.085,0,1.451.3,3.031.64,5.165,1.174,15.943,2.945,19.7,3.244l.811.064.9-2.134c2.6-6.083,6.659-12.721,9.946-16.178.726-.768.726-.79.235-.768A10.894,10.894,0,0,0,398.212-933.682Z" transform="translate(-287.014 966.593)" fill="#e30613"/>
      <path id="Trazado_678141" data-name="Trazado 678141" d="M653.51-932.93a71.836,71.836,0,0,1,5.144,7.043,75.354,75.354,0,0,1,4.781,9.434l.747,1.857,1.387-.128c6.723-.662,22.624-3.458,22.624-3.991a22.749,22.749,0,0,0-3.031-2.177,85.822,85.822,0,0,0-29.176-12.379C652.55-934,652.571-934,653.51-932.93Z" transform="translate(-513.606 966.481)" fill="#e30613"/>
      <path id="Trazado_678142" data-name="Trazado 678142" d="M844.882-651.4c-7.107,1.089-11.248,6.147-12.528,15.282a59.072,59.072,0,0,0,.32,14.214c2.028,9.348,7.257,13.724,15.9,13.318,4.5-.213,6.958-1.2,9.626-3.885,3.714-3.692,5.208-8.793,5.229-17.608,0-7.235-1.046-11.824-3.564-15.623a13.019,13.019,0,0,0-7.748-5.4A25.743,25.743,0,0,0,844.882-651.4Z" transform="translate(-654.48 744.479)" fill="#e30613"/>
      <path id="Trazado_678143" data-name="Trazado 678143" d="M511.947-261.583c-5.763.32-9.711.555-9.775.619-.171.171,2.519,5.7,3.927,8.132,3.031,5.208,6.019,8.708,9.092,10.714a9.875,9.875,0,0,0,5.208,1.9,9.324,9.324,0,0,0,5.528-1.281c2.454-1.259,6-4.824,8.409-8.473,1.6-2.412,5.571-9.989,5.571-10.629,0-.341-.448-.406-4.589-.683C531.817-261.519,514.764-261.732,511.947-261.583Z" transform="translate(-394.986 437.792)" fill="#e30613"/>
      <path id="Trazado_678144" data-name="Trazado 678144" d="M385.659-255.565c-.341.043-2.39.32-4.546.619-5.122.7-9.135,1.387-13.638,2.348-2.86.619-3.628.854-3.458,1.067a89.526,89.526,0,0,0,8.815,5.635,82.883,82.883,0,0,0,23.179,8.751c1.643.363,3.095.64,3.223.64s-.277-.6-.918-1.345a60.307,60.307,0,0,1-9.37-15.41l-1.024-2.348-.811-.021A7.9,7.9,0,0,0,385.659-255.565Z" transform="translate(-286.307 433.076)" fill="#e30613"/>
      <path id="Trazado_678145" data-name="Trazado 678145" d="M663.212-254.377a93.3,93.3,0,0,1-4.824,9.54,51.436,51.436,0,0,1-4.888,6.808,6.9,6.9,0,0,0-1.11,1.473c.235.235,7.491-1.515,11.376-2.753A92.508,92.508,0,0,0,685.9-250.257l1.878-1.3-1.131-.256c-5.72-1.323-12.571-2.561-18.014-3.266-1.878-.235-3.756-.47-4.162-.534C663.724-255.7,663.724-255.7,663.212-254.377Z" transform="translate(-513.148 433.083)" fill="#e30613"/>
    </g>
  </g>
</svg>
