<svg xmlns="http://www.w3.org/2000/svg" width="122" height="122" viewBox="0 0 122 122">
  <g id="Grupo_946769" data-name="Grupo 946769" transform="translate(-390 -3682)">
    <circle id="Elipse_5277" data-name="Elipse 5277" cx="61" cy="61" r="61" transform="translate(390 3682)" fill="#1b3f5e"/>
    <g id="procedimiento" transform="translate(414.47 3700.308)">
      <path id="Trazado_678439" data-name="Trazado 678439" d="M67.885,92.6H3V15.359L15.359,3H67.885V37.034" transform="translate(0.545 0.545)" fill="#f4f4f2"/>
      <circle id="Elipse_5290" data-name="Elipse 5290" cx="30.897" cy="30.897" r="30.897" transform="translate(31.353 17.449)" fill="#4a8cdd"/>
      <circle id="Elipse_5291" data-name="Elipse 5291" cx="24.718" cy="24.718" r="24.718" transform="translate(37.532 23.628)" fill="#5cccbc"/>
      <path id="Trazado_678440" data-name="Trazado 678440" d="M33.449,84.878A44.554,44.554,0,0,0,58.615,92.6H3V15.359L15.359,3H58.615A44.8,44.8,0,0,0,33.449,84.878Z" transform="translate(0.545 0.545)" fill="#e2e2e2"/>
      <path id="Trazado_678441" data-name="Trazado 678441" d="M15.359,3V15.359H3Z" transform="translate(0.545 0.545)" fill="#4a8cdd"/>
      <path id="Trazado_678442" data-name="Trazado 678442" d="M34.269,40.718a24.718,24.718,0,0,1,20.083-24.27A25.351,25.351,0,0,0,49.718,16a24.718,24.718,0,1,0,0,49.436,25.35,25.35,0,0,0,4.635-.448A24.718,24.718,0,0,1,34.269,40.718Z" transform="translate(12.532 7.628)" fill="#3eb5a7"/>
      <ellipse id="Elipse_5292" data-name="Elipse 5292" cx="3.924" cy="1.931" rx="3.924" ry="1.931" transform="translate(44.834 32.86) rotate(-28.821)" fill="#f7f7f7"/>
      <circle id="Elipse_5293" data-name="Elipse 5293" cx="1.545" cy="1.545" r="1.545" transform="translate(43.555 38.294) rotate(-73.795)" fill="#f7f7f7"/>
      <path id="Trazado_678443" data-name="Trazado 678443" d="M61.9,40.538V34.359H58.406a12.791,12.791,0,0,0-1.313-3.182L59.565,28.7l-4.372-4.372L52.721,26.8a12.791,12.791,0,0,0-3.182-1.313V22H43.359v3.491A12.791,12.791,0,0,0,40.177,26.8L37.7,24.333,33.333,28.7,35.8,31.177a12.792,12.792,0,0,0-1.313,3.182H31v6.179h3.491A12.792,12.792,0,0,0,35.8,43.721l-2.472,2.472L37.7,50.565l2.472-2.472a12.792,12.792,0,0,0,3.182,1.313V52.9h6.179V49.406a12.792,12.792,0,0,0,3.182-1.313l2.472,2.472,4.372-4.372-2.472-2.472a12.792,12.792,0,0,0,1.313-3.182Z" transform="translate(15.801 10.897)" fill="#fad55c"/>
      <path id="Trazado_678444" data-name="Trazado 678444" d="M56.449,40.538V34.359H52.957a12.791,12.791,0,0,0-1.313-3.182L54.116,28.7l-4.372-4.372L47.272,26.8a12.791,12.791,0,0,0-3.182-1.313V22H41V52.9h3.09V49.406a12.791,12.791,0,0,0,3.182-1.313l2.472,2.472,4.372-4.372-2.472-2.472a12.792,12.792,0,0,0,1.313-3.182Z" transform="translate(21.25 10.897)" fill="#edc045"/>
      <circle id="Elipse_5294" data-name="Elipse 5294" cx="6.179" cy="6.179" r="6.179" transform="translate(56.071 42.167)" fill="#5cccbc"/>
      <path id="Trazado_678445" data-name="Trazado 678445" d="M69.974,16.877V3.545A1.545,1.545,0,0,0,68.43,2H15.9a1.545,1.545,0,0,0-1.1.448L2.448,14.807A1.545,1.545,0,0,0,2,15.9V93.147a1.545,1.545,0,0,0,1.545,1.545H68.43a1.545,1.545,0,0,0,1.545-1.545V79.815a32.442,32.442,0,0,0,0-62.938ZM14.359,7.268v7.091H7.268ZM66.885,91.6H5.09V17.449H15.9A1.545,1.545,0,0,0,17.449,15.9V5.09H66.885V16.275A32.72,32.72,0,0,0,62.25,15.9a32.272,32.272,0,0,0-18.971,6.179H8.18v3.09H39.587a34.927,34.927,0,0,0-2.765,3.09H8.179v3.09H34.674a28.4,28.4,0,0,0-1.684,3.09H8.179v3.09H31.708a26.356,26.356,0,0,0-.927,3.09H8.179v3.09h22a29.058,29.058,0,0,0-.294,3.09H8.179v3.09H29.885a29.059,29.059,0,0,0,.294,3.09h-22v3.09h22.6a26.356,26.356,0,0,0,.927,3.09H14.359v3.09H32.99a28.4,28.4,0,0,0,1.684,3.09H14.359v3.09H36.821a34.929,34.929,0,0,0,2.765,3.09H14.359v3.09h28.92a32.443,32.443,0,0,0,5.237,3.09H14.359v3.09H63.795a29.06,29.06,0,0,0,3.09-.294ZM62.25,77.7A29.353,29.353,0,1,1,91.6,48.346,29.353,29.353,0,0,1,62.25,77.7Z" transform="translate(0 0)"/>
      <path id="Trazado_678446" data-name="Trazado 678446" d="M50.263,18.09h1.545V15H50.263A26.263,26.263,0,0,0,24,41.263h3.09A23.173,23.173,0,0,1,50.263,18.09Z" transform="translate(11.987 7.083)"/>
      <path id="Trazado_678447" data-name="Trazado 678447" d="M41,55.173v3.09A26.263,26.263,0,0,0,67.263,32h-3.09A23.173,23.173,0,0,1,41,55.173Z" transform="translate(21.25 16.346)"/>
      <path id="Trazado_678448" data-name="Trazado 678448" d="M51.628,53.442V51.094a14.147,14.147,0,0,0,1.344-.556l1.746,1.653a1.545,1.545,0,0,0,2.178,0l4.372-4.372a1.545,1.545,0,0,0,0-2.178l-1.653-1.668a14.147,14.147,0,0,0,.556-1.344h2.271a1.545,1.545,0,0,0,1.545-1.545V34.9a1.545,1.545,0,0,0-1.545-1.545H60.094a14.147,14.147,0,0,0-.556-1.344l1.653-1.668a1.545,1.545,0,0,0,0-2.178L56.819,23.8a1.511,1.511,0,0,0-2.178,0l-1.668,1.653q-.649-.294-1.344-.556V22.545A1.545,1.545,0,0,0,50.083,21H43.9a1.545,1.545,0,0,0-1.545,1.545v2.348a14.147,14.147,0,0,0-1.344.556L39.346,23.8a1.545,1.545,0,0,0-2.178,0L32.8,28.168a1.545,1.545,0,0,0,0,2.178l1.653,1.668a14.147,14.147,0,0,0-.556,1.344H31.545A1.545,1.545,0,0,0,30,34.9v6.179a1.545,1.545,0,0,0,1.545,1.545h2.348a14.147,14.147,0,0,0,.556,1.344L32.8,45.718a1.545,1.545,0,0,0,0,2.178l4.372,4.372a1.511,1.511,0,0,0,2.178,0l1.668-1.653a14.147,14.147,0,0,0,1.344.556v2.271A1.545,1.545,0,0,0,43.9,54.987h6.179A1.545,1.545,0,0,0,51.628,53.442Zm-3.09-3.491V51.9h-3.09V49.951a1.545,1.545,0,0,0-1.159-1.545,10.2,10.2,0,0,1-2.781-1.159,1.545,1.545,0,0,0-1.869.247L38.25,48.87l-2.178-2.178,1.375-1.39a1.545,1.545,0,0,0,.278-1.823A10.4,10.4,0,0,1,36.566,40.7a1.545,1.545,0,0,0-1.545-1.159H33.09v-3.09h1.947a1.545,1.545,0,0,0,1.545-1.159,10.4,10.4,0,0,1,1.159-2.781,1.545,1.545,0,0,0-.247-1.869l-1.375-1.39L38.3,27.071l1.39,1.375a1.545,1.545,0,0,0,1.869.247,10.2,10.2,0,0,1,2.781-1.159A1.545,1.545,0,0,0,45.5,25.99v-1.9h3.09v1.947a1.545,1.545,0,0,0,1.159,1.545,10.2,10.2,0,0,1,2.781,1.159,1.545,1.545,0,0,0,1.869-.247l1.39-1.375L57.962,29.3l-1.375,1.39a1.545,1.545,0,0,0-.324,1.823,10.4,10.4,0,0,1,1.159,2.781,1.545,1.545,0,0,0,1.545,1.159H60.9v3.09H58.951A1.545,1.545,0,0,0,57.406,40.7a10.4,10.4,0,0,1-1.159,2.781,1.545,1.545,0,0,0,.247,1.869l1.375,1.39-2.178,2.178L54.3,47.541a1.545,1.545,0,0,0-1.823-.278A10.2,10.2,0,0,1,49.7,48.421,1.545,1.545,0,0,0,48.538,49.951Z" transform="translate(15.256 10.353)"/>
      <path id="Trazado_678449" data-name="Trazado 678449" d="M49.188,29.256a7.724,7.724,0,1,0,2.269,5.469,7.724,7.724,0,0,0-2.269-5.469ZM46.995,38a4.758,4.758,0,0,1-6.55,0,4.635,4.635,0,1,1,6.55,0Z" transform="translate(18.531 13.622)"/>
      <path id="Trazado_678450" data-name="Trazado 678450" d="M43,15h3.09v3.09H43Z" transform="translate(22.34 7.083)"/>
      <path id="Trazado_678451" data-name="Trazado 678451" d="M37,47h3.09v3.09H37Z" transform="translate(19.071 24.519)"/>
      <path id="Trazado_678452" data-name="Trazado 678452" d="M20,7H32.359v3.09H20Z" transform="translate(9.808 2.724)"/>
      <path id="Trazado_678453" data-name="Trazado 678453" d="M17,11H38.628v3.09H17Z" transform="translate(8.173 4.904)"/>
      <path id="Trazado_678454" data-name="Trazado 678454" d="M6,39H9.09v3.09H6Z" transform="translate(2.179 20.16)"/>
      <path id="Trazado_678455" data-name="Trazado 678455" d="M6,43H9.09v3.09H6Z" transform="translate(2.179 22.34)"/>
      <path id="Trazado_678456" data-name="Trazado 678456" d="M6,47H9.09v3.09H6Z" transform="translate(2.179 24.519)"/>
      <path id="Trazado_678457" data-name="Trazado 678457" d="M6,51H9.09v3.09H6Z" transform="translate(2.179 26.699)"/>
      <path id="Trazado_678458" data-name="Trazado 678458" d="M10,55H59.436v3.09H10Z" transform="translate(4.359 28.878)"/>
      <path id="Trazado_678459" data-name="Trazado 678459" d="M6,55H9.09v3.09H6Z" transform="translate(2.179 28.878)"/>
    </g>
  </g>
</svg>
