<svg xmlns="http://www.w3.org/2000/svg" xmlns:xlink="http://www.w3.org/1999/xlink" width="400" height="293" viewBox="0 0 400 293">
  <defs>
    <clipPath id="clip-path">
      <rect id="Rectángulo_344320" data-name="Rectángulo 344320" width="400" height="293" transform="translate(180 2902)" fill="none" stroke="#707070" stroke-width="1"/>
    </clipPath>
    <clipPath id="clip-path-2">
      <rect id="Rectángulo_34173" data-name="Rectángulo 34173" width="456.545" height="341.425" fill="none"/>
    </clipPath>
  </defs>
  <g id="Enmascarar_grupo_53" data-name="Enmascarar grupo 53" transform="translate(-180 -2902)" clip-path="url(#clip-path)">
    <rect id="Rectángulo_34174" data-name="Rectángulo 34174" width="400" height="134" transform="translate(180 3007)" fill="#f2f8ff"/>
    <g id="Grupo_151757" data-name="Grupo 151757" transform="translate(150.809 2855.693)">
      <g id="Grupo_151756" data-name="Grupo 151756" clip-path="url(#clip-path-2)">
        <path id="Trazado_119854" data-name="Trazado 119854" d="M69.359,80.228l.124-3.585-9.127-.28-.13,3.587Z" transform="translate(68.594 86.973)" fill="#8d96fe"/>
        <path id="Trazado_119855" data-name="Trazado 119855" d="M75.719,80.417l.12-3.583-9.127-.276-.126,3.585Z" transform="translate(75.837 87.196)" fill="#8d96fe"/>
        <rect id="Rectángulo_34126" data-name="Rectángulo 34126" width="3.59" height="9.14" transform="translate(156.023 167.748) rotate(-88.224)" fill="#8d96fe"/>
        <rect id="Rectángulo_34127" data-name="Rectángulo 34127" width="3.585" height="9.132" transform="matrix(0.029, -1, 1, 0.029, 169.626, 168.167)" fill="#8d96fe"/>
        <rect id="Rectángulo_34128" data-name="Rectángulo 34128" width="3.585" height="9.133" transform="translate(183.227 168.586) rotate(-88.393)" fill="#8d96fe"/>
        <path id="Trazado_119856" data-name="Trazado 119856" d="M101.155,81.2l.092-3.585-9.127-.28-.1,3.585Z" transform="translate(104.808 88.075)" fill="#8d96fe"/>
        <path id="Trazado_119857" data-name="Trazado 119857" d="M107.513,81.384,107.6,77.8l-9.127-.276-.092,3.587Z" transform="translate(112.049 88.295)" fill="#8d96fe"/>
        <path id="Trazado_119858" data-name="Trazado 119858" d="M113.874,81.579l.077-3.585-9.129-.278-.081,3.587Z" transform="translate(119.294 88.515)" fill="#8d96fe"/>
        <path id="Trazado_119859" data-name="Trazado 119859" d="M119.955,82.092l.567-3.546a52.329,52.329,0,0,0-6.3-.548l-3.044-.088-.075,3.585,3.005.088a47.91,47.91,0,0,1,5.85.509" transform="translate(126.537 88.735)" fill="#8d96fe"/>
        <path id="Trazado_119860" data-name="Trazado 119860" d="M125.426,85.161l1.542-3.24s-.537-.244-1.345-.616a32.028,32.028,0,0,0-3.014-1.226,30.556,30.556,0,0,0-3.086-1.022l-1.422-.424-.894,3.478,1.311.391a43.822,43.822,0,0,1,5.662,2.088c.751.342,1.247.571,1.247.571" transform="translate(133.491 89.559)" fill="#8d96fe"/>
        <path id="Trazado_119861" data-name="Trazado 119861" d="M129.9,89.468l2.372-2.693s-.451-.379-1.136-.945a29.249,29.249,0,0,0-2.552-2,30.614,30.614,0,0,0-2.682-1.839l-1.247-.791-1.842,3.08,1.166.736a27.864,27.864,0,0,1,2.483,1.707,28.963,28.963,0,0,1,2.385,1.861l1.052.886" transform="translate(139.882 92.481)" fill="#8d96fe"/>
        <path id="Trazado_119862" data-name="Trazado 119862" d="M133.038,94.657l3.009-1.957s-.336-.488-.845-1.211-1.17-1.713-1.934-2.614c-.727-.924-1.474-1.846-2.1-2.481l-1-1.089-2.595,2.473s.37.406.926,1.012c.578.59,1.266,1.45,1.953,2.312a29.744,29.744,0,0,1,1.8,2.428c.475.676.783,1.127.783,1.127" transform="translate(145.305 97.159)" fill="#8d96fe"/>
        <path id="Trazado_119863" data-name="Trazado 119863" d="M134.419,100.409l3.448-.99s-.67-2.282-1.557-4.479a42.8,42.8,0,0,0-2-4.3L131.14,92.3a37.528,37.528,0,0,1,1.837,3.974c.821,2.03,1.442,4.13,1.442,4.132" transform="translate(149.361 103.232)" fill="#8d96fe"/>
        <path id="Trazado_119864" data-name="Trazado 119864" d="M133.658,106.163l3.583.184a14.738,14.738,0,0,0,.034-1.487c-.019-.892.056-2.088-.064-3.27a43.808,43.808,0,0,0-.567-4.725l-3.534.616a39.736,39.736,0,0,1,.52,4.325c.111,1.084.032,2.182.066,3,.017.817-.043,1.36-.039,1.36" transform="translate(151.605 110.324)" fill="#8d96fe"/>
        <path id="Trazado_119865" data-name="Trazado 119865" d="M132.048,111.583l3.326,1.343s.2-.56.5-1.4a30.54,30.54,0,0,0,1.018-3.106,39.177,39.177,0,0,0,1.033-4.642l-3.536-.588a36.189,36.189,0,0,1-.95,4.257,25.832,25.832,0,0,1-.93,2.849c-.274.772-.458,1.288-.458,1.288" transform="translate(150.395 117.528)" fill="#8d96fe"/>
        <path id="Trazado_119866" data-name="Trazado 119866" d="M128.947,116.283l2.826,2.212.913-1.157c.543-.7,1.174-1.7,1.839-2.676a27.961,27.961,0,0,0,1.683-2.778c.434-.772.727-1.288.727-1.288l-3.174-1.668s-.274.479-.68,1.2a26,26,0,0,1-1.559,2.582c-.629.909-1.211,1.84-1.718,2.5s-.858,1.082-.858,1.082" transform="translate(146.863 124.062)" fill="#8d96fe"/>
        <path id="Trazado_119867" data-name="Trazado 119867" d="M124.637,120.142l2.4,2.667s1.69-1.572,3.382-3.142c.856-.8,1.715-1.594,2.291-2.263.592-.648.992-1.08.992-1.08l-2.639-2.417s-.374.406-.943,1.018c-.548.631-1.354,1.386-2.171,2.143-1.653,1.536-3.313,3.074-3.313,3.074" transform="translate(141.955 129.734)" fill="#8d96fe"/>
        <path id="Trazado_119868" data-name="Trazado 119868" d="M120.049,124.95l2.729,2.323s1.405-1.66,3.048-3.241L129,120.845l-2.477-2.592-3.273,3.277c-1.651,1.591-3.206,3.42-3.206,3.42" transform="translate(136.729 134.684)" fill="#8d96fe"/>
        <path id="Trazado_119869" data-name="Trazado 119869" d="M115.956,130.588l3.332,1.506,2.556-3.578c1.384-1.715,2.761-3.431,2.761-3.431l-2.947-2.064s-1.482,1.85-2.962,3.7c-1.367,1.931-2.74,3.865-2.74,3.865" transform="translate(132.067 140.113)" fill="#8d96fe"/>
        <path id="Trazado_119870" data-name="Trazado 119870" d="M112.777,136.78l3.728.616.554-1.258a29.634,29.634,0,0,1,1.36-2.7c.518-.967,1.01-1.953,1.433-2.663s.723-1.168.723-1.168l-3.482-1.217s-.306.5-.774,1.258c-.447.764-.967,1.827-1.525,2.87a30.794,30.794,0,0,0-1.427,2.913c-.351.813-.59,1.352-.59,1.352" transform="translate(128.447 146.226)" fill="#8d96fe"/>
        <path id="Trazado_119871" data-name="Trazado 119871" d="M110.981,143.471l3.874-.317s.083-.539.222-1.356a20.218,20.218,0,0,1,.633-2.956,35.537,35.537,0,0,1,1.268-4.209l-3.809-.306a37.883,37.883,0,0,0-1.313,4.522,22.294,22.294,0,0,0-.652,3.17c-.135.871-.222,1.452-.222,1.452" transform="translate(126.401 152.991)" fill="#8d96fe"/>
        <path id="Trazado_119872" data-name="Trazado 119872" d="M111.84,150.415l3.75-1.234a8.318,8.318,0,0,1-.312-1.335c-.124-.817-.3-1.906-.464-2.995-.047-1.093-.1-2.195-.139-3.02a7.609,7.609,0,0,1,.011-1.373l-3.865.622a8.194,8.194,0,0,0,0,1.474c.045.879.111,2.056.175,3.23.178,1.164.361,2.327.5,3.2a8.48,8.48,0,0,0,.347,1.431" transform="translate(126.182 159.974)" fill="#8d96fe"/>
        <path id="Trazado_119873" data-name="Trazado 119873" d="M116.663,156.086l3.354-2.068s-1.345-1.75-2.485-3.621c-.518-.975-1.082-1.923-1.42-2.672-.3-.768-.515-1.277-.515-1.277l-3.645,1.521s.216.545.55,1.369c.366.8.96,1.816,1.512,2.856,1.223,2.015,2.65,3.9,2.65,3.893" transform="translate(127.506 166.796)" fill="#8d96fe"/>
        <path id="Trazado_119874" data-name="Trazado 119874" d="M123.08,159.475l2.723-2.742a30.218,30.218,0,0,1-3.662-2.443,19.188,19.188,0,0,1-2.342-1.906c-.61-.554-1.016-.926-1.016-.926l-3.17,2.31s.432.4,1.084,1a19.949,19.949,0,0,0,2.492,2.06,32.848,32.848,0,0,0,3.891,2.648" transform="matrix(0.985, -0.174, 0.174, 0.985, 105.038, 193.067)" fill="#8d96fe"/>
        <path id="Trazado_119875" data-name="Trazado 119875" d="M129.769,161.242l1.9-3.226c-.053.169-8.295-2.922-8.2-3.144L121,157.8a41.522,41.522,0,0,0,4.323,1.889,31.279,31.279,0,0,0,3.042,1.119c.845.259,1.407.434,1.407.434" transform="translate(97.267 210.728) rotate(-16)" fill="#8d96fe"/>
        <path id="Trazado_119876" data-name="Trazado 119876" d="M136.491,161.918l.954-3.5s-.554-.043-1.367-.186-1.9-.3-2.988-.481c-1.091-.152-2.16-.389-2.967-.584l-1.337-.3-1.6,3.335s.58.139,1.44.338a31.114,31.114,0,0,0,3.189.644c1.17.195,2.334.387,3.213.535a14.689,14.689,0,0,0,1.467.205" transform="translate(104.663 210.965) rotate(-16)" fill="#8d96fe"/>
        <path id="Trazado_119877" data-name="Trazado 119877" d="M143.116,161.7l.034-3.587s-2.265.064-4.445-.081c-1.1-.051-2.195-.1-3.022-.135s-1.363-.1-1.363-.1l-.629,3.549a12.852,12.852,0,0,0,1.476.111c.886.041,2.075.1,3.258.152,2.387.163,4.691.094,4.691.094" transform="translate(112.082 209.937) rotate(-16)" fill="#8d96fe"/>
        <path id="Trazado_119878" data-name="Trazado 119878" d="M149.51,161.212l-.334-3.572s-2.248.287-4.5.359c-2.254.122-4.509.242-4.509.242l.118,3.589s2.31-.124,4.614-.252c2.316-.075,4.609-.366,4.609-.366" transform="translate(119.126 207.74) rotate(-16)" fill="#8d96fe"/>
        <path id="Trazado_119879" data-name="Trazado 119879" d="M75.245,83.093a9.8,9.8,0,1,1-9.8-9.8,9.8,9.8,0,0,1,9.8,9.8" transform="translate(63.375 83.481)" fill="#97a3fc"/>
        <rect id="Rectángulo_34129" data-name="Rectángulo 34129" width="2.05" height="9.713" transform="translate(165.66 118.304) rotate(-45.446)" fill="#ffb502"/>
        <rect id="Rectángulo_34130" data-name="Rectángulo 34130" width="9.61" height="2.051" transform="translate(165.721 123.657) rotate(-45.042)" fill="#ffb502"/>
        <path id="Trazado_119880" data-name="Trazado 119880" d="M206.613,87.034a11.988,11.988,0,1,1-11.458-12.5,11.961,11.961,0,0,1,11.458,12.5" transform="translate(208.026 84.882)" fill="#cbe9f4"/>
        <path id="Trazado_119883" data-name="Trazado 119883" d="M104.054,126.547l-.3-1.2c81.31-20.1,107.589-65.6,107.848-66.055l1.074.6c-.257.462-26.8,46.426-108.624,66.656" transform="translate(118.173 67.528)" fill="#848fb7"/>
        <path id="Trazado_119884" data-name="Trazado 119884" d="M132.005,98.324c-1.979,0-4.025-.058-6.143-.184l.071-1.236c29.539,1.767,44.879-9.679,45.033-9.794l.746.982c-.141.109-13.719,10.233-39.707,10.233" transform="translate(143.35 99.213)" fill="#848fb7"/>
        <path id="Trazado_119885" data-name="Trazado 119885" d="M110.738,91.411a1.8,1.8,0,0,1-1.8,1.795h-5.424a1.8,1.8,0,1,1,0-3.593h5.424a1.8,1.8,0,0,1,1.8,1.8" transform="translate(115.851 102.063)" fill="#64b4d7"/>
        <path id="Trazado_119886" data-name="Trazado 119886" d="M110.738,92.936a1.8,1.8,0,0,1-1.8,1.795h-5.424a1.8,1.8,0,1,1,0-3.593h5.424a1.8,1.8,0,0,1,1.8,1.8" transform="translate(115.851 103.8)" fill="#64b4d7"/>
        <path id="Trazado_119887" data-name="Trazado 119887" d="M110.738,94.46a1.8,1.8,0,0,1-1.8,1.795h-5.424a1.8,1.8,0,1,1,0-3.591h5.424a1.8,1.8,0,0,1,1.8,1.8" transform="translate(115.851 105.538)" fill="#64b4d7"/>
        <path id="Trazado_119888" data-name="Trazado 119888" d="M110.738,95.983a1.8,1.8,0,0,1-1.8,1.8h-5.424a1.8,1.8,0,1,1,0-3.593h5.424a1.8,1.8,0,0,1,1.8,1.795" transform="translate(115.851 107.275)" fill="#64b4d7"/>
        <path id="Trazado_119889" data-name="Trazado 119889" d="M132.787,91.411a1.8,1.8,0,0,1-1.795,1.795h-5.42a1.8,1.8,0,1,1,0-3.593h5.42a1.8,1.8,0,0,1,1.795,1.8" transform="translate(140.968 102.063)" fill="#64b4d7"/>
        <path id="Trazado_119890" data-name="Trazado 119890" d="M132.787,92.936a1.793,1.793,0,0,1-1.795,1.795h-5.42a1.8,1.8,0,1,1,0-3.593h5.42a1.8,1.8,0,0,1,1.795,1.8" transform="translate(140.968 103.8)" fill="#64b4d7"/>
        <path id="Trazado_119891" data-name="Trazado 119891" d="M132.787,94.46a1.793,1.793,0,0,1-1.795,1.795h-5.42a1.8,1.8,0,1,1,0-3.591h5.42a1.8,1.8,0,0,1,1.795,1.8" transform="translate(140.968 105.538)" fill="#64b4d7"/>
        <path id="Trazado_119892" data-name="Trazado 119892" d="M132.787,95.983a1.8,1.8,0,0,1-1.795,1.8h-5.42a1.8,1.8,0,1,1,0-3.593h5.42a1.794,1.794,0,0,1,1.795,1.795" transform="translate(140.968 107.275)" fill="#64b4d7"/>
        <rect id="Rectángulo_34131" data-name="Rectángulo 34131" width="61.428" height="3.765" transform="translate(344.381 260.716)" fill="#464f72"/>
        <path id="Trazado_119893" data-name="Trazado 119893" d="M159.919,68.4,176.84,95.911l1.371-1.155L160.837,66.514Z" transform="translate(182.139 75.755)" fill="#464f72"/>
        <path id="Trazado_119894" data-name="Trazado 119894" d="M189.559,66.857,171.69,97.025,170.182,95.8,188.53,64.829Z" transform="translate(193.828 73.837)" fill="#464f72"/>
        <path id="Trazado_119895" data-name="Trazado 119895" d="M159.919,53.869,176.84,81.386l1.371-1.153L160.837,51.989Z" transform="translate(182.139 59.212)" fill="#464f72"/>
        <path id="Trazado_119896" data-name="Trazado 119896" d="M188.727,53.869,171.8,81.386l-1.369-1.153L187.8,51.989Z" transform="translate(194.113 59.212)" fill="#464f72"/>
        <path id="Trazado_119897" data-name="Trazado 119897" d="M191.347,66.483,151.365,126.8l-1.476-.982,39.979-60.312Z" transform="translate(170.716 74.607)" fill="#464f72"/>
        <path id="Trazado_119898" data-name="Trazado 119898" d="M169.713,65.782l38.4,63.557,1.258-1.2-38.4-63.561Z" transform="translate(193.294 73.553)" fill="#464f72"/>
        <path id="Trazado_119899" data-name="Trazado 119899" d="M214.527,40.686,149.14,126.715l-1.41-1.076,65.388-86.02Z" transform="translate(168.256 45.124)" fill="#464f72"/>
        <path id="Trazado_119900" data-name="Trazado 119900" d="M160.264,40.686l65.383,86.028,1.41-1.076-65.385-86.02Z" transform="translate(182.531 45.124)" fill="#464f72"/>
        <rect id="Rectángulo_34132" data-name="Rectángulo 34132" width="7.535" height="105.446" transform="translate(358.981 82.02)" fill="#848fb7"/>
        <rect id="Rectángulo_34133" data-name="Rectángulo 34133" width="2.635" height="36.561" transform="translate(361.42 50.165)" fill="#848fb7"/>
        <path id="Trazado_119901" data-name="Trazado 119901" d="M159.98,59.467,157.5,58.115l25.8-36.619,1.093,3.529Z" transform="translate(179.383 24.483)" fill="#848fb7"/>
        <path id="Trazado_119902" data-name="Trazado 119902" d="M193.51,59.467,196,58.115,170.073,21.5l-.965,3.529Z" transform="translate(192.605 24.483)" fill="#848fb7"/>
        <rect id="Rectángulo_34134" data-name="Rectángulo 34134" width="7.531" height="89.626" transform="translate(336.85 82.02)" fill="#848fb7"/>
        <rect id="Rectángulo_34135" data-name="Rectángulo 34135" width="4.479" height="89.626" transform="translate(338.317 82.02)" fill="#6d76a1"/>
        <rect id="Rectángulo_34136" data-name="Rectángulo 34136" width="7.531" height="89.626" transform="translate(381.098 82.02)" fill="#848fb7"/>
        <path id="Trazado_119903" data-name="Trazado 119903" d="M165.015,184.227h-7.531L179.363,80.85l7.895-1.132Z" transform="translate(179.365 90.795)" fill="#848fb7"/>
        <path id="Trazado_119904" data-name="Trazado 119904" d="M161.112,183.495H158.65L180.563,80.361l.28,10.027Z" transform="translate(180.693 91.527)" fill="#6d76a1"/>
        <rect id="Rectángulo_34137" data-name="Rectángulo 34137" width="50.432" height="3.769" transform="translate(336.85 137.56)" fill="#848fb7"/>
        <rect id="Rectángulo_34138" data-name="Rectángulo 34138" width="99.78" height="3.767" transform="translate(312.859 168.628)" fill="#848fb7"/>
        <rect id="Rectángulo_34139" data-name="Rectángulo 34139" width="72.198" height="3.767" transform="translate(325.962 224.94)" fill="#848fb7"/>
        <rect id="Rectángulo_34140" data-name="Rectángulo 34140" width="63.788" height="3.767" transform="translate(317.312 266.367)" fill="#464f72"/>
        <rect id="Rectángulo_34141" data-name="Rectángulo 34141" width="87.556" height="3.767" transform="translate(317.31 199.521)" fill="#848fb7"/>
        <path id="Trazado_119905" data-name="Trazado 119905" d="M218.911,84.21,149.138,176l-1.407-1.074L217.5,83.137Z" transform="translate(168.257 94.688)" fill="#464f72"/>
        <path id="Trazado_119906" data-name="Trazado 119906" d="M157.87,83.879,227.627,177.3l1.555-1.206L159.425,82.677Z" transform="translate(179.805 94.165)" fill="#464f72"/>
        <rect id="Rectángulo_34142" data-name="Rectángulo 34142" width="1.324" height="8.331" transform="translate(315.988 171.836)" fill="#848fb7"/>
        <rect id="Rectángulo_34143" data-name="Rectángulo 34143" width="1.322" height="8.327" transform="translate(329.654 111.199)" fill="#848fb7"/>
        <rect id="Rectángulo_34144" data-name="Rectángulo 34144" width="1.324" height="8.327" transform="translate(394.616 111.199)" fill="#848fb7"/>
        <rect id="Rectángulo_34145" data-name="Rectángulo 34145" width="1.32" height="8.331" transform="translate(408.269 171.836)" fill="#848fb7"/>
        <path id="Trazado_119907" data-name="Trazado 119907" d="M154.7,64.166,153.136,63.1l15.373-22.555,1.35,1.367Z" transform="translate(174.414 46.18)" fill="#848fb7"/>
        <path id="Trazado_119908" data-name="Trazado 119908" d="M154.954,182.1h-7.717l21.924-103.26,7.525.813Z" transform="translate(167.695 89.791)" fill="#848fb7"/>
        <path id="Trazado_119909" data-name="Trazado 119909" d="M152,180.361h-3.955l21.614-100h4.07Z" transform="translate(168.61 91.527)" fill="#6d76a1"/>
        <path id="Trazado_119910" data-name="Trazado 119910" d="M199.433,182.5H207.2L185.068,78.487,177.7,80.049Z" transform="translate(202.392 89.393)" fill="#848fb7"/>
        <path id="Trazado_119911" data-name="Trazado 119911" d="M199.688,180.091H204.1L183.081,80.6h-4.1Z" transform="translate(203.854 91.797)" fill="#6d76a1"/>
        <path id="Trazado_119912" data-name="Trazado 119912" d="M189.879,184.538h7.647L175.281,79.445l-7.529.821Z" transform="translate(191.06 90.484)" fill="#848fb7"/>
        <rect id="Rectángulo_34146" data-name="Rectángulo 34146" width="2.941" height="87.695" transform="translate(361.535 83.951)" fill="#6d76a1"/>
        <path id="Trazado_119913" data-name="Trazado 119913" d="M191.794,183.818h2.421L171.966,80.077l-2.941.364Z" transform="translate(192.51 91.203)" fill="#6d76a1"/>
        <path id="Trazado_119914" data-name="Trazado 119914" d="M183.362,124.361h-4.269l-.205-85.494h4.475Z" transform="translate(203.743 44.268)" fill="#6d76a1"/>
        <rect id="Rectángulo_34147" data-name="Rectángulo 34147" width="69.971" height="3.765" transform="translate(327.549 109.317)" fill="#848fb7"/>
        <path id="Trazado_119915" data-name="Trazado 119915" d="M192.508,65.008l1.647-.926L180.778,40.289h-2.222Z" transform="translate(203.365 45.887)" fill="#848fb7"/>
        <rect id="Rectángulo_34148" data-name="Rectángulo 34148" width="51.78" height="4.706" transform="translate(336.85 82.02)" fill="#848fb7"/>
        <rect id="Rectángulo_34149" data-name="Rectángulo 34149" width="48.663" height="2.062" transform="translate(338.317 83.137)" fill="#6d76a1"/>
        <path id="Trazado_119916" data-name="Trazado 119916" d="M159.427,56.814a1.3,1.3,0,0,1-1.3,1.3h-3.921a1.3,1.3,0,1,1,0-2.6h3.921a1.3,1.3,0,0,1,1.3,1.3" transform="translate(174.15 63.227)" fill="#c1e4fa"/>
        <path id="Trazado_119917" data-name="Trazado 119917" d="M159.427,57.917a1.3,1.3,0,0,1-1.3,1.3h-3.921a1.3,1.3,0,1,1,0-2.6h3.921a1.3,1.3,0,0,1,1.3,1.3" transform="translate(174.15 64.484)" fill="#c1e4fa"/>
        <path id="Trazado_119918" data-name="Trazado 119918" d="M159.427,59.02a1.3,1.3,0,0,1-1.3,1.3h-3.921a1.3,1.3,0,1,1,0-2.6h3.921a1.3,1.3,0,0,1,1.3,1.3" transform="translate(174.15 65.74)" fill="#c1e4fa"/>
        <path id="Trazado_119919" data-name="Trazado 119919" d="M159.427,60.121a1.3,1.3,0,0,1-1.3,1.3h-3.921a1.3,1.3,0,1,1,0-2.6h3.921a1.3,1.3,0,0,1,1.3,1.3" transform="translate(174.15 66.996)" fill="#c1e4fa"/>
        <path id="Trazado_119920" data-name="Trazado 119920" d="M189.8,56.757a1.3,1.3,0,0,1-1.3,1.3h-3.923a1.3,1.3,0,1,1,0-2.6H188.5a1.3,1.3,0,0,1,1.3,1.3" transform="translate(208.74 63.165)" fill="#c1e4fa"/>
        <path id="Trazado_119922" data-name="Trazado 119922" d="M189.8,58.964a1.3,1.3,0,0,1-1.3,1.3h-3.923a1.3,1.3,0,1,1,0-2.6H188.5a1.3,1.3,0,0,1,1.3,1.3" transform="translate(208.74 65.676)" fill="#c1e4fa"/>
        <path id="Trazado_119923" data-name="Trazado 119923" d="M189.8,60.065a1.3,1.3,0,0,1-1.3,1.3h-3.923a1.3,1.3,0,1,1,0-2.6H188.5a1.3,1.3,0,0,1,1.3,1.3" transform="translate(208.74 66.932)" fill="#c1e4fa"/>
        <path id="Trazado_119924" data-name="Trazado 119924" d="M153.036,84.116a1.3,1.3,0,0,1-1.3,1.3h-3.923a1.3,1.3,0,1,1,0-2.6h3.923a1.3,1.3,0,0,1,1.3,1.3" transform="translate(166.874 94.323)" fill="#c1e4fa"/>
        <path id="Trazado_119925" data-name="Trazado 119925" d="M153.036,85.219a1.3,1.3,0,0,1-1.3,1.3h-3.923a1.3,1.3,0,1,1,0-2.6h3.923a1.3,1.3,0,0,1,1.3,1.3" transform="translate(166.874 95.579)" fill="#c1e4fa"/>
        <path id="Trazado_119926" data-name="Trazado 119926" d="M153.036,86.319a1.3,1.3,0,0,1-1.3,1.3h-3.923a1.3,1.3,0,1,1,0-2.6h3.923a1.3,1.3,0,0,1,1.3,1.3" transform="translate(166.874 96.834)" fill="#c1e4fa"/>
        <path id="Trazado_119927" data-name="Trazado 119927" d="M153.036,87.421a1.3,1.3,0,0,1-1.3,1.3h-3.923a1.3,1.3,0,1,1,0-2.6h3.923a1.3,1.3,0,0,1,1.3,1.3" transform="translate(166.874 98.092)" fill="#c1e4fa"/>
        <path id="Trazado_119928" data-name="Trazado 119928" d="M196.179,84.171a1.3,1.3,0,0,1-1.3,1.3h-3.921a1.3,1.3,0,1,1,0-2.6h3.921a1.3,1.3,0,0,1,1.3,1.3" transform="translate(216.011 94.388)" fill="#c1e4fa"/>
        <path id="Trazado_119929" data-name="Trazado 119929" d="M196.179,85.275a1.3,1.3,0,0,1-1.3,1.3h-3.921a1.3,1.3,0,1,1,0-2.6h3.921a1.3,1.3,0,0,1,1.3,1.3" transform="translate(216.011 95.643)" fill="#c1e4fa"/>
        <path id="Trazado_119930" data-name="Trazado 119930" d="M196.179,86.378a1.3,1.3,0,0,1-1.3,1.3h-3.921a1.3,1.3,0,1,1,0-2.6h3.921a1.3,1.3,0,0,1,1.3,1.3" transform="translate(216.011 96.899)" fill="#c1e4fa"/>
        <path id="Trazado_119931" data-name="Trazado 119931" d="M196.179,87.48a1.3,1.3,0,0,1-1.3,1.3h-3.921a1.3,1.3,0,1,1,0-2.6h3.921a1.3,1.3,0,0,1,1.3,1.3" transform="translate(216.011 98.154)" fill="#c1e4fa"/>
        <rect id="Rectángulo_34150" data-name="Rectángulo 34150" width="110.566" height="66.32" transform="translate(185.765 203.814)" fill="#c1e4fa"/>
        <rect id="Rectángulo_34151" data-name="Rectángulo 34151" width="29.913" height="66.32" transform="translate(185.765 203.814)" fill="#64b4d7"/>
        <rect id="Rectángulo_34152" data-name="Rectángulo 34152" width="24.974" height="4.015" transform="translate(182.589 211.471)" fill="#64b4d7"/>
        <rect id="Rectángulo_34153" data-name="Rectángulo 34153" width="5.138" height="4.015" transform="translate(202.425 211.471)" fill="#4ca1bf"/>
        <path id="Trazado_119932" data-name="Trazado 119932" d="M83.691,103.808h32.5l-1.1-4h-30.3Z" transform="translate(95.32 113.679)" fill="#4ca1bf"/>
        <rect id="Rectángulo_34154" data-name="Rectángulo 34154" width="23.963" height="28.414" transform="translate(179.01 217.486)" fill="#464f72"/>
        <rect id="Rectángulo_34155" data-name="Rectángulo 34155" width="10.699" height="28.414" transform="translate(200.815 217.486)" fill="#343c56"/>
        <path id="Trazado_119933" data-name="Trazado 119933" d="M93.885,103.808l.828-4h8.768l1.1,4Z" transform="translate(106.93 113.679)" fill="#3c93aa"/>
        <path id="Trazado_119934" data-name="Trazado 119934" d="M87.575,112.518h7.349l-3.677-7.343Z" transform="translate(99.743 119.789)" fill="#4ca1bf"/>
        <path id="Trazado_119935" data-name="Trazado 119935" d="M93.831,111.449l-2.962-5.769-2.96,5.769Z" transform="translate(100.122 120.364)" fill="#ffcf03"/>
        <path id="Trazado_119936" data-name="Trazado 119936" d="M90,110.282l.056-2.6-.669.9-.182-2.3-.015,2.99.543-.749Z" transform="translate(101.587 121.052)" fill="#6d76a1"/>
        <rect id="Rectángulo_34156" data-name="Rectángulo 34156" width="7.527" height="4.498" transform="translate(202.425 221.015)" fill="#848fb7"/>
        <rect id="Rectángulo_34157" data-name="Rectángulo 34157" width="5.666" height="0.55" transform="translate(203.352 221.59)" fill="#464f72"/>
        <rect id="Rectángulo_34158" data-name="Rectángulo 34158" width="5.666" height="0.55" transform="translate(203.352 222.555)" fill="#464f72"/>
        <rect id="Rectángulo_34159" data-name="Rectángulo 34159" width="5.666" height="0.554" transform="translate(203.352 223.543)" fill="#464f72"/>
        <rect id="Rectángulo_34160" data-name="Rectángulo 34160" width="5.666" height="0.548" transform="translate(203.352 224.508)" fill="#464f72"/>
        <rect id="Rectángulo_34161" data-name="Rectángulo 34161" width="42.066" height="70.95" transform="matrix(0.001, -1, 1, 0.001, 221.385, 258.469)" fill="#848fb7"/>
        <rect id="Rectángulo_34162" data-name="Rectángulo 34162" width="31.676" height="3.082" transform="translate(281.702 253.344) rotate(-89.942)" fill="#464f72"/>
        <rect id="Rectángulo_34163" data-name="Rectángulo 34163" width="31.676" height="3.081" transform="matrix(0.001, -1, 1, 0.001, 286.715, 253.344)" fill="#464f72"/>
        <rect id="Rectángulo_34164" data-name="Rectángulo 34164" width="31.679" height="3.087" transform="matrix(0.001, -1, 1, 0.001, 276.31, 253.342)" fill="#464f72"/>
        <rect id="Rectángulo_34165" data-name="Rectángulo 34165" width="31.68" height="3.083" transform="translate(270.794 253.336) rotate(-89.923)" fill="#464f72"/>
        <rect id="Rectángulo_34166" data-name="Rectángulo 34166" width="31.682" height="3.083" transform="translate(265.407 253.331) rotate(-89.923)" fill="#464f72"/>
        <rect id="Rectángulo_34167" data-name="Rectángulo 34167" width="31.68" height="3.084" transform="translate(259.926 253.321) rotate(-89.934)" fill="#464f72"/>
        <rect id="Rectángulo_34168" data-name="Rectángulo 34168" width="31.68" height="3.084" transform="translate(254.539 253.315) rotate(-89.934)" fill="#464f72"/>
        <rect id="Rectángulo_34169" data-name="Rectángulo 34169" width="31.682" height="3.084" transform="matrix(0.001, -1, 1, 0.001, 249.022, 253.307)" fill="#464f72"/>
        <path id="Trazado_119937" data-name="Trazado 119937" d="M113.9,135.285l.041-31.671h3.082L116.99,135.3Z" transform="translate(129.73 118.01)" fill="#464f72"/>
        <rect id="Rectángulo_34170" data-name="Rectángulo 34170" width="31.677" height="3.084" transform="translate(237.084 253.291) rotate(-89.93)" fill="#464f72"/>
        <rect id="Rectángulo_34171" data-name="Rectángulo 34171" width="31.68" height="3.08" transform="translate(231.568 253.286) rotate(-89.919)" fill="#464f72"/>
        <rect id="Rectángulo_34172" data-name="Rectángulo 34172" width="31.677" height="3.085" transform="translate(226.177 253.277) rotate(-89.923)" fill="#464f72"/>
        <path id="Trazado_119938" data-name="Trazado 119938" d="M198.051,80.83a6.325,6.325,0,0,0-7.473,1.179c-3.352,3.72-5.79,13.644-12.367,15.76-6.609,2.122-10.051-1.031-12.645-2.836s-2.761-3.754-4.387-4.635-2.592,1.082.86,4.984c1.647,1.869,8.7,12.059,17.015,10.986,10.9-1.4,25.556-21.188,19-25.436" transform="translate(181.894 91.235)" fill="#fbc6b4"/>
        <path id="Trazado_119939" data-name="Trazado 119939" d="M184.429,79.85s5.11,2.017,2.327,9.7-5.069,10.646-5.069,10.646-5.337-.267-11.617-5.824c0,0,7.58-18.382,14.359-14.517" transform="translate(193.7 90.337)" fill="#eda503"/>
        <path id="Trazado_119940" data-name="Trazado 119940" d="M195.126,77.407l-.019-.017c-3.067-.582-6.524.173-9.178.734-5.85,1.213-14.834,4.975-13.422,15.452a63.244,63.244,0,0,0,3.7,13.069c.391,1.048.8,2.109,1.285,3.134,1.974,4.616,1.564,8.28,4.043,10.166,7.2,5.471,36.078,3.247,32.367-7.85-.158-.175-2.22-3.437-2.374-3.6a68.194,68.194,0,0,1-5.938-9.516,25.708,25.708,0,0,1-1.384-2.941,27.224,27.224,0,0,1-1.872-8.169c-.577-7.121-3.613-9.728-7.208-10.457" transform="translate(196.307 87.904)" fill="#ffb502"/>
        <path id="Trazado_119941" data-name="Trazado 119941" d="M172.869,116.54c.436,7.713,3.018,18.091,2.492,23.274-.086.83-.237,1.112-2.99,1.378s-.55,2.267,3.944,3.08,6.248-21.223,6.019-31.765c-.2-9.217-9.985-4.93-9.465,4.034" transform="translate(194.94 122.277)" fill="#fbc6b4"/>
        <path id="Trazado_119942" data-name="Trazado 119942" d="M179.5,124.5s-4.254.892-6.295-1.311c0,0-4.53-.267-2.023,1.478,2.53,1.752,7.647,3.852,8.318-.167" transform="translate(194.105 140.285)" fill="#ffb502"/>
        <path id="Trazado_119943" data-name="Trazado 119943" d="M185.906,125.085c4.028,5.889,11,12.861,13.054,17.208.332.674.34.984-1.715,2.507-2.051,1.5.642,2.049,4.592.556s-5.172-19.736-10.372-27.971c-4.537-7.185-10.22.864-5.559,7.7" transform="translate(209.755 130.491)" fill="#fbc6b4"/>
        <path id="Trazado_119944" data-name="Trazado 119944" d="M196.908,127.79s-2.932,2.719-5.593,1.957c0,0-3.707,1.949-.875,2.126,2.815.193,7.858-.6,6.468-4.083" transform="translate(215.686 145.546)" fill="#ffb502"/>
        <path id="Trazado_119945" data-name="Trazado 119945" d="M216.3,162.41a8.677,8.677,0,0,1-1.561,1.66,1.624,1.624,0,0,1-.394.3,11.113,11.113,0,0,1-5.837,2.16s-18.13-8.126-16.057-32.895c.565-6.791,4-11.773,5.367-15.625,1.463-4.1-7.734,12.4-8.971,14.461-3.078,5.11-5.856,21.276-5.856,21.276a8.13,8.13,0,0,1-1.953.595,2.145,2.145,0,0,1-.5.094,11.915,11.915,0,0,1-7.106-1.223s-8.554-25.9,7.071-45.56c5.672-7.136,24.339-14.859,24.339-14.859l4.107-4.162s13.268,15.047,8.494,31.581c-1.6,5.529-5.523,15.542-5.709,21.871-.152,5.5,4.571,20.322,4.571,20.322" transform="translate(194.862 100.951)" fill="#1c2745"/>
        <path id="Trazado_119946" data-name="Trazado 119946" d="M192.272,85.88c.59,5.245.868,13.7,14.113,16.07,0,0-12.273,29.815-27.853,21.469,0,0-5.311-21.871-5.2-31.357.041-2.725-.231-10.956,4.434-11.42,0,0-3.281,14.541,1.273,16.442s6.855-1.9,7.523-4.8c1.069-4.663.513-14.357.513-14.357l5-.986a56.365,56.365,0,0,0,.2,8.934" transform="translate(197.418 87.637)" fill="#1c2745"/>
        <path id="Trazado_119947" data-name="Trazado 119947" d="M180,74.631s-.314,4.939,3.5,6.01c3.91,1.089-5.347,11.925-6.017,9.369-.864-3.294.009-5.792-2.954-8.806Z" transform="translate(198.777 85.001)" fill="#f7b2a0"/>
        <path id="Trazado_119948" data-name="Trazado 119948" d="M172.893,73.65c-1.694,3.583-.2,15.807,3.576,17.148,1.658.575,6.222-2.616,7.484-8.75.53-2.509.669-6.909-2.838-9.882-1.6-1.35-6.267-2.672-8.222,1.484" transform="translate(196.126 80.686)" fill="#fbc6b4"/>
        <path id="Trazado_119949" data-name="Trazado 119949" d="M171.495,76.71c-.038,1.623.252,1.876,4.695.86s5.05-1.572,5.018-.409c-.092,3.433,2.663,1.679,2.5,5.779s2.537.6,2.95-2.875c.071-.7.729-4.209-3.02-7.756-4.376-4.15-11.97-1.574-12.147,4.4" transform="translate(195.32 80.044)" fill="#1d1b3a"/>
        <path id="Trazado_119950" data-name="Trazado 119950" d="M181.932,78.365s-10.652,2.547-12.141-1.461c-.915-2.475,6.475-5.369,6.475-5.369Z" transform="translate(193.294 81.474)" fill="#eda503"/>
        <path id="Trazado_119951" data-name="Trazado 119951" d="M171.706,78.523c2.92,3.054,6.43,3.283,15.437,1.04,0,0,.053-9.234-7.11-10.16-6.318-.806-10.19,7.17-8.327,9.12" transform="translate(195.029 78.98)" fill="#ffb502"/>
        <path id="Trazado_119952" data-name="Trazado 119952" d="M195.905,76.9c-1.26.041-3.946,1.3-4.376,4.849-.59,4.748,2.937,13.833-1.05,19.088-4,5.27-8.421,4.686-11.433,4.7-3.014-.006-4.209-1.416-5.961-1.226s-1.442,2.276,3.4,3.429c2.31.556,13.4,4.665,19.31-.723,7.745-7.056,7.555-30.384.111-30.114" transform="translate(196.018 87.584)" fill="#fbc6b4"/>
        <path id="Trazado_119953" data-name="Trazado 119953" d="M185.03,76.836s5.1-1.217,7.121,6.321c2.019,7.521,1.865,11.078,1.865,11.078s-4.319,2.716-12.263,1.8c0,0-4.135-18.513,3.277-19.2" transform="translate(205.697 87.429)" fill="#eda503"/>
        <path id="Trazado_119954" data-name="Trazado 119954" d="M194.513,104.972a10.635,10.635,0,0,1-5.936-9.762l.89.06a9.545,9.545,0,0,0,5.437,8.907Z" transform="translate(214.774 108.439)" fill="#fff"/>
        <path id="Trazado_119955" data-name="Trazado 119955" d="M175.709,102.332l-.006-.892a9.666,9.666,0,0,0,8.74-5.7l.83.332a10.624,10.624,0,0,1-9.563,6.256" transform="translate(200.116 109.047)" fill="#fff"/>
        <path id="Trazado_119956" data-name="Trazado 119956" d="M45.142,103.841s2.355-2.744,5.375-2.654c2.708.081.038,2.586-3.606,4.887Z" transform="translate(51.414 115.243)" fill="#f7b2a0"/>
        <path id="Trazado_119957" data-name="Trazado 119957" d="M30.833,110.073c-2.368.43-3.166,2.391-2.013,5.454,1.756,4.7,6.274,3.79,14.59,3.042,9.45-.851,23.252-13.8,23.252-13.8A2.258,2.258,0,0,0,64.81,102.2s-9.21,6.22-18.575,7.17c-4.594.464-10.417-.19-15.4.708" transform="translate(32.231 116.394)" fill="#eda503"/>
        <path id="Trazado_119958" data-name="Trazado 119958" d="M105.884,102.11c.64-11.653.041-39.56-11.24-45.3C82.183,54.613,64.917,76.542,58.419,86.24c-40.565,60.466-1.189,82.471-1.189,82.471s44.687,6.107,48.655-66.6" transform="translate(45.645 64.526)" fill="#ffb502"/>
        <path id="Trazado_119959" data-name="Trazado 119959" d="M93.177,97.535c.477-8.658.028-29.406-8.353-33.671C75.56,62.232,62.72,78.537,57.89,85.732c-30.151,44.954-.883,61.311-.883,61.311s33.224,4.532,36.17-49.508" transform="translate(50.407 72.607)" fill="#ffcf03"/>
        <path id="Trazado_119960" data-name="Trazado 119960" d="M46.9,126.267,49.567,83,83.04,93.584,60.7,130.631l-1.576-.954L80.253,94.634l-28.993-9.17-2.526,40.918Z" transform="translate(53.421 94.538)" fill="#464f72"/>
        <path id="Trazado_119961" data-name="Trazado 119961" d="M72.766,156.029,34.712,143.865l13.1-42.047L85.863,113.99Z" transform="translate(39.535 115.964)" fill="#64b4d7"/>
        <path id="Trazado_119962" data-name="Trazado 119962" d="M83.3,115.638a1.811,1.811,0,0,1-2.368.907L41.319,103.874a1.843,1.843,0,0,1-1.42-2.118,1.8,1.8,0,0,1,2.364-.9l39.607,12.667a1.832,1.832,0,0,1,1.427,2.118" transform="translate(45.377 114.732)" fill="#c1e4fa"/>
        <path id="Trazado_119963" data-name="Trazado 119963" d="M82.445,118.187a1.808,1.808,0,0,1-2.368.9L40.471,106.423a1.842,1.842,0,0,1-1.425-2.113,1.805,1.805,0,0,1,2.364-.911l39.611,12.671a1.83,1.83,0,0,1,1.425,2.118" transform="translate(44.407 117.632)" fill="#c1e4fa"/>
        <path id="Trazado_119964" data-name="Trazado 119964" d="M81.574,120.8a1.809,1.809,0,0,1-2.37.907L39.595,109.035a1.837,1.837,0,0,1-1.422-2.113,1.8,1.8,0,0,1,2.364-.907l39.611,12.671a1.831,1.831,0,0,1,1.427,2.113" transform="translate(43.411 120.611)" fill="#c1e4fa"/>
        <path id="Trazado_119965" data-name="Trazado 119965" d="M80.719,123.348a1.8,1.8,0,0,1-2.368.9L38.742,111.586a1.849,1.849,0,0,1-1.422-2.12,1.813,1.813,0,0,1,2.364-.907L79.292,121.23a1.833,1.833,0,0,1,1.427,2.118" transform="translate(42.441 123.512)" fill="#c1e4fa"/>
        <path id="Trazado_119966" data-name="Trazado 119966" d="M66.731,133.852c-1.213,3.626-5.876,5.33-10.419,3.809l-13.169-4.406c-4.537-1.517-7.238-5.679-6.03-9.3s5.874-5.322,10.412-3.805l13.169,4.4c4.545,1.519,7.242,5.685,6.036,9.3" transform="translate(41.942 136.207)" fill="#64b4d7"/>
        <path id="Trazado_119967" data-name="Trazado 119967" d="M79.5,127a1.81,1.81,0,0,1-2.368.9L37.522,115.227a1.84,1.84,0,0,1-1.422-2.113,1.809,1.809,0,0,1,2.364-.907l39.609,12.671A1.836,1.836,0,0,1,79.5,127" transform="translate(41.052 127.665)" fill="#c1e4fa"/>
        <path id="Trazado_119968" data-name="Trazado 119968" d="M78.65,129.541a1.8,1.8,0,0,1-2.368.9L36.671,117.777a1.838,1.838,0,0,1-1.422-2.111,1.812,1.812,0,0,1,2.366-.913l39.607,12.675a1.83,1.83,0,0,1,1.429,2.113" transform="translate(40.083 130.565)" fill="#c1e4fa"/>
        <path id="Trazado_119969" data-name="Trazado 119969" d="M77.774,132.155a1.8,1.8,0,0,1-2.37.9L35.8,120.393a1.839,1.839,0,0,1-1.425-2.113,1.8,1.8,0,0,1,2.364-.909L76.35,130.037a1.832,1.832,0,0,1,1.425,2.118" transform="translate(39.087 133.545)" fill="#c1e4fa"/>
        <path id="Trazado_119970" data-name="Trazado 119970" d="M76.92,134.705a1.8,1.8,0,0,1-2.368.9l-39.6-12.667a1.845,1.845,0,0,1-1.425-2.118,1.8,1.8,0,0,1,2.364-.907L75.5,132.583a1.838,1.838,0,0,1,1.422,2.122" transform="translate(38.117 136.444)" fill="#c1e4fa"/>
        <path id="Trazado_119971" data-name="Trazado 119971" d="M45.762,107.777c3.925,2.986,7.257,10.288,8.823,34.157.34,5.245-30.1,6.515-30.215,1.249-.272-14.01,2.12-19.762,6.124-32.386,1.1-3.433,7.518-9,15.268-3.02" transform="translate(27.732 119.744)" fill="#ffb502"/>
        <path id="Trazado_119972" data-name="Trazado 119972" d="M48.2,114.625s4.823-6.028,4.547-3.332.791,4.282-3.226,5.861Z" transform="translate(54.899 125.966)" fill="#f7b2a0"/>
        <path id="Trazado_119973" data-name="Trazado 119973" d="M37.575,107.016c-5.294.751-6.522,3.66-5.961,6.885.843,4.941,3.405,12.765,12.106,16.517s25.426-9.189,25.426-9.189a2.263,2.263,0,0,0-1.341-2.881s-14.566,7.6-21.424,2.562c-3.315-2.438-3.784-14.6-8.806-13.895" transform="translate(35.865 121.851)" fill="#ffb502"/>
        <path id="Trazado_119974" data-name="Trazado 119974" d="M21.579,157.394c-1.581-1.8-1.519-2.081-1.078-2.646a12.586,12.586,0,0,1,1.309-1.459l-3.476-2.118a16.828,16.828,0,0,0-1.5,3.375c.265.332,2.312,3.024,4.748,2.847" transform="translate(19.17 172.177)" fill="#fbc6b4"/>
        <path id="Trazado_119975" data-name="Trazado 119975" d="M17.108,152.785a.142.142,0,0,0-.034-.066c-1.974,2.943,2.535,4.689,5.178,5.074s-.4-2.16-.4-2.16c-2.436.178-4.483-2.515-4.748-2.847" transform="translate(18.893 173.938)" fill="#ffb502"/>
        <path id="Trazado_119976" data-name="Trazado 119976" d="M17.058,185.754c-.473,1.7,3.3,4.411,4.359,3.51,9.1-7.728,18.831-24.553,22.461-31.434.165-.306.323-.592.471-.851,1.814-2.965,2.855-2.353,9-16.093,2-4.434,3.208-12.211,3.208-12.211l-6.109-2.518L36.4,120.245c-4.875,4.639-6.519,18.072-7.578,23.513-.873,4.592-1.889,12.023-2.851,15.6-3.395,12.5-5.844,15.037-8.909,26.395" transform="translate(19.381 136.952)" fill="#1c2745"/>
        <path id="Trazado_119977" data-name="Trazado 119977" d="M38.7,157.939c-2.207-.971-2.254-1.258-2.1-1.959a14.686,14.686,0,0,1,.582-1.863l-4.04-.468a17.334,17.334,0,0,0,.053,3.7c.37.19,3.352,1.775,5.506.595" transform="translate(37.664 174.997)" fill="#fbc6b4"/>
        <path id="Trazado_119978" data-name="Trazado 119978" d="M33.187,155.406a.324.324,0,0,0-.066-.056c-.569,3.519,4.254,3.208,6.813,2.449,2.575-.757-1.241-1.8-1.241-1.8-2.154,1.181-5.136-.4-5.506-.595" transform="translate(37.67 176.935)" fill="#ffb502"/>
        <path id="Trazado_119979" data-name="Trazado 119979" d="M30.614,146.9c1.127,4.554,3.649,9.242,3.649,15.629,0,12.986,1.223,15.86,3.159,27.46.214,1.339,3.063,2.188,4.594,1.88a1.366,1.366,0,0,0,.588-.237.5.5,0,0,0,.284-.28c5.022-10.819,8.387-29.224,8.84-36.974.261-4.577.137-4.008-.026-20.322-.047-4.879-2.173-12.442-2.173-12.442l-20.264.661c-2.5,6.267.047,19.253,1.348,24.626" transform="translate(32.13 138.516)" fill="#27355c"/>
        <path id="Trazado_119980" data-name="Trazado 119980" d="M34.665,191.194a1.372,1.372,0,0,0,.586-.237c3.069-8.556,4.383-17.653,5.514-25.526a156.363,156.363,0,0,0,2.081-21.7,53.337,53.337,0,0,0-3.91-21.377.245.245,0,0,0-.314-.124.249.249,0,0,0-.139.308,52.578,52.578,0,0,1,3.886,21.193A155.337,155.337,0,0,1,40.3,165.39c-1.157,7.935-2.5,17.182-5.636,25.8" transform="translate(39.482 139.198)" fill="#fff"/>
        <path id="Trazado_119981" data-name="Trazado 119981" d="M48.228,109.447s-5.463,6.9-2.624,18.793c0,0,2.047,7.525,8.684,6.813l1.262,11.067s-12.245,6.475-31-2.592c0,0-2.74-18.487,6.674-34.3,0,0,1.97-3.024,4.186-3.7,0,0-10.954,18.294-2.6,19.888s13.157-18.07,13.157-18.07Z" transform="translate(27.534 120.181)" fill="#27355c"/>
        <path id="Trazado_119982" data-name="Trazado 119982" d="M30.919,103.731s-1.433,6.045-.248,7.469,7.495-.017,7.191-2.28a35.594,35.594,0,0,0-1.2-5.548Z" transform="translate(34.398 117.735)" fill="#fbc6b4"/>
        <path id="Trazado_119983" data-name="Trazado 119983" d="M28.885,105.477c0,5.326,2.98,9.645,6.652,9.645,1.649,0,5.317.458,6.477-.988,1.431-1.762,1.44-6.295.616-9.12-1.9-6.5-4.648-8.646-8.327-8.646s-5.418,3.784-5.418,9.11" transform="translate(32.898 109.757)" fill="#fbc6b4"/>
        <path id="Trazado_119984" data-name="Trazado 119984" d="M36.742,116.224c-2.3.128-6.175-.678-8.31-5.42-1.955-4.331-.828-11.563,3.542-13.771a10.527,10.527,0,0,1,8.971-.178c4.017,1.908,3.5,4.351,2.684,4.751-1.692.834-3.024-.486-2.684,1.822.255,1.786.12,5.713-1.54,5.953s-3.061.248-2.663,2.646c.3,1.814,2.329,4.077,0,4.2" transform="translate(31.33 109.268)" fill="#000644"/>
        <path id="Trazado_119985" data-name="Trazado 119985" d="M34.855,104.618s9.069-5.262,6.479-7.861c-2.107-2.109-9.281.678-9.281.678Z" transform="translate(36.507 109.302)" fill="#eda503"/>
        <path id="Trazado_119986" data-name="Trazado 119986" d="M43.984,100.863c-.871,4.828-5.016,7.461-15.435,10.252,0,0-5.245-9.356,1.519-14.32,5.966-4.376,14.491.864,13.916,4.068" transform="translate(30.308 108.341)" fill="#ffb502"/>
      </g>
    </g>
  </g>
</svg>
