<svg xmlns="http://www.w3.org/2000/svg" xmlns:xlink="http://www.w3.org/1999/xlink" width="505" height="310" viewBox="0 0 505 310">
  <defs>
    <clipPath id="clip-path">
      <rect id="Rectángulo_344413" data-name="Rectángulo 344413" width="505" height="310" transform="translate(180 1542)" fill="#fff" stroke="#707070" stroke-width="1"/>
    </clipPath>
  </defs>
  <g id="Enmascarar_grupo_2" data-name="Enmascarar grupo 2" transform="translate(-180 -1542)" clip-path="url(#clip-path)">
    <g id="Grupo_936370" data-name="Grupo 936370" transform="translate(-98.181 1350.179)">
      <path id="Trazado_677912" data-name="Trazado 677912" d="M803.181,315.328c0,4.788-123.12,8.67-274.992,8.67s-275-3.883-275-8.67,123.122-8.673,275-8.673S803.181,310.54,803.181,315.328Z" transform="translate(0 177.643)" fill="#90cc3a"/>
      <g id="Grupo_936201" data-name="Grupo 936201" transform="translate(287.293 432.678)">
        <g id="Grupo_936200" data-name="Grupo 936200">
          <g id="Grupo_936199" data-name="Grupo 936199">
            <g id="Grupo_936198" data-name="Grupo 936198">
              <g id="Grupo_936197" data-name="Grupo 936197">
                <path id="Trazado_677913" data-name="Trazado 677913" d="M266.565,287.5l.9-.841,3.592,3.8a2.848,2.848,0,0,0,4,.13l3.067-2.86a4.065,4.065,0,0,1,5.759.207l2.363,2.542a2.851,2.851,0,0,0,4.048.117l2.679-2.577a4.075,4.075,0,0,1,5.935.316l1.463,1.739a2.848,2.848,0,0,0,4.314.043l3.25-3.707.92.813-3.243,3.709a4.068,4.068,0,0,1-6.185-.071l-1.453-1.736a2.844,2.844,0,0,0-4.148-.219l-2.687,2.575a4.062,4.062,0,0,1-5.795-.163l-2.361-2.539A2.836,2.836,0,0,0,281,287.87a2.806,2.806,0,0,0-2.034.757l-3.067,2.858a4.081,4.081,0,0,1-5.739-.184Z" transform="translate(-266.565 -286.407)" fill="#ffb502"/>
              </g>
            </g>
          </g>
        </g>
      </g>
      <g id="Grupo_936232" data-name="Grupo 936232" transform="translate(474.678 327.227)">
        <g id="Grupo_936216" data-name="Grupo 936216" transform="translate(0.05 44.874)">
          <g id="Grupo_936203" data-name="Grupo 936203" transform="translate(0.041 38.457)">
            <g id="Grupo_936202" data-name="Grupo 936202" transform="translate(0 0)">
              <rect id="Rectángulo_329502" data-name="Rectángulo 329502" width="1.811" height="4.305" transform="translate(0 0.002) rotate(-0.073)" fill="#848fb7"/>
            </g>
          </g>
          <g id="Grupo_936205" data-name="Grupo 936205" transform="translate(0.032 32.049)">
            <g id="Grupo_936204" data-name="Grupo 936204">
              <path id="Trazado_677914" data-name="Trazado 677914" d="M341.912,275.217H340.1l.007,4.3h1.81Z" transform="translate(-340.1 -275.217)" fill="#848fb7"/>
            </g>
          </g>
          <g id="Grupo_936207" data-name="Grupo 936207" transform="translate(0.027 25.638)">
            <g id="Grupo_936206" data-name="Grupo 936206" transform="translate(0 0)">
              <rect id="Rectángulo_329503" data-name="Rectángulo 329503" width="1.81" height="4.305" transform="translate(0 0.003) rotate(-0.081)" fill="#848fb7"/>
            </g>
          </g>
          <g id="Grupo_936209" data-name="Grupo 936209" transform="translate(0.022 19.23)">
            <g id="Grupo_936208" data-name="Grupo 936208">
              <rect id="Rectángulo_329504" data-name="Rectángulo 329504" width="1.811" height="4.302" fill="#848fb7"/>
            </g>
          </g>
          <g id="Grupo_936211" data-name="Grupo 936211" transform="translate(0.012 12.817)">
            <g id="Grupo_936210" data-name="Grupo 936210" transform="translate(0 0)">
              <rect id="Rectángulo_329505" data-name="Rectángulo 329505" width="1.812" height="4.306" transform="translate(0 0.002) rotate(-0.073)" fill="#848fb7"/>
            </g>
          </g>
          <g id="Grupo_936213" data-name="Grupo 936213" transform="translate(0.005 6.406)">
            <g id="Grupo_936212" data-name="Grupo 936212" transform="translate(0 0)">
              <rect id="Rectángulo_329506" data-name="Rectángulo 329506" width="1.81" height="4.303" transform="translate(0 0.003) rotate(-0.081)" fill="#848fb7"/>
            </g>
          </g>
          <g id="Grupo_936215" data-name="Grupo 936215">
            <g id="Grupo_936214" data-name="Grupo 936214">
              <rect id="Rectángulo_329507" data-name="Rectángulo 329507" width="1.811" height="4.303" fill="#848fb7"/>
            </g>
          </g>
        </g>
        <g id="Grupo_936231" data-name="Grupo 936231">
          <g id="Grupo_936218" data-name="Grupo 936218" transform="translate(0.041 38.461)">
            <g id="Grupo_936217" data-name="Grupo 936217">
              <rect id="Rectángulo_329508" data-name="Rectángulo 329508" width="1.811" height="4.305" fill="#848fb7"/>
            </g>
          </g>
          <g id="Grupo_936220" data-name="Grupo 936220" transform="translate(0.035 32.052)">
            <g id="Grupo_936219" data-name="Grupo 936219">
              <path id="Trazado_677915" data-name="Trazado 677915" d="M341.891,257.616h-1.81l0,4.3h1.81Z" transform="translate(-340.081 -257.616)" fill="#848fb7"/>
            </g>
          </g>
          <g id="Grupo_936222" data-name="Grupo 936222" transform="translate(0.024 25.639)">
            <g id="Grupo_936221" data-name="Grupo 936221" transform="translate(0 0)">
              <rect id="Rectángulo_329509" data-name="Rectángulo 329509" width="1.811" height="4.305" transform="translate(0 0.003) rotate(-0.08)" fill="#848fb7"/>
            </g>
          </g>
          <g id="Grupo_936224" data-name="Grupo 936224" transform="translate(0.018 19.228)">
            <g id="Grupo_936223" data-name="Grupo 936223" transform="translate(0 0)">
              <rect id="Rectángulo_329510" data-name="Rectángulo 329510" width="1.81" height="4.303" transform="matrix(1, -0.003, 0.003, 1, 0, 0.005)" fill="#848fb7"/>
            </g>
          </g>
          <g id="Grupo_936226" data-name="Grupo 936226" transform="translate(0.015 12.819)">
            <g id="Grupo_936225" data-name="Grupo 936225">
              <rect id="Rectángulo_329511" data-name="Rectángulo 329511" width="1.81" height="4.305" fill="#848fb7"/>
            </g>
          </g>
          <g id="Grupo_936228" data-name="Grupo 936228" transform="translate(0.005 6.408)">
            <g id="Grupo_936227" data-name="Grupo 936227" transform="translate(0 0)">
              <rect id="Rectángulo_329512" data-name="Rectángulo 329512" width="1.808" height="4.304" transform="translate(0 0.004) rotate(-0.121)" fill="#848fb7"/>
            </g>
          </g>
          <g id="Grupo_936230" data-name="Grupo 936230">
            <g id="Grupo_936229" data-name="Grupo 936229">
              <rect id="Rectángulo_329513" data-name="Rectángulo 329513" width="1.812" height="4.304" fill="#848fb7"/>
            </g>
          </g>
        </g>
      </g>
      <g id="Grupo_936238" data-name="Grupo 936238" transform="translate(652.446 311.837)">
        <g id="Grupo_936234" data-name="Grupo 936234" transform="translate(50.575 49.965)">
          <g id="Grupo_936233" data-name="Grupo 936233">
            <path id="Trazado_677916" data-name="Trazado 677916" d="M458.57,273.709a14.475,14.475,0,1,1-13.835-15.09A14.441,14.441,0,0,1,458.57,273.709Z" transform="translate(-429.635 -258.606)" fill="#cbe9f4"/>
          </g>
        </g>
        <g id="Grupo_936235" data-name="Grupo 936235">
          <path id="Trazado_677917" data-name="Trazado 677917" d="M525.19,295.407a19.593,19.593,0,0,1-6.065-16.808c.566-3.653,10.848-10.019,10.848-10.019l-15.34-16.673s-7.2,9.759-10.878,10.009a18.379,18.379,0,0,1-15.421-7.179c-2.177-2.99.64-14.756.64-14.756l-22.659-.974s1.774,11.977-.632,14.753a15.736,15.736,0,0,1-14.167,4.821c-3.628-.724-9.491-11.3-9.491-11.3l-17.359,14.585s9.394,7.615,9.494,11.291a20.834,20.834,0,0,1-8.326,16.716c-3.013,2.147-14.766-.821-14.766-.821L409.8,311.7s11.974-1.649,14.715.8a19.652,19.652,0,0,1,6.075,16.818c-.561,3.648-10.863,10.011-10.863,10.011L435.067,356s7.192-9.746,10.881-10a18.492,18.492,0,0,1,15.437,7.177c2.175,3-.625,14.751-.625,14.751l22.644.979s-1.795-11.969.617-14.751a15.782,15.782,0,0,1,14.19-4.821c3.613.732,9.484,11.3,9.484,11.3l17.354-14.582s-9.387-7.615-9.5-11.3a20.893,20.893,0,0,1,8.336-16.714c3.011-2.131,14.774.836,14.774.836l1.252-22.641S527.951,297.86,525.19,295.407Zm-51.941,45.55a37.547,37.547,0,1,1,39.131-35.89A37.542,37.542,0,0,1,473.249,340.957Z" transform="translate(-409.797 -239.007)" fill="#cbe9f4"/>
        </g>
        <g id="Grupo_936237" data-name="Grupo 936237" transform="translate(36.383 36.249)">
          <g id="Grupo_936236" data-name="Grupo 936236">
            <path id="Trazado_677918" data-name="Trazado 677918" d="M481.424,283.164A28.69,28.69,0,1,1,454,253.252,28.676,28.676,0,0,1,481.424,283.164Z" transform="translate(-424.068 -253.225)" fill="#cbe9f4"/>
          </g>
        </g>
      </g>
      <g id="Grupo_936291" data-name="Grupo 936291" transform="translate(554.678 305.63)">
        <g id="Grupo_936239" data-name="Grupo 936239" transform="translate(88.499)">
          <rect id="Rectángulo_329514" data-name="Rectángulo 329514" width="50.124" height="184.556" fill="#64b4d7"/>
        </g>
        <g id="Grupo_936240" data-name="Grupo 936240">
          <rect id="Rectángulo_329515" data-name="Rectángulo 329515" width="88.499" height="184.556" fill="#c1e4fa"/>
        </g>
        <g id="Grupo_936241" data-name="Grupo 936241" transform="translate(101.794 136.342)">
          <rect id="Rectángulo_329516" data-name="Rectángulo 329516" width="23.53" height="39.69" fill="#848fb7"/>
        </g>
        <g id="Grupo_936242" data-name="Grupo 936242" transform="translate(104.701 140.574)">
          <rect id="Rectángulo_329517" data-name="Rectángulo 329517" width="17.719" height="1.723" fill="#464f72"/>
        </g>
        <g id="Grupo_936243" data-name="Grupo 936243" transform="translate(104.701 143.587)">
          <rect id="Rectángulo_329518" data-name="Rectángulo 329518" width="17.719" height="1.723" fill="#464f72"/>
        </g>
        <g id="Grupo_936244" data-name="Grupo 936244" transform="translate(104.701 146.669)">
          <rect id="Rectángulo_329519" data-name="Rectángulo 329519" width="17.719" height="1.728" fill="#464f72"/>
        </g>
        <g id="Grupo_936245" data-name="Grupo 936245" transform="translate(104.701 149.682)">
          <rect id="Rectángulo_329520" data-name="Rectángulo 329520" width="17.719" height="1.728" fill="#464f72"/>
        </g>
        <g id="Grupo_936246" data-name="Grupo 936246" transform="translate(104.701 152.754)">
          <rect id="Rectángulo_329521" data-name="Rectángulo 329521" width="17.719" height="1.723" fill="#464f72"/>
        </g>
        <g id="Grupo_936247" data-name="Grupo 936247" transform="translate(104.701 155.766)">
          <rect id="Rectángulo_329522" data-name="Rectángulo 329522" width="17.719" height="1.723" fill="#464f72"/>
        </g>
        <g id="Grupo_936248" data-name="Grupo 936248" transform="translate(104.701 158.848)">
          <rect id="Rectángulo_329523" data-name="Rectángulo 329523" width="17.719" height="1.723" fill="#464f72"/>
        </g>
        <g id="Grupo_936249" data-name="Grupo 936249" transform="translate(104.701 161.861)">
          <rect id="Rectángulo_329524" data-name="Rectángulo 329524" width="17.719" height="1.728" fill="#464f72"/>
        </g>
        <g id="Grupo_936250" data-name="Grupo 936250" transform="translate(104.701 165.526)">
          <rect id="Rectángulo_329525" data-name="Rectángulo 329525" width="17.719" height="1.728" fill="#464f72"/>
        </g>
        <g id="Grupo_936251" data-name="Grupo 936251" transform="translate(104.701 168.613)">
          <rect id="Rectángulo_329526" data-name="Rectángulo 329526" width="17.719" height="1.723" fill="#464f72"/>
        </g>
        <g id="Grupo_936252" data-name="Grupo 936252" transform="translate(104.701 171.625)">
          <rect id="Rectángulo_329527" data-name="Rectángulo 329527" width="17.719" height="1.728" fill="#464f72"/>
        </g>
        <g id="Grupo_936256" data-name="Grupo 936256" transform="translate(101.497 25.648)">
          <g id="Grupo_936253" data-name="Grupo 936253">
            <path id="Trazado_677919" data-name="Trazado 677919" d="M411.26,270.763h24.127l-12.065-24.13Z" transform="translate(-411.26 -246.633)" fill="#6d76a1"/>
          </g>
          <g id="Grupo_936254" data-name="Grupo 936254" transform="translate(2.333 3.545)">
            <path id="Trazado_677920" data-name="Trazado 677920" d="M431.634,266.97,421.9,248.023l-9.729,18.946Z" transform="translate(-412.175 -248.023)" fill="#ffcf03"/>
          </g>
          <g id="Grupo_936255" data-name="Grupo 936255" transform="translate(11.385 7.813)">
            <path id="Trazado_677921" data-name="Trazado 677921" d="M418.382,262.8l.184-8.554-2.206,2.978-.6-7.529-.037,9.814,1.783-2.48Z" transform="translate(-415.726 -249.697)" fill="#6d76a1"/>
          </g>
        </g>
        <g id="Grupo_936257" data-name="Grupo 936257" transform="translate(9.946 15.261)">
          <rect id="Rectángulo_329528" data-name="Rectángulo 329528" width="67.591" height="28.228" fill="#6d76a1"/>
        </g>
        <g id="Grupo_936258" data-name="Grupo 936258" transform="translate(13.392 18.592)">
          <rect id="Rectángulo_329529" data-name="Rectángulo 329529" width="48.971" height="14.116" fill="#464f72"/>
        </g>
        <g id="Grupo_936259" data-name="Grupo 936259" transform="translate(9.946 50.435)">
          <rect id="Rectángulo_329530" data-name="Rectángulo 329530" width="67.591" height="7.668" fill="#6d76a1"/>
        </g>
        <g id="Grupo_936260" data-name="Grupo 936260" transform="translate(72.476 67.23)">
          <rect id="Rectángulo_329531" data-name="Rectángulo 329531" width="5.061" height="28.093" fill="#6d76a1"/>
        </g>
        <g id="Grupo_936261" data-name="Grupo 936261" transform="translate(63.471 67.23)">
          <rect id="Rectángulo_329532" data-name="Rectángulo 329532" width="5.066" height="28.093" fill="#6d76a1"/>
        </g>
        <g id="Grupo_936262" data-name="Grupo 936262" transform="translate(54.468 67.23)">
          <rect id="Rectángulo_329533" data-name="Rectángulo 329533" width="5.062" height="28.093" fill="#6d76a1"/>
        </g>
        <g id="Grupo_936263" data-name="Grupo 936263" transform="translate(45.463 67.23)">
          <rect id="Rectángulo_329534" data-name="Rectángulo 329534" width="5.066" height="28.093" fill="#6d76a1"/>
        </g>
        <g id="Grupo_936264" data-name="Grupo 936264" transform="translate(37.867 67.23)">
          <rect id="Rectángulo_329535" data-name="Rectángulo 329535" width="5.066" height="28.093" fill="#6d76a1"/>
        </g>
        <g id="Grupo_936265" data-name="Grupo 936265" transform="translate(28.865 67.23)">
          <rect id="Rectángulo_329536" data-name="Rectángulo 329536" width="5.066" height="28.093" fill="#6d76a1"/>
        </g>
        <g id="Grupo_936266" data-name="Grupo 936266" transform="translate(19.865 67.23)">
          <rect id="Rectángulo_329537" data-name="Rectángulo 329537" width="5.061" height="28.093" fill="#6d76a1"/>
        </g>
        <g id="Grupo_936267" data-name="Grupo 936267" transform="translate(10.86 67.23)">
          <rect id="Rectángulo_329538" data-name="Rectángulo 329538" width="5.066" height="28.093" fill="#6d76a1"/>
        </g>
        <g id="Grupo_936268" data-name="Grupo 936268" transform="translate(13.073 92.276)">
          <rect id="Rectángulo_329539" data-name="Rectángulo 329539" width="0.637" height="56.121" fill="#6d76a1"/>
        </g>
        <g id="Grupo_936269" data-name="Grupo 936269" transform="translate(22.075 92.276)">
          <rect id="Rectángulo_329540" data-name="Rectángulo 329540" width="0.637" height="56.121" fill="#6d76a1"/>
        </g>
        <g id="Grupo_936270" data-name="Grupo 936270" transform="translate(31.078 92.276)">
          <rect id="Rectángulo_329541" data-name="Rectángulo 329541" width="0.637" height="56.121" fill="#6d76a1"/>
        </g>
        <g id="Grupo_936271" data-name="Grupo 936271" transform="translate(40.083 92.276)">
          <rect id="Rectángulo_329542" data-name="Rectángulo 329542" width="0.637" height="56.121" fill="#6d76a1"/>
        </g>
        <g id="Grupo_936272" data-name="Grupo 936272" transform="translate(47.679 92.276)">
          <rect id="Rectángulo_329543" data-name="Rectángulo 329543" width="0.637" height="56.121" fill="#6d76a1"/>
        </g>
        <g id="Grupo_936273" data-name="Grupo 936273" transform="translate(56.681 92.276)">
          <rect id="Rectángulo_329544" data-name="Rectángulo 329544" width="0.637" height="56.121" fill="#6d76a1"/>
        </g>
        <g id="Grupo_936274" data-name="Grupo 936274" transform="translate(65.684 92.276)">
          <rect id="Rectángulo_329545" data-name="Rectángulo 329545" width="0.637" height="56.121" fill="#6d76a1"/>
        </g>
        <g id="Grupo_936275" data-name="Grupo 936275" transform="translate(74.686 92.276)">
          <rect id="Rectángulo_329546" data-name="Rectángulo 329546" width="0.637" height="56.121" fill="#6d76a1"/>
        </g>
        <g id="Grupo_936276" data-name="Grupo 936276" transform="translate(9.946 147.789)">
          <rect id="Rectángulo_329547" data-name="Rectángulo 329547" width="67.591" height="3.401" fill="#6d76a1"/>
        </g>
        <g id="Grupo_936277" data-name="Grupo 936277" transform="translate(61.62 54.255)">
          <path id="Trazado_677922" data-name="Trazado 677922" d="M409.227,274.216l-.038-4.92a2.281,2.281,0,0,0-.655-1.6,1.881,1.881,0,0,0-1.323-.558h-.015l-8.431.066a3.046,3.046,0,0,1-2.2-.956,3.334,3.334,0,0,1-.9-2.282l-.046-6.106,1.275-.008.046,6.1a2.072,2.072,0,0,0,.553,1.415,1.724,1.724,0,0,0,1.252.558h.013l8.428-.066h.028a3.162,3.162,0,0,1,2.215.92,3.562,3.562,0,0,1,1.035,2.5l.038,4.92Z" transform="translate(-395.618 -257.854)" fill="#6d76a1"/>
        </g>
        <g id="Grupo_936278" data-name="Grupo 936278" transform="translate(43.446 54.245)">
          <path id="Trazado_677923" data-name="Trazado 677923" d="M402.1,274.217l-.036-4.925a2.261,2.261,0,0,0-.607-1.548,1.87,1.87,0,0,0-1.372-.609h-.018l-8.426.066h-.028a2.977,2.977,0,0,1-2.175-.956,3.345,3.345,0,0,1-.9-2.277l-.043-6.108,1.275-.01.043,6.108a2.061,2.061,0,0,0,.556,1.41,1.7,1.7,0,0,0,1.265.558l8.426-.066h.028a3.15,3.15,0,0,1,2.3,1.007,3.516,3.516,0,0,1,.956,2.414l.036,4.925Z" transform="translate(-388.489 -257.85)" fill="#6d76a1"/>
        </g>
        <g id="Grupo_936279" data-name="Grupo 936279" transform="translate(27.489 54.235)">
          <path id="Trazado_677924" data-name="Trazado 677924" d="M394.722,274.218l-.036-4.926a2.006,2.006,0,0,0-1.769-2.157h-.01l-7.727.061h-.02a2.678,2.678,0,0,1-1.889-.8,3.462,3.462,0,0,1-.992-2.435l-.048-6.1,1.275-.01.048,6.1a2.2,2.2,0,0,0,.609,1.54,1.415,1.415,0,0,0,1,.433h.01l7.727-.061h.02a3.269,3.269,0,0,1,3.044,3.421l.036,4.925Z" transform="translate(-382.23 -257.846)" fill="#6d76a1"/>
        </g>
        <g id="Grupo_936280" data-name="Grupo 936280" transform="translate(11.51 54.23)">
          <path id="Trazado_677925" data-name="Trazado 677925" d="M386.792,274.226l-.036-4.92a2.748,2.748,0,0,0-.495-1.6,1.261,1.261,0,0,0-.953-.553H385.3l-6.692.046h-.02a2.276,2.276,0,0,1-1.588-.688,3.6,3.6,0,0,1-.989-2.549l-.048-6.1,1.275-.01.048,6.1a2.363,2.363,0,0,0,.612,1.655,1.017,1.017,0,0,0,.693.319h.008l6.692-.046h.02a2.489,2.489,0,0,1,1.968,1.061,3.991,3.991,0,0,1,.752,2.361l.036,4.92Z" transform="translate(-375.962 -257.844)" fill="#6d76a1"/>
        </g>
        <g id="Grupo_936281" data-name="Grupo 936281" transform="translate(9.946 156.623)">
          <rect id="Rectángulo_329548" data-name="Rectángulo 329548" width="67.591" height="10.631" fill="#6d76a1"/>
        </g>
        <g id="Grupo_936282" data-name="Grupo 936282" transform="translate(72.476 106.611)">
          <rect id="Rectángulo_329549" data-name="Rectángulo 329549" width="5.061" height="7.31" fill="#6d76a1"/>
        </g>
        <g id="Grupo_936283" data-name="Grupo 936283" transform="translate(63.471 127.315)">
          <rect id="Rectángulo_329550" data-name="Rectángulo 329550" width="5.066" height="7.31" fill="#6d76a1"/>
        </g>
        <g id="Grupo_936284" data-name="Grupo 936284" transform="translate(54.468 110.266)">
          <rect id="Rectángulo_329551" data-name="Rectángulo 329551" width="5.062" height="7.305" fill="#6d76a1"/>
        </g>
        <g id="Grupo_936285" data-name="Grupo 936285" transform="translate(45.466 137.781)">
          <rect id="Rectángulo_329552" data-name="Rectángulo 329552" width="5.064" height="7.31" fill="#6d76a1"/>
        </g>
        <g id="Grupo_936286" data-name="Grupo 936286" transform="translate(37.867 102.956)">
          <rect id="Rectángulo_329553" data-name="Rectángulo 329553" width="5.066" height="7.31" fill="#6d76a1"/>
        </g>
        <g id="Grupo_936287" data-name="Grupo 936287" transform="translate(20.445 106.611)">
          <rect id="Rectángulo_329554" data-name="Rectángulo 329554" width="5.066" height="7.31" fill="#6d76a1"/>
        </g>
        <g id="Grupo_936288" data-name="Grupo 936288" transform="translate(10.86 134.126)">
          <rect id="Rectángulo_329555" data-name="Rectángulo 329555" width="5.066" height="7.31" fill="#6d76a1"/>
        </g>
        <g id="Grupo_936289" data-name="Grupo 936289" transform="translate(86.062 17.806)">
          <rect id="Rectángulo_329556" data-name="Rectángulo 329556" width="3.244" height="44.609" fill="#c1e4fa"/>
        </g>
        <g id="Grupo_936290" data-name="Grupo 936290" transform="translate(86.062 120.105)">
          <rect id="Rectángulo_329557" data-name="Rectángulo 329557" width="3.244" height="44.614" fill="#c1e4fa"/>
        </g>
      </g>
      <g id="Grupo_936294" data-name="Grupo 936294" transform="translate(529.143 362.878)">
        <g id="Grupo_936292" data-name="Grupo 936292">
          <path id="Trazado_677926" data-name="Trazado 677926" d="M362.2,263.423c.887-1.145,4.518-3.485,8.13-1.542,4.826,2.593,11,11.908,18.557,11.666,7.592-.26,9.968-4.78,11.972-7.589,1.994-2.827,1.461-4.885,2.812-6.394s3.069.156.953,5.448c-1.01,2.534-4.51,15.63-13.466,17.6C379.417,285.187,357.01,270.22,362.2,263.423Z" transform="translate(-361.431 -259.028)" fill="#fbc6b4"/>
        </g>
        <g id="Grupo_936293" data-name="Grupo 936293" transform="translate(0.248 0.257)">
          <path id="Trazado_677927" data-name="Trazado 677927" d="M363.223,260.666s-4.512,3.959,1.191,10.84,9.142,9.1,9.142,9.1,5.4-2.251,9.815-10.292C383.371,270.313,368.778,254.181,363.223,260.666Z" transform="translate(-361.528 -259.129)" fill="#eda503"/>
        </g>
      </g>
      <g id="Grupo_936295" data-name="Grupo 936295" transform="translate(511.652 361.607)">
        <path id="Trazado_677928" data-name="Trazado 677928" d="M355.719,275.365c3.35,12.377,1.5,21.076,0,25.792,3.5,1.124,1.412,3,1.318,3.233-4.938,10.251,25.767,4.176,31.164-4.125,1.856-2.853.082-6.478.413-11.954.12-1.234.15-2.481.163-3.7a68.606,68.606,0,0,0-1.015-14.825c-2.412-11.312-13.05-11.865-19.526-10.957-2.942.4-6.776.9-9.721,2.634l-.015.025C355.069,263.559,353.231,266.159,355.719,275.365Z" transform="translate(-354.57 -258.529)" fill="#ffb502"/>
      </g>
      <g id="Grupo_936296" data-name="Grupo 936296" transform="translate(512.801 361.495)">
        <path id="Trazado_677929" data-name="Trazado 677929" d="M362.631,269.363c1.326,5.616,6.073,22.766-7.61,31.345,0,0,22.654,16.586,35.615,2.236,0,0-2.605-24.484-6.228-34.2-1.038-2.794-3.8-11.373-8.775-10.134,0,0,8.742,13.769,4.755,17.4s-7.753.584-9.514-2.154c-2.82-4.408-5.833-14.6-5.833-14.6l-5.287,1.346A56.936,56.936,0,0,1,362.631,269.363Z" transform="translate(-355.021 -258.485)" fill="#1c2745"/>
      </g>
      <g id="Grupo_936300" data-name="Grupo 936300" transform="translate(520.15 341.147)">
        <g id="Grupo_936297" data-name="Grupo 936297" transform="translate(3.984 12.554)">
          <path id="Trazado_677930" data-name="Trazado 677930" d="M360.105,255.428s2.9,4.561-.186,7.6c-3.174,3.113,11.414,8.614,10.707,5.813-.9-3.615-3.059-5.547-1.81-9.993Z" transform="translate(-359.467 -255.428)" fill="#f7b2a0"/>
        </g>
        <g id="Grupo_936298" data-name="Grupo 936298" transform="translate(1.889 1.233)">
          <path id="Trazado_677931" data-name="Trazado 677931" d="M367.936,252.08c3.508,2.544,8.523,15.046,5.614,18.325-1.285,1.423-7.342.775-11.788-4.439-1.831-2.126-4.286-6.269-2.491-10.967C360.091,252.863,363.864,249.128,367.936,252.08Z" transform="translate(-358.645 -250.988)" fill="#fbc6b4"/>
        </g>
        <g id="Grupo_936299" data-name="Grupo 936299">
          <path id="Trazado_677932" data-name="Trazado 677932" d="M372.466,253.984c.9,1.535.747,1.932-4.046,3.306s-5.67,1.155-5.022,2.251c1.9,3.24-1.67,3.016.645,6.86,2.307,3.86-2.113,1.907-4.344-1.2-.438-.632-2.919-3.646-1.191-9.027C360.51,249.893,369.145,248.353,372.466,253.984Z" transform="translate(-357.904 -250.504)" fill="#1d1b3a"/>
        </g>
      </g>
      <g id="Grupo_936301" data-name="Grupo 936301" transform="translate(525 342.27)">
        <path id="Trazado_677933" data-name="Trazado 677933" d="M359.806,261.707s14.832-4.191,14.141-8.813c-.426-2.853-9.032-1.734-9.032-1.734Z" transform="translate(-359.806 -250.944)" fill="#eda503"/>
      </g>
      <g id="Grupo_936302" data-name="Grupo 936302" transform="translate(519.124 339.386)">
        <path id="Trazado_677934" data-name="Trazado 677934" d="M373.09,255.054c-1.185,4.461-4.686,6.916-13.777,9.82,0,0-4.92-8.818,1.456-13.489C366.4,247.276,373.847,252.2,373.09,255.054Z" transform="translate(-357.501 -249.813)" fill="#ffb502"/>
      </g>
      <g id="Grupo_936307" data-name="Grupo 936307" transform="translate(499.363 397.907)">
        <g id="Grupo_936303" data-name="Grupo 936303" transform="translate(1.565 25.722)">
          <path id="Trazado_677935" data-name="Trazado 677935" d="M354.3,310.637c-3.075,12.031-6.679,37.718-.772,37.866s9.2-1.657,5.8-2.608-3.544-1.328-3.439-2.284c1.463-12.41,20.867-31.758,22.514-46.508.556-5.032.936-9.639,1.2-13.683,2.208,10.8.584,22.269.778,26.057.622,13.484,3.505,38.972,9.968,39.026,6.883.046,10.264-1.861,5.866-2.766-3.806-.808-3.646-.982-3.577-1.922.928-13.619,7.528-38.789,8.793-54.962C402.9,270.186,356.98,300.116,354.3,310.637Z" transform="translate(-350.364 -282.857)" fill="#fbc6b4"/>
        </g>
        <g id="Grupo_936304" data-name="Grupo 936304" transform="translate(37.92 88.3)">
          <path id="Trazado_677936" data-name="Trazado 677936" d="M364.629,307.4s5.134,2.032,8.3,0c0,0,5.787.778,2.154,2.187C371.436,311,364.412,312.169,364.629,307.4Z" transform="translate(-364.624 -307.404)" fill="#ffb502"/>
        </g>
        <g id="Grupo_936305" data-name="Grupo 936305" transform="translate(2.221 88.759)">
          <path id="Trazado_677937" data-name="Trazado 677937" d="M350.626,307.584s5.14,2.027,8.306,0c0,0,5.79.793,2.139,2.19S350.412,312.354,350.626,307.584Z" transform="translate(-350.621 -307.584)" fill="#ffb502"/>
        </g>
        <g id="Grupo_936306" data-name="Grupo 936306">
          <path id="Trazado_677938" data-name="Trazado 677938" d="M397.816,272.768c-11.768,7.852-28.222,7.049-34.628,5.81-1.731,14-12.25,66.518-13.438,73.728,5.165,1.713,6.883,2.07,8.377,2.07,24.943-32.166,22.08-45.963,22.345-50.006.938,4.67-2.141,27.561,3.243,50.006,1.805,1.165,7.276,2.679,11.189,0,.2-1.433,7.516-27.215,7.358-47.4C402.153,293.222,399.85,283.781,397.816,272.768Z" transform="translate(-349.75 -272.768)" fill="#1c2745"/>
        </g>
      </g>
      <g id="Grupo_936309" data-name="Grupo 936309" transform="translate(513.326 405.879)">
        <g id="Grupo_936308" data-name="Grupo 936308">
          <path id="Trazado_677939" data-name="Trazado 677939" d="M355.525,285.588a11.618,11.618,0,0,0,7.967-9.624l-.971-.069a10.439,10.439,0,0,1-7.294,8.772Z" transform="translate(-355.227 -275.895)" fill="#fff"/>
        </g>
      </g>
      <g id="Grupo_936311" data-name="Grupo 936311" transform="translate(539.896 404.071)">
        <g id="Grupo_936310" data-name="Grupo 936310">
          <path id="Trazado_677940" data-name="Trazado 677940" d="M373.621,284.884l.3-.925a10.588,10.588,0,0,1-7.3-8.772l-.974.074A11.617,11.617,0,0,0,373.621,284.884Z" transform="translate(-365.649 -275.186)" fill="#fff"/>
        </g>
      </g>
      <g id="Grupo_936312" data-name="Grupo 936312" transform="translate(420.778 462.651)">
        <rect id="Rectángulo_329558" data-name="Rectángulo 329558" width="51.311" height="29.637" fill="#c1e4fa"/>
      </g>
      <g id="Grupo_936313" data-name="Grupo 936313" transform="translate(472.089 462.651)">
        <rect id="Rectángulo_329559" data-name="Rectángulo 329559" width="19.907" height="29.637" fill="#4ca1bf"/>
      </g>
      <g id="Grupo_936314" data-name="Grupo 936314" transform="translate(423.875 453.36)">
        <rect id="Rectángulo_329560" data-name="Rectángulo 329560" width="7.37" height="14.45" fill="#c1e4fa"/>
      </g>
      <g id="Grupo_936315" data-name="Grupo 936315" transform="translate(427.56 455.426)">
        <rect id="Rectángulo_329561" data-name="Rectángulo 329561" width="54.851" height="1.767" fill="#464f72"/>
      </g>
      <g id="Grupo_936316" data-name="Grupo 936316" transform="translate(478.727 453.36)">
        <rect id="Rectángulo_329562" data-name="Rectángulo 329562" width="7.369" height="14.45" fill="#4ca1bf"/>
      </g>
      <g id="Grupo_936322" data-name="Grupo 936322" transform="translate(493.821 399.629)">
        <g id="Grupo_936317" data-name="Grupo 936317" transform="translate(0 7.608)">
          <rect id="Rectángulo_329563" data-name="Rectángulo 329563" width="42.032" height="24.279" fill="#c1e4fa"/>
        </g>
        <g id="Grupo_936318" data-name="Grupo 936318" transform="translate(42.032 7.608)">
          <rect id="Rectángulo_329564" data-name="Rectángulo 329564" width="16.305" height="24.279" fill="#4ca1bf"/>
        </g>
        <g id="Grupo_936319" data-name="Grupo 936319" transform="translate(2.537)">
          <rect id="Rectángulo_329565" data-name="Rectángulo 329565" width="6.037" height="11.836" fill="#c1e4fa"/>
        </g>
        <g id="Grupo_936320" data-name="Grupo 936320" transform="translate(5.557 1.693)">
          <rect id="Rectángulo_329566" data-name="Rectángulo 329566" width="44.93" height="1.449" fill="#464f72"/>
        </g>
        <g id="Grupo_936321" data-name="Grupo 936321" transform="translate(47.467)">
          <rect id="Rectángulo_329567" data-name="Rectángulo 329567" width="6.037" height="11.836" fill="#4ca1bf"/>
        </g>
      </g>
      <g id="Grupo_936325" data-name="Grupo 936325" transform="translate(504.192 363.594)">
        <g id="Grupo_936323" data-name="Grupo 936323" transform="translate(2.161 1.865)">
          <path id="Trazado_677941" data-name="Trazado 677941" d="M363.753,260.226c1.318.423,3.748,2.565,3.123,6.424-.829,5.168-7.3,13.642-4.716,20.375,2.6,6.756,7.416,7.49,10.58,8.421,3.166.915,4.852-.2,6.636.533,1.79.747.816,2.827-4.614,2.57-2.6-.125-15.5.816-20.069-6.649C348.7,282.125,356.013,257.671,363.753,260.226Z" transform="translate(-352.492 -260.04)" fill="#fbc6b4"/>
        </g>
        <g id="Grupo_936324" data-name="Grupo 936324">
          <path id="Trazado_677942" data-name="Trazado 677942" d="M364.985,259.325s-3.579-.668-8.005,6.636c-4.413,7.284-5.336,11.069-5.336,11.069s3.717,4.168,12.339,5.642C363.983,282.672,373.7,263.595,364.985,259.325Z" transform="translate(-351.644 -259.309)" fill="#eda503"/>
        </g>
      </g>
      <g id="Grupo_936332" data-name="Grupo 936332" transform="translate(525.724 316.342)">
        <g id="Grupo_936328" data-name="Grupo 936328" transform="translate(0 0)">
          <g id="Grupo_936327" data-name="Grupo 936327" transform="translate(0)">
            <g id="Grupo_936326" data-name="Grupo 936326">
              <rect id="Rectángulo_329568" data-name="Rectángulo 329568" width="2.399" height="11.353" transform="matrix(0.701, -0.713, 0.713, 0.701, 0, 1.71)" fill="#ffb502"/>
            </g>
          </g>
        </g>
        <g id="Grupo_936331" data-name="Grupo 936331" transform="translate(0.076 0.016)">
          <g id="Grupo_936330" data-name="Grupo 936330" transform="translate(0 0)">
            <g id="Grupo_936329" data-name="Grupo 936329">
              <rect id="Rectángulo_329569" data-name="Rectángulo 329569" width="11.228" height="2.398" transform="translate(0 7.951) rotate(-45.086)" fill="#ffb502"/>
            </g>
          </g>
        </g>
      </g>
      <g id="Grupo_936354" data-name="Grupo 936354" transform="translate(622.656 282.708)">
        <g id="Grupo_936335" data-name="Grupo 936335" transform="translate(0 1.153)">
          <g id="Grupo_936334" data-name="Grupo 936334">
            <g id="Grupo_936333" data-name="Grupo 936333">
              <path id="Trazado_677943" data-name="Trazado 677943" d="M400.279,231.324l1.043-1.155s-.518-.518-1.035-1.025c-.482-.558-.966-1.112-.966-1.112l-1.208.976s.515.6,1.038,1.2C399.716,230.769,400.279,231.324,400.279,231.324Z" transform="translate(-398.112 -228.033)" fill="#fbe366"/>
            </g>
          </g>
        </g>
        <g id="Grupo_936338" data-name="Grupo 936338" transform="translate(3.421 4.146)">
          <g id="Grupo_936337" data-name="Grupo 936337">
            <g id="Grupo_936336" data-name="Grupo 936336">
              <path id="Trazado_677944" data-name="Trazado 677944" d="M402.49,231.866l.329-1.53a6.522,6.522,0,0,1-1.277-.431,5.543,5.543,0,0,1-.836-.459l-.367-.24-.885,1.285.431.273a5.671,5.671,0,0,0,1.007.548A8,8,0,0,0,402.49,231.866Z" transform="translate(-399.454 -229.207)" fill="#fbe366"/>
            </g>
          </g>
        </g>
        <g id="Grupo_936341" data-name="Grupo 936341" transform="translate(8.082 4.735)">
          <g id="Grupo_936340" data-name="Grupo 936340">
            <g id="Grupo_936339" data-name="Grupo 936339">
              <path id="Trazado_677945" data-name="Trazado 677945" d="M404.563,230.866l-.62-1.428a8.37,8.37,0,0,1-1.321.466,5.933,5.933,0,0,1-1.341.2l.051,1.56a7.674,7.674,0,0,0,1.675-.25A10.485,10.485,0,0,0,404.563,230.866Z" transform="translate(-401.282 -229.438)" fill="#fbe366"/>
            </g>
          </g>
        </g>
        <g id="Grupo_936344" data-name="Grupo 936344" transform="translate(12.008 2.527)">
          <g id="Grupo_936343" data-name="Grupo 936343">
            <g id="Grupo_936342" data-name="Grupo 936342">
              <path id="Trazado_677946" data-name="Trazado 677946" d="M406.213,229.882l-.836-1.31s-.643.405-1.282.813l-1.272.762.76,1.359,1.346-.8Z" transform="translate(-402.822 -228.572)" fill="#fbe366"/>
            </g>
          </g>
        </g>
        <g id="Grupo_936347" data-name="Grupo 936347" transform="translate(15.85 0.357)">
          <g id="Grupo_936346" data-name="Grupo 936346">
            <g id="Grupo_936345" data-name="Grupo 936345">
              <path id="Trazado_677947" data-name="Trazado 677947" d="M407.7,229.2l-.467-1.484a13.349,13.349,0,0,0-1.517.612c-.719.354-1.389.757-1.389.757l.793,1.344s.637-.377,1.277-.7A11.83,11.83,0,0,1,407.7,229.2Z" transform="translate(-404.329 -227.721)" fill="#fbe366"/>
            </g>
          </g>
        </g>
        <g id="Grupo_936350" data-name="Grupo 936350" transform="translate(20.37)">
          <g id="Grupo_936349" data-name="Grupo 936349">
            <g id="Grupo_936348" data-name="Grupo 936348">
              <path id="Trazado_677948" data-name="Trazado 677948" d="M408.807,229.611l.642-1.415a6.581,6.581,0,0,0-1.632-.512,6.222,6.222,0,0,0-1.716-.074l.145,1.553a4.351,4.351,0,0,1,1.3.056A5.467,5.467,0,0,1,408.807,229.611Z" transform="translate(-406.102 -227.581)" fill="#fbe366"/>
            </g>
          </g>
        </g>
        <g id="Grupo_936353" data-name="Grupo 936353" transform="translate(24.227 1.433)">
          <g id="Grupo_936352" data-name="Grupo 936352">
            <g id="Grupo_936351" data-name="Grupo 936351">
              <path id="Trazado_677949" data-name="Trazado 677949" d="M409.711,231.342l1.17-1.03s-.541-.576-1.106-1.15c-.308-.26-.614-.528-.846-.721a4.891,4.891,0,0,0-.418-.3l-.895,1.275a3.817,3.817,0,0,1,.354.252c.2.171.472.4.742.632C409.216,230.815,409.711,231.342,409.711,231.342Z" transform="translate(-407.615 -228.143)" fill="#fbe366"/>
            </g>
          </g>
        </g>
      </g>
      <g id="Grupo_936357" data-name="Grupo 936357" transform="translate(443.951 439.652)">
        <g id="Grupo_936356" data-name="Grupo 936356">
          <g id="Grupo_936355" data-name="Grupo 936355">
            <rect id="Rectángulo_329570" data-name="Rectángulo 329570" width="22.071" height="1.703" fill="#27355c"/>
          </g>
        </g>
      </g>
      <g id="Grupo_936360" data-name="Grupo 936360" transform="translate(452.568 434.075)">
        <g id="Grupo_936359" data-name="Grupo 936359">
          <g id="Grupo_936358" data-name="Grupo 936358">
            <rect id="Rectángulo_329571" data-name="Rectángulo 329571" width="12.167" height="1.708" fill="#27355c"/>
          </g>
        </g>
      </g>
      <path id="Trazado_677950" data-name="Trazado 677950" d="M292.042,408.4h41.176L324.9,246.731H312.631Z" transform="translate(60.201 84.797)" fill="#ae6a44"/>
      <path id="Trazado_677951" data-name="Trazado 677951" d="M292.042,408.4h23.711l-3.122-161.672h0Z" transform="translate(60.201 84.797)" fill="#9b5a3a"/>
      <path id="Trazado_677952" data-name="Trazado 677952" d="M302.292,232.1c0,9.914,8.681,17.955,19.393,17.955s19.393-8.041,19.393-17.955-8.683-17.958-19.393-17.958S302.292,222.179,302.292,232.1Z" transform="translate(76.082 34.299)" fill="#90cc3a"/>
      <path id="Trazado_677953" data-name="Trazado 677953" d="M292.571,227.659c0,16.594,14.529,30.05,32.456,30.05s32.449-13.456,32.449-30.05-14.526-30.052-32.449-30.052S292.571,211.063,292.571,227.659Z" transform="translate(61.021 8.686)" fill="#90cc3a"/>
      <ellipse id="Elipse_5316" data-name="Elipse 5316" cx="23.945" cy="22.171" rx="23.945" ry="22.171" transform="translate(332.261 192.001)" fill="#90cc3a"/>
      <path id="Trazado_677954" data-name="Trazado 677954" d="M273.26,227.919c0,6.121,5.359,11.085,11.972,11.085S297.2,234.04,297.2,227.919s-5.359-11.085-11.972-11.085S273.26,221.793,273.26,227.919Z" transform="translate(31.101 38.476)" fill="#90cc3a"/>
      <path id="Trazado_677955" data-name="Trazado 677955" d="M275.277,232.185c0,16.6,14.531,30.052,32.459,30.052s32.451-13.456,32.451-30.052-14.526-30.05-32.451-30.05S275.277,215.591,275.277,232.185Z" transform="translate(34.226 15.701)" fill="#90cc3a"/>
      <path id="Trazado_677956" data-name="Trazado 677956" d="M282.652,245.985c0,16.6,14.531,30.052,32.454,30.052s32.456-13.456,32.456-30.052-14.532-30.05-32.456-30.05S282.652,229.391,282.652,245.985Z" transform="translate(45.653 37.083)" fill="#90cc3a"/>
      <path id="Trazado_677957" data-name="Trazado 677957" d="M299.419,256.418c0,19.74,17.282,35.74,38.6,35.74s38.6-16,38.6-35.74-17.277-35.74-38.6-35.74S299.419,236.681,299.419,256.418Z" transform="translate(71.631 44.432)" fill="#90cc3a"/>
      <path id="Trazado_677958" data-name="Trazado 677958" d="M302.366,281.207c0,19.74,17.28,35.74,38.6,35.74s38.6-16,38.6-35.74-17.28-35.742-38.6-35.742S302.366,261.467,302.366,281.207Z" transform="translate(76.197 82.836)" fill="#90cc3a"/>
      <path id="Trazado_677959" data-name="Trazado 677959" d="M280.242,284.729c0,19.737,17.28,35.74,38.6,35.74s38.6-16,38.6-35.74-17.282-35.742-38.6-35.742S280.242,264.989,280.242,284.729Z" transform="translate(41.918 88.293)" fill="#90cc3a"/>
      <path id="Trazado_677960" data-name="Trazado 677960" d="M274.309,241.921c0,12.9,11.291,23.36,25.226,23.36s25.234-10.458,25.234-23.36-11.3-23.363-25.234-23.363S274.309,229.021,274.309,241.921Z" transform="translate(32.726 41.147)" fill="#90cc3a"/>
      <path id="Trazado_677961" data-name="Trazado 677961" d="M288.009,269.563c0,22.06,19.314,39.944,43.138,39.944s43.141-17.884,43.141-39.944-19.314-39.944-43.141-39.944S288.009,247.5,288.009,269.563Z" transform="translate(53.953 58.285)" fill="#90cc3a"/>
      <path id="Trazado_677962" data-name="Trazado 677962" d="M318.03,257.7c0,11.352,9.945,20.561,22.21,20.561s22.208-9.208,22.208-20.561-9.943-20.566-22.208-20.566S318.03,246.34,318.03,257.7Z" transform="translate(100.467 69.925)" fill="#90cc3a"/>
      <path id="Trazado_677963" data-name="Trazado 677963" d="M301.343,236.9c0-8.015,7.016-14.514,15.676-14.514a15.605,15.605,0,0,1,14.924,10.075,25.188,25.188,0,0,1,3.095-.194c12.831,0,23.235,9.632,23.235,21.514a20.656,20.656,0,0,1-6.562,14.97,10.181,10.181,0,0,1,2.417,6.542c0,5.92-5.18,10.723-11.579,10.723s-11.577-4.8-11.577-10.723c0-.115.013-.222.015-.331-10.9-1.777-19.184-10.583-19.184-21.18a20,20,0,0,1,.245-3.12C305.827,248.736,301.343,243.311,301.343,236.9Z" transform="translate(74.612 47.081)" opacity="0.2" style="mix-blend-mode: overlay;isolation: isolate"/>
      <path id="Trazado_677964" data-name="Trazado 677964" d="M297.027,244.138c0-8.018,7.021-14.519,15.679-14.519A15.6,15.6,0,0,1,327.63,239.7a25.274,25.274,0,0,1,3.095-.2c12.829,0,23.233,9.631,23.233,21.514a20.647,20.647,0,0,1-6.557,14.973,10.172,10.172,0,0,1,2.417,6.537c0,5.925-5.185,10.725-11.582,10.725s-11.579-4.8-11.579-10.725c0-.107.013-.219.018-.329-10.9-1.777-19.182-10.582-19.182-21.18a20.335,20.335,0,0,1,.242-3.12C301.516,255.967,297.027,250.542,297.027,244.138Z" transform="translate(67.925 58.285)" fill="#90cc3a"/>
      <path id="Trazado_677965" data-name="Trazado 677965" d="M321.608,209.273c0-5.369-4.7-9.721-10.5-9.721a10.45,10.45,0,0,0-9.994,6.748,16.8,16.8,0,0,0-2.07-.13c-8.594,0-15.559,6.447-15.559,14.4a13.83,13.83,0,0,0,4.393,10.027,6.8,6.8,0,0,0-1.619,4.377c0,3.962,3.472,7.179,7.753,7.179s7.755-3.217,7.755-7.179c0-.076-.01-.148-.013-.224,7.3-1.188,12.844-7.082,12.844-14.18a13.8,13.8,0,0,0-.161-2.091A9.813,9.813,0,0,0,321.608,209.273Z" transform="translate(46.951 11.699)" opacity="0.2" style="mix-blend-mode: overlay;isolation: isolate"/>
      <path id="Trazado_677966" data-name="Trazado 677966" d="M324.5,214.115c0-5.369-4.7-9.721-10.5-9.721a10.453,10.453,0,0,0-9.994,6.746,17.334,17.334,0,0,0-2.073-.13c-8.594,0-15.556,6.45-15.556,14.4a13.812,13.812,0,0,0,4.393,10.024,6.817,6.817,0,0,0-1.619,4.382c0,3.964,3.47,7.177,7.755,7.177s7.755-3.212,7.755-7.177c0-.079-.01-.15-.015-.224,7.3-1.188,12.844-7.085,12.844-14.182a13.447,13.447,0,0,0-.166-2.088A9.82,9.82,0,0,0,324.5,214.115Z" transform="translate(51.427 19.201)" fill="#90cc3a"/>
      <path id="Trazado_677967" data-name="Trazado 677967" d="M266.409,264.768c0,18.266,16,33.078,35.73,33.078s35.722-14.812,35.722-33.078-15.992-33.081-35.722-33.081S266.409,246.5,266.409,264.768Z" transform="translate(20.486 61.489)" fill="#90cc3a"/>
      <ellipse id="Elipse_5317" data-name="Elipse 5317" cx="36.603" cy="33.891" rx="36.603" ry="33.891" transform="translate(291.703 331.527)" fill="#90cc3a"/>
      <path id="Trazado_677968" data-name="Trazado 677968" d="M326.457,251.208c0-7.069-6.192-12.8-13.823-12.8a13.752,13.752,0,0,0-13.157,8.885,22.384,22.384,0,0,0-2.728-.173c-11.317,0-20.487,8.492-20.487,18.967a18.2,18.2,0,0,0,5.782,13.2,8.981,8.981,0,0,0-2.134,5.769c0,5.221,4.574,9.451,10.213,9.451s10.21-4.229,10.21-9.451c0-.1-.013-.194-.018-.293,9.614-1.565,16.918-9.328,16.918-18.677a17.82,17.82,0,0,0-.217-2.751A12.925,12.925,0,0,0,326.457,251.208Z" transform="translate(35.752 71.905)" opacity="0.2" style="mix-blend-mode: overlay;isolation: isolate"/>
      <path id="Trazado_677969" data-name="Trazado 677969" d="M330.262,257.581c0-7.067-6.19-12.8-13.82-12.8a13.759,13.759,0,0,0-13.16,8.885,22.387,22.387,0,0,0-2.728-.173c-11.312,0-20.489,8.492-20.489,18.967a18.21,18.21,0,0,0,5.787,13.2,8.961,8.961,0,0,0-2.134,5.767c0,5.224,4.574,9.456,10.213,9.456s10.21-4.232,10.21-9.456c0-.1-.013-.194-.018-.293,9.611-1.563,16.915-9.326,16.915-18.674a18.134,18.134,0,0,0-.214-2.751A12.929,12.929,0,0,0,330.262,257.581Z" transform="translate(41.644 81.784)" fill="#90cc3a"/>
      <g id="Grupo_936361" data-name="Grupo 936361" transform="translate(317.939 461.751)">
        <path id="Trazado_677970" data-name="Trazado 677970" d="M278.615,300.1s15.485,5.5,12.543,25.165h-4.645S290.85,311.788,278.615,300.1Z" transform="translate(-278.541 -294.261)" fill="#90cc3a"/>
        <path id="Trazado_677971" data-name="Trazado 677971" d="M295.449,297.811s-15.488,6.72-12.543,30.756h4.645A36.183,36.183,0,0,1,295.449,297.811Z" transform="translate(-272.469 -297.811)" fill="#8bbf30"/>
        <path id="Trazado_677972" data-name="Trazado 677972" d="M295.988,300.1s-15.488,5.5-12.543,25.165h4.645S283.754,311.788,295.988,300.1Z" transform="translate(-271.634 -294.261)" fill="#90cc3a"/>
        <path id="Trazado_677973" data-name="Trazado 677973" d="M278.586,303.264s9.252,2.417,9.863,16.4l-2.585.426A21.316,21.316,0,0,0,278.586,303.264Z" transform="translate(-278.586 -289.362)" fill="#8bbf30"/>
        <path id="Trazado_677974" data-name="Trazado 677974" d="M294.392,303.264s-9.249,2.417-9.869,16.4l2.585.426A21.331,21.331,0,0,1,294.392,303.264Z" transform="translate(-269.387 -289.362)" fill="#8bbf30"/>
      </g>
      <g id="Grupo_936362" data-name="Grupo 936362" transform="translate(385.263 462.705)">
        <path id="Trazado_677975" data-name="Trazado 677975" d="M305.023,300.476s15.487,5.5,12.543,25.165h-4.645S317.257,312.162,305.023,300.476Z" transform="translate(-304.949 -294.635)" fill="#90cc3a"/>
        <path id="Trazado_677976" data-name="Trazado 677976" d="M321.857,298.185s-15.485,6.72-12.543,30.756h4.645A36.184,36.184,0,0,1,321.857,298.185Z" transform="translate(-298.877 -298.185)" fill="#8bbf30"/>
        <path id="Trazado_677977" data-name="Trazado 677977" d="M322.4,300.476s-15.485,5.5-12.543,25.165H314.5S310.161,312.162,322.4,300.476Z" transform="translate(-298.042 -294.635)" fill="#90cc3a"/>
        <path id="Trazado_677978" data-name="Trazado 677978" d="M304.994,303.638s9.252,2.417,9.864,16.4l-2.582.426A21.323,21.323,0,0,0,304.994,303.638Z" transform="translate(-304.994 -289.736)" fill="#8bbf30"/>
        <path id="Trazado_677979" data-name="Trazado 677979" d="M320.8,303.638s-9.252,2.417-9.869,16.4l2.582.426A21.328,21.328,0,0,1,320.8,303.638Z" transform="translate(-295.794 -289.736)" fill="#8bbf30"/>
      </g>
      <g id="Grupo_936363" data-name="Grupo 936363" transform="translate(751.765 461.626)">
        <path id="Trazado_677980" data-name="Trazado 677980" d="M448.784,300.053s15.485,5.5,12.543,25.165h-4.645S461.019,311.739,448.784,300.053Z" transform="translate(-448.71 -294.212)" fill="#90cc3a"/>
        <path id="Trazado_677981" data-name="Trazado 677981" d="M465.618,297.762s-15.488,6.72-12.543,30.756h4.645A36.184,36.184,0,0,1,465.618,297.762Z" transform="translate(-442.638 -297.762)" fill="#8bbf30"/>
        <path id="Trazado_677982" data-name="Trazado 677982" d="M466.157,300.053s-15.488,5.5-12.543,25.165h4.645S453.923,311.739,466.157,300.053Z" transform="translate(-441.803 -294.212)" fill="#90cc3a"/>
        <path id="Trazado_677983" data-name="Trazado 677983" d="M448.755,303.215s9.252,2.417,9.864,16.4l-2.585.426A21.32,21.32,0,0,0,448.755,303.215Z" transform="translate(-448.755 -289.313)" fill="#8bbf30"/>
        <path id="Trazado_677984" data-name="Trazado 677984" d="M464.561,303.215s-9.249,2.417-9.869,16.4l2.585.426A21.335,21.335,0,0,1,464.561,303.215Z" transform="translate(-439.556 -289.313)" fill="#8bbf30"/>
      </g>
      <g id="Grupo_936366" data-name="Grupo 936366" transform="translate(711.793 465.056)">
        <g id="Grupo_936365" data-name="Grupo 936365">
          <g id="Grupo_936364" data-name="Grupo 936364">
            <rect id="Rectángulo_329572" data-name="Rectángulo 329572" width="22.068" height="1.706" fill="#27355c"/>
          </g>
        </g>
      </g>
      <g id="Grupo_936369" data-name="Grupo 936369" transform="translate(720.407 459.482)">
        <g id="Grupo_936368" data-name="Grupo 936368">
          <g id="Grupo_936367" data-name="Grupo 936367">
            <rect id="Rectángulo_329573" data-name="Rectángulo 329573" width="12.169" height="1.703" fill="#27355c"/>
          </g>
        </g>
      </g>
    </g>
  </g>
</svg>
