<svg xmlns="http://www.w3.org/2000/svg" width="295" height="142" viewBox="0 0 295 142">
  <g id="Grupo_946657" data-name="Grupo 946657" transform="translate(-1125 -398)">
    <rect id="Rectángulo_327585" data-name="Rectángulo 327585" width="295" height="104" transform="translate(1125 398)" fill="#9ebbe3"/>
    <g id="subasta" transform="translate(1232.95 427.78)">
      <path id="Trazado_666798" data-name="Trazado 666798" d="M398.13,383.2a10.806,10.806,0,0,1,.362,10.976,10.988,10.988,0,0,1-17.433,2.569q-.319-.319-.6-.658l-9.317-10.7,14.071-14.071,10.693,9.328A11.612,11.612,0,0,1,398.13,383.2Z" transform="translate(-289.792 -289.924)" fill="#91552c"/>
      <path id="Trazado_666799" data-name="Trazado 666799" d="M364.649,350.734l-14.071,14.071-5.771-6.632.039-.035,13.172-13.172.007-.007Z" transform="translate(-269.233 -269.35)" fill="#57555c"/>
      <path id="Trazado_666800" data-name="Trazado 666800" d="M209.521,30.524a6.575,6.575,0,0,1-9.3,9.3l-18.6-18.6a6.575,6.575,0,1,1,9.3-9.3Z" transform="translate(-140.314 -7.808)" fill="#91552c"/>
      <path id="Trazado_666801" data-name="Trazado 666801" d="M103.731,75.838l-7.708,7.708c-.015.013-.028.026-.042.039l-12.4,12.4c-.013.013-.026.026-.039.042l-7.708,7.708-1.55-1.55-18.6-18.6-1.55-1.55,27.9-27.9,1.55,1.55,18.6,18.6Z" transform="translate(-42.271 -42.273)" fill="#feb756"/>
      <g id="Grupo_152222" data-name="Grupo 152222" transform="translate(2.192 39.388)">
        <path id="Trazado_666802" data-name="Trazado 666802" d="M200.957,191.661l1.55-1.55a4.384,4.384,0,0,0-6.159-6.24l-12.48,12.48a4.384,4.384,0,0,0,6.24,6.159l1.55-1.55,26.513,30.46.039-.035,13.172-13.172.007-.007Z" transform="translate(-144.788 -181.987)" fill="#91552c"/>
        <path id="Trazado_666803" data-name="Trazado 666803" d="M66.984,460.751v2.192H10v-2.192a8.767,8.767,0,0,1,8.767-8.767H58.218A8.767,8.767,0,0,1,66.984,460.751Z" transform="translate(-10 -392.306)" fill="#91552c"/>
        <path id="Trazado_666804" data-name="Trazado 666804" d="M72.737,401.987a5.479,5.479,0,1,1,0,10.959H35.478a5.479,5.479,0,1,1,0-10.959Z" transform="translate(-25.616 -353.267)" fill="#91552c"/>
        <path id="Trazado_666805" data-name="Trazado 666805" d="M39.823,200.228a6.575,6.575,0,1,1-9.3,9.3l-18.6-18.6a6.575,6.575,0,0,1,9.3-9.3Z" transform="translate(-10 -179.705)" fill="#91552c"/>
      </g>
      <path id="Trazado_666806" data-name="Trazado 666806" d="M101.346,172.061a2.191,2.191,0,1,0,3.1,0A2.189,2.189,0,0,0,101.346,172.061Z" transform="translate(-78.631 -133.848)"/>
      <path id="Trazado_666807" data-name="Trazado 666807" d="M55.5,404.2a7.673,7.673,0,0,0-6.182-12.215H12.054A7.666,7.666,0,0,0,5.877,404.2,10.968,10.968,0,0,0,0,413.9V416.1a2.192,2.192,0,0,0,2.192,2.192H59.176a2.192,2.192,0,0,0,2.192-2.192V413.9A10.967,10.967,0,0,0,55.5,404.2Zm-45.767-6.87a3.266,3.266,0,0,1,2.325-.962H49.314a3.288,3.288,0,1,1,0,6.575H12.054a3.288,3.288,0,0,1-2.325-5.613ZM4.383,413.9a6.583,6.583,0,0,1,6.575-6.575H50.409a6.583,6.583,0,0,1,6.575,6.575Z" transform="translate(0 -306.071)"/>
      <path id="Trazado_666808" data-name="Trazado 666808" d="M110.2,92.083a13.8,13.8,0,0,0-2.64-3.032L97.315,80.119a2.176,2.176,0,0,0-.872-.76l-6.193-5.4L61.583,48.951a6.563,6.563,0,0,0-1.925-10.468l2.652-2.652a8.772,8.772,0,0,0,8.463-2.265,8.766,8.766,0,0,0,0-12.4l-18.6-18.6a8.764,8.764,0,0,0-14.664,8.464l-26.46,26.46a8.821,8.821,0,0,0-2.269-.3,8.766,8.766,0,0,0-6.2,14.965l18.6,18.6a8.764,8.764,0,0,0,14.665-8.464l2.647-2.647A6.577,6.577,0,0,0,48.964,61.57L79.5,96.65a2.2,2.2,0,0,0,.3.372c.039.039.081.075.122.11l9.1,10.454c.226.267.468.53.719.78A13.036,13.036,0,0,0,99,112.22a13.454,13.454,0,0,0,1.845-.128,13.263,13.263,0,0,0,9.785-6.774A12.969,12.969,0,0,0,110.2,92.083ZM78.589,88.929,88.912,78.605l3.311,2.888-10.75,10.75ZM52.074,58.466l6.406-6.406L85.6,75.717l-9.9,9.9Zm-9.2-52.8a4.382,4.382,0,0,1,6.2,0l18.6,18.6a4.383,4.383,0,0,1-6.2,6.2l-18.6-18.6h0A4.387,4.387,0,0,1,42.878,5.669Zm-12.4,61.99a4.389,4.389,0,0,1-6.2,0l-18.6-18.6a4.383,4.383,0,0,1,6.2-6.2l18.6,18.6A4.387,4.387,0,0,1,30.481,67.659Zm-15.5-27.9,24.8-24.8,18.6,18.6-6.14,6.14-.06.058L39.784,52.155c-.026.025-.05.052-.076.078L33.58,58.362ZM44.428,59a2.191,2.191,0,0,1-1.577-3.714L55.3,42.84a2.192,2.192,0,0,1,3.719,1.574,2.172,2.172,0,0,1-.643,1.549L56.843,47.5l-.031.031-9.276,9.276-.013.013-1.543,1.543A2.178,2.178,0,0,1,44.428,59ZM106.8,103.176a8.915,8.915,0,0,1-6.561,4.574,8.709,8.709,0,0,1-7.41-2.484c-.169-.168-.33-.344-.48-.522l-.021-.025-7.974-9.162L95.534,84.381l9.151,7.982.021.018a9.435,9.435,0,0,1,1.808,2.081A8.654,8.654,0,0,1,106.8,103.176Z" transform="translate(-0.016 0)"/>
      <path id="Trazado_666809" data-name="Trazado 666809" d="M142.026,101.349a2.192,2.192,0,0,0-3.1,0l-9.3,9.3a2.192,2.192,0,0,0,3.1,3.1l9.3-9.3A2.192,2.192,0,0,0,142.026,101.349Z" transform="translate(-100.714 -78.634)"/>
    </g>
  </g>
</svg>
