<svg xmlns="http://www.w3.org/2000/svg" width="70" height="85" viewBox="0 0 70 85">
  <g id="Grupo_946652" data-name="Grupo 946652" transform="translate(-608 -6853)">
    <rect id="Rectángulo_37872" data-name="Rectángulo 37872" width="70" height="85" rx="12" transform="translate(608 6853)" fill="#0f58b9"/>
    <g id="apreton-de-manos" transform="translate(616.001 6780.942)">
      <g id="Grupo_946490" data-name="Grupo 946490" transform="translate(0.79 98.848)">
        <g id="Grupo_946485" data-name="Grupo 946485" transform="translate(12.447 0.725)">
          <path id="Trazado_678159" data-name="Trazado 678159" d="M156.443,126.441l-1.371-11.136-2.569.316v0l-4.98-2.8a3,3,0,0,0-1.748-.373l-7.863.727a3,3,0,0,0-2.318,1.48l-5.542,9.539a1.318,1.318,0,0,0,.674,1.9l.227.086a4.917,4.917,0,0,0,1.332.3l-.7.612-1.4,1.224-4,3.409a1.707,1.707,0,0,0-.166,2.409l.405.464a2.194,2.194,0,0,0,3.1.211l1.527,1.752a2.19,2.19,0,0,0,3.095.211l1.526,1.752a2.2,2.2,0,0,0,3.1.213l.829.716a2.2,2.2,0,0,0,3.1.213l1.127-.983,9.475-7.379.01-.009,3.738,0Z" transform="translate(-125.598 -112.431)" fill="#f29f5c"/>
          <path id="Trazado_678160" data-name="Trazado 678160" d="M152.393,259.884l-.01.009-9.475,7.379-1.127.983a2.2,2.2,0,0,1-3.1-.213l-.829-.716a2.2,2.2,0,0,1-3.1-.213l-1.526-1.752a2.19,2.19,0,0,1-3.095-.211l-1.527-1.752a2.194,2.194,0,0,1-2.717.129,1.707,1.707,0,0,0,.135,2.064l.405.464a2.194,2.194,0,0,0,3.1.211l1.527,1.752a2.19,2.19,0,0,0,3.095.211l1.526,1.752a2.2,2.2,0,0,0,3.1.213l.829.716a2.2,2.2,0,0,0,3.1.213l1.127-.983,9.475-7.379.01-.009,3.738,0-.414-3.36Z" transform="translate(-125.608 -243.901)" fill="#d37d42"/>
        </g>
        <g id="Grupo_946486" data-name="Grupo 946486" transform="translate(7.296 1.165)">
          <path id="Trazado_678161" data-name="Trazado 678161" d="M110.388,136.969l-5.076-4.377-1.412-1.216-1.01-.87-4.343-3.744.5-4.27a2.947,2.947,0,0,0-2.141-3.184l-9.467-2.62a2.191,2.191,0,0,0-2.534,1.113l-1.191,2.324-5.111-.347L77.3,130.922l-.569,4.842,4.975.331.01.009L92.1,145.063l1.132.977a2.2,2.2,0,0,0,3.1-.23l1.516-1.759a2.2,2.2,0,0,0,3.1-.23l1.516-1.76a2.19,2.19,0,0,0,3.094-.229l1.517-1.76a2.194,2.194,0,0,0,3.094-.229l.4-.467A1.707,1.707,0,0,0,110.388,136.969Z" transform="translate(-76.727 -116.61)" fill="#f9c295"/>
          <path id="Trazado_678162" data-name="Trazado 678162" d="M244.708,298.464l-1.546-1.333a1.812,1.812,0,0,1-.075,2.273l-.428.5a2.329,2.329,0,0,1-3.284.243l-1.611,1.868a2.325,2.325,0,0,1-3.284.243l-1.609,1.869a2.33,2.33,0,0,1-3.286.244l-1.609,1.867a2.314,2.314,0,0,1-1.1.712l.685.591a2.2,2.2,0,0,0,3.1-.23l1.516-1.759a2.2,2.2,0,0,0,3.1-.23l1.516-1.76a2.19,2.19,0,0,0,3.094-.228l1.517-1.76a2.194,2.194,0,0,0,3.094-.228l.4-.467A1.707,1.707,0,0,0,244.708,298.464Z" transform="translate(-211.047 -278.105)" fill="#e59f6a"/>
        </g>
        <g id="Grupo_946488" data-name="Grupo 946488" transform="translate(11.529 19.86)">
          <g id="Grupo_946487" data-name="Grupo 946487">
            <path id="Trazado_678163" data-name="Trazado 678163" d="M117.888,294.767l-.6.8a1.967,1.967,0,0,0,.38,2.755h0a1.967,1.967,0,0,0,2.755-.38l.6-.8a1.967,1.967,0,0,0-.38-2.755h0A1.967,1.967,0,0,0,117.888,294.767Z" transform="translate(-116.887 -293.988)" fill="#f29f5c"/>
            <path id="Trazado_678164" data-name="Trazado 678164" d="M148.17,310.633l-1.134,1.5a1.967,1.967,0,0,0,.38,2.755h0a1.967,1.967,0,0,0,2.755-.38l1.134-1.5a1.967,1.967,0,0,0-.38-2.755h0A1.967,1.967,0,0,0,148.17,310.633Z" transform="translate(-143.501 -308.182)" fill="#f29f5c"/>
            <path id="Trazado_678165" data-name="Trazado 678165" d="M178.33,328.008l-1.545,2.041a1.967,1.967,0,0,0,.38,2.755h0a1.967,1.967,0,0,0,2.755-.38l1.545-2.041a1.967,1.967,0,0,0-.38-2.755h0A1.967,1.967,0,0,0,178.33,328.008Z" transform="translate(-170.115 -323.725)" fill="#f29f5c"/>
            <path id="Trazado_678166" data-name="Trazado 678166" d="M208.17,349.415l-1.635,2.159a1.967,1.967,0,0,0,.38,2.755h0a1.967,1.967,0,0,0,2.755-.38l1.635-2.159a1.967,1.967,0,0,0-.38-2.755h0A1.967,1.967,0,0,0,208.17,349.415Z" transform="translate(-196.729 -342.876)" fill="#f29f5c"/>
          </g>
        </g>
        <path id="Trazado_678167" data-name="Trazado 678167" d="M188.807,115.619l-4.98-2.8a3,3,0,0,0-1.748-.373l-7.863.727a3,3,0,0,0-2.318,1.48l-5.542,9.539a1.318,1.318,0,0,0,.674,1.9l.227.086a4.928,4.928,0,0,0,5.649-1.608l2.123-2.764s5.1,5.91,10.724-.992" transform="translate(-149.452 -111.707)" fill="#f29f5c"/>
        <path id="Trazado_678168" data-name="Trazado 678168" d="M412.442,105.557l2.6,21.159-6.091.75a2.1,2.1,0,0,1-2.341-1.828l-2.091-16.99a2.1,2.1,0,0,1,1.828-2.341Z" transform="translate(-362.664 -105.557)" fill="#fff"/>
        <path id="Trazado_678169" data-name="Trazado 678169" d="M424.3,275.694a2.3,2.3,0,0,1-2.527-1.776l.288,2.336a2.1,2.1,0,0,0,2.341,1.828l6.091-.75-.291-2.365Z" transform="translate(-378.112 -256.173)" fill="#bcbcbc"/>
        <path id="Trazado_678170" data-name="Trazado 678170" d="M10.106,105.557,7.5,126.716l6.091.75a2.1,2.1,0,0,0,2.341-1.828l2.092-16.99a2.1,2.1,0,0,0-1.828-2.341Z" transform="translate(-7.501 -105.557)" fill="#ed5575"/>
        <path id="Trazado_678171" data-name="Trazado 678171" d="M13.735,280.236,7.8,279.505l-.3,2.421,6.091.75a2.1,2.1,0,0,0,2.341-1.828l.221-1.795A2.467,2.467,0,0,1,13.735,280.236Z" transform="translate(-7.501 -260.768)" fill="#cc3a60"/>
        <g id="Grupo_946489" data-name="Grupo 946489" transform="translate(2.655 16.146)">
          <circle id="Elipse_5281" data-name="Elipse 5281" cx="1.528" cy="1.528" r="1.528" transform="translate(43.931)" fill="#ebeef2"/>
          <circle id="Elipse_5282" data-name="Elipse 5282" cx="1.528" cy="1.528" r="1.528" fill="#ebeef2"/>
        </g>
      </g>
      <g id="Grupo_946491" data-name="Grupo 946491" transform="translate(-0.001 98.057)">
        <path id="Trazado_678172" data-name="Trazado 678172" d="M26.992,124.237a2.75,2.75,0,0,0-2.171-.511,2.756,2.756,0,0,0-3.1-2.279,2.787,2.787,0,0,0-.525.125,2.753,2.753,0,0,0-3.7-1.772,2.758,2.758,0,0,0-4.54-1.1l-2.893-.192L11.843,104.1l3.178.216.054,0a.79.79,0,0,0,.7-.43l1.191-2.324a1.406,1.406,0,0,1,1.62-.711l1.769.489a.791.791,0,1,0,.421-1.524l-1.768-.489a2.993,2.993,0,0,0-3.448,1.513l-.954,1.861-2.572-.175.061-.495a2.894,2.894,0,0,0-2.516-3.222l-6.091-.749A.79.79,0,1,0,3.3,99.632l6.091.75a1.309,1.309,0,0,1,1.14,1.46l-2.092,16.99a1.312,1.312,0,0,1-1.46,1.14l-6.091-.75a.79.79,0,1,0-.193,1.569l6.091.75a2.887,2.887,0,0,0,2.885-1.476l2.165.144a2.758,2.758,0,0,0,2.446,4.018,2.812,2.812,0,0,0,.383-.026l.024,0c0,.008,0,.016,0,.025a2.755,2.755,0,0,0,2.728,2.379,2.782,2.782,0,0,0,.406-.031,2.751,2.751,0,0,0,2.73,2.405,2.78,2.78,0,0,0,.4-.031c0,.009,0,.018,0,.026a2.758,2.758,0,0,0,2.725,2.38,2.81,2.81,0,0,0,.383-.026,2.739,2.739,0,0,0,1.821-1.067l1.635-2.159A2.76,2.76,0,0,0,26.992,124.237Zm-12.545-1.6a1.176,1.176,0,0,1-1.1-1.875l.6-.8a1.176,1.176,0,0,1,1.875,1.42l-.6.8A1.169,1.169,0,0,1,14.446,122.635Zm2.265,2.147a1.176,1.176,0,0,1-.227-1.648l.6-.8h0l.532-.7a1.176,1.176,0,0,1,1.875,1.42l-1.134,1.5A1.177,1.177,0,0,1,16.711,124.782Zm3.136,2.375a1.176,1.176,0,0,1-.228-1.647h0l1.134-1.5h0l.411-.543a1.176,1.176,0,0,1,1.876,1.42l-1.546,2.041h0A1.177,1.177,0,0,1,19.846,127.157Zm6.418-.012L24.63,129.3a1.176,1.176,0,1,1-1.875-1.42l1.546-2.041h0l.089-.117a1.176,1.176,0,1,1,1.875,1.42Z" transform="translate(0.001 -98.057)"/>
        <path id="Trazado_678173" data-name="Trazado 678173" d="M195.911,119.91a.791.791,0,0,0-.881-.688l-6.091.75a1.311,1.311,0,0,1-1.46-1.14l-.062-.507h0l-.014-.117-2.015-16.366a1.309,1.309,0,0,1,1.14-1.46l6.091-.75a.79.79,0,0,0-.193-1.569l-6.091.75a2.894,2.894,0,0,0-2.536,2.944l-1.536.189-4.756-2.677A3.775,3.775,0,0,0,175.3,98.8h0l-1.432.132a.79.79,0,0,0,.146,1.574l1.436-.133a2.2,2.2,0,0,1,1.287.275l4.931,2.775a.791.791,0,0,0,.532.125l1.784-.22,1.309,10.629.452,3.676-2.845,0a.79.79,0,0,0-.516.192l-.22.171-7.144-6.157a9.589,9.589,0,0,0,4.644-3.391.791.791,0,1,0-1.226-1c-1.626,2-3.336,3.025-5.082,3.055a6.46,6.46,0,0,1-4.43-2.081.791.791,0,0,0-1.225.035l-2.123,2.764a4.113,4.113,0,0,1-4.743,1.35l-.227-.086a.528.528,0,0,1-.27-.759l5.542-9.539a2.214,2.214,0,0,1,1.707-1.09l3.281-.3a.79.79,0,0,0-.146-1.574l-3.281.3a3.8,3.8,0,0,0-2.929,1.87l-5.542,9.539a2.109,2.109,0,0,0,1.078,3.032l.227.086a5.759,5.759,0,0,0,2.037.374,5.686,5.686,0,0,0,4.518-2.24l1.584-2.062a7.807,7.807,0,0,0,4.455,1.948l10.323,8.9a.917.917,0,0,1,.1,1.293l-.4.467a1.407,1.407,0,0,1-1.98.145.789.789,0,0,0-.1-.074l-2.68-2.311a.79.79,0,1,0-1.032,1.2l2.178,1.878-.993,1.153a1.4,1.4,0,0,1-1.979.146l-.012-.009-2.49-2.147a.791.791,0,0,0-1.032,1.2l1.9,1.641-1,1.161a1.406,1.406,0,0,1-1.229.478.79.79,0,1,0-.185,1.57,2.985,2.985,0,0,0,2.612-1.017l1.068-1.241a2.983,2.983,0,0,0,3.541-.748l1.07-1.242a2.992,2.992,0,0,0,3.541-.746l.4-.467a2.5,2.5,0,0,0-.262-3.523l-.649-.559,2.372,0a2.888,2.888,0,0,0,3.192,2.328l6.091-.75A.791.791,0,0,0,195.911,119.91Z" transform="translate(-141.954 -98.058)"/>
        <path id="Trazado_678174" data-name="Trazado 678174" d="M444.323,251.249a2.319,2.319,0,1,0,2.319,2.319A2.321,2.321,0,0,0,444.323,251.249Zm0,3.056a.738.738,0,1,1,.738-.738A.739.739,0,0,1,444.323,254.305Z" transform="translate(-395.418 -235.103)"/>
        <path id="Trazado_678175" data-name="Trazado 678175" d="M29.83,253.568a2.319,2.319,0,1,0-2.319,2.319A2.321,2.321,0,0,0,29.83,253.568Zm-3.056,0a.738.738,0,1,1,.738.738A.738.738,0,0,1,26.774,253.568Z" transform="translate(-22.538 -235.103)"/>
      </g>
    </g>
  </g>
</svg>
