<svg xmlns="http://www.w3.org/2000/svg" xmlns:xlink="http://www.w3.org/1999/xlink" width="122" height="126.028" viewBox="0 0 122 126.028">
  <defs>
    <clipPath id="clip-path">
      <path id="path2241" d="M0-682.665H112.209v112.209H0Z" transform="translate(0 682.665)"/>
    </clipPath>
  </defs>
  <g id="Grupo_946847" data-name="Grupo 946847" transform="translate(8111 9609)">
    <circle id="Elipse_5273" data-name="Elipse 5273" cx="61" cy="61" r="61" transform="translate(-8111 -9609)" fill="#1b3f5e"/>
    <g id="g2235" transform="translate(-8105.104 -8912.516)">
      <g id="g2237" transform="translate(0 -682.665)">
        <g id="g2239" clip-path="url(#clip-path)">
          <g id="g2245" transform="translate(56.105 22.025)">
            <path id="path2247" d="M-260.159,0a3.287,3.287,0,0,1,3.287,3.287V69.254a8.766,8.766,0,0,1-8.766,8.766h-41.311a4.383,4.383,0,0,1-4.383-4.383V0Z" transform="translate(311.333)" fill="#ccad76"/>
          </g>
          <g id="g2249" transform="translate(95.224 22.025)">
            <path id="path2251" d="M-77.992-16.713V49.254a8.767,8.767,0,0,1-8.766,8.766h-6.575a8.767,8.767,0,0,0,8.766-8.766V-16.713A3.289,3.289,0,0,0-87.854-20h6.575a3.289,3.289,0,0,1,3.287,3.287" transform="translate(93.333 20)" fill="#b5884d"/>
          </g>
          <g id="g2253" transform="translate(1.644 22.025)">
            <path id="path2255" d="M-16.713,0A3.287,3.287,0,0,0-20,3.287V69.254a8.766,8.766,0,0,0,8.766,8.766H30.078a4.383,4.383,0,0,0,4.383-4.383V0Z" transform="translate(20)" fill="#ccad76"/>
          </g>
          <g id="g2257" transform="translate(8.218 15.451)">
            <path id="path2259" d="M-226.734-396.725h-41.311a3.287,3.287,0,0,1-3.287-3.287v-71.461a3.287,3.287,0,0,1,3.287-3.287h41.311a3.287,3.287,0,0,1,3.287,3.287v71.461a3.287,3.287,0,0,1-3.287,3.287" transform="translate(271.333 474.761)" fill="#f2f2f2"/>
          </g>
          <g id="g2261" transform="translate(56.105 15.45)">
            <path id="path2263" d="M-226.734-396.725h-41.311a3.287,3.287,0,0,1-3.287-3.287v-71.461a3.287,3.287,0,0,1,3.287-3.287h41.311a3.287,3.287,0,0,1,3.287,3.287v71.461a3.287,3.287,0,0,1-3.287,3.287" transform="translate(271.333 474.761)" fill="#fff"/>
          </g>
          <g id="g2265" transform="translate(94.129 15.45)">
            <path id="path2267" d="M0-396.723H6.575a3.287,3.287,0,0,0,3.287-3.287v-71.461a3.289,3.289,0,0,0-3.287-3.287H0a3.289,3.289,0,0,1,3.287,3.287v71.461A3.287,3.287,0,0,1,0-396.723" transform="translate(0 474.759)" fill="#e8e8e8"/>
          </g>
          <g id="g2269" transform="translate(18.081 12.163)">
            <path id="path2271" d="M-52.045-96.673l-3.49-3.046a1.1,1.1,0,0,0-1.441,0l-3.49,3.046a1.1,1.1,0,0,1-1.816-.826v-17.094a1.1,1.1,0,0,1,1.1-1.1h9.862a1.1,1.1,0,0,1,1.1,1.1V-97.5a1.1,1.1,0,0,1-1.816.826" transform="translate(62.283 115.689)" fill="#f7aa74"/>
          </g>
          <g id="g2273" transform="translate(70.713 37.542)">
            <path id="path2275" d="M-81.315-41.923l2.48-2.48a3.287,3.287,0,0,0,0-4.649h0a3.288,3.288,0,0,0-4.649,0l-2.479,2.48a2.192,2.192,0,0,1-3.1,0L-91.7-49.207a3.287,3.287,0,0,0-4.649,0h0a3.287,3.287,0,0,0,0,4.649l2.634,2.635a2.191,2.191,0,0,1,0,3.1l-2.634,2.635a3.287,3.287,0,0,0,0,4.649h0a3.287,3.287,0,0,0,4.649,0l2.635-2.635a2.192,2.192,0,0,1,3.1,0l2.479,2.48a3.288,3.288,0,0,0,4.649,0h0a3.287,3.287,0,0,0,0-4.649l-2.48-2.48a2.192,2.192,0,0,1,0-3.1" transform="translate(97.31 50.17)" fill="#f49595"/>
          </g>
          <g id="g2277" transform="translate(19.011 37.465)">
            <path id="path2279" d="M-28.53-37.984l3.564,3.564a1.1,1.1,0,0,0,1.55,0l10.073-10.073a3.288,3.288,0,0,1,4.649,0h0a3.287,3.287,0,0,1,0,4.649L-21.866-26.671a3.288,3.288,0,0,1-4.649,0l-6.664-6.664a3.287,3.287,0,0,1,0-4.649h0a3.287,3.287,0,0,1,4.649,0" transform="translate(34.142 45.455)" fill="#90d399"/>
          </g>
          <g id="g2281" transform="translate(56.105 86.896)">
            <path id="path2283" d="M-276.872,0V4.383a8.766,8.766,0,0,1-8.766,8.766h-41.311a4.383,4.383,0,0,1-4.383-4.383V2.411" transform="translate(331.333)" fill="none" stroke="#000" stroke-linecap="round" stroke-linejoin="round" stroke-miterlimit="10" stroke-width="3"/>
          </g>
          <g id="g2285" transform="translate(104.319 22.025)">
            <path id="path2287" d="M0,0H2.959A3.287,3.287,0,0,1,6.246,3.287V57.2" fill="none" stroke="#000" stroke-linecap="round" stroke-linejoin="round" stroke-miterlimit="10" stroke-width="3"/>
          </g>
          <g id="g2289" transform="translate(1.644 22.025)">
            <path id="path2291" d="M-31.754,0h-2.959A3.287,3.287,0,0,0-38,3.287V69.254a8.766,8.766,0,0,0,8.766,8.766H12.078a4.383,4.383,0,0,0,4.383-4.383V67.61" transform="translate(38)" fill="none" stroke="#000" stroke-linecap="round" stroke-linejoin="round" stroke-miterlimit="10" stroke-width="3"/>
          </g>
          <g id="g2293" transform="translate(8.218 15.451)">
            <path id="path2295" d="M-150.413,0H-135.4a3.287,3.287,0,0,1,3.287,3.287V74.749a3.287,3.287,0,0,1-3.287,3.287h-41.311A3.287,3.287,0,0,1-180,74.749V3.287A3.287,3.287,0,0,1-176.712,0h6.41" transform="translate(180)" fill="none" stroke="#000" stroke-linecap="round" stroke-linejoin="round" stroke-miterlimit="10" stroke-width="3"/>
          </g>
          <g id="g2297" transform="translate(56.105 15.451)">
            <path id="path2299" d="M0-16.713A3.287,3.287,0,0,1,3.287-20H44.6a3.287,3.287,0,0,1,3.287,3.287V54.749A3.287,3.287,0,0,1,44.6,58.036H3.287A3.287,3.287,0,0,1,0,54.749" transform="translate(0 20)" fill="none" stroke="#000" stroke-linecap="round" stroke-linejoin="round" stroke-miterlimit="10" stroke-width="3"/>
          </g>
          <g id="g2301" transform="translate(18.081 12.163)">
            <path id="path2303" d="M-52.045-96.673l-3.49-3.046a1.1,1.1,0,0,0-1.441,0l-3.49,3.046a1.1,1.1,0,0,1-1.816-.826v-17.094a1.1,1.1,0,0,1,1.1-1.1h9.862a1.1,1.1,0,0,1,1.1,1.1V-97.5A1.1,1.1,0,0,1-52.045-96.673Z" transform="translate(62.283 115.689)" fill="none" stroke="#000" stroke-linecap="round" stroke-linejoin="round" stroke-miterlimit="10" stroke-width="3"/>
          </g>
          <g id="g2305" transform="translate(70.713 37.542)">
            <path id="path2307" d="M-81.315-41.923l2.48-2.48a3.287,3.287,0,0,0,0-4.649h0a3.288,3.288,0,0,0-4.649,0l-2.479,2.48a2.192,2.192,0,0,1-3.1,0L-91.7-49.207a3.287,3.287,0,0,0-4.649,0h0a3.287,3.287,0,0,0,0,4.649l2.634,2.635a2.191,2.191,0,0,1,0,3.1l-2.634,2.635a3.287,3.287,0,0,0,0,4.649h0a3.287,3.287,0,0,0,4.649,0l2.635-2.635a2.192,2.192,0,0,1,3.1,0l2.479,2.48a3.288,3.288,0,0,0,4.649,0h0a3.287,3.287,0,0,0,0-4.649l-2.48-2.48A2.192,2.192,0,0,1-81.315-41.923Z" transform="translate(97.31 50.17)" fill="none" stroke="#000" stroke-linecap="round" stroke-linejoin="round" stroke-miterlimit="10" stroke-width="3"/>
          </g>
          <g id="g2309" transform="translate(19.011 37.465)">
            <path id="path2311" d="M-28.53-37.984l3.564,3.564a1.1,1.1,0,0,0,1.55,0l10.073-10.073a3.288,3.288,0,0,1,4.649,0h0a3.287,3.287,0,0,1,0,4.649L-21.866-26.671a3.288,3.288,0,0,1-4.649,0l-6.664-6.664a3.287,3.287,0,0,1,0-4.649h0A3.287,3.287,0,0,1-28.53-37.984Z" transform="translate(34.142 45.455)" fill="none" stroke="#000" stroke-linecap="round" stroke-linejoin="round" stroke-miterlimit="10" stroke-width="3"/>
          </g>
          <g id="g2313" transform="translate(53.694 24.655)">
            <path id="path2315" d="M0,0H5.041" fill="none" stroke="#000" stroke-linecap="round" stroke-linejoin="round" stroke-miterlimit="10" stroke-width="3"/>
          </g>
          <g id="g2317" transform="translate(53.475 36.49)">
            <path id="path2319" d="M0,0H5.041" fill="none" stroke="#000" stroke-linecap="round" stroke-linejoin="round" stroke-miterlimit="10" stroke-width="3"/>
          </g>
          <g id="g2321" transform="translate(53.475 48.544)">
            <path id="path2323" d="M0,0H5.041" fill="none" stroke="#000" stroke-linecap="round" stroke-linejoin="round" stroke-miterlimit="10" stroke-width="3"/>
          </g>
          <g id="g2325" transform="translate(53.475 60.597)">
            <path id="path2327" d="M0,0H5.041" fill="none" stroke="#000" stroke-linecap="round" stroke-linejoin="round" stroke-miterlimit="10" stroke-width="3"/>
          </g>
          <g id="g2329" transform="translate(53.475 72.651)">
            <path id="path2331" d="M0,0H5.041" fill="none" stroke="#000" stroke-linecap="round" stroke-linejoin="round" stroke-miterlimit="10" stroke-width="3"/>
          </g>
          <g id="g2333" transform="translate(53.475 84.705)">
            <path id="path2335" d="M0,0H5.041" fill="none" stroke="#000" stroke-linecap="round" stroke-linejoin="round" stroke-miterlimit="10" stroke-width="3"/>
          </g>
          <g id="g2337" transform="translate(21.258 66.076)">
            <path id="path2339" d="M0,0H21.916" fill="none" stroke="#000" stroke-linecap="round" stroke-linejoin="round" stroke-miterlimit="10" stroke-width="3"/>
          </g>
          <g id="g2341" transform="translate(25.642 72.651)">
            <path id="path2343" d="M0,0H13.15" fill="none" stroke="#000" stroke-linecap="round" stroke-linejoin="round" stroke-miterlimit="10" stroke-width="3"/>
          </g>
          <g id="g2345" transform="translate(69.473 66.076)">
            <path id="path2347" d="M0,0H21.916" fill="none" stroke="#000" stroke-linecap="round" stroke-linejoin="round" stroke-miterlimit="10" stroke-width="3"/>
          </g>
          <g id="g2349" transform="translate(73.856 72.651)">
            <path id="path2351" d="M0,0H13.15" fill="none" stroke="#000" stroke-linecap="round" stroke-linejoin="round" stroke-miterlimit="10" stroke-width="3"/>
          </g>
        </g>
      </g>
    </g>
  </g>
</svg>
