<svg xmlns="http://www.w3.org/2000/svg" width="122" height="122" viewBox="0 0 122 122">
  <g id="Grupo_946722" data-name="Grupo 946722" transform="translate(-390 -2336)">
    <circle id="Elipse_5270" data-name="Elipse 5270" cx="61" cy="61" r="61" transform="translate(390 2336)" fill="#1b3f5e"/>
    <g id="certificadoo" transform="translate(408.982 2352.434)">
      <g id="Grupo_946717" data-name="Grupo 946717" transform="translate(4.247 1.453)">
        <g id="Grupo_946711" data-name="Grupo 946711">
          <g id="Grupo_946710" data-name="Grupo 946710">
            <g id="Grupo_946709" data-name="Grupo 946709">
              <g id="Grupo_946708" data-name="Grupo 946708">
                <g id="Grupo_946707" data-name="Grupo 946707">
                  <path id="Trazado_678195" data-name="Trazado 678195" d="M31.011,7.5h49.3a5.736,5.736,0,0,1,5.736,5.736V98.058a5.736,5.736,0,0,1-5.736,5.736H16.029a5.736,5.736,0,0,1-5.736-5.736V28.217a5.736,5.736,0,0,1,1.68-4.056L26.955,9.179A5.735,5.735,0,0,1,31.011,7.5Z" transform="translate(-10.293 -7.499)" fill="#f4fbff"/>
                  <path id="Trazado_678196" data-name="Trazado 678196" d="M320.405,7.5H308.088a5.736,5.736,0,0,1,5.736,5.736V98.058a5.736,5.736,0,0,1-5.736,5.736h12.317a5.736,5.736,0,0,0,5.736-5.736V13.235A5.736,5.736,0,0,0,320.405,7.5Z" transform="translate(-250.39 -7.499)" fill="#e4f6ff"/>
                  <path id="Trazado_678197" data-name="Trazado 678197" d="M14.118,26.305,29.1,11.324a5.735,5.735,0,0,1,1.68-1.165v14.27a3.556,3.556,0,0,1-3.556,3.556H12.953a5.732,5.732,0,0,1,1.165-1.68Z" transform="translate(-12.438 -9.644)" fill="#e28086"/>
                </g>
              </g>
            </g>
          </g>
          <path id="Trazado_678198" data-name="Trazado 678198" d="M196.739,67.53H166.907a1.8,1.8,0,0,1-1.8-1.8V61.011a1.8,1.8,0,0,1,1.8-1.8h29.832a1.8,1.8,0,0,1,1.8,1.8v4.715a1.8,1.8,0,0,1-1.8,1.8Z" transform="translate(-135.108 -49.188)" fill="#cbe2ff"/>
        </g>
        <path id="Trazado_678199" data-name="Trazado 678199" d="M371.375,354.285,366.047,351a1.631,1.631,0,0,0-1.71,0l-5.329,3.28a1.631,1.631,0,0,1-2.486-1.389v-21.1h17.339v21.1A1.631,1.631,0,0,1,371.375,354.285Z" transform="translate(-289.439 -268.96)" fill="#e8ae4d"/>
        <g id="Grupo_946716" data-name="Grupo 946716" transform="translate(56.294 31.874)">
          <g id="Grupo_946715" data-name="Grupo 946715">
            <g id="Grupo_946714" data-name="Grupo 946714">
              <g id="Grupo_946713" data-name="Grupo 946713">
                <g id="Grupo_946712" data-name="Grupo 946712">
                  <path id="Trazado_678200" data-name="Trazado 678200" d="M323.742,173.7a4.357,4.357,0,0,0,4.666,1.516,4.357,4.357,0,0,1,5.575,4.051,4.357,4.357,0,0,0,2.884,3.969,4.357,4.357,0,0,1,2.13,6.554,4.357,4.357,0,0,0,0,4.906,4.357,4.357,0,0,1-2.13,6.554,4.357,4.357,0,0,0-2.884,3.969,4.357,4.357,0,0,1-5.575,4.051,4.357,4.357,0,0,0-4.666,1.516,4.357,4.357,0,0,1-6.891,0,4.357,4.357,0,0,0-4.666-1.516,4.357,4.357,0,0,1-5.575-4.051,4.357,4.357,0,0,0-2.884-3.969,4.357,4.357,0,0,1-2.13-6.554,4.357,4.357,0,0,0,0-4.906,4.357,4.357,0,0,1,2.13-6.554,4.357,4.357,0,0,0,2.884-3.969,4.357,4.357,0,0,1,5.575-4.051,4.357,4.357,0,0,0,4.666-1.516A4.357,4.357,0,0,1,323.742,173.7Z" transform="translate(-300.838 -172.007)" fill="#ffe07d"/>
                  <path id="Trazado_678201" data-name="Trazado 678201" d="M402.132,194.694a4.357,4.357,0,0,1,0-4.906,4.357,4.357,0,0,0-2.13-6.554,4.357,4.357,0,0,1-2.884-3.969,4.357,4.357,0,0,0-5.575-4.051,4.357,4.357,0,0,1-4.666-1.516,4.357,4.357,0,0,0-6.891,0,4.351,4.351,0,0,1-.841.826,19.466,19.466,0,0,1,0,35.434,4.348,4.348,0,0,1,.841.826,4.357,4.357,0,0,0,6.891,0,4.357,4.357,0,0,1,4.666-1.516,4.357,4.357,0,0,0,5.575-4.051A4.357,4.357,0,0,1,400,201.248,4.357,4.357,0,0,0,402.132,194.694Z" transform="translate(-363.973 -172.007)" fill="#ffd064"/>
                  <circle id="Elipse_5284" data-name="Elipse 5284" cx="10.725" cy="10.725" r="10.725" transform="translate(8.733 9.509)" fill="#e8ae4d"/>
                  <path id="Trazado_678202" data-name="Trazado 678202" d="M430.752,235.931a10.726,10.726,0,0,0-6.217-9.734,19.482,19.482,0,0,1,0,19.469A10.726,10.726,0,0,0,430.752,235.931Z" transform="translate(-400.568 -215.697)" fill="#e5a32e"/>
                </g>
              </g>
            </g>
          </g>
        </g>
      </g>
      <path id="Trazado_678203" data-name="Trazado 678203" d="M14.118,26.305,29.1,11.324a5.735,5.735,0,0,1,1.68-1.165v14.27a3.556,3.556,0,0,1-3.556,3.556H12.953a5.732,5.732,0,0,1,1.165-1.68Z" transform="translate(-8.191 -8.191)" fill="#e28086"/>
      <g id="Grupo_946718" data-name="Grupo 946718" transform="translate(2.794 0)">
        <path id="Trazado_678204" data-name="Trazado 678204" d="M97.94,181.506h-37.2a1.453,1.453,0,1,0,0,2.906h37.2a1.453,1.453,0,1,0,0-2.906Z" transform="translate(-48.344 -146.339)"/>
        <path id="Trazado_678205" data-name="Trazado 678205" d="M97.94,234.2h-37.2a1.453,1.453,0,0,0,0,2.906h37.2a1.453,1.453,0,1,0,0-2.906Z" transform="translate(-48.344 -188.825)"/>
        <path id="Trazado_678206" data-name="Trazado 678206" d="M97.94,286.9h-37.2a1.453,1.453,0,0,0,0,2.906h37.2a1.453,1.453,0,1,0,0-2.906Z" transform="translate(-48.344 -231.31)"/>
        <path id="Trazado_678207" data-name="Trazado 678207" d="M99.393,341.047a1.453,1.453,0,0,0-1.453-1.453h-37.2a1.453,1.453,0,1,0,0,2.906h37.2A1.453,1.453,0,0,0,99.393,341.047Z" transform="translate(-48.344 -273.797)"/>
        <path id="Trazado_678208" data-name="Trazado 678208" d="M60.743,416.821a1.453,1.453,0,1,0,0,2.906H79.389a1.453,1.453,0,1,0,0-2.906Z" transform="translate(-48.344 -336.061)"/>
        <path id="Trazado_678209" data-name="Trazado 678209" d="M193.95,59.679V54.964a3.261,3.261,0,0,0-3.257-3.257H160.861a3.261,3.261,0,0,0-3.257,3.257v4.715a3.261,3.261,0,0,0,3.257,3.257h2.519a1.453,1.453,0,0,0,0-2.906h-2.519a.352.352,0,0,1-.351-.351V54.964a.352.352,0,0,1,.351-.351h29.831a.352.352,0,0,1,.351.351v4.715a.352.352,0,0,1-.351.351H170.173a1.453,1.453,0,1,0,0,2.906h20.519A3.26,3.26,0,0,0,193.95,59.679Z" transform="translate(-127.609 -41.689)"/>
        <path id="Trazado_678210" data-name="Trazado 678210" d="M80,88.6a1.453,1.453,0,0,0-1.453,1.453v1.957a4.288,4.288,0,0,1-4.283,4.283H9.983A4.288,4.288,0,0,1,5.7,92.012V22.171a4.312,4.312,0,0,1,.1-.923h13.23a5.015,5.015,0,0,0,5.009-5.009V3.009a4.31,4.31,0,0,1,.923-.1h49.3a4.288,4.288,0,0,1,4.283,4.283V26.534a1.453,1.453,0,0,0,2.906,0V7.189A7.2,7.2,0,0,0,74.263,0h-49.3a7.143,7.143,0,0,0-5.084,2.106L4.9,17.087a7.142,7.142,0,0,0-2.106,5.084V92.012A7.2,7.2,0,0,0,9.983,99.2h64.28a7.2,7.2,0,0,0,7.189-7.189V90.055A1.453,1.453,0,0,0,80,88.6ZM21.136,4.961V16.238a2.106,2.106,0,0,1-2.1,2.1H7.755Z" transform="translate(-2.794 0)"/>
        <path id="Trazado_678211" data-name="Trazado 678211" d="M334.145,184.559a5.81,5.81,0,0,0-2.84-8.74,2.887,2.887,0,0,1-1.922-2.646,5.81,5.81,0,0,0-7.435-5.4,2.887,2.887,0,0,1-3.11-1.01,5.81,5.81,0,0,0-9.19,0,2.888,2.888,0,0,1-3.11,1.01,5.81,5.81,0,0,0-7.435,5.4,2.887,2.887,0,0,1-1.922,2.645,5.81,5.81,0,0,0-2.84,8.74,2.888,2.888,0,0,1,0,3.27,5.81,5.81,0,0,0,2.84,8.74,2.887,2.887,0,0,1,1.922,2.645,5.809,5.809,0,0,0,5.017,5.58v13.229a3.084,3.084,0,0,0,4.7,2.626l5.329-3.281a.152.152,0,0,1,.186,0l5.329,3.281a3.084,3.084,0,0,0,4.7-2.626V204.794a5.809,5.809,0,0,0,5.017-5.58,2.887,2.887,0,0,1,1.922-2.645,5.81,5.81,0,0,0,2.84-8.74A2.885,2.885,0,0,1,334.145,184.559Zm-12.956,33.616-5.329-3.281a3.084,3.084,0,0,0-3.233,0l-5.329,3.28a.177.177,0,0,1-.271-.152v-13.5a2.883,2.883,0,0,1,2.622,1.108,5.81,5.81,0,0,0,9.19,0,2.883,2.883,0,0,1,2.622-1.108v13.5A.177.177,0,0,1,321.189,218.175Zm10.554-28.709a2.9,2.9,0,0,1-1.419,4.368,5.776,5.776,0,0,0-3.845,5.293,2.864,2.864,0,0,1-1.046,2.145,2.893,2.893,0,0,1-2.67.555,5.778,5.778,0,0,0-6.223,2.022,2.9,2.9,0,0,1-4.593,0,5.773,5.773,0,0,0-4.577-2.258,5.867,5.867,0,0,0-1.645.237,2.892,2.892,0,0,1-2.671-.555,2.862,2.862,0,0,1-1.045-2.145,5.777,5.777,0,0,0-3.846-5.293,2.9,2.9,0,0,1-1.419-4.368,5.777,5.777,0,0,0,0-6.542,2.9,2.9,0,0,1,1.419-4.368,5.777,5.777,0,0,0,3.846-5.293,2.9,2.9,0,0,1,3.716-2.7,5.777,5.777,0,0,0,6.222-2.022,2.9,2.9,0,0,1,4.593,0,5.777,5.777,0,0,0,6.222,2.022,2.9,2.9,0,0,1,3.716,2.7,5.777,5.777,0,0,0,3.846,5.293,2.9,2.9,0,0,1,1.419,4.368A5.777,5.777,0,0,0,331.743,189.465Z" transform="translate(-237.038 -132.633)"/>
        <path id="Trazado_678212" data-name="Trazado 678212" d="M350.592,213.583a12.178,12.178,0,1,0,12.178,12.178A12.192,12.192,0,0,0,350.592,213.583Zm0,21.45a9.272,9.272,0,1,1,9.272-9.272A9.283,9.283,0,0,1,350.592,235.033Z" transform="translate(-273.387 -172.201)"/>
      </g>
    </g>
  </g>
</svg>
