<svg xmlns="http://www.w3.org/2000/svg" width="122" height="122" viewBox="0 0 122 122">
  <g id="Grupo_946749" data-name="Grupo 946749" transform="translate(7062 9609)">
    <circle id="Elipse_5276" data-name="Elipse 5276" cx="61" cy="61" r="61" transform="translate(-7062 -9609)" fill="#1b3f5e"/>
    <g id="asistencia-social" transform="translate(-7052.001 -9595.354)">
      <g id="Grupo_946736" data-name="Grupo 946736" transform="translate(2 33.275)">
        <path id="Trazado_678316" data-name="Trazado 678316" d="M29.173,210.918l-6.526-6.945a12.025,12.025,0,0,1-3.261-8.234V171.148a4.693,4.693,0,0,0-3.676-4.582h0A4.693,4.693,0,0,0,10,171.148v31a17.467,17.467,0,0,0,3.224,10.112l3.565,5.022,8.529,12.014,3.009,4.239H51.065L47.79,217.921a27.6,27.6,0,0,0-11.61-17.234l-6.993-4.7a5.011,5.011,0,0,0-6.547.836h0a5.393,5.393,0,0,0,.114,7.278c3.829,4.058,9.527,10.125,9.527,10.125" transform="translate(-10 -166.453)" fill="#ffcdac"/>
        <path id="Trazado_678317" data-name="Trazado 678317" d="M318.473,210.918,325,203.974a12.025,12.025,0,0,0,3.261-8.234V171.148a4.693,4.693,0,0,1,3.676-4.582h0a4.693,4.693,0,0,1,5.71,4.582v31a17.467,17.467,0,0,1-3.224,10.112l-3.565,5.022-8.529,12.014-3.009,4.239H296.581l3.275-15.611a27.6,27.6,0,0,1,11.61-17.234l6.993-4.7a5.011,5.011,0,0,1,6.547.836h0a5.393,5.393,0,0,1-.114,7.278c-3.829,4.058-9.527,10.125-9.527,10.125" transform="translate(-239.291 -166.453)" fill="#ffcdac"/>
      </g>
      <g id="Grupo_946737" data-name="Grupo 946737" transform="translate(20.669 35.906)">
        <path id="Trazado_678318" data-name="Trazado 678318" d="M280.137,186.063a7.377,7.377,0,0,1,3.6-2.061l5.1-1.223,0,0,0,0v-3.116h6.234v3.126h0L300.167,184a7.4,7.4,0,0,1,5.678,7.194v3.733H294.56Z" transform="translate(-244.804 -179.652)" fill="#7d9bff"/>
        <path id="Trazado_678319" data-name="Trazado 678319" d="M129.1,186.012a7.377,7.377,0,0,0-3.6-2.061l-5.1-1.223,0,0,0,0v-3.116h-6.234v3.126h0l-5.091,1.216a7.4,7.4,0,0,0-5.678,7.194v3.733h11.285Z" transform="translate(-103.39 -179.611)" fill="#7d9bff"/>
      </g>
      <path id="Trazado_678320" data-name="Trazado 678320" d="M174.234,211.07l-7.11,1.7a10.3,10.3,0,0,0-7.9,10.018v7.189h38.693V222.8a10.3,10.3,0,0,0-7.908-10.02l-7.091-1.694" transform="translate(-127.392 -168.875)" fill="#78d2fa"/>
      <path id="Trazado_678321" data-name="Trazado 678321" d="M243,189.357v4.354l-4.339,9.868-4.343-9.881v-4.341" transform="translate(-187.471 -151.503)" fill="#ffb487"/>
      <path id="Trazado_678322" data-name="Trazado 678322" d="M227.071,114.551v6.012a9.678,9.678,0,0,1-9.678,9.678h0a9.678,9.678,0,0,1-9.678-9.678v-6.012" transform="translate(-166.191 -91.651)" fill="#ffcdac"/>
      <path id="Trazado_678323" data-name="Trazado 678323" d="M217.394,64h0a9.678,9.678,0,0,0-9.678,9.678v2.33h4.732a10.632,10.632,0,0,0,8.149-3.8h0l6.474,3.8v-2.33A9.677,9.677,0,0,0,217.394,64Z" transform="translate(-166.191 -51.206)" fill="#bebebe"/>
      <path id="Trazado_678324" data-name="Trazado 678324" d="M152.011,98.232V96.559a6.948,6.948,0,0,0-6.948-6.948h0a6.948,6.948,0,0,0-6.948,6.948v1.673H142.9a16.565,16.565,0,0,0,8.515-2.356h0" transform="translate(-110.504 -71.697)" fill="#f5b955"/>
      <path id="Trazado_678325" data-name="Trazado 678325" d="M152.011,125.9v4.316a6.948,6.948,0,0,1-6.948,6.948h0a6.948,6.948,0,0,1-6.948-6.948V125.9" transform="translate(-110.504 -100.735)" fill="#ffcdac"/>
      <path id="Trazado_678326" data-name="Trazado 678326" d="M304.5,98.283V96.61a6.948,6.948,0,0,1,6.948-6.948h0A6.948,6.948,0,0,1,318.4,96.61v1.673h-4.789a16.565,16.565,0,0,1-8.515-2.356h0" transform="translate(-243.627 -71.738)" fill="#f5b955"/>
      <path id="Trazado_678327" data-name="Trazado 678327" d="M304.5,125.955v4.316a6.948,6.948,0,0,0,6.948,6.948h0a6.948,6.948,0,0,0,6.948-6.948v-4.316" transform="translate(-243.627 -100.776)" fill="#ffcdac"/>
      <path id="Trazado_678328" data-name="Trazado 678328" d="M80.253,471.634a2,2,0,1,0-3.26,2.314L80,478.187a2,2,0,1,0,3.26-2.315Z" transform="translate(-61.305 -376.676)"/>
      <path id="Trazado_678329" data-name="Trazado 678329" d="M41.746,209.508A29.44,29.44,0,0,0,29.3,191.026l-6.993-4.7a7.035,7.035,0,0,0-8.917.91V163.145a6.692,6.692,0,0,0-10.88-5.22,6.66,6.66,0,0,0-2.5,5.22v31a19.364,19.364,0,0,0,3.593,11.269l3.565,5.022a2,2,0,1,0,3.26-2.315L6.854,203.1A15.387,15.387,0,0,1,4,194.141v-31a2.694,2.694,0,1,1,5.388,0v24.592a13.968,13.968,0,0,0,3.6,9.378c.1.119.2.238.31.352,1.328,1.407,2.888,3.064,4.359,4.627l2.058,2.19.021.02,3.086,3.284a2,2,0,1,0,2.914-2.737c-.036-.039-2.377-2.531-5.049-5.371L16.1,194.6l-.034-.038a3.373,3.373,0,0,1,.065-4.421,3.022,3.022,0,0,1,3.935-.5l6.993,4.7a25.462,25.462,0,0,1,10.769,15.986l3.276,15.611a2,2,0,1,0,3.913-.821Z" transform="translate(0 -125.175)"/>
      <path id="Trazado_678330" data-name="Trazado 678330" d="M59.511,442.414a2,2,0,0,0-3.255,2.322l.013.018a2,2,0,0,0,3.255-2.322Z" transform="translate(-44.712 -353.301)"/>
      <path id="Trazado_678331" data-name="Trazado 678331" d="M329.139,157.928a6.692,6.692,0,0,0-10.88,5.22v24.088a7.035,7.035,0,0,0-8.917-.91l-6.993,4.7A29.439,29.439,0,0,0,289.9,209.51l-3.275,15.611a2,2,0,1,0,3.913.821l3.275-15.611a25.462,25.462,0,0,1,10.769-15.985l6.993-4.7a3.022,3.022,0,0,1,3.935.5,3.373,3.373,0,0,1,.069,4.416l-.038.042-9.633,10.25a2,2,0,1,0,2.914,2.737c.027-.029,8.2-8.714,9.523-10.121.108-.115.211-.233.31-.352a13.969,13.969,0,0,0,3.6-9.378V163.147a2.694,2.694,0,1,1,5.388,0v31a15.387,15.387,0,0,1-2.855,8.955l-15.1,21.276a2,2,0,1,0,3.26,2.315l15.1-21.276a19.364,19.364,0,0,0,3.593-11.269v-31A6.662,6.662,0,0,0,329.139,157.928Z" transform="translate(-229.289 -125.177)"/>
      <path id="Trazado_678332" data-name="Trazado 678332" d="M145.244,106.309a2,2,0,0,0,2-2V97.128c0-.248-.01-.493-.024-.738h9.212a2,2,0,0,0,2-2V90.658a9.365,9.365,0,0,0-7.212-9.138l-3.557-.85v-.638a8.941,8.941,0,0,0,3.827-7.331V68.078a8.94,8.94,0,0,0-14.752-6.8,11.672,11.672,0,0,0-21.633.016,8.94,8.94,0,0,0-14.771,6.784V72.7a8.941,8.941,0,0,0,3.827,7.331v.638l-3.557.85a9.365,9.365,0,0,0-7.212,9.138v3.733a2,2,0,0,0,2,2h9.186c-.014.242-.024.486-.024.732v7.188a2,2,0,0,0,2,2h12.016a2,2,0,0,0,0-4H116.5V98.18a2,2,0,0,0-4,0v4.132H108.55V97.122a8.277,8.277,0,0,1,6.368-8.074l5.486-1.315,3.671,8.353a2,2,0,0,0,1.83,1.195h0a2,2,0,0,0,1.83-1.194l3.668-8.34,5.469,1.306a8.276,8.276,0,0,1,6.374,8.076v5.183h-3.954V98.18a2,2,0,0,0-4,0v4.132h-2.266a2,2,0,1,0,0,4ZM119.562,82.056a9.38,9.38,0,0,0-1.6-.54l-3.571-.856v-.623a9.021,9.021,0,0,0,1.733-1.583,11.769,11.769,0,0,0,3.439,3.447ZM104.33,72.7v-.952h2.79a18.57,18.57,0,0,0,7.108-1.416V72.7a4.949,4.949,0,0,1-9.9,0Zm13.914-.584V70.005h2.733a12.6,12.6,0,0,0,8.495-3.282l4.123,2.422v3.263a7.678,7.678,0,0,1-15.35-.292Zm14,9.946v-.135a11.765,11.765,0,0,0,3.468-3.456,9.019,9.019,0,0,0,1.718,1.566v.623l-3.571.856A9.407,9.407,0,0,0,132.243,82.063Zm5.349-9.362v-.292c0-.1.007-.194.007-.292v-1.78a18.57,18.57,0,0,0,7.1,1.413h2.79V72.7a4.949,4.949,0,1,1-9.9,0Zm4.949-9.573a4.955,4.955,0,0,1,4.938,4.622H144.7a14.571,14.571,0,0,1-6.7-1.634A4.956,4.956,0,0,1,142.541,63.128Zm-24.3,2.548a7.679,7.679,0,0,1,15.26-1.22l-3.365-1.977a2,2,0,0,0-2.545.44,8.613,8.613,0,0,1-6.617,3.088h-2.733v-.331Zm-8.965-2.548a4.956,4.956,0,0,1,4.544,2.989,14.572,14.572,0,0,1-6.7,1.634h-2.779A4.955,4.955,0,0,1,109.279,63.128Zm4.707,22.031a12.26,12.26,0,0,0-8.5,7.232h-8.1V90.657a5.38,5.38,0,0,1,4.143-5.25l5.091-1.216a2,2,0,0,0,1.535-1.944v-.672a8.679,8.679,0,0,0,2.235,0v.57c0,.03,0,.06,0,.089a2,2,0,0,0,1.624,1.967l2.982.714Zm11.919,5.154L123.56,84.98V83.553a11.716,11.716,0,0,0,4.684.008v1.433ZM137.8,85.163l-1-.24,3-.718a2,2,0,0,0,1.633-1.969c0-.016,0-.031,0-.047v-.613a8.678,8.678,0,0,0,2.235,0v.672a2,2,0,0,0,1.535,1.944l5.091,1.216a5.38,5.38,0,0,1,4.143,5.25v1.734H146.3A12.257,12.257,0,0,0,137.8,85.163Z" transform="translate(-74.72 -43.205)"/>
      <path id="Trazado_678333" data-name="Trazado 678333" d="M248,295.67a2,2,0,1,0,1.413.584A2.008,2.008,0,0,0,248,295.67Z" transform="translate(-196.822 -236.563)"/>
      <path id="Trazado_678334" data-name="Trazado 678334" d="M247.993,6.989a2,2,0,0,0,2-2V2a2,2,0,1,0-4,0V4.99A2,2,0,0,0,247.993,6.989Z" transform="translate(-196.817)"/>
      <path id="Trazado_678335" data-name="Trazado 678335" d="M194.283,24.721a2,2,0,1,0,2.826-2.828l-2.1-2.1a2,2,0,1,0-2.826,2.828Z" transform="translate(-153.296 -15.372)"/>
      <path id="Trazado_678336" data-name="Trazado 678336" d="M291.745,25.551a1.992,1.992,0,0,0,1.414-.586l2.081-2.083a2,2,0,1,0-2.828-2.826l-2.081,2.083a2,2,0,0,0,1.414,3.412Z" transform="translate(-231.822 -15.577)"/>
    </g>
  </g>
</svg>
